<svg xmlns="http://www.w3.org/2000/svg" viewBox="0 0 873 206" width="873" height="206">
	<defs>
		<clipPath clipPathUnits="userSpaceOnUse" id="cp1">
			<path d="M-54 -193L946 -193L946 807L-54 807Z" />
		</clipPath>
	</defs>
	<style>
		tspan { white-space:pre }
		.shp0 { opacity: 0.4;fill: #868686 } 
		.shp1 { fill: #425473 } 
		.shp2 { fill: #94a4ff } 
		.shp3 { opacity: 0.302;fill: #425473 } 
		.shp4 { opacity: 0.502;fill: #425473 } 
		.shp5 { fill: #ffd4a1 } 
		.shp6 { fill: #e8eff9 } 
		.shp7 { fill: #868686 } 
		.shp8 { opacity: 0.502;fill: #eabb88 } 
		.shp9 { fill: #eabb88 } 
		.shp10 { fill: #5e4f45 } 
		.shp11 { fill: #3d3632 } 
		.shp12 { fill: #ffa08a } 
		.shp13 { fill: #91d8e2 } 
		.shp14 { fill: #efc597 } 
		.shp15 { fill: #a37e4e } 
		.shp16 { opacity: 0.502;fill: #d8a36f } 
		.shp17 { fill: #d8a36f } 
		.shp18 { fill: #ffffff } 
		.shp19 { opacity: 0.302;fill: #868686 } 
		.shp20 { fill: #c8cfe8 } 
		.shp21 { opacity: 0.302;fill: #a1bfa8 } 
		.shp22 { opacity: 0.302;fill: #c8cfe8 } 
		.shp23 { fill: #ffd9b0 } 
		.shp24 { opacity: 0.502;fill: #efbe8e } 
		.shp25 { fill: #efbe8e } 
		.shp26 { opacity: 0.102;fill: #e8eff9 } 
		.shp27 { fill: #ffdfb8 } 
		.shp28 { opacity: 0.502;fill: #f9ca9b } 
		.shp29 { fill: #f9ca9b } 
	</style>
	<g id="Page 1" clip-path="url(#cp1)">
		<g id="Folder 2">
			<path id="Path 2" class="shp0" d="M223.38 552.73C223.38 563.78 175.8 572.74 117.09 572.74C58.39 572.74 10.8 563.78 10.8 552.73C10.8 541.67 58.39 532.71 117.09 532.71C175.8 532.71 223.38 541.67 223.38 552.73Z" />
			<path id="Path 3" class="shp1" d="M91.39 525.64L91.39 532.81C91.39 532.81 61.74 543.65 58.42 549.24C55.09 554.84 112.09 542.42 112.09 537.44L112.09 525.64L91.39 525.64ZM156.82 525.64L156.82 532.81C156.82 532.81 186.48 543.65 189.8 549.24C193.12 554.84 136.13 542.42 136.13 537.44L136.13 525.64L156.82 525.64Z" />
			<path id="Path 4" class="shp2" d="M171 326.22C171 326.22 170.78 333.63 170.43 345.66C170.39 346.93 170.37 348.24 170.32 349.62C168.75 403.33 164.87 531 163.77 532.45C162.41 534.31 135.37 535.54 131.69 532.45C128.01 529.38 125.9 369.7 125.9 369.7L120.42 369.7C120.42 369.7 117.69 531.66 116.7 532.16C115.69 532.65 95.64 537.18 84.77 531.62C79.95 529.12 76.44 402.92 75.17 349.6C75.13 348 75.11 346.49 75.06 345.02C74.78 333.39 74.65 326.22 74.65 326.22L171 326.22Z" />
			<path id="Path 5" class="shp3" d="M171 326.22C171 326.22 170.78 333.63 170.43 345.66C170.39 346.93 170.37 348.24 170.32 349.62C158.62 353.37 141.84 357.05 121.04 357.05C100.2 357.05 85.12 353.35 75.17 349.6C75.13 348 75.11 346.49 75.06 345.02C74.78 333.39 74.65 326.22 74.65 326.22L171 326.22Z" />
			<path id="Path 6" class="shp4" d="M117.09 522.65C114.38 523.68 111.54 524.35 108.67 524.85C105.81 525.35 102.89 525.55 99.98 525.61C97.06 525.61 94.14 525.33 91.28 524.79C88.4 524.26 85.63 523.29 83.01 522.07C85.8 522.86 88.57 523.61 91.42 523.96C94.25 524.32 97.11 524.6 99.98 524.51C102.84 524.55 105.7 524.33 108.56 524.02C111.41 523.7 114.26 523.25 117.09 522.65ZM130.65 522.65C133.48 523.25 136.33 523.7 139.18 524.02C142.04 524.33 144.9 524.55 147.76 524.51C150.63 524.6 153.49 524.32 156.32 523.96C159.17 523.61 161.94 522.86 164.73 522.07C162.11 523.29 159.34 524.26 156.46 524.79C153.6 525.33 150.68 525.61 147.76 525.61C144.85 525.55 141.93 525.35 139.07 524.85C136.2 524.35 133.36 523.68 130.65 522.65Z" />
			<path id="Path 7" class="shp2" d="M175.18 334.44C173.89 339.27 149.59 347.4 123.13 347.4C93.46 347.4 72.37 339.27 71.06 334.44C69.77 329.62 84.46 186.63 87.04 181.07C89.65 175.49 118.02 167.16 123.13 167.16C128.24 167.16 156.61 175.49 159.19 181.07C161.79 186.63 176.47 329.62 175.18 334.44Z" />
			<path id="Path 8" class="shp5" d="M76.6 254.69L74.06 262.25C64.55 260.72 54.4 254.28 49.14 249.63C50.43 245.27 51.35 242.36 51.35 242.36C58.34 243.72 76.6 254.69 76.6 254.69Z" />
			<path id="Path 9" class="shp2" d="M98.99 174.1C98.99 174.1 94.85 260.87 80.32 262.47C78.31 262.69 76.2 262.61 74.06 262.26C64.55 260.72 54.4 254.28 49.14 249.63C47.06 247.79 45.74 246.24 45.5 245.38C44.52 241.83 71.95 188.93 77.1 184.42C82.27 179.9 98.99 174.1 98.99 174.1Z" />
			<path id="Path 10" class="shp3" d="M77.16 262.25C77.16 257.66 77.4 253.1 77.68 248.53C77.93 243.97 78.35 239.42 78.78 234.87C79.25 230.32 79.73 225.78 80.38 221.25L81.36 214.46C81.76 212.21 82.1 209.95 82.57 207.7C82.59 210 82.47 212.28 82.43 214.57L82.06 221.42C81.8 225.99 81.38 230.54 80.96 235.08C80.48 239.63 80 244.17 79.35 248.7C78.73 253.23 78.06 257.75 77.16 262.25ZM77.16 209.5C78.66 210.59 79.56 211.98 80.32 213.44C81.02 214.93 81.57 216.49 81.51 218.35C80.01 217.26 79.11 215.87 78.36 214.41C77.66 212.92 77.11 211.35 77.16 209.5Z" />
			<path id="Path 11" class="shp6" d="M107.69 217.23C115.05 249.01 113.53 256.68 110.8 260.23C107.92 263.96 103.41 265.9 103.22 265.98L102.33 263.87L102.77 264.92L102.33 263.87C102.37 263.85 106.48 262.08 108.98 258.83C110.96 256.26 112.74 249.22 105.46 217.74L107.69 217.23Z" />
			<path id="Path 12" class="shp1" d="M105.82 263.07L106.02 263.45C106.58 264.54 106.14 265.89 105.05 266.45L101.96 268.04C100.87 268.6 99.52 268.17 98.96 267.08L98.77 266.7C98.21 265.61 98.64 264.26 99.73 263.7L102.82 262.11C103.91 261.55 105.26 261.99 105.82 263.07Z" />
			<path id="Path 13" class="shp6" d="M87.08 217.39C80.11 240.97 78.2 253.93 81.09 258.19C83.4 261.6 87.39 263.6 87.43 263.62L86.41 265.67C86.23 265.58 81.84 263.38 79.19 259.48C75.75 254.41 77.4 242.03 84.88 216.74L87.08 217.39Z" />
			<path id="Path 14" class="shp1" d="M83.99 262.62L83.78 262.99C83.15 264.04 83.5 265.41 84.56 266.04L87.55 267.81C88.6 268.44 89.97 268.09 90.6 267.03L90.82 266.67C91.44 265.61 91.09 264.24 90.04 263.61L87.05 261.84C85.99 261.22 84.62 261.57 83.99 262.62Z" />
			<path id="Path 15" class="shp5" d="M200.59 287.56C197.19 290.76 176.2 293.72 135.77 277.68C135.85 277.66 135.92 277.64 136.01 277.62C136.01 277.62 122.29 267.82 107.3 265.26C107.3 265.26 100.68 265.45 92.46 265.89C90.34 266 88.13 266.15 85.87 266.31C86.5 265.96 94.68 259.21 109.8 258.05C138.69 255.83 165.79 264.44 173.81 265.34L169.64 254.69C169.64 254.69 187.88 243.72 194.89 242.36C194.89 242.36 207.95 280.64 200.59 287.56Z" />
			<path id="Path 16" class="shp2" d="M147.07 174.1C147.07 174.1 163.79 179.89 168.95 184.42C174.11 188.94 201.53 241.84 200.56 245.39C199.59 248.93 180.24 264.09 165.73 262.48C151.21 260.87 147.07 174.1 147.07 174.1Z" />
			<path id="Path 17" class="shp7" d="M96.91 180.74C97.95 169.53 115.95 167.68 124.44 167.56C135.25 167.4 144.34 169.52 147.86 180.48C151.33 191.3 151.94 203.44 152.12 214.76C152.15 216.87 155.44 216.88 155.4 214.76C155.2 201.71 156.08 177.14 144.27 168.59C132.58 160.14 95.38 161.74 93.62 180.74C93.43 182.84 96.72 182.83 96.91 180.74Z" />
			<path id="Path 18" class="shp5" d="M136.01 277.62C135.92 277.64 135.85 277.66 135.76 277.68C130.55 279.35 125.47 280.84 120.54 282.15C75.17 294.31 43.2 292.58 41.25 287.19C39.65 282.83 45.7 261.18 49.14 249.63C54.4 254.28 64.55 260.72 74.06 262.25L72.33 267.45C76.4 266.99 81.16 266.62 85.85 266.31L85.87 266.31C88.12 266.16 90.34 266 92.46 265.89C100.68 265.45 107.3 265.26 107.3 265.26C122.29 267.82 136.01 277.62 136.01 277.62Z" />
			<path id="Path 19" class="shp8" d="M136.01 277.62C130.7 279.3 125.53 280.82 120.54 282.15C107.32 277.24 104.65 267.97 84.77 266.38C92.99 265.94 107.3 265.26 107.3 265.26C122.29 267.82 136.01 277.62 136.01 277.62Z" />
			<path id="Path 20" class="shp1" d="M161.31 220.97C161.31 225.14 157.93 228.52 153.76 228.52C149.59 228.52 146.21 225.14 146.21 220.97C146.21 216.8 149.59 213.42 153.76 213.42C157.93 213.42 161.31 216.8 161.31 220.97Z" />
			<path id="Path 21" class="shp6" d="M158.3 220.97C158.3 223.48 156.27 225.52 153.76 225.52C151.25 225.52 149.21 223.48 149.21 220.97C149.21 218.46 151.25 216.43 153.76 216.43C156.27 216.43 158.3 218.46 158.3 220.97Z" />
			<path id="Path 22" class="shp4" d="M100.46 176.03C103.69 179.1 107.04 182.04 110.59 184.69C114.14 187.3 117.89 189.79 122.06 191.03L121.71 191.05C125.8 189.37 129.72 187.17 133.43 184.71C135.3 183.49 137.06 182.13 138.77 180.69C140.51 179.28 142.06 177.67 143.59 176.03C140.93 179.65 137.57 182.76 133.91 185.4C130.24 188.05 126.29 190.27 122.11 192.07L121.94 192.14L121.76 192.08C119.56 191.41 117.52 190.38 115.58 189.23C113.64 188.08 111.82 186.76 110.07 185.35C106.59 182.53 103.37 179.42 100.46 176.03Z" />
			<path id="Path 23" class="shp1" d="M84.13 215.72C84.88 212.46 87.02 204.35 88.68 200.3C90.05 196.98 93.44 194.81 93.44 194.81C93.9 194.78 93.82 190.77 93.68 187.5C93.56 184.61 93.36 181.24 94.08 180.33C94.77 179.46 96.52 179.45 97.23 180.27C97.99 181.14 97.93 184.51 97.94 187.41C97.95 190.69 98.06 194.69 98.51 194.7C98.51 194.7 101.78 196.87 103.25 200.04C104.88 203.58 107.73 212.98 108.24 215.72C108.87 219.13 107.75 219.51 106.77 219.82C105.39 220.24 104.55 219.28 103.58 215.51C102.05 209.53 100.2 199.49 96.08 199.4L96.08 199.39C91.97 199.68 90 210.2 88.5 216.05C87.57 219.71 86.78 220.04 85.37 219.68C84.39 219.42 83.38 218.97 84.13 215.72Z" />
			<path id="Path 24" class="shp3" d="M169.18 262.25C168.28 257.75 167.62 253.23 166.99 248.7C166.34 244.17 165.86 239.63 165.39 235.08C164.96 230.54 164.54 225.99 164.29 221.42L163.92 214.57C163.87 212.28 163.75 210 163.77 207.7C164.25 209.95 164.58 212.21 164.98 214.46L165.96 221.25C166.61 225.78 167.09 230.32 167.57 234.87C167.99 239.42 168.41 243.97 168.66 248.53C168.94 253.1 169.18 257.66 169.18 262.25ZM169.18 209.5C169.23 211.35 168.68 212.92 167.99 214.41C167.23 215.87 166.33 217.26 164.83 218.35C164.77 216.49 165.32 214.93 166.02 213.44C166.78 211.98 167.68 210.59 169.18 209.5Z" />
			<path id="Path 25" class="shp4" d="M168.24 254.18C169.67 253.93 171.05 253.53 172.4 253.03C173.76 252.58 175.07 252.01 176.37 251.42C178.97 250.21 181.47 248.82 183.86 247.24C186.32 245.76 188.58 244 190.88 242.27C193.15 240.51 195.33 238.63 197.55 236.77C196.59 237.85 195.59 238.89 194.6 239.96C193.54 240.95 192.5 241.95 191.41 242.92C189.21 244.8 186.9 246.59 184.45 248.16C181.97 249.69 179.42 251.12 176.7 252.19C173.99 253.23 171.16 254.1 168.24 254.18ZM78.45 254.18C75.54 254.1 72.7 253.23 69.99 252.19C67.27 251.12 64.72 249.69 62.24 248.16C59.79 246.59 57.49 244.8 55.28 242.92C54.19 241.95 53.15 240.95 52.09 239.96C51.1 238.89 50.1 237.85 49.14 236.77C51.36 238.63 53.54 240.51 55.81 242.27C58.11 244 60.37 245.76 62.83 247.24C65.22 248.82 67.73 250.21 70.32 251.42C71.62 252.01 72.94 252.58 74.29 253.03C75.64 253.53 77.02 253.93 78.45 254.18ZM70.98 329.55C75.12 331.19 79.38 332.52 83.67 333.68C85.81 334.29 87.98 334.77 90.14 335.33L96.67 336.68C105.4 338.32 114.28 339.23 123.15 339.3C127.6 339.48 132.02 339.14 136.46 338.92C138.67 338.71 140.87 338.4 143.07 338.14L146.38 337.72L149.64 337.08C151.82 336.64 154.02 336.27 156.18 335.76L162.59 333.95C163.66 333.64 164.75 333.41 165.8 333.03L168.93 331.87L175.2 329.55C167.03 333.08 158.63 336.34 149.81 337.91L146.53 338.62C145.42 338.81 144.31 338.92 143.2 339.08C140.98 339.35 138.77 339.69 136.55 339.92C132.08 340.17 127.62 340.55 123.14 340.39C114.2 340.23 105.26 339.33 96.5 337.51C87.76 335.68 79.15 333.13 70.98 329.55Z" />
			<path id="Path 26" class="shp5" d="M141.82 261.07C141.82 261.07 161.33 253.65 163.06 254.14C164.79 254.64 159.35 257.59 159.35 257.59C159.35 257.59 170.6 254.16 172.08 255.67C173.56 257.18 166.02 260.07 166.02 260.07C166.02 260.07 174.63 258.21 174.79 259.73C174.95 261.25 166.83 264.53 166.83 264.53L141.82 261.07ZM137.93 172.45C135 179.64 121.91 184.42 121.91 184.42C121.91 184.42 108.81 179.64 105.9 172.45C105.57 171.66 110.83 169.58 110.83 167.5C110.83 166.73 110.67 163.12 110.5 158.84C110.21 151.61 109.8 142.56 109.8 142.56L134.03 142.56C134.03 142.56 133.62 151.77 133.29 159.04C133.11 163.23 132.98 166.75 132.98 167.5C132.98 169.58 138.26 171.66 137.93 172.45Z" />
			<path id="Path 27" class="shp8" d="M134.03 142.56C134.03 142.56 133.62 151.77 133.29 159.04C123.93 162.33 115.74 160.75 110.5 158.84C110.21 151.61 109.8 142.56 109.8 142.56L134.03 142.56Z" />
			<path id="Path 28" class="shp5" d="M76.33 102.01C76.33 102.01 70.71 95.36 63.14 100.55C54.31 106.62 59.05 130.35 80.02 122.97L76.33 102.01Z" />
			<path id="Path 29" class="shp9" d="M66.7 118.29C67.46 116.95 68.65 115.77 70.18 115.12C70.93 114.77 71.78 114.62 72.63 114.62C73.49 114.59 74.31 114.83 75.11 115.09L74.08 115.9C73.5 113.3 72.5 110.58 70.67 108.79C69.73 107.93 68.54 107.43 67.21 107.39C66.55 107.3 65.88 107.46 65.19 107.54C64.5 107.68 63.85 107.95 63.14 108.12C64.32 107.33 65.63 106.55 67.18 106.41C68.69 106.2 70.39 106.66 71.62 107.67C72.87 108.67 73.7 110.01 74.33 111.37C74.93 112.76 75.37 114.16 75.57 115.68L75.74 117.01L74.53 116.48C73.28 115.93 71.88 115.7 70.51 116.08C69.14 116.43 67.81 117.22 66.7 118.29Z" />
			<path id="Path 30" class="shp5" d="M167.49 102.01C167.49 102.01 173.1 95.36 180.67 100.55C189.51 106.62 184.76 130.35 163.8 122.97L167.49 102.01Z" />
			<path id="Path 31" class="shp9" d="M177.11 118.29C176 117.22 174.68 116.43 173.31 116.08C171.94 115.7 170.54 115.93 169.28 116.48L168.07 117.01L168.25 115.68C168.45 114.16 168.88 112.76 169.48 111.37C170.12 110.01 170.95 108.67 172.2 107.67C173.42 106.66 175.13 106.2 176.64 106.41C178.18 106.55 179.5 107.33 180.68 108.12C179.97 107.95 179.31 107.68 178.63 107.54C177.94 107.46 177.27 107.3 176.6 107.39C175.28 107.43 174.08 107.93 173.14 108.79C171.32 110.58 170.31 113.3 169.74 115.9L168.7 115.09C169.5 114.83 170.33 114.59 171.19 114.62C172.03 114.62 172.88 114.77 173.64 115.12C175.16 115.77 176.35 116.95 177.11 118.29Z" />
			<path id="Path 32" class="shp5" d="M159.59 138.17C146.18 153.42 121.92 153.34 121.92 153.34C121.92 153.34 97.65 153.42 84.22 138.17C69.73 121.68 66.52 73.08 78.73 57.61C90.07 43.28 108.37 39.58 121.92 39.58C135.44 39.58 153.74 43.28 165.08 57.61C177.29 73.08 174.1 121.68 159.59 138.17Z" />
			<path id="Path 33" class="shp10" d="M71.2 105.05C75.66 118.17 82.46 67.96 82.46 67.96C82.46 67.96 87.24 73.34 100.43 74.68C130.87 77.77 158.3 61.75 158.3 61.75C158.3 61.75 166.62 107.23 171.29 107.23C175.96 107.23 178.83 67.31 173.83 57.02C169.01 47.1 158.3 46.97 158.3 46.97C158.3 46.97 117.77 12.09 82.52 35.45C69.47 44.1 74.82 58.8 74.82 58.8C74.82 58.8 59.02 69.21 71.2 105.05Z" />
			<path id="Path 34" class="shp11" d="M102.05 107.95C102.05 110.78 99.87 113.07 97.18 113.07C94.5 113.07 92.32 110.78 92.32 107.95C92.32 105.13 94.5 102.84 97.18 102.84C99.87 102.84 102.05 105.13 102.05 107.95Z" />
			<path id="Path 35" class="shp10" d="M89.02 99.3C89.02 99.3 92.86 92.64 101.53 96.46" />
			<path id="Path 36" class="shp11" d="M140.99 107.95C140.99 110.78 143.17 113.07 145.86 113.07C148.55 113.07 150.73 110.78 150.73 107.95C150.73 105.13 148.55 102.84 145.86 102.84C143.17 102.84 140.99 105.13 140.99 107.95Z" />
			<path id="Path 37" class="shp10" d="M154.02 99.3C154.02 99.3 150.18 92.64 141.51 96.46" />
			<path id="Path 38" class="shp9" d="M121.91 95.28C122.77 100.68 122.97 106.07 123.01 111.47L121.91 110.38C124.14 110.39 126.37 110.42 128.6 110.53L130.07 110.6L129.48 111.84C129.07 112.69 128.58 113.37 128.05 114.07C127.52 114.76 126.9 115.37 126.23 115.93C124.89 117.03 123.2 117.76 121.52 117.75C123.1 117.19 124.37 116.23 125.38 115.04C125.88 114.45 126.32 113.81 126.73 113.15C127.12 112.5 127.47 111.76 127.73 111.11L128.6 112.42C126.37 112.52 124.14 112.56 121.91 112.57L120.81 112.57L120.82 111.47C120.86 106.07 121.06 100.68 121.91 95.28Z" />
			<path id="Path 39" class="shp11" d="M131.65 131.75C129.86 133.8 126.68 135.49 121.91 135.49C117.17 135.49 114 133.8 112.18 131.75C110.26 129.57 109.87 127.04 110.8 125.76C112.59 123.3 119.12 124.88 121.91 124.88C124.71 124.88 131.27 123.3 133.03 125.76C133.96 127.04 133.6 129.6 131.65 131.75Z" />
			<path id="Path 40" class="shp12" d="M131.65 131.75C129.86 133.8 126.68 135.49 121.91 135.49C117.17 135.49 114 133.8 112.18 131.75C114.59 129.96 118.07 128.83 121.91 128.83C125.76 128.83 129.24 129.96 131.65 131.75Z" />
		</g>
		<g id="Folder 2">
			<path id="Path 41" class="shp0" d="M572.9 604.06C572.9 616.12 520.97 625.9 456.91 625.9C392.85 625.9 340.92 616.12 340.92 604.06C340.92 592 392.85 582.22 456.91 582.22C520.97 582.22 572.9 592 572.9 604.06Z" />
			<path id="Path 42" class="shp11" d="M419.69 576.85L419.69 584.91C419.69 584.91 386.35 597.1 382.61 603.39C378.88 609.68 442.95 595.72 442.95 590.12L442.95 576.85L419.69 576.85ZM493.24 576.85L493.24 584.91C493.24 584.91 526.58 597.1 530.31 603.39C534.04 609.68 469.97 595.72 469.97 590.12L469.97 576.85L493.24 576.85Z" />
			<path id="Path 43" class="shp13" d="M509.18 352.67C509.18 352.67 508.93 361 508.54 374.52C508.49 375.95 508.47 377.43 508.41 378.98C506.64 439.36 502.28 582.88 501.05 584.51C499.52 586.6 469.12 587.98 464.98 584.51C460.85 581.06 458.48 401.55 458.48 401.55L452.32 401.55C452.32 401.55 449.24 583.62 448.14 584.19C447 584.73 424.46 589.83 412.24 583.57C406.82 580.76 402.88 438.89 401.45 378.96C401.4 377.16 401.38 375.46 401.33 373.81C401.01 360.73 400.86 352.67 400.86 352.67L509.18 352.67Z" />
			<path id="Path 44" class="shp3" d="M509.18 352.67C509.18 352.67 508.93 361 508.54 374.52C508.49 375.95 508.47 377.43 508.41 378.98C495.26 383.2 476.39 387.33 453.01 387.33C429.58 387.33 412.64 383.17 401.45 378.96C401.4 377.16 401.38 375.46 401.33 373.81C401.01 360.73 400.86 352.67 400.86 352.67L509.18 352.67Z" />
			<path id="Path 45" class="shp4" d="M448.57 573.49C445.53 574.65 442.33 575.41 439.11 575.97C435.89 576.53 432.61 576.75 429.34 576.82C426.06 576.82 422.77 576.51 419.55 575.9C416.33 575.3 413.21 574.21 410.26 572.84C413.39 573.73 416.51 574.57 419.71 574.96C422.9 575.37 426.11 575.68 429.33 575.59C432.55 575.62 435.77 575.39 438.98 575.04C442.19 574.68 445.39 574.16 448.57 573.49ZM463.82 573.49C467 574.16 470.2 574.68 473.41 575.04C476.62 575.39 479.84 575.62 483.05 575.59C486.28 575.68 489.49 575.37 492.68 574.96C495.88 574.57 499 573.73 502.13 572.84C499.18 574.21 496.06 575.3 492.83 575.9C489.61 576.51 486.33 576.82 483.05 576.82C479.77 576.75 476.5 576.53 473.27 575.97C470.06 575.41 466.86 574.65 463.82 573.49Z" />
			<path id="Path 46" class="shp14" d="M534.09 265.47C534.09 265.47 539.87 341.94 529.37 374.08C529.37 374.08 519.14 377.29 513.89 374.08C513.89 374.08 507.21 289.76 509.18 273.73C511.15 257.71 534.09 265.47 534.09 265.47Z" />
			<path id="Path 47" class="shp13" d="M513.87 361.92C512.42 367.34 485.11 376.48 455.36 376.48C422.01 376.48 398.3 367.34 396.82 361.92C395.37 356.49 411.89 195.75 414.79 189.5C417.72 183.23 449.62 173.86 455.36 173.86C461.1 173.86 493 183.23 495.9 189.5C498.83 195.75 515.32 356.49 513.87 361.92Z" />
			<path id="Path 48" class="shp14" d="M403.05 272.27L400.19 280.77C389.5 279.04 378.1 271.8 372.18 266.58C373.64 261.67 374.67 258.4 374.67 258.4C382.53 259.92 403.05 272.27 403.05 272.27Z" />
			<path id="Path 49" class="shp13" d="M428.23 181.66C428.23 181.66 423.57 279.21 407.24 281.01C404.98 281.26 402.61 281.16 400.2 280.77C389.5 279.04 378.1 271.8 372.19 266.58C369.85 264.51 368.37 262.76 368.1 261.8C366.99 257.81 397.83 198.34 403.62 193.26C409.43 188.19 428.23 181.66 428.23 181.66Z" />
			<path id="Path 50" class="shp3" d="M403.69 280.77C403.69 275.6 403.96 270.47 404.27 265.34C404.55 260.21 405.03 255.09 405.5 249.98C406.04 244.87 406.58 239.76 407.3 234.68L408.4 227.04C408.86 224.51 409.23 221.96 409.77 219.44C409.79 222.02 409.66 224.59 409.61 227.16L409.19 234.86C408.91 239.99 408.43 245.11 407.95 250.22C407.42 255.33 406.88 260.44 406.15 265.53C405.44 270.62 404.7 275.71 403.69 280.77ZM403.69 221.46C405.38 222.69 406.39 224.25 407.24 225.89C408.02 227.56 408.64 229.32 408.58 231.41C406.89 230.18 405.88 228.62 405.03 226.98C404.25 225.3 403.63 223.54 403.69 221.46Z" />
			<path id="Path 51" class="shp6" d="M438 230.15C446.27 265.88 444.57 274.5 441.5 278.48C438.27 282.68 433.19 284.86 432.98 284.95L431.98 282.58L432.48 283.76L431.98 282.58C432.02 282.56 436.65 280.56 439.46 276.91C441.68 274.03 443.68 266.11 435.49 230.73L438 230.15Z" />
			<path id="Path 52" class="shp1" d="M435.78 281.44L436.25 282.36C436.81 283.45 436.38 284.8 435.29 285.36L431.32 287.4C430.23 287.96 428.88 287.53 428.32 286.44L427.85 285.52C427.29 284.43 427.72 283.08 428.81 282.52L432.78 280.48C433.87 279.92 435.22 280.35 435.78 281.44Z" />
			<path id="Path 53" class="shp6" d="M414.84 230.33C407 256.84 404.86 271.41 408.1 276.2C410.7 280.03 415.19 282.28 415.23 282.3L414.09 284.61C413.88 284.51 408.95 282.03 405.97 277.64C402.11 271.95 403.96 258.03 412.37 229.6L414.84 230.33Z" />
			<path id="Path 54" class="shp1" d="M411.51 280.94L410.98 281.83C410.36 282.88 410.71 284.25 411.76 284.88L415.6 287.15C416.65 287.78 418.03 287.43 418.65 286.37L419.18 285.49C419.8 284.43 419.45 283.06 418.4 282.44L414.56 280.16C413.51 279.53 412.13 279.88 411.51 280.94Z" />
			<path id="Path 55" class="shp13" d="M482.28 181.66C482.28 181.66 501.07 188.18 506.87 193.26C512.67 198.35 543.49 257.81 542.41 261.8C541.32 265.79 519.57 282.83 503.25 281.02C486.93 279.21 482.28 181.66 482.28 181.66Z" />
			<path id="Path 56" class="shp7" d="M425.89 189.13C427.05 176.53 447.29 174.45 456.84 174.31C468.98 174.14 479.21 176.51 483.16 188.83C487.06 201 487.75 214.65 487.95 227.37C487.98 229.75 491.68 229.76 491.64 227.37C491.41 212.71 492.4 185.08 479.13 175.48C465.99 165.97 424.17 167.77 422.19 189.13C421.97 191.49 425.67 191.48 425.89 189.13Z" />
			<path id="Path 57" class="shp1" d="M498.28 234.36C498.28 239.05 494.48 242.85 489.79 242.85C485.11 242.85 481.31 239.05 481.31 234.36C481.31 229.67 485.11 225.87 489.79 225.87C494.48 225.87 498.28 229.67 498.28 234.36Z" />
			<path id="Path 58" class="shp6" d="M494.9 234.36C494.9 237.18 492.61 239.47 489.79 239.47C486.97 239.47 484.68 237.18 484.68 234.36C484.68 231.54 486.97 229.25 489.79 229.25C492.61 229.25 494.9 231.54 494.9 234.36Z" />
			<path id="Path 59" class="shp4" d="M429.88 183.83C433.51 187.29 437.27 190.59 441.26 193.57C445.25 196.51 449.47 199.3 454.16 200.7L453.76 200.72C458.36 198.84 462.78 196.36 466.94 193.59C469.04 192.23 471.03 190.69 472.94 189.07C474.9 187.49 476.64 185.68 478.37 183.83C475.37 187.91 471.59 191.4 467.48 194.37C463.35 197.35 458.92 199.84 454.21 201.86L454.02 201.94L453.82 201.88C451.34 201.12 449.06 199.96 446.88 198.68C444.7 197.38 442.64 195.9 440.69 194.32C436.77 191.15 433.14 187.64 429.88 183.83Z" />
			<path id="Path 60" class="shp1" d="M411.52 228.46C412.36 224.79 414.77 215.67 416.64 211.12C418.17 207.39 421.99 204.95 421.99 204.95C422.5 204.92 422.41 200.41 422.26 196.73C422.12 193.48 421.89 189.7 422.7 188.67C423.48 187.69 425.45 187.68 426.24 188.6C427.1 189.58 427.03 193.37 427.05 196.63C427.06 200.31 427.18 204.82 427.69 204.83C427.69 204.83 431.36 207.27 433.01 210.83C434.85 214.81 438.05 225.38 438.63 228.46C439.34 232.28 438.07 232.72 436.97 233.06C435.42 233.54 434.47 232.46 433.39 228.22C431.67 221.5 429.59 210.21 424.95 210.11L424.95 210.1C420.33 210.43 418.11 222.25 416.43 228.82C415.39 232.94 414.5 233.31 412.92 232.91C411.81 232.62 410.68 232.11 411.52 228.46Z" />
			<path id="Path 61" class="shp3" d="M507.13 280.77C506.12 275.71 505.37 270.62 504.67 265.53C503.94 260.44 503.4 255.33 502.87 250.22C502.39 245.11 501.91 239.99 501.63 234.86L501.21 227.16C501.16 224.59 501.03 222.02 501.05 219.44C501.59 221.96 501.96 224.51 502.41 227.04L503.51 234.68C504.24 239.76 504.78 244.87 505.32 249.98C505.79 255.09 506.27 260.21 506.55 265.34C506.86 270.47 507.13 275.6 507.13 280.77ZM507.13 221.46C507.19 223.54 506.57 225.3 505.79 226.98C504.94 228.62 503.93 230.18 502.24 231.41C502.18 229.32 502.8 227.56 503.58 225.89C504.43 224.25 505.44 222.69 507.13 221.46Z" />
			<path id="Path 62" class="shp4" d="M506.08 271.69C507.68 271.4 509.23 270.96 510.75 270.4C512.27 269.89 513.75 269.25 515.22 268.58C518.13 267.22 520.95 265.66 523.63 263.89C526.39 262.23 528.94 260.24 531.52 258.3C534.07 256.32 536.52 254.21 539.02 252.12C537.95 253.34 536.82 254.5 535.71 255.7C534.52 256.81 533.34 257.94 532.12 259.03C529.64 261.15 527.05 263.15 524.3 264.92C521.51 266.64 518.64 268.25 515.59 269.45C512.54 270.62 509.35 271.6 506.08 271.69ZM405.13 271.69C401.86 271.6 398.67 270.62 395.62 269.45C392.57 268.25 389.7 266.64 386.91 264.92C384.16 263.15 381.57 261.15 379.09 259.03C377.87 257.94 376.69 256.81 375.5 255.7C374.39 254.5 373.26 253.34 372.19 252.12C374.68 254.21 377.13 256.32 379.69 258.3C382.27 260.24 384.81 262.23 387.58 263.89C390.26 265.66 393.08 267.22 395.99 268.58C397.46 269.25 398.94 269.89 400.46 270.4C401.98 270.96 403.53 271.4 405.13 271.69ZM396.73 356.41C401.39 358.25 406.18 359.76 411.01 361.05C413.41 361.74 415.85 362.29 418.27 362.91L425.61 364.44C435.44 366.27 445.41 367.3 455.39 367.37C460.38 367.58 465.36 367.19 470.35 366.95C472.83 366.71 475.3 366.36 477.78 366.07L481.5 365.6L485.17 364.88C487.61 364.38 490.08 363.97 492.51 363.4L499.73 361.37C500.93 361.02 502.15 360.75 503.33 360.33L506.85 359.03L513.89 356.41C504.72 360.39 495.28 364.04 485.35 365.81L481.67 366.62C480.43 366.82 479.17 366.95 477.93 367.13C475.44 367.44 472.94 367.81 470.44 368.07C465.43 368.35 460.41 368.78 455.37 368.6C445.32 368.42 435.27 367.41 425.43 365.36C415.6 363.31 405.92 360.44 396.73 356.41Z" />
			<path id="Path 63" class="shp15" d="M480.05 318.8L421.36 323.16C416.85 323.5 412.92 320.11 412.59 315.6L406.54 234.28C406.21 229.77 409.59 225.84 414.1 225.51L472.79 221.14C477.3 220.81 481.23 224.19 481.56 228.7L487.61 310.03C487.94 314.54 484.56 318.46 480.05 318.8Z" />
			<path id="Path 64" class="shp6" d="M458.6 228.01L429.77 230.12C427.91 230.25 426.29 228.86 426.16 227L425.86 222.95C425.73 221.09 427.12 219.48 428.98 219.34L457.81 217.23C459.67 217.09 461.28 218.49 461.42 220.35L461.72 224.39C461.85 226.25 460.46 227.87 458.6 228.01ZM452.69 212.05L453.1 217.58L448.72 217.9L448.53 215.36C448.44 214.02 447.27 213.01 445.93 213.11L440.14 213.54C438.8 213.63 437.8 214.8 437.89 216.14L438.08 218.68L433.7 219L433.3 213.47C433.15 211.52 434.6 209.84 436.55 209.69L448.92 208.79C450.85 208.65 452.55 210.1 452.69 212.05Z" />
			<path id="Path 65" class="shp14" d="M469.84 298.03C469.74 298.06 469.66 298.08 469.57 298.11C463.7 299.98 457.99 301.66 452.45 303.13C401.45 316.8 365.51 314.86 363.32 308.8C361.52 303.9 368.32 279.56 372.19 266.58C378.1 271.8 389.5 279.04 400.2 280.77L398.25 286.6C402.83 286.09 408.18 285.67 413.45 285.32L413.47 285.32C416.01 285.15 418.5 284.98 420.89 284.85C430.13 284.36 453.99 283.66 453.99 283.66C470.84 286.54 469.84 298.03 469.84 298.03ZM453.52 302.87C454.58 302.74 468.69 303.98 472.25 303.15C475.8 302.31 486.44 299.09 486.98 296.32C487.32 294.55 486.39 294.41 486.39 294.41C486.39 294.41 487.4 294.11 487.65 292.92C487.89 291.72 487.05 291.13 487.05 291.13C487.05 291.13 489.06 289.77 488.52 287.53C488.23 286.35 485.92 285.79 485.92 285.79C485.92 285.79 488 284.41 486.94 282.98C485.74 281.35 474.01 284.06 473.74 283.75C471.99 281.7 482.69 284.45 482.28 281.55C482.14 280.57 469.82 274.95 464.58 277.91C460.18 280.39 450.68 283.76 450.68 283.76L453.52 302.87ZM531.03 366.42C530.98 367.58 536.04 382.08 535.42 386C534.8 389.91 531.66 400.02 529.85 400.74C528.04 401.46 528 400.2 528 400.2C528 400.2 525.42 406.1 524.15 406.46C522.87 406.82 522.49 406.18 522.49 406.18C522.49 406.18 519.93 409.01 518.61 408.92C517.29 408.82 516.63 405.38 516.63 405.38C516.63 405.38 515.38 407.6 513.66 406.71C512.39 406.05 514.23 388.32 513.86 388.05C511.5 386.32 513.99 398.42 510.81 398.2C509.74 398.13 504.71 385.6 507.49 379.7C509.83 374.74 513.29 366.19 513.29 366.19L531.03 366.42ZM472.01 179.81C468.7 187.89 454 193.26 454 193.26C454 193.26 439.27 187.89 435.99 179.81C435.62 178.93 441.53 176.59 441.53 174.25C441.53 173.38 441.36 169.32 441.16 164.52C440.84 156.39 440.37 146.21 440.37 146.21L467.62 146.21C467.62 146.21 467.15 156.56 466.78 164.74C466.59 169.44 466.44 173.41 466.44 174.25C466.44 176.59 472.38 178.93 472.01 179.81Z" />
			<path id="Path 66" class="shp16" d="M467.62 146.21C467.62 146.21 467.15 156.56 466.78 164.74C456.26 168.43 447.05 166.66 441.16 164.52C440.84 156.39 440.37 146.21 440.37 146.21L467.62 146.21Z" />
			<path id="Path 67" class="shp14" d="M402.75 100.62C402.75 100.62 396.44 93.15 387.93 98.99C377.99 105.81 383.33 132.49 406.9 124.19L402.75 100.62Z" />
			<path id="Path 68" class="shp17" d="M391.93 118.92C392.78 117.42 394.12 116.09 395.83 115.36C396.68 114.97 397.64 114.8 398.59 114.8C399.56 114.76 400.49 115.04 401.38 115.33L400.22 116.23C399.57 113.31 398.44 110.25 396.39 108.25C395.34 107.28 393.99 106.72 392.5 106.67C391.76 106.58 391.01 106.75 390.22 106.84C389.46 107 388.72 107.3 387.92 107.49C389.25 106.61 390.73 105.73 392.46 105.58C394.16 105.34 396.08 105.85 397.46 106.99C398.86 108.11 399.79 109.62 400.51 111.15C401.18 112.71 401.67 114.28 401.89 115.99L402.09 117.49L400.73 116.89C399.32 116.27 397.75 116.02 396.21 116.44C394.67 116.83 393.18 117.72 391.93 118.92Z" />
			<path id="Path 69" class="shp14" d="M505.23 100.62C505.23 100.62 511.54 93.15 520.05 98.99C529.98 105.81 524.65 132.49 501.08 124.19L505.23 100.62Z" />
			<path id="Path 70" class="shp17" d="M516.05 118.92C514.8 117.72 513.31 116.83 511.77 116.44C510.23 116.02 508.66 116.27 507.25 116.89L505.89 117.49L506.08 115.99C506.31 114.28 506.79 112.71 507.47 111.15C508.18 109.62 509.12 108.11 510.52 106.99C511.9 105.85 513.81 105.34 515.51 105.58C517.25 105.73 518.73 106.61 520.06 107.49C519.26 107.3 518.52 107 517.75 106.84C516.97 106.75 516.22 106.58 515.47 106.67C513.98 106.72 512.64 107.28 511.59 108.25C509.53 110.25 508.4 113.31 507.75 116.23L506.59 115.33C507.49 115.04 508.42 114.76 509.38 114.8C510.34 114.8 511.29 114.97 512.14 115.36C513.86 116.09 515.19 117.42 516.05 118.92Z" />
			<path id="Path 71" class="shp14" d="M496.35 141.27C481.27 158.42 454 158.33 454 158.33C454 158.33 426.72 158.42 411.62 141.27C395.34 122.74 391.72 68.1 405.45 50.72C418.19 34.6 438.77 30.44 454 30.44C469.2 30.44 489.78 34.6 502.52 50.72C516.25 68.1 512.66 122.74 496.35 141.27Z" />
			<path id="Path 72" class="shp11" d="M431.67 107.3C431.67 110.48 429.22 113.05 426.2 113.05C423.17 113.05 420.72 110.48 420.72 107.3C420.72 104.13 423.17 101.55 426.2 101.55C429.22 101.55 431.67 104.13 431.67 107.3ZM417.02 97.58C417.02 97.58 421.34 90.09 431.08 94.38M475.44 107.3C475.44 110.48 477.89 113.05 480.91 113.05C483.94 113.05 486.39 110.48 486.39 107.3C486.39 104.13 483.94 101.55 480.91 101.55C477.89 101.55 475.44 104.13 475.44 107.3ZM490.09 97.58C490.09 97.58 485.77 90.09 476.03 94.38" />
			<path id="Path 73" class="shp17" d="M455.67 93.05C454.71 99.12 454.49 105.19 454.45 111.26L455.67 110.04C453.17 110.05 450.66 110.08 448.15 110.2L446.51 110.28L447.17 111.67C447.63 112.63 448.18 113.39 448.78 114.18C449.38 114.95 450.07 115.65 450.82 116.27C452.33 117.51 454.23 118.33 456.12 118.32C454.34 117.69 452.92 116.6 451.78 115.28C451.21 114.61 450.72 113.89 450.27 113.15C449.82 112.42 449.43 111.58 449.13 110.86L448.15 112.33C450.66 112.44 453.17 112.48 455.67 112.49L456.91 112.5L456.9 111.26C456.86 105.19 456.63 99.12 455.67 93.05Z" />
			<path id="Path 74" class="shp18" d="M464.93 134.05C462.93 136.37 459.36 138.26 453.99 138.26C448.67 138.26 445.1 136.37 443.05 134.05C440.89 131.62 440.46 128.75 441.51 127.32C443.51 124.54 450.85 126.34 453.99 126.34C457.13 126.34 464.5 124.54 466.5 127.32C467.53 128.75 467.14 131.64 464.93 134.05Z" />
			<path id="Path 75" class="shp11" d="M396.98 101.56C398.88 107 406.58 80.77 406.9 74.7L408.54 86.57C408.54 86.57 436.09 82.35 464.94 56.22L464.94 67.04C464.94 67.04 483.23 67.57 496.7 54.64C496.7 54.64 504.61 101.23 510.15 101.56C515.7 101.88 522.3 50.59 502.24 44.87C502.24 44.87 491.64 13.3 438.83 22.93C389.76 31.88 388.6 77.47 396.98 101.56Z" />
			<path id="Path 76" class="shp19" d="M441.12 130.46C445.34 131.37 449.63 131.75 453.93 131.73C458.23 131.77 462.52 131.33 466.8 130.8C462.59 131.75 458.26 132.21 453.93 132.23C449.61 132.19 445.24 131.77 441.12 130.46Z" />
		</g>
		<g id="Folder 2">
			<path id="Path 77" class="shp0" d="M416.43 665.57C416.43 679.91 354.67 691.54 278.48 691.54C202.29 691.54 140.52 679.91 140.52 665.57C140.52 651.22 202.29 639.59 278.48 639.59C354.67 639.59 416.43 651.22 416.43 665.57Z" />
			<path id="Path 78" class="shp10" d="M237.64 634.4L237.64 643.33C237.64 643.33 200.7 656.83 196.56 663.8C192.43 670.77 263.42 655.31 263.42 649.1L263.42 634.4L237.64 634.4ZM320.79 634.4L320.79 643.33C320.79 643.33 357.73 656.83 361.87 663.8C366.01 670.77 295.01 655.31 295.01 649.1L295.01 634.4L320.79 634.4Z" />
			<path id="Path 79" class="shp1" d="M342.36 371.84C342.36 371.84 342.07 381.57 341.61 397.37C341.55 399.04 341.52 400.77 341.47 402.58C339.39 473.13 334.3 640.81 332.86 642.71C331.08 645.15 295.56 646.76 290.72 642.71C285.89 638.68 283.13 428.95 283.13 428.95L275.93 428.95C275.93 428.95 272.33 641.67 271.04 642.33C269.71 642.97 243.38 648.92 229.1 641.61C222.77 638.33 218.17 472.58 216.5 402.55C216.44 400.45 216.41 398.47 216.35 396.54C215.98 381.26 215.81 371.84 215.81 371.84L342.36 371.84Z" />
			<path id="Path 80" class="shp6" d="M365.85 453.39C365.45 458.1 311.5 473.49 285.86 473.49C283.1 473.49 279.57 453.13 279.57 453.13C279.57 453.13 276.05 473.49 273.29 473.49C247.65 473.49 193.69 458.1 193.3 453.39C192.91 448.66 217.12 215.17 217.82 207.83C218.52 200.49 249.68 176.67 249.68 176.67L279.57 179.8L309.49 176.67C309.49 176.67 340.63 200.49 341.33 207.83C342.03 215.17 366.24 448.66 365.85 453.39Z" />
			<path id="Path 81" class="shp13" d="M297.8 176.38L279.83 283.96L266.83 206.21L266.81 206.18L261.84 176.38L297.8 176.38Z" />
			<path id="Path 82" class="shp20" d="M279.08 272.98L279.08 329.27C278.29 299.98 255.19 242.49 240.62 223.41C237.34 219.1 249.67 203.31 249.67 203.31C249.67 203.31 233.3 202.39 231.42 199.81C231.07 199.33 231.49 198.25 232.36 196.81C236.26 190.36 249.67 176.67 249.67 176.67L259.25 184.25C272.27 208.66 277.33 243.55 279.08 272.98ZM280.43 272.98L280.43 329.27C281.22 299.98 304.33 242.49 318.89 223.41C322.18 219.1 309.84 203.31 309.84 203.31C309.84 203.31 326.21 202.39 328.1 199.81C328.45 199.33 328.03 198.25 327.15 196.81C323.25 190.36 309.84 176.67 309.84 176.67L300.27 184.25C287.25 208.66 282.19 243.55 280.43 272.98ZM279.57 453.13C279.12 442.46 278.91 431.79 278.74 421.12C278.55 410.45 278.57 399.77 278.48 389.1C278.57 378.43 278.56 367.76 278.73 357.09L279.04 341.08C279.22 335.75 279.32 330.41 279.57 325.08C279.82 330.41 279.93 335.75 280.11 341.08L280.42 357.09C280.59 367.76 280.58 378.43 280.67 389.1C280.58 399.77 280.59 410.45 280.41 421.12C280.24 431.79 280.03 442.46 279.57 453.13Z" />
			<path id="Path 83" class="shp6" d="M231.3 191.91C231.3 191.91 200.36 219.53 198.93 230.17C197.5 240.81 172.36 345.22 172.34 352.04C172.28 370.67 207.02 416.61 207.02 416.61C207.02 416.61 223.19 403.53 228 386.94C228 386.94 205.3 350.18 205.4 341.78C205.43 339.07 231.3 191.91 231.3 191.91ZM328.2 191.91C328.2 191.91 359.14 219.53 360.57 230.17C361.99 240.81 387.13 345.22 387.16 352.04C387.22 370.67 352.47 416.61 352.47 416.61C352.47 416.61 336.31 403.53 331.5 386.94C331.5 386.94 354.19 350.18 354.1 341.78C354.07 339.07 328.2 191.91 328.2 191.91Z" />
			<path id="Path 84" class="shp20" d="M229.41 378.97C229.6 383.33 228.7 387.72 227.22 391.85C225.76 396.01 223.65 399.93 221.12 403.53C216 410.71 209.16 416.57 201.47 420.61C208.2 415.12 214.43 409.23 219.33 402.27C221.8 398.82 223.9 395.11 225.64 391.22C227.32 387.33 228.75 383.26 229.41 378.97ZM329.74 378.97C330.41 383.26 331.84 387.32 333.53 391.22C335.26 395.1 337.38 398.79 339.81 402.27C341.1 403.95 342.3 405.71 343.75 407.27C344.45 408.07 345.1 408.93 345.84 409.69L348.07 411.98C349.52 413.56 351.2 414.9 352.74 416.41C354.34 417.85 356.06 419.14 357.68 420.61C355.79 419.55 353.92 418.43 352.08 417.25C350.36 415.93 348.5 414.74 346.91 413.23C343.55 410.41 340.65 407.06 338.02 403.54C335.53 399.9 333.41 396 331.94 391.84C330.47 387.71 329.56 383.33 329.74 378.97Z" />
			<path id="Path 85" class="shp21" d="M297.8 176.38L292.82 206.18L292.8 206.21C292.8 206.21 283.18 199.46 279.83 190.32C276.45 199.46 266.83 206.21 266.83 206.21L266.81 206.18L261.84 176.38L297.8 176.38Z" />
			<path id="Path 86" class="shp1" d="M289.42 226.58L279.85 283.96L279.83 268.97L279.83 283.96L270.24 226.66L276.21 193.83L279.83 193.83L279.85 193.83L283.44 193.83L289.42 226.58Z" />
			<path id="Path 87" class="shp6" d="M279.08 329.28C279.08 289.17 259.71 240.46 244.04 220.65C244 220.61 243.98 220.56 243.95 220.5C243.49 219.53 244.39 216.99 245.79 213.99C248.73 207.79 253.86 199.66 253.86 199.66C253.86 199.66 237.97 199.02 232.36 196.81C231.24 196.37 230.52 195.89 230.41 195.32C229.73 191.9 249.92 172.29 250.77 172.24C251.25 172.22 251.82 172.7 251.82 172.7C254.54 176.19 257.01 180.07 259.25 184.25C272.27 208.66 277.33 243.55 279.08 272.98C280.94 304.18 279.08 329.28 279.08 329.28ZM307.67 172.71C307.67 172.71 308.24 172.21 308.71 172.24C309.58 172.29 329.75 191.89 329.07 195.31C328.38 198.73 305.63 199.65 305.63 199.65C305.63 199.65 317.34 218.25 315.44 220.65C299.76 240.45 280.4 289.16 280.4 329.27C280.4 329.27 272.19 218.08 307.67 172.71Z" />
			<path id="Path 88" class="shp7" d="M263.72 221.28C271.72 255.85 270.07 264.18 267.1 268.04C263.97 272.1 259.07 274.21 258.86 274.3L257.89 272L258.37 273.15L257.89 272C257.93 271.98 262.41 270.05 265.13 266.52C267.28 263.73 269.21 256.07 261.29 221.84L263.72 221.28Z" />
			<path id="Path 89" class="shp1" d="M261.6 270.97L261.99 271.72C262.55 272.81 262.12 274.16 261.03 274.72L257.32 276.63C256.23 277.19 254.88 276.76 254.32 275.67L253.93 274.91C253.37 273.82 253.8 272.47 254.89 271.91L258.6 270C259.69 269.44 261.04 269.88 261.6 270.97Z" />
			<path id="Path 90" class="shp7" d="M241.31 221.46C233.73 247.1 231.66 261.2 234.79 265.83C237.31 269.53 241.65 271.71 241.69 271.73L240.59 273.96C240.38 273.87 235.61 271.47 232.73 267.23C228.99 261.72 230.79 248.25 238.92 220.75L241.31 221.46Z" />
			<path id="Path 91" class="shp1" d="M238.05 270.48L237.62 271.21C236.99 272.27 237.34 273.64 238.4 274.26L241.98 276.39C243.04 277.02 244.41 276.66 245.04 275.61L245.47 274.88C246.1 273.82 245.75 272.45 244.69 271.83L241.1 269.7C240.05 269.07 238.68 269.42 238.05 270.48Z" />
			<path id="Path 92" class="shp7" d="M252 181.6C253.13 169.41 272.71 167.4 281.94 167.27C293.69 167.1 303.58 169.4 307.4 181.32C311.17 193.09 311.84 206.29 312.03 218.6C312.07 220.9 315.64 220.9 315.61 218.6C315.38 204.41 316.34 177.69 303.5 168.4C290.79 159.2 250.33 160.95 248.42 181.6C248.21 183.89 251.79 183.88 252 181.6Z" />
			<path id="Path 93" class="shp1" d="M322.03 225.36C322.03 229.89 318.35 233.57 313.82 233.57C309.28 233.57 305.61 229.89 305.61 225.36C305.61 220.82 309.28 217.15 313.82 217.15C318.35 217.15 322.03 220.82 322.03 225.36Z" />
			<path id="Path 94" class="shp6" d="M318.76 225.36C318.76 228.09 316.55 230.3 313.82 230.3C311.09 230.3 308.88 228.09 308.88 225.36C308.88 222.63 311.09 220.41 313.82 220.41C316.55 220.41 318.76 222.63 318.76 225.36Z" />
			<path id="Path 95" class="shp1" d="M238.1 219.65C238.91 216.09 241.25 207.28 243.05 202.88C244.54 199.27 248.23 196.91 248.23 196.91C248.72 196.88 248.64 192.52 248.49 188.95C248.36 185.81 248.14 182.15 248.92 181.16C249.68 180.21 251.57 180.2 252.34 181.09C253.17 182.04 253.11 185.71 253.12 188.86C253.13 192.42 253.25 196.78 253.74 196.79C253.74 196.79 257.3 199.15 258.89 202.6C260.67 206.44 263.77 216.67 264.32 219.65C265.01 223.35 263.79 223.77 262.73 224.1C261.22 224.56 260.3 223.52 259.25 219.42C257.59 212.92 255.58 202 251.09 201.9L251.09 201.89C246.63 202.21 244.48 213.64 242.86 220C241.84 223.98 240.98 224.34 239.46 223.95C238.38 223.67 237.28 223.18 238.1 219.65Z" />
			<path id="Path 96" class="shp22" d="M221.04 247.36L218.13 265.43L215.06 283.47C213.02 295.49 210.82 307.49 208.89 319.52C207.87 325.52 206.83 331.54 206.09 337.54L205.85 339.78C205.85 340.47 205.77 341.07 205.87 341.74C206.07 342.38 206.31 343.05 206.62 343.75C206.9 344.44 207.2 345.13 207.52 345.82L211.37 354.08L227.46 386.94C221.34 376.38 215.48 365.68 209.86 354.83C208.46 352.12 207.06 349.4 205.79 346.61C205.46 345.91 205.15 345.21 204.85 344.49C204.53 343.8 204.24 343.04 203.99 342.22C203.83 341.41 203.87 340.45 203.88 339.64L204.11 337.33C204.8 331.21 205.76 325.19 206.73 319.16C208.84 307.13 211.01 295.13 213.41 283.16C215.81 271.2 218.28 259.25 221.04 247.36ZM224.07 253.98C223.68 255.37 222.93 256.43 222.08 257.4C221.2 258.35 220.23 259.21 218.88 259.73C219.26 258.33 220.02 257.28 220.86 256.3C221.75 255.36 222.73 254.5 224.07 253.98ZM338.26 247.36C341.02 259.25 343.49 271.2 345.89 283.16C348.29 295.13 350.46 307.13 352.57 319.16C353.54 325.19 354.5 331.21 355.19 337.33L355.42 339.64C355.43 340.45 355.47 341.41 355.31 342.22C355.06 343.04 354.77 343.8 354.45 344.49C354.15 345.21 353.84 345.91 353.51 346.61C352.24 349.4 350.84 352.12 349.44 354.83C343.82 365.68 337.96 376.38 331.84 386.94L347.93 354.08L351.78 345.82C352.1 345.13 352.4 344.44 352.68 343.75C352.99 343.05 353.23 342.38 353.43 341.74C353.53 341.07 353.45 340.47 353.45 339.78L353.21 337.54C352.47 331.54 351.43 325.52 350.41 319.52C348.48 307.49 346.28 295.49 344.24 283.47L341.17 265.43L338.26 247.36ZM335.23 253.98C336.57 254.5 337.55 255.36 338.43 256.3C339.28 257.28 340.04 258.33 340.42 259.73C339.07 259.21 338.1 258.35 337.21 257.4C336.37 256.43 335.61 255.37 335.23 253.98Z" />
			<path id="Path 97" fill-rule="evenodd" class="shp20" d="M301.95 288.34C307.75 288.59 313.54 288.67 319.32 288.49C325.1 288.39 330.87 288.07 336.62 287.51L337.47 287.43L337.52 288.31C338 297.05 338.27 305.8 338.66 314.55L338.79 317.83L338.86 319.47L338.89 320.29C338.89 320.39 338.92 320.35 338.87 320.64C338.84 320.84 338.74 321.12 338.68 321.19C338.53 321.44 338.38 321.63 338.25 321.74C337.2 322.71 336.25 323.18 335.24 323.72C334.24 324.24 333.24 324.71 332.23 325.16C328.18 326.96 324.13 328.55 319.91 329.97C319.63 330.06 319.41 330.14 319.02 330.23C318.81 330.27 318.5 330.24 318.24 330.21C318.01 330.17 317.92 330.12 317.75 330.08C317.14 329.9 316.64 329.69 316.12 329.48C315.07 329.06 314.08 328.6 313.07 328.14C311.07 327.21 309.1 326.24 307.16 325.22C306.19 324.69 305.22 324.16 304.27 323.61L302.83 322.74C302.35 322.41 301.91 322.18 301.33 321.58C300.87 320.61 300.97 320.11 300.88 319.54L300.81 317.86C300.79 316.76 300.77 315.66 300.79 314.56C300.85 305.8 301.36 297.07 301.95 288.34ZM301.95 288.34C301.97 291.34 301.98 294.34 301.99 297.34C304.83 297.7 307.67 297.9 310.51 298.02C313.46 298.15 316.4 298.22 319.35 298.16C324.91 298.15 330.47 297.75 336.06 297.37C335.98 294.66 335.91 291.94 335.86 289.23C330.35 289.55 324.83 289.67 319.32 289.56C313.51 289.37 307.71 289.08 301.95 288.34ZM302.17 314.55C302.2 315.63 302.25 316.72 302.31 317.8L302.43 319.4L302.53 320.16C302.56 320.5 302.62 320.39 302.57 320.56C302.76 320.73 303.27 321.07 303.71 321.32L305.11 322.1C306.06 322.61 307.03 323.1 308 323.58C309.94 324.56 311.89 325.51 313.87 326.4C314.86 326.84 315.85 327.28 316.84 327.66C317.33 327.85 317.84 328.05 318.29 328.17C318.38 328.2 318.55 328.26 318.58 328.26C318.6 328.23 318.56 328.29 318.62 328.28L319.3 328.07C323.35 326.65 327.42 325.01 331.34 323.21C332.32 322.76 333.29 322.29 334.23 321.79C335.13 321.3 336.15 320.75 336.71 320.23C336.72 320.22 336.73 320.21 336.74 320.2L336.72 319.44L336.67 317.81L336.57 314.54C336.42 308.86 336.22 303.19 336.06 297.51C333.48 298.03 330.87 298.43 328.25 298.71C325.3 299.05 322.33 299.17 319.36 299.26C316.39 299.23 313.41 299.17 310.45 298.86C307.6 298.56 304.75 298.16 301.99 297.39C302.01 303.12 302.05 308.84 302.17 314.55ZM336.74 320.2L336.74 320.26C336.74 320.26 336.74 320.27 336.74 320.28C336.76 320.2 336.82 320.12 336.79 320.14C336.8 320.13 336.79 320.15 336.74 320.2ZM336.74 320.32C336.75 320.46 336.75 320.34 336.74 320.28C336.74 320.29 336.74 320.31 336.74 320.32ZM335.86 289.23C336.16 289.21 336.46 289.2 336.75 289.18L335.85 288.38C335.85 288.66 335.86 288.95 335.86 289.23Z" />
			<path id="Path 98" class="shp1" d="M308.38 288.36C308.38 288.36 310.86 289.55 313.93 288.36C313.93 288.36 314.27 271.78 311.15 271.78C308.25 271.78 308.38 288.36 308.38 288.36ZM311.16 278.44C312.03 281.59 312.22 284.73 312.26 287.87C312.22 291.02 312.03 294.16 311.16 297.3C310.29 294.16 310.1 291.02 310.07 287.87C310.1 284.73 310.3 281.59 311.16 278.44Z" />
			<path id="Path 99" class="shp12" d="M316.58 288.36C316.58 288.36 319.06 289.55 322.13 288.36C322.13 288.36 322.47 271.78 319.35 271.78C316.45 271.78 316.58 288.36 316.58 288.36ZM319.36 278.44C320.22 281.59 320.42 284.73 320.45 287.87C320.42 291.02 320.23 294.16 319.36 297.3C318.49 294.16 318.3 291.02 318.26 287.87C318.3 284.73 318.5 281.59 319.36 278.44Z" />
			<path id="Path 100" class="shp23" d="M297.79 170.14C294.5 178.21 279.82 183.56 279.82 183.56C279.82 183.56 265.13 178.21 261.86 170.14C261.49 169.26 267.39 166.92 267.39 164.59C267.39 163.73 267.22 159.67 267.02 154.88C266.7 146.77 266.23 136.62 266.23 136.62L293.42 136.62C293.42 136.62 292.95 146.94 292.58 155.1C292.38 159.8 292.24 163.75 292.24 164.59C292.24 166.92 298.16 169.26 297.79 170.14Z" />
			<path id="Path 101" class="shp24" d="M293.42 136.62C293.42 136.62 292.95 146.94 292.58 155.1C282.09 158.79 272.89 157.02 267.02 154.88C266.7 146.77 266.23 136.62 266.23 136.62L293.42 136.62Z" />
			<path id="Path 102" class="shp23" d="M228.69 91.13C228.69 91.13 222.39 83.67 213.9 89.5C203.99 96.3 209.31 122.92 232.83 114.64L228.69 91.13Z" />
			<path id="Path 103" class="shp25" d="M217.9 109.39C218.75 107.88 220.08 106.56 221.79 105.83C222.64 105.44 223.59 105.27 224.54 105.28C225.51 105.24 226.43 105.51 227.33 105.81L226.17 106.7C225.52 103.79 224.4 100.74 222.35 98.73C221.3 97.77 219.95 97.21 218.47 97.16C217.72 97.07 216.97 97.24 216.19 97.33C215.43 97.49 214.69 97.79 213.89 97.98C215.22 97.1 216.69 96.22 218.43 96.07C220.12 95.83 222.03 96.34 223.41 97.48C224.81 98.6 225.74 100.1 226.45 101.63C227.13 103.19 227.61 104.76 227.84 106.46L228.03 107.96L226.68 107.36C225.27 106.74 223.7 106.49 222.16 106.91C220.63 107.3 219.14 108.19 217.9 109.39Z" />
			<path id="Path 104" class="shp23" d="M330.94 91.13C330.94 91.13 337.24 83.67 345.73 89.5C355.64 96.3 350.32 122.92 326.8 114.64L330.94 91.13Z" />
			<path id="Path 105" class="shp25" d="M341.74 109.39C340.49 108.19 339.01 107.3 337.47 106.91C335.93 106.49 334.37 106.74 332.96 107.36L331.6 107.96L331.8 106.46C332.02 104.76 332.51 103.19 333.18 101.63C333.89 100.1 334.82 98.6 336.22 97.48C337.6 96.34 339.51 95.83 341.21 96.07C342.94 96.22 344.41 97.1 345.74 97.98C344.94 97.79 344.21 97.49 343.44 97.33C342.66 97.24 341.91 97.07 341.17 97.16C339.68 97.21 338.34 97.77 337.29 98.73C335.24 100.74 334.11 103.79 333.47 106.7L332.31 105.81C333.2 105.51 334.13 105.24 335.09 105.28C336.04 105.27 337 105.44 337.84 105.83C339.55 106.56 340.89 107.88 341.74 109.39Z" />
			<path id="Path 106" class="shp23" d="M322.08 131.69C307.04 148.8 279.83 148.71 279.83 148.71C279.83 148.71 252.61 148.8 237.54 131.69C221.29 113.19 217.69 58.68 231.38 41.33C244.1 25.26 264.63 21.1 279.83 21.1C295 21.1 315.53 25.26 328.24 41.33C341.94 58.68 338.36 113.19 322.08 131.69Z" />
			<path id="Path 107" class="shp11" d="M257.54 97.79C257.54 100.96 255.1 103.53 252.09 103.53C249.07 103.53 246.63 100.96 246.63 97.79C246.63 94.63 249.07 92.06 252.09 92.06C255.1 92.06 257.54 94.63 257.54 97.79Z" />
			<path id="Path 108" class="shp15" d="M242.93 83.71C242.93 83.71 247.24 76.24 256.96 80.52" />
			<path id="Path 109" class="shp11" d="M301.22 97.79C301.22 100.96 303.67 103.53 306.68 103.53C309.7 103.53 312.14 100.96 312.14 97.79C312.14 94.63 309.7 92.06 306.68 92.06C303.67 92.06 301.22 94.63 301.22 97.79Z" />
			<path id="Path 110" class="shp15" d="M315.84 83.71C315.84 83.71 311.53 76.24 301.81 80.52" />
			<path id="Path 111" class="shp25" d="M279.83 83.58C280.79 89.63 281.01 95.69 281.05 101.75L279.83 100.52C282.33 100.53 284.83 100.57 287.33 100.69L288.97 100.76L288.31 102.15C287.85 103.11 287.3 103.87 286.71 104.66C286.11 105.43 285.41 106.12 284.66 106.74C283.16 107.98 281.26 108.8 279.38 108.79C281.15 108.16 282.58 107.08 283.71 105.75C284.28 105.09 284.77 104.37 285.22 103.63C285.67 102.9 286.06 102.07 286.35 101.34L287.33 102.81C284.83 102.92 282.33 102.96 279.83 102.97L278.59 102.98L278.6 101.75C278.65 95.69 278.87 89.63 279.83 83.58Z" />
			<path id="Path 112" class="shp11" d="M267.66 116.22C269.7 118.87 271.9 121.09 274.64 122.13C275.98 122.65 277.43 123 278.97 122.98C279.74 123.07 280.51 122.91 281.32 122.92C282.12 122.86 282.91 122.71 283.78 122.69C283.09 123.16 282.35 123.6 281.58 123.97C280.77 124.22 279.97 124.62 279.1 124.69C277.37 125.07 275.51 124.78 273.82 124.17C272.14 123.48 270.66 122.34 269.62 120.93C268.58 119.53 267.85 117.92 267.66 116.22Z" />
			<path id="Path 113" class="shp26" d="M259.99 110.17L244.18 110.17C239.27 110.17 235.29 106.19 235.29 101.28L235.29 96.91C235.29 92 239.27 88.02 244.18 88.02L259.99 88.02C264.9 88.02 268.88 92 268.88 96.91L268.88 101.28C268.88 106.19 264.9 110.17 259.99 110.17ZM314.59 110.17L298.77 110.17C293.86 110.17 289.88 106.19 289.88 101.28L289.88 96.91C289.88 92 293.86 88.02 298.77 88.02L314.59 88.02C319.5 88.02 323.48 92 323.48 96.91L323.48 101.28C323.48 106.19 319.5 110.17 314.59 110.17Z" />
			<path id="Path 114" fill-rule="evenodd" class="shp1" d="M259.14 111.26L245.03 111.26C239.05 111.26 234.19 106.4 234.19 100.43L234.19 97.77C234.19 97.48 234.2 97.19 234.23 96.91L220.42 89.04L221.5 87.13L234.65 94.63C236 90.18 240.14 86.93 245.03 86.93L259.14 86.93C264.52 86.93 269 90.87 269.84 96.01C273.07 94.47 280.91 91.67 288.94 95.94C289.81 90.83 294.27 86.93 299.63 86.93L313.74 86.93C318.63 86.93 322.77 90.18 324.12 94.63L337.26 87.13L338.35 89.04L324.54 96.91C324.57 97.19 324.58 97.48 324.58 97.77L324.58 100.43C324.58 106.4 319.72 111.26 313.74 111.26L299.63 111.26C293.65 111.26 288.79 106.4 288.79 100.43L288.79 98.37C280.42 93.32 272.08 97.24 269.98 98.39L269.98 100.43C269.98 106.4 265.12 111.26 259.14 111.26ZM245.03 89.12C240.26 89.12 236.38 93 236.38 97.77L236.38 100.43C236.38 105.19 240.26 109.07 245.03 109.07L259.14 109.07C263.91 109.07 267.79 105.19 267.79 100.43L267.79 97.77C267.79 93 263.91 89.12 259.14 89.12L245.03 89.12ZM299.63 89.12C294.86 89.12 290.98 93 290.98 97.77L290.98 100.43C290.98 105.19 294.86 109.07 299.63 109.07L313.74 109.07C318.51 109.07 322.39 105.19 322.39 100.43L322.39 97.77C322.39 93 318.51 89.12 313.74 89.12L299.63 89.12Z" />
			<path id="Path 115" class="shp15" d="M322.77 51.1C322.77 51.1 325.05 92.06 334.11 92.06C341.39 92.06 340.39 51.1 340.39 51.1L322.77 51.1ZM226.15 92.06C232.17 92.06 234.07 60.24 234.07 60.24C234.07 60.24 262.34 71.55 290.02 67.68L274.55 60.24C274.55 60.24 317.44 74.36 352.07 49.14L336.79 43.36C336.79 43.36 320.23 15.22 288.96 12.78C273.61 11.58 249.94 11.42 232.5 34.1C232.5 34.1 220.7 37.64 217.42 47.58C212.69 61.88 218.83 92.06 226.15 92.06Z" />
			<path id="Path 116" class="shp1" d="M288.92 181.68L286.11 191.05C285.6 192.75 284.04 193.91 282.27 193.91L277.39 193.91C275.62 193.91 274.06 192.75 273.55 191.05L270.74 181.68C269.97 179.11 271.89 176.53 274.58 176.53L285.08 176.53C287.76 176.53 289.69 179.11 288.92 181.68Z" />
			<path id="Path 117" class="shp13" d="M279.83 176.5C279.83 176.5 264.28 167.47 262.71 167.01C261.14 166.55 252.47 172.98 252.47 172.98C252.47 172.98 262.47 195.17 265.06 195.17C267.64 195.17 279.83 176.5 279.83 176.5ZM279.74 176.5C279.74 176.5 295.29 167.47 296.86 167.01C298.43 166.55 307.1 172.98 307.1 172.98C307.1 172.98 297.1 195.17 294.51 195.17C291.93 195.17 279.74 176.5 279.74 176.5Z" />
		</g>
		<g id="Folder 2">
			<path id="Path 118" class="shp0" d="M888.83 552.73C888.83 563.78 841.24 572.74 782.54 572.74C723.84 572.74 676.25 563.78 676.25 552.73C676.25 541.67 723.84 532.71 782.54 532.71C841.24 532.71 888.83 541.67 888.83 552.73Z" />
			<path id="Path 119" class="shp1" d="M760.94 534.53L760.83 541.7C760.83 541.7 731.01 552.07 727.6 557.61C724.19 563.15 781.37 551.64 781.45 546.66C781.53 541.68 781.64 534.86 781.64 534.86L760.94 534.53ZM813.26 545.54L813.15 552.71C813.15 552.71 841.01 571.66 839.87 578.06C837.64 590.65 792.31 561.99 792.38 557.01C792.46 552.03 792.57 545.21 792.57 545.21L813.26 545.54Z" />
			<path id="Path 120" class="shp2" d="M827.63 546.75C824.22 551.43 790.67 552.87 787.18 546.11C786.63 545.03 785.7 538.29 785.7 538.29C785.7 538.29 771.71 544.59 754.46 537.37C752.94 536.74 735.24 410.06 726.77 348.74C726.53 347.09 726.32 345.49 726.1 343.95C723.78 327.06 722.29 316.21 722.29 316.21L822.83 317.8C822.83 317.8 823.37 332.28 824.1 353.94C824.16 355.87 824.22 357.87 824.29 359.9C826.48 425.1 830.09 543.37 827.63 546.75Z" />
			<path id="Path 121" class="shp3" d="M824.1 353.94C773.73 365.61 741.9 353.47 726.1 343.95C723.78 327.06 722.29 316.21 722.29 316.21L822.83 317.8C822.83 317.8 823.37 332.28 824.1 353.94Z" />
			<path id="Path 122" class="shp2" d="M759.92 162.16C759.92 162.16 754.4 248.84 739.85 250.24C737.26 250.48 734.53 250.19 731.75 249.54C722.36 247.28 712.78 240.67 708.14 236.21C706.52 234.65 705.49 233.36 705.3 232.59C704.4 229.03 732.64 176.57 737.87 172.14C743.11 167.68 759.92 162.16 759.92 162.16ZM827.29 338.69C826.78 340.44 823.33 342.6 817.86 344.62C817.2 344.85 816.59 340.3 815.94 335.62C815.25 330.7 814.52 325.61 813.73 325.86C813.16 326.02 812.52 331.47 811.84 336.81C811.24 341.9 810.61 346.89 810.02 347.03C799.94 349.66 786.52 351.62 772.54 351.39C741.45 350.9 719.47 342.03 718.19 336.97C718.03 336.31 718.24 333.83 718.74 329.96C720.47 316.2 725.55 284.59 728.36 252.71C728.66 249.14 722.2 234.81 724.06 225.55C727.34 209.3 739.13 188.79 745.96 179.5C749.79 174.3 757.76 159.57 775.57 159.85C789.31 160.07 810.47 171.82 813.07 177.71C815.4 182.88 825.85 300.73 827.25 331.53C827.42 335.56 827.45 338.11 827.29 338.69ZM798.61 168.36C798.61 168.36 815.23 174.42 820.32 179.02C825.41 183.62 852.52 236.73 850.95 242.82C850.03 246.38 830.35 258.86 815.86 257.02C801.37 255.18 798.61 168.36 798.61 168.36Z" />
			<path id="Path 123" class="shp4" d="M827.4 331.46C825.67 332.56 823.78 333.34 821.86 334.06C819.94 334.73 817.98 335.34 815.94 335.62C817.72 334.52 819.58 333.74 821.48 333.03C823.39 332.36 825.32 331.78 827.4 331.46ZM811.84 336.8C804.21 339.04 796.36 340.78 788.39 341.47C780.42 342.19 772.39 342.26 764.41 341.61C756.44 340.86 748.52 339.6 740.77 337.64C733.03 335.67 725.39 333.18 718.2 329.73C725.65 332.54 733.31 334.71 741.06 336.41C748.81 338.1 756.65 339.36 764.55 339.98C772.44 340.75 780.38 340.66 788.28 340.22L794.21 339.74C796.18 339.53 798.14 339.19 800.11 338.93L803.06 338.54L805.98 337.96L811.84 336.8Z" />
			<path id="Path 124" class="shp3" d="M728.01 248.4C725.56 243.67 723.81 238.55 722.96 233.22C722.51 230.56 722.41 227.83 722.65 225.1C722.87 222.35 723.8 219.71 724.73 217.22C726.75 212.24 729.12 207.46 731.66 202.78C734.24 198.11 736.94 193.52 739.93 189.1C737.54 193.86 735.12 198.59 732.78 203.36C730.48 208.13 728.12 212.89 726.26 217.82C725.29 220.28 724.39 222.69 724.14 225.27C723.84 227.84 723.96 230.45 724.21 233.05C724.47 235.66 724.98 238.26 725.65 240.81C726.27 243.38 727.09 245.91 728.01 248.4ZM735.64 189.04C736.04 190.35 736.12 191.67 736.12 192.98C736.08 194.29 735.96 195.6 735.51 196.9C735.1 195.58 735.03 194.27 735.03 192.96C735.07 191.65 735.19 190.34 735.64 189.04ZM821.59 257.18C818.73 257.5 815.74 257.3 812.97 256.2C811.6 255.65 810.29 254.81 809.32 253.62C808.34 252.43 807.75 250.96 807.51 249.46L804.78 232.34C803.9 226.63 803.14 220.9 802.35 215.17C801.64 209.43 800.92 203.7 800.41 197.93C801.65 203.59 802.66 209.28 803.67 214.97C804.59 220.68 805.55 226.38 806.36 232.11C807.14 237.83 807.98 243.56 808.54 249.31C808.79 252.08 810.65 254.46 813.23 255.63C815.78 256.85 818.72 257.23 821.59 257.18ZM796.42 202.14C797.81 202.71 798.83 203.61 799.76 204.6C800.66 205.62 801.46 206.72 801.89 208.17C800.5 207.6 799.48 206.69 798.55 205.7C797.66 204.68 796.85 203.58 796.42 202.14Z" />
			<path id="Path 125" class="shp4" d="M847.98 233.22C845.58 236.03 842.55 238.24 839.39 240.13C836.2 242.02 832.77 243.46 829.28 244.67C825.73 245.73 822.12 246.6 818.46 247.02C816.63 247.3 814.78 247.33 812.95 247.48C811.1 247.51 809.26 247.48 807.43 247.43C811.1 247.13 814.74 246.83 818.33 246.19C821.93 245.6 825.48 244.75 828.94 243.63C832.4 242.52 835.76 241.1 838.97 239.4C842.18 237.68 845.27 235.7 847.98 233.22Z" />
			<path id="Path 126" class="shp27" d="M733.32 344.29C733.33 343.76 733.04 342.79 732.54 341.45C731.93 339.92 731.04 337.91 729.91 335.55C728.6 332.77 726.96 329.48 725.2 325.9C723.82 323.14 722.33 320.18 720.85 317.15C714.67 304.72 708.11 291.02 706.05 282.84C703.28 271.9 708.7 245.75 709.42 237.39C714.07 241.35 717.7 244.19 727.35 248.18C727.91 248.71 728.36 252.14 728.36 252.14C728.36 252.14 726.13 272.94 726.1 274.43C726.08 275.59 731.91 289.41 738.19 304.04L739.88 307.96C741.49 311.74 743.12 315.49 744.68 319.02C746.31 322.79 747.83 326.33 749.14 329.35C750.45 332.37 751.58 334.91 752.36 336.74C753.12 338.51 753.58 339.61 753.67 339.85C754.38 341.92 733.25 348.93 733.32 344.29ZM732.81 342.23C733.14 343.3 734.57 358.04 736.1 361.53C737.64 365.03 743.04 373.68 744.9 373.91C746.77 374.13 746.49 372.95 746.49 372.95C746.49 372.95 750.34 377.82 751.62 377.84C752.89 377.86 753.09 377.18 753.09 377.18C753.09 377.18 756.17 379.18 757.38 378.77C758.58 378.37 758.36 374.99 758.36 374.99C758.36 374.99 760.07 376.75 761.45 375.5C762.47 374.58 756.42 358.51 756.7 358.17C758.47 355.98 759.11 367.86 762.02 366.88C763 366.55 764.62 353.65 760.59 348.83C757.19 344.78 752.66 337.46 752.66 337.46L732.81 342.23ZM847.77 246.29C847.77 246.29 835.69 256.77 818.91 257.2C818.91 257.2 820.48 263.93 820.47 264.89C820.45 265.84 764.25 292.28 740.64 309.72C735.8 313.29 743.46 324.81 747.39 325.57C751.32 326.33 838.22 296.69 848.9 279.42C850.79 276.38 847 237.96 847.77 246.29ZM754.71 323.71C754.6 323.87 754.47 324.02 754.35 324.15C752.68 326.22 750.92 327.93 749.14 329.35C741.51 335.43 733.63 336.01 729.91 335.55C729.19 335.45 728.62 335.31 728.23 335.17C725.38 334.16 726.15 330.91 726.15 330.91C723.51 330.41 724.3 327.2 724.3 327.2C723.87 327.04 723.52 326.86 723.22 326.61C721.18 325.13 721.86 322.27 721.86 322.27C718.03 320.64 720.82 317.15 720.82 317.15L720.84 317.15C731.84 315.97 739.88 307.96 739.88 307.96L738.19 304.04C741 303.71 745.58 305.47 745.58 305.47C754.63 309.27 754.71 323.71 754.71 323.71Z" />
			<path id="Path 127" class="shp4" d="M749.54 166.01C749.94 168.66 750.48 171.26 751.07 173.83C751.68 176.39 752.39 178.93 753.25 181.41C754.06 183.9 755.07 186.33 756.18 188.71C757.26 191.11 758.6 193.38 759.95 195.71C758.1 193.78 756.35 191.68 755.05 189.31C753.66 186.98 752.56 184.5 751.69 181.93C749.99 176.82 749.08 171.38 749.54 166.01ZM795.56 165.24C792.67 171.13 788.27 176.16 783.55 180.69C778.77 185.2 773.36 189 767.76 192.41L763.45 194.79C762 195.57 760.49 196.21 759.02 196.93C756.09 198.4 753.01 199.56 749.95 200.73C746.89 201.87 743.72 202.74 740.62 203.75C737.44 204.52 734.26 205.27 731.07 205.96L740.38 202.98C743.42 201.82 746.52 200.83 749.5 199.55C755.48 197.05 761.39 194.35 766.93 190.99C772.52 187.75 777.82 184 782.7 179.76C785.13 177.62 787.49 175.4 789.63 172.96C791.82 170.57 793.85 168.02 795.56 165.24ZM708.33 224.28C710.68 226.68 713.12 228.9 715.75 230.88C717.05 231.88 718.41 232.82 719.8 233.71C721.18 234.62 722.64 235.39 724.1 236.24C720.84 235.4 717.78 233.79 715.09 231.75C713.75 230.72 712.47 229.59 711.34 228.34C710.21 227.09 709.15 225.76 708.33 224.28Z" />
			<path id="Path 128" class="shp6" d="M756.29 214.82C763.74 249.51 761.96 257.81 758.93 261.62C755.74 265.64 750.8 267.66 750.59 267.75L749.66 265.44L750.12 266.59L749.66 265.44C749.7 265.42 754.21 263.56 756.98 260.07C759.17 257.32 761.23 249.69 753.85 215.34L756.29 214.82Z" />
			<path id="Path 129" class="shp1" d="M753.38 264.46L753.76 265.23C754.3 266.32 753.85 267.67 752.75 268.21L749.01 270.06C747.91 270.6 746.57 270.15 746.03 269.05L745.65 268.29C745.1 267.19 745.56 265.84 746.66 265.3L750.4 263.45C751.5 262.91 752.84 263.36 753.38 264.46Z" />
			<path id="Path 130" class="shp6" d="M733.88 214.64C725.89 240.16 723.6 254.22 726.66 258.9C729.12 262.65 733.42 264.89 733.47 264.91L732.33 267.13C732.12 267.03 727.39 264.56 724.58 260.27C720.93 254.7 722.93 241.26 731.5 213.9L733.88 214.64Z" />
			<path id="Path 131" class="shp1" d="M729.85 263.6L729.4 264.33C728.76 265.37 729.09 266.75 730.13 267.39L733.68 269.58C734.73 270.22 736.11 269.89 736.75 268.85L737.2 268.12C737.84 267.08 737.51 265.7 736.46 265.06L732.91 262.87C731.87 262.23 730.49 262.56 729.85 263.6Z" />
			<path id="Path 132" class="shp7" d="M745.2 174.96C746.52 162.79 766.13 161.08 775.36 161.1C787.11 161.12 796.97 163.57 800.6 175.55C804.18 187.38 804.64 200.59 804.64 212.9C804.64 215.2 808.21 215.26 808.21 212.96C808.22 198.77 809.59 172.06 796.9 162.57C784.34 153.17 743.86 154.28 741.62 174.9C741.38 177.19 744.95 177.23 745.2 174.96Z" />
			<path id="Path 133" class="shp1" d="M814.53 219.82C814.45 224.35 810.72 227.97 806.19 227.9C801.65 227.82 798.04 224.09 798.11 219.56C798.18 215.02 801.91 211.4 806.45 211.48C810.98 211.55 814.6 215.28 814.53 219.82Z" />
			<path id="Path 134" class="shp6" d="M811.26 219.76C811.22 222.49 808.97 224.67 806.24 224.63C803.51 224.58 801.33 222.34 801.38 219.61C801.42 216.88 803.67 214.7 806.39 214.74C809.12 214.79 811.3 217.03 811.26 219.76Z" />
			<path id="Path 135" class="shp1" d="M730.7 212.78C731.57 209.24 734.04 200.46 735.92 196.09C737.46 192.5 741.18 190.2 741.18 190.2C741.68 190.18 741.66 185.82 741.57 182.25C741.49 179.11 741.33 175.45 742.13 174.47C742.9 173.53 744.8 173.55 745.55 174.45C746.36 175.41 746.24 179.08 746.21 182.23C746.16 185.8 746.21 190.15 746.7 190.17C746.7 190.17 750.22 192.59 751.76 196.06C753.47 199.93 756.41 210.21 756.92 213.19C757.55 216.91 756.32 217.31 755.25 217.62C753.74 218.06 752.84 217 751.85 212.88C750.3 206.36 748.45 195.41 743.97 195.24L743.97 195.23C739.5 195.47 737.17 206.87 735.45 213.21C734.37 217.17 733.51 217.52 731.99 217.1C730.91 216.81 729.83 216.3 730.7 212.78Z" />
			<path id="Path 136" class="shp27" d="M786.01 167C783.16 174.22 760.59 186.6 760.59 186.6C760.59 186.6 755.95 175.8 754.79 168.33C754.66 167.49 759.68 165.4 759.66 163.32C759.65 162.55 759.45 158.94 759.22 154.67C758.84 147.44 758.31 138.4 758.31 138.4L782.54 138.09C782.54 138.09 782.24 147.29 782.01 154.57C781.88 158.76 781.8 162.29 781.81 163.04C781.84 165.12 786.33 166.21 786.01 167Z" />
			<path id="Path 137" class="shp28" d="M782.54 138.09C782.54 138.09 782.24 147.3 782.01 154.58C772.69 157.98 764.48 156.51 759.22 154.67C758.84 147.44 758.31 138.4 758.31 138.4L782.54 138.09Z" />
			<path id="Path 138" class="shp27" d="M727.46 99.19C727.46 99.19 721.95 92.46 714.3 97.53C705.37 103.46 709.74 127.27 730.82 120.21L727.46 99.19Z" />
			<path id="Path 139" class="shp29" d="M717.58 115.32C718.36 113.99 719.57 112.83 721.1 112.2C721.86 111.87 722.72 111.73 723.56 111.75C724.42 111.73 725.24 111.99 726.04 112.26L724.99 113.05C724.46 110.44 723.49 107.7 721.7 105.89C720.77 105.01 719.59 104.49 718.26 104.43C717.6 104.34 716.93 104.48 716.23 104.55C715.55 104.68 714.89 104.94 714.17 105.1C715.37 104.33 716.7 103.57 718.24 103.46C719.76 103.27 721.45 103.75 722.66 104.79C723.89 105.8 724.7 107.16 725.32 108.53C725.89 109.92 726.31 111.33 726.48 112.86L726.63 114.19L725.44 113.64C724.19 113.07 722.79 112.82 721.42 113.17C720.04 113.5 718.71 114.27 717.58 115.32Z" />
			<path id="Path 140" class="shp27" d="M819.1 97.33C819.1 97.44 819.07 97.55 819.07 97.66C818.74 100.59 818.3 103.52 817.73 106.38C817.51 107.5 817.28 108.59 817.02 109.68C816.74 110.88 816.43 112.08 816.11 113.24C815.97 113.76 815.81 114.26 815.67 114.77C814.86 117.49 813.92 120.11 812.87 122.54C812.12 124.31 811.3 125.98 810.42 127.55C808.64 130.78 806.58 133.56 804.29 135.69C799.26 140.39 793.59 144.22 787.59 146.95C785.98 147.7 784.34 148.37 782.67 148.91C775.11 151.6 767.14 152.53 759.27 151.33C748.68 149.76 738.29 144.38 729.29 134.2C726.39 130.91 724.05 126.51 722.24 121.44C721.36 118.99 720.59 116.39 719.97 113.69C719.91 113.42 719.85 113.18 719.79 112.92C719.2 110.19 718.7 107.33 718.35 104.44C718.29 104.11 718.25 103.78 718.21 103.45C717.94 100.99 717.74 98.49 717.63 95.96C717.61 95.75 717.59 95.55 717.59 95.33C716.9 78 720.27 60.52 727.25 52.77C739.48 39.17 757.99 36.64 771.5 37.51C785.01 38.36 803.04 43.23 813.43 58.25C819.02 66.34 820.77 81.91 819.1 97.33Z" />
			<path id="Path 141" class="shp11" d="M789.27 97.47C789.27 97.47 785.54 90.75 776.81 94.43L789.27 97.47ZM726.64 96.47C726.64 96.47 730.59 89.88 739.19 93.83L726.64 96.47Z" />
			<path id="Path 142" class="shp29" d="M756.45 92.92C755.5 98.31 755.22 103.7 755.1 109.1L756.21 108.03C753.98 108 751.75 108 749.52 108.07L748.05 108.11L748.62 109.36C749.02 110.22 749.49 110.91 750.02 111.61C750.54 112.31 751.15 112.94 751.81 113.5C753.13 114.63 754.81 115.38 756.49 115.4C754.92 114.81 753.66 113.83 752.67 112.63C752.17 112.03 751.75 111.38 751.35 110.72C750.97 110.06 750.63 109.31 750.38 108.66L749.49 109.96C751.72 110.1 753.94 110.16 756.17 110.21L757.27 110.24L757.28 109.14C757.33 103.74 757.22 98.33 756.45 92.92Z" />
			<path id="Path 143" class="shp11" d="M739.53 105.33C739.49 108.16 737.27 110.41 734.58 110.37C731.9 110.33 729.75 108 729.8 105.18C729.84 102.36 732.06 100.1 734.75 100.14C737.43 100.19 739.58 102.51 739.53 105.33ZM724.24 102.43C724.93 103.36 725.84 104.06 726.68 104.17C727.57 104.26 728.16 103.89 728.86 103.06C729.56 102.31 730.31 101.3 731.4 100.64C732.48 99.95 733.84 99.79 734.96 100.15C733.81 100.44 732.9 100.99 732.17 101.67C731.45 102.37 730.88 103.24 730.08 104.17C729.66 104.6 729.19 105.09 728.48 105.38C727.78 105.65 726.99 105.66 726.33 105.4C724.95 104.88 724.34 103.57 724.24 102.43ZM776.11 105.91C776.06 108.74 778.21 111.06 780.89 111.1C783.58 111.15 785.8 108.89 785.84 106.07C785.88 103.24 783.74 100.92 781.06 100.88C778.37 100.83 776.15 103.09 776.11 105.91ZM791.69 103.5C791.55 104.63 790.9 105.92 789.51 106.4C788.84 106.64 788.06 106.6 787.36 106.31C786.67 106 786.21 105.49 785.8 105.05C785.03 104.1 784.49 103.21 783.79 102.48C783.08 101.78 782.2 101.2 781.06 100.88C782.18 100.55 783.54 100.76 784.59 101.48C785.66 102.17 786.38 103.21 787.05 103.98C787.73 104.83 788.31 105.23 789.2 105.16C790.04 105.08 790.97 104.41 791.69 103.5ZM775.66 128.05C774.26 130.2 771.58 132.21 767.19 132.89C762.77 133.56 759.59 132.44 757.64 130.81C755.54 129.09 754.83 126.78 755.51 125.45C755.58 125.3 755.67 125.17 755.78 125.06C757.5 122.98 763.24 123.45 765.68 123.07C768.27 122.67 774.07 120.26 776.08 122.29C776.27 122.49 776.42 122.71 776.53 123C777.05 124.23 776.85 126.18 775.66 128.05Z" />
			<path id="Path 144" class="shp12" d="M757.64 130.81C759.59 132.45 762.77 133.56 767.18 132.89C771.57 132.21 774.27 130.19 775.66 128.04C773.18 126.72 769.79 126.18 766.23 126.72C762.68 127.27 759.61 128.81 757.64 130.81Z" />
			<path id="Path 145" class="shp18" d="M776.53 123C774.28 123.88 771.39 124.67 768.19 125.17C762.93 126.01 758.24 125.91 755.78 125.06C757.5 122.98 763.24 123.45 765.68 123.07C768.27 122.67 774.07 120.26 776.08 122.29C776.27 122.49 776.42 122.71 776.53 123Z" />
			<path id="Path 146" class="shp11" d="M773.63 53.57C773.63 53.57 773.54 72.84 791.64 86.29C808.41 98.76 804.36 109.99 808.02 109.94C811.69 109.89 808.91 97.78 819.85 97.62C825.14 97.55 833.23 41 784.25 37.66C784.25 37.66 752.4 21.06 728.57 44.73C704.74 68.4 716.04 95.49 718 95.61C719.97 95.72 720.76 87.14 732.99 79.61C740.08 75.26 759.84 68.44 773.63 53.57Z" />
			<path id="Path 147" class="shp27" d="M813.2 100.55C813.2 100.55 818.92 93.99 826.41 99.31C835.15 105.52 830.02 129.17 809.18 121.46L813.2 100.55Z" />
			<path id="Path 148" class="shp29" d="M822.57 116.98C821.47 115.9 820.16 115.09 818.8 114.72C817.43 114.32 816.03 114.53 814.77 115.06L813.55 115.57L813.75 114.24C813.97 112.72 814.43 111.33 815.05 109.95C815.7 108.6 816.56 107.27 817.82 106.29C819.06 105.3 820.77 104.87 822.28 105.11C823.82 105.27 825.12 106.07 826.29 106.87C825.59 106.69 824.94 106.41 824.26 106.26C823.56 106.17 822.89 106.01 822.23 106.08C820.9 106.1 819.7 106.58 818.75 107.42C816.89 109.18 815.85 111.89 815.23 114.48L814.21 113.66C815.01 113.41 815.84 113.18 816.7 113.23C817.54 113.23 818.39 113.4 819.14 113.76C820.66 114.43 821.83 115.63 822.57 116.98Z" />
			<path id="Path 149" class="shp11" d="M821.38 195.46C786.99 219.16 790.79 249.27 790.79 249.27C770.75 209.48 796.33 190 802.14 178.81C807.95 167.64 796.55 161.93 790.24 152.26C789.09 150.48 788.22 148.69 787.63 146.95C793.63 144.22 799.31 140.39 804.33 135.69C806.62 133.56 808.68 130.78 810.47 127.55C825.91 135.48 852.42 174.08 821.38 195.46Z" />
			<path id="Path 150" class="shp3" d="M760.85 368.7C762.65 368.99 764.4 369.65 765.93 370.68C766.69 371.19 767.37 371.83 767.94 372.57C768.24 372.93 768.47 373.33 768.7 373.74C768.86 374.18 769.01 374.66 769.08 375.1C769.79 378.69 770.27 382.3 770.79 385.91C771.75 393.15 772.61 400.39 773.46 407.63C775.14 422.12 776.6 436.62 778.11 451.13C779.49 465.64 780.92 480.15 782.19 494.68L784.04 516.47L785.7 538.28L783.24 516.55L780.93 494.8L776.48 451.29L772.21 407.76L770 386.01C769.61 382.39 769.26 378.76 768.69 375.17C768.63 374.71 768.51 374.31 768.39 373.89C768.18 373.5 767.98 373.1 767.7 372.75C767.18 372.02 766.54 371.37 765.81 370.84C764.35 369.78 762.64 369.05 760.85 368.7Z" />
			<path id="Path 151" class="shp4" d="M828.43 535.6C825.33 537.6 821.79 538.85 818.22 539.76C814.62 540.65 810.92 541.04 807.23 541.2C803.53 541.19 799.83 540.99 796.19 540.35C794.36 540.08 792.58 539.58 790.78 539.21C789.01 538.7 787.25 538.14 785.51 537.57C789.11 538.33 792.68 539.09 796.31 539.51C799.93 539.98 803.57 540.18 807.21 540.11C810.84 540.04 814.46 539.64 818.03 538.94C821.59 538.21 825.12 537.2 828.43 535.6ZM784.62 529.34C782.13 530.55 779.42 531.27 776.7 531.75C773.96 532.23 771.17 532.39 768.4 532.35C765.63 532.19 762.85 531.96 760.15 531.31C758.79 531.05 757.47 530.6 756.14 530.23C754.83 529.79 753.54 529.28 752.27 528.76C754.95 529.4 757.6 530.08 760.31 530.48C762.99 530.95 765.71 531.18 768.43 531.26C771.15 531.39 773.87 531.21 776.58 530.92C779.28 530.61 781.98 530.13 784.62 529.34Z" />
			<path id="Path 152" class="shp28" d="M752.36 336.74C745.39 340.97 736.07 341.44 732.54 341.45C731.93 339.92 731.04 337.91 729.91 335.55C733.63 336.01 741.51 335.43 749.15 329.35C750.46 332.37 751.58 334.91 752.36 336.74ZM720.85 317.15C720.85 317.15 732.49 315.72 739.88 307.96L737.16 301.63C737.16 301.63 730.33 307.88 718.51 312.43L720.85 317.15Z" />
		</g>
		<g id="Folder 1">
			<path id="Path 153" class="shp0" d="M764.05 665.57C764.05 679.91 702.29 691.54 626.1 691.54C549.91 691.54 488.14 679.91 488.14 665.57C488.14 651.22 549.91 639.59 626.1 639.59C702.29 639.59 764.05 651.22 764.05 665.57Z" />
			<path id="Path 154" class="shp23" d="M586.84 452.45C586.84 452.45 584.43 487.92 584.8 497.62C585.17 507.33 600.89 615.41 600.22 617.75C599.56 620.09 565.74 641.54 568.41 645.22C571.09 648.9 623.31 630.13 623.31 626.11C623.31 622.1 622.91 618.55 623.31 616.08C630.38 572.46 644.07 536.6 620.97 493.27L626.32 452.45L586.84 452.45Z" />
			<path id="Path 155" class="shp28" d="M586.84 452.45C586.84 452.45 584.43 487.92 584.8 497.62C585.17 507.33 600.89 615.41 600.22 617.75C599.56 620.09 565.74 641.54 568.41 645.22C571.09 648.9 623.31 630.13 623.31 626.11C623.31 622.1 622.91 618.55 623.31 616.08C630.38 572.46 644.07 536.6 620.97 493.27L626.32 452.45L586.84 452.45Z" />
			<path id="Path 156" class="shp11" d="M589.97 625.9C589.97 625.9 559.75 645.64 563.48 648.66C571.59 655.2 615.13 637.28 615.13 637.28L615.13 641.87C615.13 641.87 620.57 644.33 624.6 641.87C624.6 641.87 629.27 628.89 623.25 623.11C623.25 623.11 578.96 642.8 576.2 638.89C574.37 636.31 589.97 625.9 589.97 625.9Z" />
			<path id="Path 157" class="shp23" d="M618.96 452.45C618.96 452.45 616.37 490.48 616.76 500.88C617.16 511.29 634.02 627.17 633.31 629.68C632.59 632.19 589.18 664.48 592.05 668.43C594.92 672.37 658.06 642.95 658.06 638.65C658.06 634.34 657.63 630.54 658.06 627.89C665.64 581.12 680.32 542.67 655.55 496.22L661.29 452.45L618.96 452.45Z" />
			<path id="Path 158" class="shp11" d="M558.15 389.89L680.99 391.25C680.99 391.25 692.8 441.53 677.1 494.78C675.6 499.89 604.7 516.98 569.42 491.19C566.18 488.82 558.15 389.89 558.15 389.89ZM609.46 650.09C609.46 650.09 599.75 657.29 600.6 660.27C601.09 661.98 631.52 653.79 658.03 636.6C658.03 636.6 665.46 644.72 658.95 663.76C658.95 663.76 654.77 666.6 647.25 663.76L647.25 658.75C647.25 658.75 594.17 674.47 590.69 667.81C588.91 664.41 609.46 650.09 609.46 650.09Z" />
			<path id="Path 159" class="shp10" d="M578.74 19.98C578.74 19.98 601.62 4.12 622.19 6.6C644.87 9.33 686.4 50.46 684.19 84.9C682.04 118.22 659.74 124.02 658.9 148.86C658.05 173.69 675.19 181.33 672.1 207.4C669.01 233.48 643.97 247.88 643.97 247.88C643.97 247.88 656.18 216.41 643.34 196.14C630.51 175.88 557.9 158.11 541.2 127.76C523.76 96.06 528.14 50.83 543.17 34.55C558.19 18.27 578.74 19.98 578.74 19.98Z" />
			<path id="Path 160" class="shp27" d="M545.38 378.22C545.29 379.34 541.07 393.61 541.18 397.45C541.3 401.29 543.08 411.39 544.73 412.3C546.38 413.21 546.57 412 546.57 412C546.57 412 548.32 418 549.5 418.49C550.68 418.99 551.12 418.43 551.12 418.43C551.12 418.43 553.24 421.46 554.52 421.53C555.8 421.61 556.86 418.37 556.86 418.37C556.86 418.37 557.79 420.66 559.55 420.02C560.85 419.54 561.26 402.29 561.64 402.07C564.12 400.7 560.25 412.02 563.33 412.2C564.37 412.26 570.74 400.84 568.79 394.82C567.15 389.77 565.68 381.24 565.68 381.24L545.38 378.22Z" />
			<path id="Path 161" class="shp6" d="M588.48 168.39C588.48 168.39 559.86 191.15 554.41 212.1C548.96 233.06 542.21 382.26 542.42 385.5C542.63 388.75 553.02 397.89 563.92 397.72C574.83 397.55 574.35 224.47 576.19 219.26C578.04 214.05 588.48 168.39 588.48 168.39ZM689.04 420.63C685.68 424.52 656.58 454.05 593.11 438.68C590.73 438.09 584.51 410.16 584.51 410.16C584.51 410.16 579.72 434.47 577.06 435.62C574.41 436.76 561.06 431.76 555.76 425.96C553.55 423.53 551.21 237.33 564.2 203.88C569.09 191.33 588.65 162.11 601.31 160.58C624.27 157.8 657.42 186.86 663.33 197.68C666.82 204.04 676.26 278.84 682.75 340.08L682.77 340.1C683.27 344.83 683.74 349.46 684.21 353.99C687.93 390.43 690.26 419.2 689.04 420.63Z" />
			<path id="Path 162" class="shp20" d="M684.21 353.99C682.02 365.65 662.1 389.3 662.1 389.3L679.46 334.54C679.46 334.54 681.25 336.55 682.75 340.08L682.77 340.1C683.27 344.83 683.74 349.46 684.21 353.99Z" />
			<path id="Path 163" class="shp6" d="M644.09 177.99C644.09 177.99 671.75 201.54 675.36 211.65C684.62 237.58 691.86 318.36 691.2 323.04C688.58 341.48 660.13 392.9 660.13 392.9C660.13 392.9 639.47 388.67 635.59 371.84C635.59 371.84 661.51 324.09 661.88 315.69C662 312.99 644.09 177.99 644.09 177.99Z" />
			<path id="Path 164" class="shp22" d="M649.55 223.4C651.88 236.13 653.93 248.9 655.89 261.68C657.85 274.46 659.59 287.28 661.24 300.12C661.61 303.33 661.97 306.55 662.27 309.78C662.42 311.4 662.56 313.01 662.65 314.66C662.67 315.53 662.76 316.21 662.62 317.34C662.38 318.34 662.01 319.03 661.68 319.79C658.99 325.72 656.2 331.53 653.29 337.31C647.53 348.9 641.68 360.43 635.59 371.84L643.61 354.17L651.77 336.58C654.43 330.7 657.29 324.88 659.86 318.99C660.16 318.28 660.52 317.49 660.65 316.93C660.69 316.46 660.65 315.51 660.6 314.77C660.51 313.19 660.35 311.59 660.19 309.99L659.07 300.38C657.61 287.55 655.83 274.74 654.23 261.91L651.81 242.67L649.55 223.4ZM643.59 228.16C645.51 228.89 646.96 230.09 648.29 231.39C649.57 232.75 650.73 234.22 651.41 236.16C649.49 235.43 648.05 234.24 646.72 232.92C645.44 231.57 644.28 230.1 643.59 228.16ZM554.36 397.23C553.99 382.98 553.92 368.73 553.93 354.48C553.94 340.24 554.17 325.99 554.39 311.74C554.79 297.49 555.12 283.25 555.85 269.01C556.65 254.79 557.28 240.5 559.55 226.41C558.83 233.51 558.44 240.61 558.22 247.73C557.89 254.84 557.7 261.96 557.53 269.07C557.15 283.31 556.81 297.55 556.57 311.79L555.61 354.51C555.25 368.75 554.9 382.99 554.36 397.23ZM554.94 229.94C556.23 231.15 556.89 232.56 557.39 234.02C557.83 235.5 558.11 237.03 557.75 238.76C556.46 237.55 555.8 236.14 555.3 234.68C554.87 233.2 554.59 231.67 554.94 229.94Z" />
			<path id="Path 165" fill-rule="evenodd" class="shp20" d="M586.23 275.98L585.82 284.36L585.57 292.75C585.42 298.33 585.26 303.92 585.22 309.51C585.07 320.68 584.9 331.86 584.95 343.04L584.8 376.59L584.72 393.36L584.52 410.15C583.79 398.97 583.41 387.79 583.12 376.6C582.82 365.42 582.79 354.22 582.76 343.03C582.9 331.84 583.03 320.64 583.54 309.46C584.07 298.28 584.7 287.08 586.23 275.98ZM594.26 302.58C594.19 302.58 594.12 302.58 594.06 302.57C592.15 302.47 590.68 300.83 590.78 298.91C590.83 297.99 591.24 297.14 591.94 296.52C592.63 295.9 593.55 295.57 594.44 295.64C595.37 295.69 596.22 296.1 596.84 296.79C597.46 297.48 597.77 298.37 597.72 299.3C597.67 300.23 597.26 301.08 596.57 301.7C595.92 302.27 595.11 302.58 594.26 302.58ZM594.25 297.83C593.93 297.83 593.63 297.94 593.4 298.15C593.14 298.38 592.99 298.69 592.97 299.03C592.93 299.74 593.47 300.35 594.18 300.39C594.56 300.4 594.85 300.29 595.1 300.06C595.36 299.83 595.51 299.52 595.53 299.18C595.55 298.84 595.43 298.51 595.21 298.25C594.98 298 594.67 297.85 594.32 297.83C594.3 297.83 594.27 297.83 594.25 297.83Z" />
			<path id="Path 166" fill-rule="evenodd" class="shp20" d="M593.35 330.84C593.29 330.84 593.22 330.83 593.16 330.83C592.23 330.78 591.38 330.37 590.76 329.68C590.14 328.99 589.83 328.1 589.89 327.17C589.99 325.26 591.74 323.77 593.54 323.9C594.47 323.95 595.32 324.36 595.94 325.05C596.56 325.74 596.87 326.63 596.82 327.56C596.72 329.4 595.18 330.84 593.35 330.84ZM593.35 326.08C592.68 326.08 592.11 326.61 592.07 327.29C592.05 327.63 592.17 327.96 592.4 328.22C592.62 328.47 592.94 328.62 593.28 328.64C594.03 328.64 594.59 328.14 594.63 327.44C594.65 327.09 594.54 326.76 594.31 326.51C594.08 326.26 593.76 326.1 593.42 326.08C593.4 326.08 593.38 326.08 593.35 326.08ZM593.41 359.15C593.35 359.15 593.28 359.14 593.21 359.14C592.29 359.09 591.44 358.68 590.82 357.99C590.2 357.3 589.89 356.41 589.94 355.48C590.05 353.57 591.77 352.09 593.6 352.21C594.53 352.26 595.37 352.67 595.99 353.36C596.61 354.05 596.93 354.94 596.87 355.86C596.82 356.79 596.41 357.65 595.72 358.27C595.08 358.84 594.27 359.15 593.41 359.15ZM593.41 354.39C592.73 354.39 592.17 354.92 592.13 355.6C592.11 355.94 592.22 356.27 592.45 356.53C592.68 356.78 592.99 356.93 593.33 356.95C593.68 356.95 594.01 356.86 594.26 356.63C594.52 356.4 594.67 356.09 594.69 355.75C594.7 355.4 594.59 355.07 594.36 354.82C594.13 354.56 593.82 354.41 593.48 354.39C593.45 354.39 593.43 354.39 593.41 354.39ZM593.36 387.45C593.29 387.45 593.23 387.45 593.16 387.45C592.24 387.4 591.39 386.99 590.77 386.29C590.15 385.6 589.84 384.71 589.89 383.79C590 381.87 591.74 380.41 593.55 380.51C594.48 380.57 595.32 380.97 595.94 381.66C596.56 382.36 596.87 383.25 596.82 384.17C596.72 386.02 595.19 387.45 593.36 387.45ZM593.36 382.7C592.68 382.7 592.12 383.23 592.08 383.91C592.06 384.25 592.17 384.58 592.4 384.83C592.63 385.09 592.94 385.24 593.28 385.26C594.03 385.25 594.59 384.75 594.64 384.05C594.65 383.71 594.54 383.38 594.31 383.13C594.08 382.87 593.77 382.72 593.43 382.7C593.4 382.7 593.38 382.7 593.36 382.7ZM633.51 367.95C635.5 370.97 637.91 373.6 640.45 376.04C643.03 378.44 645.77 380.65 648.77 382.48C650.27 383.38 651.76 384.32 653.36 385.05L655.73 386.22L658.19 387.21C659.8 387.95 661.52 388.39 663.2 389.01C664.89 389.6 666.64 389.95 668.37 390.54C666.57 390.44 664.76 390.3 662.95 390.06C661.18 389.67 659.35 389.45 657.62 388.83C654.08 387.88 650.77 386.2 647.6 384.34C644.48 382.38 641.65 379.97 639.22 377.22C636.79 374.49 634.75 371.36 633.51 367.95ZM638.34 182.22C638.34 182.22 643.63 197.08 641.91 199.1C640.19 201.11 626.27 195.97 626.27 195.97C626.27 195.97 640.78 211.65 639.08 213.43C618.45 235.02 587.7 273.68 587.7 273.68L627.23 177.05L638.34 182.22ZM585.89 181.71L585.51 274.63C576.33 261.87 565.72 208.96 565.96 204.61C566.2 200.26 579.52 187.97 579.52 187.97C574.58 186.58 572.13 183.85 572.13 183.85L585.89 181.71Z" />
			<path id="Path 167" fill-rule="evenodd" class="shp20" d="M614.88 255.58C620.39 255.77 625.89 255.8 631.39 255.57C636.88 255.41 642.37 255.04 647.82 254.43L648.66 254.34L648.72 255.21C649.28 263.77 649.61 272.34 650.07 280.91L650.22 284.12L650.31 285.73L650.35 286.53C650.3 286.86 650.53 286.84 650.18 287.8C649.63 288.7 649.16 288.9 648.68 289.29C648.2 289.63 647.72 289.92 647.24 290.2C646.28 290.75 645.31 291.24 644.33 291.71C640.41 293.58 636.48 295.24 632.38 296.74C632.09 296.83 631.9 296.91 631.48 297.01C631.24 297.04 630.93 297.01 630.67 296.97L630.22 296.84C629.63 296.66 629.13 296.46 628.62 296.24C627.6 295.83 626.63 295.37 625.65 294.91C623.7 293.98 621.78 293.01 619.88 291.99C618.93 291.47 617.99 290.94 617.06 290.37C616.6 290.1 616.13 289.8 615.67 289.49C615.42 289.31 615.21 289.18 614.94 288.96C614.81 288.82 614.66 288.71 614.54 288.55C614.45 288.35 614.37 288.14 614.3 287.92C614.04 286.58 614.07 285.63 614.01 284.51L613.98 281.28C613.98 272.69 614.38 264.13 614.88 255.58ZM614.88 255.58C614.93 258.56 614.97 261.53 615.02 264.51C617.71 264.84 620.41 265 623.1 265.1C625.91 265.2 628.7 265.25 631.5 265.15C636.78 265.09 642.05 264.64 647.34 264.22C647.25 261.52 647.16 258.83 647.09 256.13C641.86 256.5 636.63 256.68 631.4 256.61C625.88 256.49 620.35 256.25 614.88 255.58ZM615.37 281.25L615.52 284.44C615.59 285.45 615.68 286.66 615.84 287.41C615.68 287.57 616.19 287.79 616.58 288.09L617.93 288.87C618.85 289.39 619.8 289.87 620.74 290.36C622.63 291.34 624.54 292.28 626.47 293.17C627.43 293.6 628.4 294.04 629.36 294.43C629.84 294.62 630.34 294.81 630.78 294.94L631.08 295.03C631.08 295.04 631.07 295.05 631.08 295.06L631.72 294.85C635.65 293.37 639.59 291.65 643.38 289.79C644.32 289.31 645.25 288.83 646.15 288.3C646.59 288.04 647.04 287.79 647.43 287.51C647.73 287.32 648.08 287.01 648.21 286.88C648.21 286.77 648.21 286.61 648.2 286.52L648.17 285.72L648.1 284.12L647.99 280.92C647.79 275.4 647.55 269.88 647.35 264.36C644.92 264.91 642.46 265.32 639.98 265.63C637.18 265.99 634.35 266.13 631.53 266.25C628.7 266.25 625.87 266.22 623.05 265.94C620.35 265.67 617.64 265.3 615.02 264.56C615.1 270.13 615.2 275.7 615.37 281.25ZM631.08 295.03C631.09 295.02 631.1 295.02 631.1 295.03L631.08 295.03ZM648.21 286.88C648.21 287.03 648.21 287.09 648.26 286.83C648.26 286.83 648.24 286.85 648.21 286.88ZM647.09 256.13C647.39 256.11 647.68 256.09 647.98 256.07L647.08 255.29C647.08 255.57 647.09 255.85 647.09 256.13Z" />
			<path id="Path 168" class="shp7" d="M623.38 217.24C615.38 251.8 617.03 260.14 620 263.99C623.13 268.06 628.04 270.16 628.24 270.25L629.21 267.95L628.73 269.1L629.21 267.95C629.17 267.94 624.69 266.01 621.97 262.48C619.83 259.69 617.89 252.02 625.81 217.8L623.38 217.24Z" />
			<path id="Path 169" class="shp1" d="M625.51 266.92L625.12 267.68C624.55 268.77 624.99 270.12 626.08 270.68L629.79 272.59C630.88 273.15 632.23 272.71 632.79 271.63L633.18 270.87C633.74 269.78 633.3 268.43 632.21 267.87L628.51 265.96C627.42 265.4 626.07 265.83 625.51 266.92Z" />
			<path id="Path 170" class="shp7" d="M645.79 217.42C653.38 243.06 655.45 257.15 652.31 261.78C649.8 265.49 645.46 267.67 645.41 267.69L646.52 269.92C646.72 269.82 651.49 267.42 654.37 263.18C658.11 257.67 656.32 244.21 648.18 216.71L645.79 217.42Z" />
			<path id="Path 171" class="shp1" d="M649.05 266.43L649.49 267.17C650.11 268.22 649.76 269.59 648.71 270.22L645.12 272.35C644.07 272.97 642.69 272.62 642.07 271.57L641.63 270.83C641.01 269.78 641.36 268.41 642.41 267.78L646 265.65C647.05 265.03 648.43 265.38 649.05 266.43Z" />
			<path id="Path 172" class="shp7" d="M635.11 177.56C633.98 165.37 614.4 163.35 605.17 163.22C593.42 163.06 583.52 165.35 579.7 177.27C575.93 189.05 575.27 202.24 575.07 214.56C575.04 216.85 571.46 216.86 571.5 214.56C571.72 200.36 570.77 173.64 583.6 164.35C596.31 155.16 636.77 156.9 638.68 177.56C638.89 179.85 635.32 179.83 635.11 177.56Z" />
			<path id="Path 173" class="shp1" d="M565.08 221.31C565.08 225.84 568.75 229.52 573.29 229.52C577.82 229.52 581.5 225.84 581.5 221.31C581.5 216.78 577.82 213.1 573.29 213.1C568.75 213.1 565.08 216.78 565.08 221.31Z" />
			<path id="Path 174" class="shp6" d="M568.34 221.31C568.34 224.04 570.56 226.25 573.29 226.25C576.02 226.25 578.23 224.04 578.23 221.31C578.23 218.58 576.02 216.37 573.29 216.37C570.56 216.37 568.34 218.58 568.34 221.31Z" />
			<path id="Path 175" class="shp1" d="M649.01 215.6C648.19 212.05 645.86 203.24 644.05 198.84C642.57 195.22 638.88 192.87 638.88 192.87C638.38 192.83 638.47 188.47 638.61 184.91C638.75 181.76 638.97 178.11 638.19 177.12C637.43 176.16 635.53 176.16 634.76 177.05C633.93 178 634 181.66 633.98 184.81C633.97 188.38 633.86 192.73 633.36 192.75C633.36 192.75 629.81 195.1 628.21 198.55C626.44 202.4 623.34 212.62 622.78 215.6C622.1 219.31 623.32 219.72 624.38 220.05C625.88 220.52 626.8 219.47 627.85 215.37C629.51 208.87 631.53 197.96 636.01 197.85L636.01 197.84C640.48 198.16 642.63 209.6 644.25 215.96C645.26 219.94 646.12 220.3 647.65 219.9C648.72 219.63 649.82 219.14 649.01 215.6Z" />
			<path id="Path 176" class="shp12" d="M609.1 161.77C599.5 161.24 589.52 162.65 581.49 182.5C573.45 202.35 586.55 272.75 586.55 272.75C586.55 272.75 624.45 195.94 627.1 186.85C629.75 177.75 631.63 163.03 609.1 161.77Z" />
			<path id="Path 177" class="shp23" d="M625.03 170.14C615.21 179.57 596.54 197.21 596.54 197.21C596.54 197.21 591.58 179.05 590.58 170.36C590.47 169.4 594.63 166.92 594.63 164.59C594.63 163.73 594.46 159.67 594.26 154.88C593.94 146.77 593.47 136.62 593.47 136.62L620.66 136.62C620.66 136.62 620.19 146.94 619.82 155.1C619.63 159.8 619.48 163.75 619.48 164.59C619.48 166.92 625.73 169.48 625.03 170.14Z" />
			<path id="Path 178" class="shp24" d="M620.66 136.62C620.66 136.62 620.19 146.94 619.82 155.1C609.33 158.79 600.13 157.02 594.26 154.88C593.94 146.77 593.47 136.62 593.47 136.62L620.66 136.62Z" />
			<path id="Path 179" class="shp23" d="M555.93 91.13C555.93 91.13 549.63 83.67 541.14 89.5C531.23 96.3 536.55 122.92 560.07 114.64L555.93 91.13Z" />
			<path id="Path 180" class="shp25" d="M545.13 109.39C545.99 107.88 547.32 106.56 549.03 105.83C549.88 105.44 550.83 105.27 551.78 105.28C552.75 105.24 553.67 105.51 554.57 105.81L553.41 106.7C552.76 103.79 551.63 100.74 549.59 98.73C548.53 97.77 547.19 97.21 545.71 97.16C544.96 97.07 544.21 97.24 543.43 97.33C542.67 97.49 541.93 97.79 541.13 97.98C542.46 97.1 543.93 96.22 545.67 96.07C547.36 95.83 549.27 96.34 550.65 97.48C552.05 98.6 552.98 100.1 553.69 101.63C554.36 103.19 554.85 104.76 555.08 106.46L555.27 107.96L553.92 107.36C552.51 106.74 550.94 106.49 549.4 106.91C547.86 107.3 546.38 108.19 545.13 109.39Z" />
			<path id="Path 181" class="shp23" d="M658.18 91.13C658.18 91.13 664.48 83.67 672.97 89.5C682.88 96.3 677.56 122.92 654.04 114.64L658.18 91.13Z" />
			<path id="Path 182" class="shp25" d="M668.98 109.39C667.73 108.19 666.25 107.3 664.71 106.91C663.17 106.49 661.6 106.74 660.2 107.36L658.84 107.96L659.03 106.46C659.26 104.76 659.75 103.19 660.42 101.63C661.13 100.1 662.06 98.6 663.46 97.48C664.84 96.34 666.75 95.83 668.44 96.07C670.18 96.22 671.65 97.1 672.98 97.98C672.18 97.79 671.44 97.49 670.68 97.33C669.9 97.24 669.15 97.07 668.4 97.16C666.92 97.21 665.58 97.77 664.52 98.73C662.48 100.74 661.35 103.79 660.7 106.7L659.54 105.81C660.44 105.51 661.36 105.24 662.33 105.28C663.28 105.27 664.23 105.44 665.08 105.83C666.79 106.56 668.12 107.88 668.98 109.39Z" />
			<path id="Path 183" class="shp23" d="M649.32 131.69C634.28 148.8 607.06 148.71 607.06 148.71C607.06 148.71 579.85 148.8 564.78 131.69C548.53 113.19 544.93 58.68 558.62 41.33C571.34 25.26 591.87 21.1 607.06 21.1C622.24 21.1 642.76 25.26 655.48 41.33C669.18 58.68 665.6 113.19 649.32 131.69Z" />
			<path id="Path 184" class="shp11" d="M584.78 97.79C584.78 100.96 582.34 103.53 579.33 103.53C576.31 103.53 573.87 100.96 573.87 97.79C573.87 94.63 576.31 92.06 579.33 92.06C582.34 92.06 584.78 94.63 584.78 97.79ZM639.28 97.79C639.28 100.96 636.83 103.53 633.82 103.53C630.81 103.53 628.36 100.96 628.36 97.79C628.36 94.63 630.81 92.06 633.82 92.06C636.83 92.06 639.28 94.63 639.28 97.79Z" />
			<path id="Path 185" class="shp10" d="M570.17 83.71C570.17 83.71 574.48 76.24 584.2 80.52M643.08 83.71C643.08 83.71 638.77 76.24 629.04 80.52" />
			<path id="Path 186" class="shp25" d="M606.21 83.58C605.25 89.63 605.03 95.69 604.98 101.75L606.21 100.52C603.7 100.53 601.2 100.57 598.7 100.69L597.06 100.76L597.72 102.15C598.18 103.11 598.73 103.87 599.33 104.66C599.92 105.43 600.62 106.12 601.37 106.74C602.87 107.98 604.77 108.8 606.65 108.79C604.88 108.16 603.45 107.08 602.32 105.75C601.75 105.09 601.26 104.37 600.81 103.63C600.36 102.9 599.98 102.07 599.68 101.34L598.7 102.81C601.2 102.92 603.7 102.96 606.21 102.97L607.44 102.98L607.43 101.75C607.39 95.69 607.16 89.63 606.21 83.58Z" />
			<path id="Path 187" class="shp11" d="M610.84 120.79C614.15 121.22 617.28 121.24 619.95 120.05C621.27 119.46 622.54 118.68 623.62 117.59C624.22 117.11 624.66 116.45 625.24 115.89C625.76 115.28 626.22 114.61 626.82 113.98C626.67 114.81 626.45 115.63 626.16 116.44C625.77 117.19 625.49 118.04 624.91 118.71C623.96 120.19 622.44 121.31 620.81 122.06C619.14 122.77 617.29 123 615.55 122.73C613.82 122.48 612.17 121.85 610.84 120.79ZM645.11 95.15C644.95 96.35 644.25 97.7 642.78 98.2C642.08 98.44 641.26 98.4 640.53 98.1C639.81 97.77 639.33 97.24 638.9 96.77C638.08 95.77 637.51 94.82 636.74 94.05C635.99 93.3 635.03 92.7 633.82 92.37C635.01 92.05 636.44 92.28 637.55 93.05C638.67 93.78 639.43 94.87 640.15 95.7C640.87 96.61 641.51 97.04 642.48 96.96C643.39 96.86 644.36 96.13 645.11 95.15ZM568.22 95.15C568.96 96.13 569.94 96.86 570.85 96.96C571.82 97.04 572.46 96.61 573.18 95.7C573.9 94.87 574.66 93.78 575.78 93.05C576.89 92.28 578.32 92.05 579.51 92.37C578.3 92.7 577.34 93.3 576.59 94.05C575.82 94.82 575.25 95.77 574.43 96.77C574 97.24 573.52 97.77 572.8 98.1C572.07 98.4 571.25 98.44 570.55 98.2C569.08 97.7 568.38 96.35 568.22 95.15Z" />
			<path id="Path 188" class="shp10" d="M548.24 87.29C549.11 91.02 550.4 101.6 553.69 101.63C556.98 101.65 555.35 79.61 557.94 73.74C560.52 67.87 590.24 75.26 633.82 36.79C633.82 36.79 639.52 63.68 657.25 81.45C661.01 85.21 655.37 99.96 660.42 101.63C665.47 103.3 687.66 18.76 607.06 18.76C545.01 18.76 543.11 65.3 548.24 87.29Z" />
			<path id="Path 189" class="shp6" d="M594.18 164.19C594.18 164.19 576.61 172.01 568.14 183.76C566.96 185.4 579.24 187.08 579.24 187.08C579.24 187.08 567.02 196.59 567.2 200.62C567.38 204.66 574.4 258.92 584.97 277.58C584.97 277.58 585.06 183.69 594.18 164.19ZM586.23 275.98C586.23 275.98 608.19 241.21 618.95 229.4C629.71 217.59 635.67 210.68 638.01 208.59C640.35 206.49 625.47 192.02 625.47 192.02C625.47 192.02 641.68 197.65 642.08 195.45C642.49 193.24 641.53 180.38 624.52 165.79C624.52 165.79 589.93 230.83 586.23 275.98Z" />
		</g>
	</g>
</svg>