<svg xmlns="http://www.w3.org/2000/svg" viewBox="0 0 989 747" width="989" height="747">
	<defs>
		<clipPath clipPathUnits="userSpaceOnUse" id="cp1">
			<path d="M0 -176L1000 -176L1000 824L0 824Z" />
		</clipPath>
	</defs>
	<style>
		tspan { white-space:pre }
		.shp0 { opacity: 0.4;fill: #868686 } 
		.shp1 { fill: #425473 } 
		.shp2 { fill: #94a4ff } 
		.shp3 { opacity: 0.302;fill: #425473 } 
		.shp4 { opacity: 0.502;fill: #425473 } 
		.shp5 { fill: #ffd4a1 } 
		.shp6 { fill: #e8eff9 } 
		.shp7 { fill: #868686 } 
		.shp8 { opacity: 0.502;fill: #eabb88 } 
		.shp9 { fill: #eabb88 } 
		.shp10 { fill: #5e4f45 } 
		.shp11 { fill: #3d3632 } 
		.shp12 { fill: #ffa08a } 
		.shp13 { fill: #91d8e2 } 
		.shp14 { fill: #efc597 } 
		.shp15 { fill: #a37e4e } 
		.shp16 { opacity: 0.502;fill: #d8a36f } 
		.shp17 { fill: #d8a36f } 
		.shp18 { fill: #ffffff } 
		.shp19 { opacity: 0.302;fill: #868686 } 
		.shp20 { fill: #c8cfe8 } 
		.shp21 { opacity: 0.302;fill: #a1bfa8 } 
		.shp22 { opacity: 0.302;fill: #c8cfe8 } 
		.shp23 { fill: #ffd9b0 } 
		.shp24 { opacity: 0.502;fill: #efbe8e } 
		.shp25 { fill: #efbe8e } 
		.shp26 { opacity: 0.102;fill: #e8eff9 } 
		.shp27 { fill: #ffdfb8 } 
		.shp28 { opacity: 0.502;fill: #f9ca9b } 
		.shp29 { fill: #f9ca9b } 
	</style>
	<g id="Page 1" clip-path="url(#cp1)">
		<g id="Folder 2">
			<path id="Path 2" class="shp0" d="M277.38 569.73C277.38 580.78 229.8 589.74 171.09 589.74C112.39 589.74 64.8 580.78 64.8 569.73C64.8 558.67 112.39 549.71 171.09 549.71C229.8 549.71 277.38 558.67 277.38 569.73Z" />
			<path id="Path 3" class="shp1" d="M145.39 542.64L145.39 549.81C145.39 549.81 115.74 560.65 112.42 566.24C109.09 571.84 166.09 559.42 166.09 554.44L166.09 542.64L145.39 542.64ZM210.82 542.64L210.82 549.81C210.82 549.81 240.48 560.65 243.8 566.24C247.12 571.84 190.13 559.42 190.13 554.44L190.13 542.64L210.82 542.64Z" />
			<path id="Path 4" class="shp2" d="M225 343.22C225 343.22 224.78 350.63 224.43 362.66C224.39 363.93 224.37 365.24 224.32 366.62C222.75 420.33 218.87 548 217.77 549.45C216.41 551.31 189.37 552.54 185.69 549.45C182.01 546.38 179.9 386.7 179.9 386.7L174.42 386.7C174.42 386.7 171.69 548.66 170.7 549.16C169.69 549.65 149.64 554.18 138.77 548.62C133.95 546.12 130.44 419.92 129.17 366.6C129.13 365 129.11 363.49 129.06 362.02C128.78 350.39 128.65 343.22 128.65 343.22L225 343.22Z" />
			<path id="Path 5" class="shp3" d="M225 343.22C225 343.22 224.78 350.63 224.43 362.66C224.39 363.93 224.37 365.24 224.32 366.62C212.62 370.37 195.84 374.05 175.04 374.05C154.2 374.05 139.12 370.35 129.17 366.6C129.13 365 129.11 363.49 129.06 362.02C128.78 350.39 128.65 343.22 128.65 343.22L225 343.22Z" />
			<path id="Path 6" class="shp4" d="M171.09 539.65C168.38 540.68 165.54 541.35 162.67 541.85C159.81 542.35 156.89 542.55 153.98 542.61C151.06 542.61 148.14 542.33 145.28 541.79C142.4 541.26 139.63 540.29 137.01 539.07C139.8 539.86 142.57 540.61 145.42 540.96C148.25 541.32 151.11 541.6 153.98 541.51C156.84 541.55 159.7 541.33 162.56 541.02C165.41 540.7 168.26 540.25 171.09 539.65ZM184.65 539.65C187.48 540.25 190.33 540.7 193.18 541.02C196.04 541.33 198.9 541.55 201.76 541.51C204.63 541.6 207.49 541.32 210.32 540.96C213.17 540.61 215.94 539.86 218.73 539.07C216.11 540.29 213.34 541.26 210.46 541.79C207.6 542.33 204.68 542.61 201.76 542.61C198.85 542.55 195.93 542.35 193.07 541.85C190.2 541.35 187.36 540.68 184.65 539.65Z" />
			<path id="Path 7" class="shp2" d="M229.18 351.44C227.89 356.27 203.59 364.4 177.13 364.4C147.46 364.4 126.37 356.27 125.06 351.44C123.77 346.62 138.46 203.63 141.04 198.07C143.65 192.49 172.02 184.16 177.13 184.16C182.24 184.16 210.61 192.49 213.19 198.07C215.79 203.63 230.47 346.62 229.18 351.44Z" />
			<path id="Path 8" class="shp5" d="M130.6 271.69L128.06 279.25C118.55 277.72 108.4 271.28 103.14 266.63C104.43 262.27 105.35 259.36 105.35 259.36C112.34 260.72 130.6 271.69 130.6 271.69Z" />
			<path id="Path 9" class="shp2" d="M152.99 191.1C152.99 191.1 148.85 277.87 134.32 279.47C132.31 279.69 130.2 279.61 128.06 279.26C118.55 277.72 108.4 271.28 103.14 266.63C101.06 264.79 99.74 263.24 99.5 262.38C98.52 258.83 125.95 205.93 131.1 201.42C136.27 196.9 152.99 191.1 152.99 191.1Z" />
			<path id="Path 10" class="shp3" d="M131.16 279.25C131.16 274.66 131.4 270.1 131.68 265.53C131.93 260.97 132.35 256.42 132.78 251.87C133.25 247.32 133.73 242.78 134.38 238.25L135.36 231.46C135.76 229.21 136.1 226.95 136.57 224.7C136.59 227 136.47 229.28 136.43 231.57L136.06 238.42C135.8 242.99 135.38 247.54 134.96 252.08C134.48 256.63 134 261.17 133.35 265.7C132.73 270.23 132.06 274.75 131.16 279.25ZM131.16 226.5C132.66 227.59 133.56 228.98 134.32 230.44C135.02 231.93 135.57 233.49 135.51 235.35C134.01 234.26 133.11 232.87 132.36 231.41C131.66 229.92 131.11 228.35 131.16 226.5Z" />
			<path id="Path 11" class="shp6" d="M161.69 234.23C169.05 266.01 167.53 273.68 164.8 277.23C161.92 280.96 157.41 282.9 157.22 282.98L156.33 280.87L156.77 281.92L156.33 280.87C156.37 280.85 160.48 279.08 162.98 275.83C164.96 273.26 166.74 266.22 159.46 234.74L161.69 234.23Z" />
			<path id="Path 12" class="shp1" d="M159.82 280.07L160.02 280.45C160.58 281.54 160.14 282.89 159.05 283.45L155.96 285.04C154.87 285.6 153.52 285.17 152.96 284.08L152.77 283.7C152.21 282.61 152.64 281.26 153.73 280.7L156.82 279.11C157.91 278.55 159.26 278.99 159.82 280.07Z" />
			<path id="Path 13" class="shp6" d="M141.08 234.39C134.11 257.97 132.2 270.93 135.09 275.19C137.4 278.6 141.39 280.6 141.43 280.62L140.41 282.67C140.23 282.58 135.84 280.38 133.19 276.48C129.75 271.41 131.4 259.03 138.88 233.74L141.08 234.39Z" />
			<path id="Path 14" class="shp1" d="M137.99 279.62L137.78 279.99C137.15 281.04 137.5 282.41 138.56 283.04L141.55 284.81C142.6 285.44 143.97 285.09 144.6 284.03L144.82 283.67C145.44 282.61 145.09 281.24 144.04 280.61L141.05 278.84C139.99 278.22 138.62 278.57 137.99 279.62Z" />
			<path id="Path 15" class="shp5" d="M254.59 304.56C251.19 307.76 230.2 310.72 189.77 294.68C189.85 294.66 189.92 294.64 190.01 294.62C190.01 294.62 176.29 284.82 161.3 282.26C161.3 282.26 154.68 282.45 146.46 282.89C144.34 283 142.13 283.15 139.87 283.31C140.5 282.96 148.68 276.21 163.8 275.05C192.69 272.83 219.79 281.44 227.81 282.34L223.64 271.69C223.64 271.69 241.88 260.72 248.89 259.36C248.89 259.36 261.95 297.64 254.59 304.56Z" />
			<path id="Path 16" class="shp2" d="M201.07 191.1C201.07 191.1 217.79 196.89 222.95 201.42C228.11 205.94 255.53 258.84 254.56 262.39C253.59 265.93 234.24 281.09 219.73 279.48C205.21 277.87 201.07 191.1 201.07 191.1Z" />
			<path id="Path 17" class="shp7" d="M150.91 197.74C151.95 186.53 169.95 184.68 178.44 184.56C189.25 184.4 198.34 186.52 201.86 197.48C205.33 208.3 205.94 220.44 206.12 231.76C206.15 233.87 209.44 233.88 209.4 231.76C209.2 218.71 210.08 194.14 198.27 185.59C186.58 177.14 149.38 178.74 147.62 197.74C147.43 199.84 150.72 199.83 150.91 197.74Z" />
			<path id="Path 18" class="shp5" d="M190.01 294.62C189.92 294.64 189.85 294.66 189.76 294.68C184.55 296.35 179.47 297.84 174.54 299.15C129.17 311.31 97.2 309.58 95.25 304.19C93.65 299.83 99.7 278.18 103.14 266.63C108.4 271.28 118.55 277.72 128.06 279.25L126.33 284.45C130.4 283.99 135.16 283.62 139.85 283.31L139.87 283.31C142.12 283.16 144.34 283 146.46 282.89C154.68 282.45 161.3 282.26 161.3 282.26C176.29 284.82 190.01 294.62 190.01 294.62Z" />
			<path id="Path 19" class="shp8" d="M190.01 294.62C184.7 296.3 179.53 297.82 174.54 299.15C161.32 294.24 158.65 284.97 138.77 283.38C146.99 282.94 161.3 282.26 161.3 282.26C176.29 284.82 190.01 294.62 190.01 294.62Z" />
			<path id="Path 20" class="shp1" d="M215.31 237.97C215.31 242.14 211.93 245.52 207.76 245.52C203.59 245.52 200.21 242.14 200.21 237.97C200.21 233.8 203.59 230.42 207.76 230.42C211.93 230.42 215.31 233.8 215.31 237.97Z" />
			<path id="Path 21" class="shp6" d="M212.3 237.97C212.3 240.48 210.27 242.52 207.76 242.52C205.25 242.52 203.21 240.48 203.21 237.97C203.21 235.46 205.25 233.43 207.76 233.43C210.27 233.43 212.3 235.46 212.3 237.97Z" />
			<path id="Path 22" class="shp4" d="M154.46 193.03C157.69 196.1 161.04 199.04 164.59 201.69C168.14 204.3 171.89 206.79 176.06 208.03L175.71 208.05C179.8 206.37 183.72 204.17 187.43 201.71C189.3 200.49 191.06 199.13 192.77 197.69C194.51 196.28 196.06 194.67 197.59 193.03C194.93 196.65 191.57 199.76 187.91 202.4C184.24 205.05 180.29 207.27 176.11 209.07L175.94 209.14L175.76 209.08C173.56 208.41 171.52 207.38 169.58 206.23C167.64 205.08 165.82 203.76 164.07 202.35C160.59 199.53 157.37 196.42 154.46 193.03Z" />
			<path id="Path 23" class="shp1" d="M138.13 232.72C138.88 229.46 141.02 221.35 142.68 217.3C144.05 213.98 147.44 211.81 147.44 211.81C147.9 211.78 147.82 207.77 147.68 204.5C147.56 201.61 147.36 198.24 148.08 197.33C148.77 196.46 150.52 196.45 151.23 197.27C151.99 198.14 151.93 201.51 151.94 204.41C151.95 207.69 152.06 211.69 152.51 211.7C152.51 211.7 155.78 213.87 157.25 217.04C158.88 220.58 161.73 229.98 162.24 232.72C162.87 236.13 161.75 236.51 160.77 236.82C159.39 237.24 158.55 236.28 157.58 232.51C156.05 226.53 154.2 216.49 150.08 216.4L150.08 216.39C145.97 216.68 144 227.2 142.5 233.05C141.57 236.71 140.78 237.04 139.37 236.68C138.39 236.42 137.38 235.97 138.13 232.72Z" />
			<path id="Path 24" class="shp3" d="M223.18 279.25C222.28 274.75 221.62 270.23 220.99 265.7C220.34 261.17 219.86 256.63 219.39 252.08C218.96 247.54 218.54 242.99 218.29 238.42L217.92 231.57C217.87 229.28 217.75 227 217.77 224.7C218.25 226.95 218.58 229.21 218.98 231.46L219.96 238.25C220.61 242.78 221.09 247.32 221.57 251.87C221.99 256.42 222.41 260.97 222.66 265.53C222.94 270.1 223.18 274.66 223.18 279.25ZM223.18 226.5C223.23 228.35 222.68 229.92 221.99 231.41C221.23 232.87 220.33 234.26 218.83 235.35C218.77 233.49 219.32 231.93 220.02 230.44C220.78 228.98 221.68 227.59 223.18 226.5Z" />
			<path id="Path 25" class="shp4" d="M222.24 271.18C223.67 270.93 225.05 270.53 226.4 270.03C227.76 269.58 229.07 269.01 230.37 268.42C232.97 267.21 235.47 265.82 237.86 264.24C240.32 262.76 242.58 261 244.88 259.27C247.15 257.51 249.33 255.63 251.55 253.77C250.59 254.85 249.59 255.89 248.6 256.96C247.54 257.95 246.5 258.95 245.41 259.92C243.21 261.8 240.9 263.59 238.45 265.16C235.97 266.69 233.42 268.12 230.7 269.19C227.99 270.23 225.16 271.1 222.24 271.18ZM132.45 271.18C129.54 271.1 126.7 270.23 123.99 269.19C121.27 268.12 118.72 266.69 116.24 265.16C113.79 263.59 111.49 261.8 109.28 259.92C108.19 258.95 107.15 257.95 106.09 256.96C105.1 255.89 104.1 254.85 103.14 253.77C105.36 255.63 107.54 257.51 109.81 259.27C112.11 261 114.37 262.76 116.83 264.24C119.22 265.82 121.73 267.21 124.32 268.42C125.62 269.01 126.94 269.58 128.29 270.03C129.64 270.53 131.02 270.93 132.45 271.18ZM124.98 346.55C129.12 348.19 133.38 349.52 137.67 350.68C139.81 351.29 141.98 351.77 144.14 352.33L150.67 353.68C159.4 355.32 168.28 356.23 177.15 356.3C181.6 356.48 186.02 356.14 190.46 355.92C192.67 355.71 194.87 355.4 197.07 355.14L200.38 354.72L203.64 354.08C205.82 353.64 208.02 353.27 210.18 352.76L216.59 350.95C217.66 350.64 218.75 350.41 219.8 350.03L222.93 348.87L229.2 346.55C221.03 350.08 212.63 353.34 203.81 354.91L200.53 355.62C199.42 355.81 198.31 355.92 197.2 356.08C194.98 356.35 192.77 356.69 190.55 356.92C186.08 357.17 181.62 357.55 177.14 357.39C168.2 357.23 159.26 356.33 150.5 354.51C141.76 352.68 133.15 350.13 124.98 346.55Z" />
			<path id="Path 26" class="shp5" d="M195.82 278.07C195.82 278.07 215.33 270.65 217.06 271.14C218.79 271.64 213.35 274.59 213.35 274.59C213.35 274.59 224.6 271.16 226.08 272.67C227.56 274.18 220.02 277.07 220.02 277.07C220.02 277.07 228.63 275.21 228.79 276.73C228.95 278.25 220.83 281.53 220.83 281.53L195.82 278.07ZM191.93 189.45C189 196.64 175.91 201.42 175.91 201.42C175.91 201.42 162.81 196.64 159.9 189.45C159.57 188.66 164.83 186.58 164.83 184.5C164.83 183.73 164.67 180.12 164.5 175.84C164.21 168.61 163.8 159.56 163.8 159.56L188.03 159.56C188.03 159.56 187.62 168.77 187.29 176.04C187.11 180.23 186.98 183.75 186.98 184.5C186.98 186.58 192.26 188.66 191.93 189.45Z" />
			<path id="Path 27" class="shp8" d="M188.03 159.56C188.03 159.56 187.62 168.77 187.29 176.04C177.93 179.33 169.74 177.75 164.5 175.84C164.21 168.61 163.8 159.56 163.8 159.56L188.03 159.56Z" />
			<path id="Path 28" class="shp5" d="M130.33 119.01C130.33 119.01 124.71 112.36 117.14 117.55C108.31 123.62 113.05 147.35 134.02 139.97L130.33 119.01Z" />
			<path id="Path 29" class="shp9" d="M120.7 135.29C121.46 133.95 122.65 132.77 124.18 132.12C124.93 131.77 125.78 131.62 126.63 131.62C127.49 131.59 128.31 131.83 129.11 132.09L128.08 132.9C127.5 130.3 126.5 127.58 124.67 125.79C123.73 124.93 122.54 124.43 121.21 124.39C120.55 124.3 119.88 124.46 119.19 124.54C118.5 124.68 117.85 124.95 117.14 125.12C118.32 124.33 119.63 123.55 121.18 123.41C122.69 123.2 124.39 123.66 125.62 124.67C126.87 125.67 127.7 127.01 128.33 128.37C128.93 129.76 129.37 131.16 129.57 132.68L129.74 134.01L128.53 133.48C127.28 132.93 125.88 132.7 124.51 133.08C123.14 133.43 121.81 134.22 120.7 135.29Z" />
			<path id="Path 30" class="shp5" d="M221.49 119.01C221.49 119.01 227.1 112.36 234.67 117.55C243.51 123.62 238.76 147.35 217.8 139.97L221.49 119.01Z" />
			<path id="Path 31" class="shp9" d="M231.11 135.29C230 134.22 228.68 133.43 227.31 133.08C225.94 132.7 224.54 132.93 223.28 133.48L222.07 134.01L222.25 132.68C222.45 131.16 222.88 129.76 223.48 128.37C224.12 127.01 224.95 125.67 226.2 124.67C227.42 123.66 229.13 123.2 230.64 123.41C232.18 123.55 233.5 124.33 234.68 125.12C233.97 124.95 233.31 124.68 232.63 124.54C231.94 124.46 231.27 124.3 230.6 124.39C229.28 124.43 228.08 124.93 227.14 125.79C225.32 127.58 224.31 130.3 223.74 132.9L222.7 132.09C223.5 131.83 224.33 131.59 225.19 131.62C226.03 131.62 226.88 131.77 227.64 132.12C229.16 132.77 230.35 133.95 231.11 135.29Z" />
			<path id="Path 32" class="shp5" d="M213.59 155.17C200.18 170.42 175.92 170.34 175.92 170.34C175.92 170.34 151.65 170.42 138.22 155.17C123.73 138.68 120.52 90.08 132.73 74.61C144.07 60.28 162.37 56.58 175.92 56.58C189.44 56.58 207.74 60.28 219.08 74.61C231.29 90.08 228.1 138.68 213.59 155.17Z" />
			<path id="Path 33" class="shp10" d="M125.2 122.05C129.66 135.17 136.46 84.96 136.46 84.96C136.46 84.96 141.24 90.34 154.43 91.68C184.87 94.77 212.3 78.75 212.3 78.75C212.3 78.75 220.62 124.23 225.29 124.23C229.96 124.23 232.83 84.31 227.83 74.02C223.01 64.1 212.3 63.97 212.3 63.97C212.3 63.97 171.77 29.09 136.52 52.45C123.47 61.1 128.82 75.8 128.82 75.8C128.82 75.8 113.02 86.21 125.2 122.05Z" />
			<path id="Path 34" class="shp11" d="M156.05 124.95C156.05 127.78 153.87 130.07 151.18 130.07C148.5 130.07 146.32 127.78 146.32 124.95C146.32 122.13 148.5 119.84 151.18 119.84C153.87 119.84 156.05 122.13 156.05 124.95Z" />
			<path id="Path 35" class="shp10" d="M143.02 116.3C143.02 116.3 146.86 109.64 155.53 113.46" />
			<path id="Path 36" class="shp11" d="M194.99 124.95C194.99 127.78 197.17 130.07 199.86 130.07C202.55 130.07 204.73 127.78 204.73 124.95C204.73 122.13 202.55 119.84 199.86 119.84C197.17 119.84 194.99 122.13 194.99 124.95Z" />
			<path id="Path 37" class="shp10" d="M208.02 116.3C208.02 116.3 204.18 109.64 195.51 113.46" />
			<path id="Path 38" class="shp9" d="M175.91 112.28C176.77 117.68 176.97 123.07 177.01 128.47L175.91 127.38C178.14 127.39 180.37 127.42 182.6 127.53L184.07 127.6L183.48 128.84C183.07 129.69 182.58 130.37 182.05 131.07C181.52 131.76 180.9 132.37 180.23 132.93C178.89 134.03 177.2 134.76 175.52 134.75C177.1 134.19 178.37 133.23 179.38 132.04C179.88 131.45 180.32 130.81 180.73 130.15C181.12 129.5 181.47 128.76 181.73 128.11L182.6 129.42C180.37 129.52 178.14 129.56 175.91 129.57L174.81 129.57L174.82 128.47C174.86 123.07 175.06 117.68 175.91 112.28Z" />
			<path id="Path 39" class="shp11" d="M185.65 148.75C183.86 150.8 180.68 152.49 175.91 152.49C171.17 152.49 168 150.8 166.18 148.75C164.26 146.57 163.87 144.04 164.8 142.76C166.59 140.3 173.12 141.88 175.91 141.88C178.71 141.88 185.27 140.3 187.03 142.76C187.96 144.04 187.6 146.6 185.65 148.75Z" />
			<path id="Path 40" class="shp12" d="M185.65 148.75C183.86 150.8 180.68 152.49 175.91 152.49C171.17 152.49 168 150.8 166.18 148.75C168.59 146.96 172.07 145.83 175.91 145.83C179.76 145.83 183.24 146.96 185.65 148.75Z" />
		</g>
		<g id="Folder 2">
			<path id="Path 41" class="shp0" d="M626.9 621.06C626.9 633.12 574.97 642.9 510.91 642.9C446.85 642.9 394.92 633.12 394.92 621.06C394.92 609 446.85 599.22 510.91 599.22C574.97 599.22 626.9 609 626.9 621.06Z" />
			<path id="Path 42" class="shp11" d="M473.69 593.85L473.69 601.91C473.69 601.91 440.35 614.1 436.61 620.39C432.88 626.68 496.95 612.72 496.95 607.12L496.95 593.85L473.69 593.85ZM547.24 593.85L547.24 601.91C547.24 601.91 580.58 614.1 584.31 620.39C588.04 626.68 523.97 612.72 523.97 607.12L523.97 593.85L547.24 593.85Z" />
			<path id="Path 43" class="shp13" d="M563.18 369.67C563.18 369.67 562.93 378 562.54 391.52C562.49 392.95 562.47 394.43 562.41 395.98C560.64 456.36 556.28 599.88 555.05 601.51C553.52 603.6 523.12 604.98 518.98 601.51C514.85 598.06 512.48 418.55 512.48 418.55L506.32 418.55C506.32 418.55 503.24 600.62 502.14 601.19C501 601.73 478.46 606.83 466.24 600.57C460.82 597.76 456.88 455.89 455.45 395.96C455.4 394.16 455.38 392.46 455.33 390.81C455.01 377.73 454.86 369.67 454.86 369.67L563.18 369.67Z" />
			<path id="Path 44" class="shp3" d="M563.18 369.67C563.18 369.67 562.93 378 562.54 391.52C562.49 392.95 562.47 394.43 562.41 395.98C549.26 400.2 530.39 404.33 507.01 404.33C483.58 404.33 466.64 400.17 455.45 395.96C455.4 394.16 455.38 392.46 455.33 390.81C455.01 377.73 454.86 369.67 454.86 369.67L563.18 369.67Z" />
			<path id="Path 45" class="shp4" d="M502.57 590.49C499.53 591.65 496.33 592.41 493.11 592.97C489.89 593.53 486.61 593.75 483.34 593.82C480.06 593.82 476.77 593.51 473.55 592.9C470.33 592.3 467.21 591.21 464.26 589.84C467.39 590.73 470.51 591.57 473.71 591.96C476.9 592.37 480.11 592.68 483.33 592.59C486.55 592.62 489.77 592.39 492.98 592.04C496.19 591.68 499.39 591.16 502.57 590.49ZM517.82 590.49C521 591.16 524.2 591.68 527.41 592.04C530.62 592.39 533.84 592.62 537.05 592.59C540.28 592.68 543.49 592.37 546.68 591.96C549.88 591.57 553 590.73 556.13 589.84C553.18 591.21 550.06 592.3 546.83 592.9C543.61 593.51 540.33 593.82 537.05 593.82C533.77 593.75 530.5 593.53 527.27 592.97C524.06 592.41 520.86 591.65 517.82 590.49Z" />
			<path id="Path 46" class="shp14" d="M588.09 282.47C588.09 282.47 593.87 358.94 583.37 391.08C583.37 391.08 573.14 394.29 567.89 391.08C567.89 391.08 561.21 306.76 563.18 290.73C565.15 274.71 588.09 282.47 588.09 282.47Z" />
			<path id="Path 47" class="shp13" d="M567.87 378.92C566.42 384.34 539.11 393.48 509.36 393.48C476.01 393.48 452.3 384.34 450.82 378.92C449.37 373.49 465.89 212.75 468.79 206.5C471.72 200.23 503.62 190.86 509.36 190.86C515.1 190.86 547 200.23 549.9 206.5C552.83 212.75 569.32 373.49 567.87 378.92Z" />
			<path id="Path 48" class="shp14" d="M457.05 289.27L454.19 297.77C443.5 296.04 432.1 288.8 426.18 283.58C427.64 278.67 428.67 275.4 428.67 275.4C436.53 276.92 457.05 289.27 457.05 289.27Z" />
			<path id="Path 49" class="shp13" d="M482.23 198.66C482.23 198.66 477.57 296.21 461.24 298.01C458.98 298.26 456.61 298.16 454.2 297.77C443.5 296.04 432.1 288.8 426.19 283.58C423.85 281.51 422.37 279.76 422.1 278.8C420.99 274.81 451.83 215.34 457.62 210.26C463.43 205.19 482.23 198.66 482.23 198.66Z" />
			<path id="Path 50" class="shp3" d="M457.69 297.77C457.69 292.6 457.96 287.47 458.27 282.34C458.55 277.21 459.03 272.09 459.5 266.98C460.04 261.87 460.58 256.76 461.3 251.68L462.4 244.04C462.86 241.51 463.23 238.96 463.77 236.44C463.79 239.02 463.66 241.59 463.61 244.16L463.19 251.86C462.91 256.99 462.43 262.11 461.95 267.22C461.42 272.33 460.88 277.44 460.15 282.53C459.44 287.62 458.7 292.71 457.69 297.77ZM457.69 238.46C459.38 239.69 460.39 241.25 461.24 242.89C462.02 244.56 462.64 246.32 462.58 248.41C460.89 247.18 459.88 245.62 459.03 243.98C458.25 242.3 457.63 240.54 457.69 238.46Z" />
			<path id="Path 51" class="shp6" d="M492 247.15C500.27 282.88 498.57 291.5 495.5 295.48C492.27 299.68 487.19 301.86 486.98 301.95L485.98 299.58L486.48 300.76L485.98 299.58C486.02 299.56 490.65 297.56 493.46 293.91C495.68 291.03 497.68 283.11 489.49 247.73L492 247.15Z" />
			<path id="Path 52" class="shp1" d="M489.78 298.44L490.25 299.36C490.81 300.45 490.38 301.8 489.29 302.36L485.32 304.4C484.23 304.96 482.88 304.53 482.32 303.44L481.85 302.52C481.29 301.43 481.72 300.08 482.81 299.52L486.78 297.48C487.87 296.92 489.22 297.35 489.78 298.44Z" />
			<path id="Path 53" class="shp6" d="M468.84 247.33C461 273.84 458.86 288.41 462.1 293.2C464.7 297.03 469.19 299.28 469.23 299.3L468.09 301.61C467.88 301.51 462.95 299.03 459.97 294.64C456.11 288.95 457.96 275.03 466.37 246.6L468.84 247.33Z" />
			<path id="Path 54" class="shp1" d="M465.51 297.94L464.98 298.83C464.36 299.88 464.71 301.25 465.76 301.88L469.6 304.15C470.65 304.78 472.03 304.43 472.65 303.37L473.18 302.49C473.8 301.43 473.45 300.06 472.4 299.44L468.56 297.16C467.51 296.53 466.13 296.88 465.51 297.94Z" />
			<path id="Path 55" class="shp13" d="M536.28 198.66C536.28 198.66 555.07 205.18 560.87 210.26C566.67 215.35 597.49 274.81 596.41 278.8C595.32 282.79 573.57 299.83 557.25 298.02C540.93 296.21 536.28 198.66 536.28 198.66Z" />
			<path id="Path 56" class="shp7" d="M479.89 206.13C481.05 193.53 501.29 191.45 510.84 191.31C522.98 191.14 533.21 193.51 537.16 205.83C541.06 218 541.75 231.65 541.95 244.37C541.98 246.75 545.68 246.76 545.64 244.37C545.41 229.71 546.4 202.08 533.13 192.48C519.99 182.97 478.17 184.77 476.19 206.13C475.97 208.49 479.67 208.48 479.89 206.13Z" />
			<path id="Path 57" class="shp1" d="M552.28 251.36C552.28 256.05 548.48 259.85 543.79 259.85C539.11 259.85 535.31 256.05 535.31 251.36C535.31 246.67 539.11 242.87 543.79 242.87C548.48 242.87 552.28 246.67 552.28 251.36Z" />
			<path id="Path 58" class="shp6" d="M548.9 251.36C548.9 254.18 546.61 256.47 543.79 256.47C540.97 256.47 538.68 254.18 538.68 251.36C538.68 248.54 540.97 246.25 543.79 246.25C546.61 246.25 548.9 248.54 548.9 251.36Z" />
			<path id="Path 59" class="shp4" d="M483.88 200.83C487.51 204.29 491.27 207.59 495.26 210.57C499.25 213.51 503.47 216.3 508.16 217.7L507.76 217.72C512.36 215.84 516.78 213.36 520.94 210.59C523.04 209.23 525.03 207.69 526.94 206.07C528.9 204.49 530.64 202.68 532.37 200.83C529.37 204.91 525.59 208.4 521.48 211.37C517.35 214.35 512.92 216.84 508.21 218.86L508.02 218.94L507.82 218.88C505.34 218.12 503.06 216.96 500.88 215.68C498.7 214.38 496.64 212.9 494.69 211.32C490.77 208.15 487.14 204.64 483.88 200.83Z" />
			<path id="Path 60" class="shp1" d="M465.52 245.46C466.36 241.79 468.77 232.67 470.64 228.12C472.17 224.39 475.99 221.95 475.99 221.95C476.5 221.92 476.41 217.41 476.26 213.73C476.12 210.48 475.89 206.7 476.7 205.67C477.48 204.69 479.45 204.68 480.24 205.6C481.1 206.58 481.03 210.37 481.05 213.63C481.06 217.31 481.18 221.82 481.69 221.83C481.69 221.83 485.36 224.27 487.01 227.83C488.85 231.81 492.05 242.38 492.63 245.46C493.34 249.28 492.07 249.72 490.97 250.06C489.42 250.54 488.47 249.46 487.39 245.22C485.67 238.5 483.59 227.21 478.95 227.11L478.95 227.1C474.33 227.43 472.11 239.25 470.43 245.82C469.39 249.94 468.5 250.31 466.92 249.91C465.81 249.62 464.68 249.11 465.52 245.46Z" />
			<path id="Path 61" class="shp3" d="M561.13 297.77C560.12 292.71 559.37 287.62 558.67 282.53C557.94 277.44 557.4 272.33 556.87 267.22C556.39 262.11 555.91 256.99 555.63 251.86L555.21 244.16C555.16 241.59 555.03 239.02 555.05 236.44C555.59 238.96 555.96 241.51 556.41 244.04L557.51 251.68C558.24 256.76 558.78 261.87 559.32 266.98C559.79 272.09 560.27 277.21 560.55 282.34C560.86 287.47 561.13 292.6 561.13 297.77ZM561.13 238.46C561.19 240.54 560.57 242.3 559.79 243.98C558.94 245.62 557.93 247.18 556.24 248.41C556.18 246.32 556.8 244.56 557.58 242.89C558.43 241.25 559.44 239.69 561.13 238.46Z" />
			<path id="Path 62" class="shp4" d="M560.08 288.69C561.68 288.4 563.23 287.96 564.75 287.4C566.27 286.89 567.75 286.25 569.22 285.58C572.13 284.22 574.95 282.66 577.63 280.89C580.39 279.23 582.94 277.24 585.52 275.3C588.07 273.32 590.52 271.21 593.02 269.12C591.95 270.34 590.82 271.5 589.71 272.7C588.52 273.81 587.34 274.94 586.12 276.03C583.64 278.15 581.05 280.15 578.3 281.92C575.51 283.64 572.64 285.25 569.59 286.45C566.54 287.62 563.35 288.6 560.08 288.69ZM459.13 288.69C455.86 288.6 452.67 287.62 449.62 286.45C446.57 285.25 443.7 283.64 440.91 281.92C438.16 280.15 435.57 278.15 433.09 276.03C431.87 274.94 430.69 273.81 429.5 272.7C428.39 271.5 427.26 270.34 426.19 269.12C428.68 271.21 431.13 273.32 433.69 275.3C436.27 277.24 438.81 279.23 441.58 280.89C444.26 282.66 447.08 284.22 449.99 285.58C451.46 286.25 452.94 286.89 454.46 287.4C455.98 287.96 457.53 288.4 459.13 288.69ZM450.73 373.41C455.39 375.25 460.18 376.76 465.01 378.05C467.41 378.74 469.85 379.29 472.27 379.91L479.61 381.44C489.44 383.27 499.41 384.3 509.39 384.37C514.38 384.58 519.36 384.19 524.35 383.95C526.83 383.71 529.3 383.36 531.78 383.07L535.5 382.6L539.17 381.88C541.61 381.38 544.08 380.97 546.51 380.4L553.73 378.37C554.93 378.02 556.15 377.75 557.33 377.33L560.85 376.03L567.89 373.41C558.72 377.39 549.28 381.04 539.35 382.81L535.67 383.62C534.43 383.82 533.17 383.95 531.93 384.13C529.44 384.44 526.94 384.81 524.44 385.07C519.43 385.35 514.41 385.78 509.37 385.6C499.32 385.42 489.27 384.41 479.43 382.36C469.6 380.31 459.92 377.44 450.73 373.41Z" />
			<path id="Path 63" class="shp15" d="M534.05 335.8L475.36 340.16C470.85 340.5 466.92 337.11 466.59 332.6L460.54 251.28C460.21 246.77 463.59 242.84 468.1 242.51L526.79 238.14C531.3 237.81 535.23 241.19 535.56 245.7L541.61 327.03C541.94 331.54 538.56 335.46 534.05 335.8Z" />
			<path id="Path 64" class="shp6" d="M512.6 245.01L483.77 247.12C481.91 247.25 480.29 245.86 480.16 244L479.86 239.95C479.73 238.09 481.12 236.48 482.98 236.34L511.81 234.23C513.67 234.09 515.28 235.49 515.42 237.35L515.72 241.39C515.85 243.25 514.46 244.87 512.6 245.01ZM506.69 229.05L507.1 234.58L502.72 234.9L502.53 232.36C502.44 231.02 501.27 230.01 499.93 230.11L494.14 230.54C492.8 230.63 491.8 231.8 491.89 233.14L492.08 235.68L487.7 236L487.3 230.47C487.15 228.52 488.6 226.84 490.55 226.69L502.92 225.79C504.85 225.65 506.55 227.1 506.69 229.05Z" />
			<path id="Path 65" class="shp14" d="M523.84 315.03C523.74 315.06 523.66 315.08 523.57 315.11C517.7 316.98 511.99 318.66 506.45 320.13C455.45 333.8 419.51 331.86 417.32 325.8C415.52 320.9 422.32 296.56 426.19 283.58C432.1 288.8 443.5 296.04 454.2 297.77L452.25 303.6C456.83 303.09 462.18 302.67 467.45 302.32L467.47 302.32C470.01 302.15 472.5 301.98 474.89 301.85C484.13 301.36 507.99 300.66 507.99 300.66C524.84 303.54 523.84 315.03 523.84 315.03ZM507.52 319.87C508.58 319.74 522.69 320.98 526.25 320.15C529.8 319.31 540.44 316.09 540.98 313.32C541.32 311.55 540.39 311.41 540.39 311.41C540.39 311.41 541.4 311.11 541.65 309.92C541.89 308.72 541.05 308.13 541.05 308.13C541.05 308.13 543.06 306.77 542.52 304.53C542.23 303.35 539.92 302.79 539.92 302.79C539.92 302.79 542 301.41 540.94 299.98C539.74 298.35 528.01 301.06 527.74 300.75C525.99 298.7 536.69 301.45 536.28 298.55C536.14 297.57 523.82 291.95 518.58 294.91C514.18 297.39 504.68 300.76 504.68 300.76L507.52 319.87ZM585.03 383.42C584.98 384.58 590.04 399.08 589.42 403C588.8 406.91 585.66 417.02 583.85 417.74C582.04 418.46 582 417.2 582 417.2C582 417.2 579.42 423.1 578.15 423.46C576.87 423.82 576.49 423.18 576.49 423.18C576.49 423.18 573.93 426.01 572.61 425.92C571.29 425.82 570.63 422.38 570.63 422.38C570.63 422.38 569.38 424.6 567.66 423.71C566.39 423.05 568.23 405.32 567.86 405.05C565.5 403.32 567.99 415.42 564.81 415.2C563.74 415.13 558.71 402.6 561.49 396.7C563.83 391.74 567.29 383.19 567.29 383.19L585.03 383.42ZM526.01 196.81C522.7 204.89 508 210.26 508 210.26C508 210.26 493.27 204.89 489.99 196.81C489.62 195.93 495.53 193.59 495.53 191.25C495.53 190.38 495.36 186.32 495.16 181.52C494.84 173.39 494.37 163.21 494.37 163.21L521.62 163.21C521.62 163.21 521.15 173.56 520.78 181.74C520.59 186.44 520.44 190.41 520.44 191.25C520.44 193.59 526.38 195.93 526.01 196.81Z" />
			<path id="Path 66" class="shp16" d="M521.62 163.21C521.62 163.21 521.15 173.56 520.78 181.74C510.26 185.43 501.05 183.66 495.16 181.52C494.84 173.39 494.37 163.21 494.37 163.21L521.62 163.21Z" />
			<path id="Path 67" class="shp14" d="M456.75 117.62C456.75 117.62 450.44 110.15 441.93 115.99C431.99 122.81 437.33 149.49 460.9 141.19L456.75 117.62Z" />
			<path id="Path 68" class="shp17" d="M445.93 135.92C446.78 134.42 448.12 133.09 449.83 132.36C450.68 131.97 451.64 131.8 452.59 131.8C453.56 131.76 454.49 132.04 455.38 132.33L454.22 133.23C453.57 130.31 452.44 127.25 450.39 125.25C449.34 124.28 447.99 123.72 446.5 123.67C445.76 123.58 445.01 123.75 444.22 123.84C443.46 124 442.72 124.3 441.92 124.49C443.25 123.61 444.73 122.73 446.46 122.58C448.16 122.34 450.08 122.85 451.46 123.99C452.86 125.11 453.79 126.62 454.51 128.15C455.18 129.71 455.67 131.28 455.89 132.99L456.09 134.49L454.73 133.89C453.32 133.27 451.75 133.02 450.21 133.44C448.67 133.83 447.18 134.72 445.93 135.92Z" />
			<path id="Path 69" class="shp14" d="M559.23 117.62C559.23 117.62 565.54 110.15 574.05 115.99C583.98 122.81 578.65 149.49 555.08 141.19L559.23 117.62Z" />
			<path id="Path 70" class="shp17" d="M570.05 135.92C568.8 134.72 567.31 133.83 565.77 133.44C564.23 133.02 562.66 133.27 561.25 133.89L559.89 134.49L560.08 132.99C560.31 131.28 560.79 129.71 561.47 128.15C562.18 126.62 563.12 125.11 564.52 123.99C565.9 122.85 567.81 122.34 569.51 122.58C571.25 122.73 572.73 123.61 574.06 124.49C573.26 124.3 572.52 124 571.75 123.84C570.97 123.75 570.22 123.58 569.47 123.67C567.98 123.72 566.64 124.28 565.59 125.25C563.53 127.25 562.4 130.31 561.75 133.23L560.59 132.33C561.49 132.04 562.42 131.76 563.38 131.8C564.34 131.8 565.29 131.97 566.14 132.36C567.86 133.09 569.19 134.42 570.05 135.92Z" />
			<path id="Path 71" class="shp14" d="M550.35 158.27C535.27 175.42 508 175.33 508 175.33C508 175.33 480.72 175.42 465.62 158.27C449.34 139.74 445.72 85.1 459.45 67.72C472.19 51.6 492.77 47.44 508 47.44C523.2 47.44 543.78 51.6 556.52 67.72C570.25 85.1 566.66 139.74 550.35 158.27Z" />
			<path id="Path 72" class="shp11" d="M485.67 124.3C485.67 127.48 483.22 130.05 480.2 130.05C477.17 130.05 474.72 127.48 474.72 124.3C474.72 121.13 477.17 118.55 480.2 118.55C483.22 118.55 485.67 121.13 485.67 124.3ZM471.02 114.58C471.02 114.58 475.34 107.09 485.08 111.38M529.44 124.3C529.44 127.48 531.89 130.05 534.91 130.05C537.94 130.05 540.39 127.48 540.39 124.3C540.39 121.13 537.94 118.55 534.91 118.55C531.89 118.55 529.44 121.13 529.44 124.3ZM544.09 114.58C544.09 114.58 539.77 107.09 530.03 111.38" />
			<path id="Path 73" class="shp17" d="M509.67 110.05C508.71 116.12 508.49 122.19 508.45 128.26L509.67 127.04C507.17 127.05 504.66 127.08 502.15 127.2L500.51 127.28L501.17 128.67C501.63 129.63 502.18 130.39 502.78 131.18C503.38 131.95 504.07 132.65 504.82 133.27C506.33 134.51 508.23 135.33 510.12 135.32C508.34 134.69 506.92 133.6 505.78 132.28C505.21 131.61 504.72 130.89 504.27 130.15C503.82 129.42 503.43 128.58 503.13 127.86L502.15 129.33C504.66 129.44 507.17 129.48 509.67 129.49L510.91 129.5L510.9 128.26C510.86 122.19 510.63 116.12 509.67 110.05Z" />
			<path id="Path 74" class="shp18" d="M518.93 151.05C516.93 153.37 513.36 155.26 507.99 155.26C502.67 155.26 499.1 153.37 497.05 151.05C494.89 148.62 494.46 145.75 495.51 144.32C497.51 141.54 504.85 143.34 507.99 143.34C511.13 143.34 518.5 141.54 520.5 144.32C521.53 145.75 521.14 148.64 518.93 151.05Z" />
			<path id="Path 75" class="shp11" d="M450.98 118.56C452.88 124 460.58 97.77 460.9 91.7L462.54 103.57C462.54 103.57 490.09 99.35 518.94 73.22L518.94 84.04C518.94 84.04 537.23 84.57 550.7 71.64C550.7 71.64 558.61 118.23 564.15 118.56C569.7 118.88 576.3 67.59 556.24 61.87C556.24 61.87 545.64 30.3 492.83 39.93C443.76 48.88 442.6 94.47 450.98 118.56Z" />
			<path id="Path 76" class="shp19" d="M495.12 147.46C499.34 148.37 503.63 148.75 507.93 148.73C512.23 148.77 516.52 148.33 520.8 147.8C516.59 148.75 512.26 149.21 507.93 149.23C503.61 149.19 499.24 148.77 495.12 147.46Z" />
		</g>
		<g id="Folder 2">
			<path id="Path 77" class="shp0" d="M470.43 682.57C470.43 696.91 408.67 708.54 332.48 708.54C256.29 708.54 194.52 696.91 194.52 682.57C194.52 668.22 256.29 656.59 332.48 656.59C408.67 656.59 470.43 668.22 470.43 682.57Z" />
			<path id="Path 78" class="shp10" d="M291.64 651.4L291.64 660.33C291.64 660.33 254.7 673.83 250.56 680.8C246.43 687.77 317.42 672.31 317.42 666.1L317.42 651.4L291.64 651.4ZM374.79 651.4L374.79 660.33C374.79 660.33 411.73 673.83 415.87 680.8C420.01 687.77 349.01 672.31 349.01 666.1L349.01 651.4L374.79 651.4Z" />
			<path id="Path 79" class="shp1" d="M396.36 388.84C396.36 388.84 396.07 398.57 395.61 414.37C395.55 416.04 395.52 417.77 395.47 419.58C393.39 490.13 388.3 657.81 386.86 659.71C385.08 662.15 349.56 663.76 344.72 659.71C339.89 655.68 337.13 445.95 337.13 445.95L329.93 445.95C329.93 445.95 326.33 658.67 325.04 659.33C323.71 659.97 297.38 665.92 283.1 658.61C276.77 655.33 272.17 489.58 270.5 419.55C270.44 417.45 270.41 415.47 270.35 413.54C269.98 398.26 269.81 388.84 269.81 388.84L396.36 388.84Z" />
			<path id="Path 80" class="shp6" d="M419.85 470.39C419.45 475.1 365.5 490.49 339.86 490.49C337.1 490.49 333.57 470.13 333.57 470.13C333.57 470.13 330.05 490.49 327.29 490.49C301.65 490.49 247.69 475.1 247.3 470.39C246.91 465.66 271.12 232.17 271.82 224.83C272.52 217.49 303.68 193.67 303.68 193.67L333.57 196.8L363.49 193.67C363.49 193.67 394.63 217.49 395.33 224.83C396.03 232.17 420.24 465.66 419.85 470.39Z" />
			<path id="Path 81" class="shp13" d="M351.8 193.38L333.83 300.96L320.83 223.21L320.81 223.18L315.84 193.38L351.8 193.38Z" />
			<path id="Path 82" class="shp20" d="M333.08 289.98L333.08 346.27C332.29 316.98 309.19 259.49 294.62 240.41C291.34 236.1 303.67 220.31 303.67 220.31C303.67 220.31 287.3 219.39 285.42 216.81C285.07 216.33 285.49 215.25 286.36 213.81C290.26 207.36 303.67 193.67 303.67 193.67L313.25 201.25C326.27 225.66 331.33 260.55 333.08 289.98ZM334.43 289.98L334.43 346.27C335.22 316.98 358.33 259.49 372.89 240.41C376.18 236.1 363.84 220.31 363.84 220.31C363.84 220.31 380.21 219.39 382.1 216.81C382.45 216.33 382.03 215.25 381.15 213.81C377.25 207.36 363.84 193.67 363.84 193.67L354.27 201.25C341.25 225.66 336.19 260.55 334.43 289.98ZM333.57 470.13C333.12 459.46 332.91 448.79 332.74 438.12C332.55 427.45 332.57 416.77 332.48 406.1C332.57 395.43 332.56 384.76 332.73 374.09L333.04 358.08C333.22 352.75 333.32 347.41 333.57 342.08C333.82 347.41 333.93 352.75 334.11 358.08L334.42 374.09C334.59 384.76 334.58 395.43 334.67 406.1C334.58 416.77 334.59 427.45 334.41 438.12C334.24 448.79 334.03 459.46 333.57 470.13Z" />
			<path id="Path 83" class="shp6" d="M285.3 208.91C285.3 208.91 254.36 236.53 252.93 247.17C251.5 257.81 226.36 362.22 226.34 369.04C226.28 387.67 261.02 433.61 261.02 433.61C261.02 433.61 277.19 420.53 282 403.94C282 403.94 259.3 367.18 259.4 358.78C259.43 356.07 285.3 208.91 285.3 208.91ZM382.2 208.91C382.2 208.91 413.14 236.53 414.57 247.17C415.99 257.81 441.13 362.22 441.16 369.04C441.22 387.67 406.47 433.61 406.47 433.61C406.47 433.61 390.31 420.53 385.5 403.94C385.5 403.94 408.19 367.18 408.1 358.78C408.07 356.07 382.2 208.91 382.2 208.91Z" />
			<path id="Path 84" class="shp20" d="M283.41 395.97C283.6 400.33 282.7 404.72 281.22 408.85C279.76 413.01 277.65 416.93 275.12 420.53C270 427.71 263.16 433.57 255.47 437.61C262.2 432.12 268.43 426.23 273.33 419.27C275.8 415.82 277.9 412.11 279.64 408.22C281.32 404.33 282.75 400.26 283.41 395.97ZM383.74 395.97C384.41 400.26 385.84 404.32 387.53 408.22C389.26 412.1 391.38 415.79 393.81 419.27C395.1 420.95 396.3 422.71 397.75 424.27C398.45 425.07 399.1 425.93 399.84 426.69L402.07 428.98C403.52 430.56 405.2 431.9 406.74 433.41C408.34 434.85 410.06 436.14 411.68 437.61C409.79 436.55 407.92 435.43 406.08 434.25C404.36 432.93 402.5 431.74 400.91 430.23C397.55 427.41 394.65 424.06 392.02 420.54C389.53 416.9 387.41 413 385.94 408.84C384.47 404.71 383.56 400.33 383.74 395.97Z" />
			<path id="Path 85" class="shp21" d="M351.8 193.38L346.82 223.18L346.8 223.21C346.8 223.21 337.18 216.46 333.83 207.32C330.45 216.46 320.83 223.21 320.83 223.21L320.81 223.18L315.84 193.38L351.8 193.38Z" />
			<path id="Path 86" class="shp1" d="M343.42 243.58L333.85 300.96L333.83 285.97L333.83 300.96L324.24 243.66L330.21 210.83L333.83 210.83L333.85 210.83L337.44 210.83L343.42 243.58Z" />
			<path id="Path 87" class="shp6" d="M333.08 346.28C333.08 306.17 313.71 257.46 298.04 237.65C298 237.61 297.98 237.56 297.95 237.5C297.49 236.53 298.39 233.99 299.79 230.99C302.73 224.79 307.86 216.66 307.86 216.66C307.86 216.66 291.97 216.02 286.36 213.81C285.24 213.37 284.52 212.89 284.41 212.32C283.73 208.9 303.92 189.29 304.77 189.24C305.25 189.22 305.82 189.7 305.82 189.7C308.54 193.19 311.01 197.07 313.25 201.25C326.27 225.66 331.33 260.55 333.08 289.98C334.94 321.18 333.08 346.28 333.08 346.28ZM361.67 189.71C361.67 189.71 362.24 189.21 362.71 189.24C363.58 189.29 383.75 208.89 383.07 212.31C382.38 215.73 359.63 216.65 359.63 216.65C359.63 216.65 371.34 235.25 369.44 237.65C353.76 257.45 334.4 306.16 334.4 346.27C334.4 346.27 326.19 235.08 361.67 189.71Z" />
			<path id="Path 88" class="shp7" d="M317.72 238.28C325.72 272.85 324.07 281.18 321.1 285.04C317.97 289.1 313.07 291.21 312.86 291.3L311.89 289L312.37 290.15L311.89 289C311.93 288.98 316.41 287.05 319.13 283.52C321.28 280.73 323.21 273.07 315.29 238.84L317.72 238.28Z" />
			<path id="Path 89" class="shp1" d="M315.6 287.97L315.99 288.72C316.55 289.81 316.12 291.16 315.03 291.72L311.32 293.63C310.23 294.19 308.88 293.76 308.32 292.67L307.93 291.91C307.37 290.82 307.8 289.47 308.89 288.91L312.6 287C313.69 286.44 315.04 286.88 315.6 287.97Z" />
			<path id="Path 90" class="shp7" d="M295.31 238.46C287.73 264.1 285.66 278.2 288.79 282.83C291.31 286.53 295.65 288.71 295.69 288.73L294.59 290.96C294.38 290.87 289.61 288.47 286.73 284.23C282.99 278.72 284.79 265.25 292.92 237.75L295.31 238.46Z" />
			<path id="Path 91" class="shp1" d="M292.05 287.48L291.62 288.21C290.99 289.27 291.34 290.64 292.4 291.26L295.98 293.39C297.04 294.02 298.41 293.66 299.04 292.61L299.47 291.88C300.1 290.82 299.75 289.45 298.69 288.83L295.1 286.7C294.05 286.07 292.68 286.42 292.05 287.48Z" />
			<path id="Path 92" class="shp7" d="M306 198.6C307.13 186.41 326.71 184.4 335.94 184.27C347.69 184.1 357.58 186.4 361.4 198.32C365.17 210.09 365.84 223.29 366.03 235.6C366.07 237.9 369.64 237.9 369.61 235.6C369.38 221.41 370.34 194.69 357.5 185.4C344.79 176.2 304.33 177.95 302.42 198.6C302.21 200.89 305.79 200.88 306 198.6Z" />
			<path id="Path 93" class="shp1" d="M376.03 242.36C376.03 246.89 372.35 250.57 367.82 250.57C363.28 250.57 359.61 246.89 359.61 242.36C359.61 237.82 363.28 234.15 367.82 234.15C372.35 234.15 376.03 237.82 376.03 242.36Z" />
			<path id="Path 94" class="shp6" d="M372.76 242.36C372.76 245.09 370.55 247.3 367.82 247.3C365.09 247.3 362.88 245.09 362.88 242.36C362.88 239.63 365.09 237.41 367.82 237.41C370.55 237.41 372.76 239.63 372.76 242.36Z" />
			<path id="Path 95" class="shp1" d="M292.1 236.65C292.91 233.09 295.25 224.28 297.05 219.88C298.54 216.27 302.23 213.91 302.23 213.91C302.72 213.88 302.64 209.52 302.49 205.95C302.36 202.81 302.14 199.15 302.92 198.16C303.68 197.21 305.57 197.2 306.34 198.09C307.17 199.04 307.11 202.71 307.12 205.86C307.13 209.42 307.25 213.78 307.74 213.79C307.74 213.79 311.3 216.15 312.89 219.6C314.67 223.44 317.77 233.67 318.32 236.65C319.01 240.35 317.79 240.77 316.73 241.1C315.22 241.56 314.3 240.52 313.25 236.42C311.59 229.92 309.58 219 305.09 218.9L305.09 218.89C300.63 219.21 298.48 230.64 296.86 237C295.84 240.98 294.98 241.34 293.46 240.95C292.38 240.67 291.28 240.18 292.1 236.65Z" />
			<path id="Path 96" class="shp22" d="M275.04 264.36L272.13 282.43L269.06 300.47C267.02 312.49 264.82 324.49 262.89 336.52C261.87 342.52 260.83 348.54 260.09 354.54L259.85 356.78C259.85 357.47 259.77 358.07 259.87 358.74C260.07 359.38 260.31 360.05 260.62 360.75C260.9 361.44 261.2 362.13 261.52 362.82L265.37 371.08L281.46 403.94C275.34 393.38 269.48 382.68 263.86 371.83C262.46 369.12 261.06 366.4 259.79 363.61C259.46 362.91 259.15 362.21 258.85 361.49C258.53 360.8 258.24 360.04 257.99 359.22C257.83 358.41 257.87 357.45 257.88 356.64L258.11 354.33C258.8 348.21 259.76 342.19 260.73 336.16C262.84 324.13 265.01 312.13 267.41 300.16C269.81 288.2 272.28 276.25 275.04 264.36ZM278.07 270.98C277.68 272.37 276.93 273.43 276.08 274.4C275.2 275.35 274.23 276.21 272.88 276.73C273.26 275.33 274.02 274.28 274.86 273.3C275.75 272.36 276.73 271.5 278.07 270.98ZM392.26 264.36C395.02 276.25 397.49 288.2 399.89 300.16C402.29 312.13 404.46 324.13 406.57 336.16C407.54 342.19 408.5 348.21 409.19 354.33L409.42 356.64C409.43 357.45 409.47 358.41 409.31 359.22C409.06 360.04 408.77 360.8 408.45 361.49C408.15 362.21 407.84 362.91 407.51 363.61C406.24 366.4 404.84 369.12 403.44 371.83C397.82 382.68 391.96 393.38 385.84 403.94L401.93 371.08L405.78 362.82C406.1 362.13 406.4 361.44 406.68 360.75C406.99 360.05 407.23 359.38 407.43 358.74C407.53 358.07 407.45 357.47 407.45 356.78L407.21 354.54C406.47 348.54 405.43 342.52 404.41 336.52C402.48 324.49 400.28 312.49 398.24 300.47L395.17 282.43L392.26 264.36ZM389.23 270.98C390.57 271.5 391.55 272.36 392.43 273.3C393.28 274.28 394.04 275.33 394.42 276.73C393.07 276.21 392.1 275.35 391.21 274.4C390.37 273.43 389.61 272.37 389.23 270.98Z" />
			<path id="Path 97" fill-rule="evenodd" class="shp20" d="M355.95 305.34C361.75 305.59 367.54 305.67 373.32 305.49C379.1 305.39 384.87 305.07 390.62 304.51L391.47 304.43L391.52 305.31C392 314.05 392.27 322.8 392.66 331.55L392.79 334.83L392.86 336.47L392.89 337.29C392.89 337.39 392.92 337.35 392.87 337.64C392.84 337.84 392.74 338.12 392.68 338.19C392.53 338.44 392.38 338.63 392.25 338.74C391.2 339.71 390.25 340.18 389.24 340.72C388.24 341.24 387.24 341.71 386.23 342.16C382.18 343.96 378.13 345.55 373.91 346.97C373.63 347.06 373.41 347.14 373.02 347.23C372.81 347.27 372.5 347.24 372.24 347.21C372.01 347.17 371.92 347.12 371.75 347.08C371.14 346.9 370.64 346.69 370.12 346.48C369.07 346.06 368.08 345.6 367.07 345.14C365.07 344.21 363.1 343.24 361.16 342.22C360.19 341.69 359.22 341.16 358.27 340.61L356.83 339.74C356.35 339.41 355.91 339.18 355.33 338.58C354.87 337.61 354.97 337.11 354.88 336.54L354.81 334.86C354.79 333.76 354.77 332.66 354.79 331.56C354.85 322.8 355.36 314.07 355.95 305.34ZM355.95 305.34C355.97 308.34 355.98 311.34 355.99 314.34C358.83 314.7 361.67 314.9 364.51 315.02C367.46 315.15 370.4 315.22 373.35 315.16C378.91 315.15 384.47 314.75 390.06 314.37C389.98 311.66 389.91 308.94 389.86 306.23C384.35 306.55 378.83 306.67 373.32 306.56C367.51 306.37 361.71 306.08 355.95 305.34ZM356.17 331.55C356.2 332.63 356.25 333.72 356.31 334.8L356.43 336.4L356.53 337.16C356.56 337.5 356.62 337.39 356.57 337.56C356.76 337.73 357.27 338.07 357.71 338.32L359.11 339.1C360.06 339.61 361.03 340.1 362 340.58C363.94 341.56 365.89 342.51 367.87 343.4C368.86 343.84 369.85 344.28 370.84 344.66C371.33 344.85 371.84 345.05 372.29 345.17C372.38 345.2 372.55 345.26 372.58 345.26C372.6 345.23 372.56 345.29 372.62 345.28L373.3 345.07C377.35 343.65 381.42 342.01 385.34 340.21C386.32 339.76 387.29 339.29 388.23 338.79C389.13 338.3 390.15 337.75 390.71 337.23C390.72 337.22 390.73 337.21 390.74 337.2L390.72 336.44L390.67 334.81L390.57 331.54C390.42 325.86 390.22 320.19 390.06 314.51C387.48 315.03 384.87 315.43 382.25 315.71C379.3 316.05 376.33 316.17 373.36 316.26C370.39 316.23 367.41 316.17 364.45 315.86C361.6 315.56 358.75 315.16 355.99 314.39C356.01 320.12 356.05 325.84 356.17 331.55ZM390.74 337.2L390.74 337.26C390.74 337.26 390.74 337.27 390.74 337.28C390.76 337.2 390.82 337.12 390.79 337.14C390.8 337.13 390.79 337.15 390.74 337.2ZM390.74 337.32C390.75 337.46 390.75 337.34 390.74 337.28C390.74 337.29 390.74 337.31 390.74 337.32ZM389.86 306.23C390.16 306.21 390.46 306.2 390.75 306.18L389.85 305.38C389.85 305.66 389.86 305.95 389.86 306.23Z" />
			<path id="Path 98" class="shp1" d="M362.38 305.36C362.38 305.36 364.86 306.55 367.93 305.36C367.93 305.36 368.27 288.78 365.15 288.78C362.25 288.78 362.38 305.36 362.38 305.36ZM365.16 295.44C366.03 298.59 366.22 301.73 366.26 304.87C366.22 308.02 366.03 311.16 365.16 314.3C364.29 311.16 364.1 308.02 364.07 304.87C364.1 301.73 364.3 298.59 365.16 295.44Z" />
			<path id="Path 99" class="shp12" d="M370.58 305.36C370.58 305.36 373.06 306.55 376.13 305.36C376.13 305.36 376.47 288.78 373.35 288.78C370.45 288.78 370.58 305.36 370.58 305.36ZM373.36 295.44C374.22 298.59 374.42 301.73 374.45 304.87C374.42 308.02 374.23 311.16 373.36 314.3C372.49 311.16 372.3 308.02 372.26 304.87C372.3 301.73 372.5 298.59 373.36 295.44Z" />
			<path id="Path 100" class="shp23" d="M351.79 187.14C348.5 195.21 333.82 200.56 333.82 200.56C333.82 200.56 319.13 195.21 315.86 187.14C315.49 186.26 321.39 183.92 321.39 181.59C321.39 180.73 321.22 176.67 321.02 171.88C320.7 163.77 320.23 153.62 320.23 153.62L347.42 153.62C347.42 153.62 346.95 163.94 346.58 172.1C346.38 176.8 346.24 180.75 346.24 181.59C346.24 183.92 352.16 186.26 351.79 187.14Z" />
			<path id="Path 101" class="shp24" d="M347.42 153.62C347.42 153.62 346.95 163.94 346.58 172.1C336.09 175.79 326.89 174.02 321.02 171.88C320.7 163.77 320.23 153.62 320.23 153.62L347.42 153.62Z" />
			<path id="Path 102" class="shp23" d="M282.69 108.13C282.69 108.13 276.39 100.67 267.9 106.5C257.99 113.3 263.31 139.92 286.83 131.64L282.69 108.13Z" />
			<path id="Path 103" class="shp25" d="M271.9 126.39C272.75 124.88 274.08 123.56 275.79 122.83C276.64 122.44 277.59 122.27 278.54 122.28C279.51 122.24 280.43 122.51 281.33 122.81L280.17 123.7C279.52 120.79 278.4 117.74 276.35 115.73C275.3 114.77 273.95 114.21 272.47 114.16C271.72 114.07 270.97 114.24 270.19 114.33C269.43 114.49 268.69 114.79 267.89 114.98C269.22 114.1 270.69 113.22 272.43 113.07C274.12 112.83 276.03 113.34 277.41 114.48C278.81 115.6 279.74 117.1 280.45 118.63C281.13 120.19 281.61 121.76 281.84 123.46L282.03 124.96L280.68 124.36C279.27 123.74 277.7 123.49 276.16 123.91C274.63 124.3 273.14 125.19 271.9 126.39Z" />
			<path id="Path 104" class="shp23" d="M384.94 108.13C384.94 108.13 391.24 100.67 399.73 106.5C409.64 113.3 404.32 139.92 380.8 131.64L384.94 108.13Z" />
			<path id="Path 105" class="shp25" d="M395.74 126.39C394.49 125.19 393.01 124.3 391.47 123.91C389.93 123.49 388.37 123.74 386.96 124.36L385.6 124.96L385.8 123.46C386.02 121.76 386.51 120.19 387.18 118.63C387.89 117.1 388.82 115.6 390.22 114.48C391.6 113.34 393.51 112.83 395.21 113.07C396.94 113.22 398.41 114.1 399.74 114.98C398.94 114.79 398.21 114.49 397.44 114.33C396.66 114.24 395.91 114.07 395.17 114.16C393.68 114.21 392.34 114.77 391.29 115.73C389.24 117.74 388.11 120.79 387.47 123.7L386.31 122.81C387.2 122.51 388.13 122.24 389.09 122.28C390.04 122.27 391 122.44 391.84 122.83C393.55 123.56 394.89 124.88 395.74 126.39Z" />
			<path id="Path 106" class="shp23" d="M376.08 148.69C361.04 165.8 333.83 165.71 333.83 165.71C333.83 165.71 306.61 165.8 291.54 148.69C275.29 130.19 271.69 75.68 285.38 58.33C298.1 42.26 318.63 38.1 333.83 38.1C349 38.1 369.53 42.26 382.24 58.33C395.94 75.68 392.36 130.19 376.08 148.69Z" />
			<path id="Path 107" class="shp11" d="M311.54 114.79C311.54 117.96 309.1 120.53 306.09 120.53C303.07 120.53 300.63 117.96 300.63 114.79C300.63 111.63 303.07 109.06 306.09 109.06C309.1 109.06 311.54 111.63 311.54 114.79Z" />
			<path id="Path 108" class="shp15" d="M296.93 100.71C296.93 100.71 301.24 93.24 310.96 97.52" />
			<path id="Path 109" class="shp11" d="M355.22 114.79C355.22 117.96 357.67 120.53 360.68 120.53C363.7 120.53 366.14 117.96 366.14 114.79C366.14 111.63 363.7 109.06 360.68 109.06C357.67 109.06 355.22 111.63 355.22 114.79Z" />
			<path id="Path 110" class="shp15" d="M369.84 100.71C369.84 100.71 365.53 93.24 355.81 97.52" />
			<path id="Path 111" class="shp25" d="M333.83 100.58C334.79 106.63 335.01 112.69 335.05 118.75L333.83 117.52C336.33 117.53 338.83 117.57 341.33 117.69L342.97 117.76L342.31 119.15C341.85 120.11 341.3 120.87 340.71 121.66C340.11 122.43 339.41 123.12 338.66 123.74C337.16 124.98 335.26 125.8 333.38 125.79C335.15 125.16 336.58 124.08 337.71 122.75C338.28 122.09 338.77 121.37 339.22 120.63C339.67 119.9 340.06 119.07 340.35 118.34L341.33 119.81C338.83 119.92 336.33 119.96 333.83 119.97L332.59 119.98L332.6 118.75C332.65 112.69 332.87 106.63 333.83 100.58Z" />
			<path id="Path 112" class="shp11" d="M321.66 133.22C323.7 135.87 325.9 138.09 328.64 139.13C329.98 139.65 331.43 140 332.97 139.98C333.74 140.07 334.51 139.91 335.32 139.92C336.12 139.86 336.91 139.71 337.78 139.69C337.09 140.16 336.35 140.6 335.58 140.97C334.77 141.22 333.97 141.62 333.1 141.69C331.37 142.07 329.51 141.78 327.82 141.17C326.14 140.48 324.66 139.34 323.62 137.93C322.58 136.53 321.85 134.92 321.66 133.22Z" />
			<path id="Path 113" class="shp26" d="M313.99 127.17L298.18 127.17C293.27 127.17 289.29 123.19 289.29 118.28L289.29 113.91C289.29 109 293.27 105.02 298.18 105.02L313.99 105.02C318.9 105.02 322.88 109 322.88 113.91L322.88 118.28C322.88 123.19 318.9 127.17 313.99 127.17ZM368.59 127.17L352.77 127.17C347.86 127.17 343.88 123.19 343.88 118.28L343.88 113.91C343.88 109 347.86 105.02 352.77 105.02L368.59 105.02C373.5 105.02 377.48 109 377.48 113.91L377.48 118.28C377.48 123.19 373.5 127.17 368.59 127.17Z" />
			<path id="Path 114" fill-rule="evenodd" class="shp1" d="M313.14 128.26L299.03 128.26C293.05 128.26 288.19 123.4 288.19 117.43L288.19 114.77C288.19 114.48 288.2 114.19 288.23 113.91L274.42 106.04L275.5 104.13L288.65 111.63C290 107.18 294.14 103.93 299.03 103.93L313.14 103.93C318.52 103.93 323 107.87 323.84 113.01C327.07 111.47 334.91 108.67 342.94 112.94C343.81 107.83 348.27 103.93 353.63 103.93L367.74 103.93C372.63 103.93 376.77 107.18 378.12 111.63L391.26 104.13L392.35 106.04L378.54 113.91C378.57 114.19 378.58 114.48 378.58 114.77L378.58 117.43C378.58 123.4 373.72 128.26 367.74 128.26L353.63 128.26C347.65 128.26 342.79 123.4 342.79 117.43L342.79 115.37C334.42 110.32 326.08 114.24 323.98 115.39L323.98 117.43C323.98 123.4 319.12 128.26 313.14 128.26ZM299.03 106.12C294.26 106.12 290.38 110 290.38 114.77L290.38 117.43C290.38 122.19 294.26 126.07 299.03 126.07L313.14 126.07C317.91 126.07 321.79 122.19 321.79 117.43L321.79 114.77C321.79 110 317.91 106.12 313.14 106.12L299.03 106.12ZM353.63 106.12C348.86 106.12 344.98 110 344.98 114.77L344.98 117.43C344.98 122.19 348.86 126.07 353.63 126.07L367.74 126.07C372.51 126.07 376.39 122.19 376.39 117.43L376.39 114.77C376.39 110 372.51 106.12 367.74 106.12L353.63 106.12Z" />
			<path id="Path 115" class="shp15" d="M376.77 68.1C376.77 68.1 379.05 109.06 388.11 109.06C395.39 109.06 394.39 68.1 394.39 68.1L376.77 68.1ZM280.15 109.06C286.17 109.06 288.07 77.24 288.07 77.24C288.07 77.24 316.34 88.55 344.02 84.68L328.55 77.24C328.55 77.24 371.44 91.36 406.07 66.14L390.79 60.36C390.79 60.36 374.23 32.22 342.96 29.78C327.61 28.58 303.94 28.42 286.5 51.1C286.5 51.1 274.7 54.64 271.42 64.58C266.69 78.88 272.83 109.06 280.15 109.06Z" />
			<path id="Path 116" class="shp1" d="M342.92 198.68L340.11 208.05C339.6 209.75 338.04 210.91 336.27 210.91L331.39 210.91C329.62 210.91 328.06 209.75 327.55 208.05L324.74 198.68C323.97 196.11 325.89 193.53 328.58 193.53L339.08 193.53C341.76 193.53 343.69 196.11 342.92 198.68Z" />
			<path id="Path 117" class="shp13" d="M333.83 193.5C333.83 193.5 318.28 184.47 316.71 184.01C315.14 183.55 306.47 189.98 306.47 189.98C306.47 189.98 316.47 212.17 319.06 212.17C321.64 212.17 333.83 193.5 333.83 193.5ZM333.74 193.5C333.74 193.5 349.29 184.47 350.86 184.01C352.43 183.55 361.1 189.98 361.1 189.98C361.1 189.98 351.1 212.17 348.51 212.17C345.93 212.17 333.74 193.5 333.74 193.5Z" />
		</g>
		<g id="Folder 2">
			<path id="Path 118" class="shp0" d="M942.83 569.73C942.83 580.78 895.24 589.74 836.54 589.74C777.84 589.74 730.25 580.78 730.25 569.73C730.25 558.67 777.84 549.71 836.54 549.71C895.24 549.71 942.83 558.67 942.83 569.73Z" />
			<path id="Path 119" class="shp1" d="M814.94 551.53L814.83 558.7C814.83 558.7 785.01 569.07 781.6 574.61C778.19 580.15 835.37 568.64 835.45 563.66C835.53 558.68 835.64 551.86 835.64 551.86L814.94 551.53ZM867.26 562.54L867.15 569.71C867.15 569.71 895.01 588.66 893.87 595.06C891.64 607.65 846.31 578.99 846.38 574.01C846.46 569.03 846.57 562.21 846.57 562.21L867.26 562.54Z" />
			<path id="Path 120" class="shp2" d="M881.63 563.75C878.22 568.43 844.67 569.87 841.18 563.11C840.63 562.03 839.7 555.29 839.7 555.29C839.7 555.29 825.71 561.59 808.46 554.37C806.94 553.74 789.24 427.06 780.77 365.74C780.53 364.09 780.32 362.49 780.1 360.95C777.78 344.06 776.29 333.21 776.29 333.21L876.83 334.8C876.83 334.8 877.37 349.28 878.1 370.94C878.16 372.87 878.22 374.87 878.29 376.9C880.48 442.1 884.09 560.37 881.63 563.75Z" />
			<path id="Path 121" class="shp3" d="M878.1 370.94C827.73 382.61 795.9 370.47 780.1 360.95C777.78 344.06 776.29 333.21 776.29 333.21L876.83 334.8C876.83 334.8 877.37 349.28 878.1 370.94Z" />
			<path id="Path 122" class="shp2" d="M813.92 179.16C813.92 179.16 808.4 265.84 793.85 267.24C791.26 267.48 788.53 267.19 785.75 266.54C776.36 264.28 766.78 257.67 762.14 253.21C760.52 251.65 759.49 250.36 759.3 249.59C758.4 246.03 786.64 193.57 791.87 189.14C797.11 184.68 813.92 179.16 813.92 179.16ZM881.29 355.69C880.78 357.44 877.33 359.6 871.86 361.62C871.2 361.85 870.59 357.3 869.94 352.62C869.25 347.7 868.52 342.61 867.73 342.86C867.16 343.02 866.52 348.47 865.84 353.81C865.24 358.9 864.61 363.89 864.02 364.03C853.94 366.66 840.52 368.62 826.54 368.39C795.45 367.9 773.47 359.03 772.19 353.97C772.03 353.31 772.24 350.83 772.74 346.96C774.47 333.2 779.55 301.59 782.36 269.71C782.66 266.14 776.2 251.81 778.06 242.55C781.34 226.3 793.13 205.79 799.96 196.5C803.79 191.3 811.76 176.57 829.57 176.85C843.31 177.07 864.47 188.82 867.07 194.71C869.4 199.88 879.85 317.73 881.25 348.53C881.42 352.56 881.45 355.11 881.29 355.69ZM852.61 185.36C852.61 185.36 869.23 191.42 874.32 196.02C879.41 200.62 906.52 253.73 904.95 259.82C904.03 263.38 884.35 275.86 869.86 274.02C855.37 272.18 852.61 185.36 852.61 185.36Z" />
			<path id="Path 123" class="shp4" d="M881.4 348.46C879.67 349.56 877.78 350.34 875.86 351.06C873.94 351.73 871.98 352.34 869.94 352.62C871.72 351.52 873.58 350.74 875.48 350.03C877.39 349.36 879.32 348.78 881.4 348.46ZM865.84 353.8C858.21 356.04 850.36 357.78 842.39 358.47C834.42 359.19 826.39 359.26 818.41 358.61C810.44 357.86 802.52 356.6 794.77 354.64C787.03 352.67 779.39 350.18 772.2 346.73C779.65 349.54 787.31 351.71 795.06 353.41C802.81 355.1 810.65 356.36 818.55 356.98C826.44 357.75 834.38 357.66 842.28 357.22L848.21 356.74C850.18 356.53 852.14 356.19 854.11 355.93L857.06 355.54L859.98 354.96L865.84 353.8Z" />
			<path id="Path 124" class="shp3" d="M782.01 265.4C779.56 260.67 777.81 255.55 776.96 250.22C776.51 247.56 776.41 244.83 776.65 242.1C776.87 239.35 777.8 236.71 778.73 234.22C780.75 229.24 783.12 224.46 785.66 219.78C788.24 215.11 790.94 210.52 793.93 206.1C791.54 210.86 789.12 215.59 786.78 220.36C784.48 225.13 782.12 229.89 780.26 234.82C779.29 237.28 778.39 239.69 778.14 242.27C777.84 244.84 777.96 247.45 778.21 250.05C778.47 252.66 778.98 255.26 779.65 257.81C780.27 260.38 781.09 262.91 782.01 265.4ZM789.64 206.04C790.04 207.35 790.12 208.67 790.12 209.98C790.08 211.29 789.96 212.6 789.51 213.9C789.1 212.58 789.03 211.27 789.03 209.96C789.07 208.65 789.19 207.34 789.64 206.04ZM875.59 274.18C872.73 274.5 869.74 274.3 866.97 273.2C865.6 272.65 864.29 271.81 863.32 270.62C862.34 269.43 861.75 267.96 861.51 266.46L858.78 249.34C857.9 243.63 857.14 237.9 856.35 232.17C855.64 226.43 854.92 220.7 854.41 214.93C855.65 220.59 856.66 226.28 857.67 231.97C858.59 237.68 859.55 243.38 860.36 249.11C861.14 254.83 861.98 260.56 862.54 266.31C862.79 269.08 864.65 271.46 867.23 272.63C869.78 273.85 872.72 274.23 875.59 274.18ZM850.42 219.14C851.81 219.71 852.83 220.61 853.76 221.6C854.66 222.62 855.46 223.72 855.89 225.17C854.5 224.6 853.48 223.69 852.55 222.7C851.66 221.68 850.85 220.58 850.42 219.14Z" />
			<path id="Path 125" class="shp4" d="M901.98 250.22C899.58 253.03 896.55 255.24 893.39 257.13C890.2 259.02 886.77 260.46 883.28 261.67C879.73 262.73 876.12 263.6 872.46 264.02C870.63 264.3 868.78 264.33 866.95 264.48C865.1 264.51 863.26 264.48 861.43 264.43C865.1 264.13 868.74 263.83 872.33 263.19C875.93 262.6 879.48 261.75 882.94 260.63C886.4 259.52 889.76 258.1 892.97 256.4C896.18 254.68 899.27 252.7 901.98 250.22Z" />
			<path id="Path 126" class="shp27" d="M787.32 361.29C787.33 360.76 787.04 359.79 786.54 358.45C785.93 356.92 785.04 354.91 783.91 352.55C782.6 349.77 780.96 346.48 779.2 342.9C777.82 340.14 776.33 337.18 774.85 334.15C768.67 321.72 762.11 308.02 760.05 299.84C757.28 288.9 762.7 262.75 763.42 254.39C768.07 258.35 771.7 261.19 781.35 265.18C781.91 265.71 782.36 269.14 782.36 269.14C782.36 269.14 780.13 289.94 780.1 291.43C780.08 292.59 785.91 306.41 792.19 321.04L793.88 324.96C795.49 328.74 797.12 332.49 798.68 336.02C800.31 339.79 801.83 343.33 803.14 346.35C804.45 349.37 805.58 351.91 806.36 353.74C807.12 355.51 807.58 356.61 807.67 356.85C808.38 358.92 787.25 365.93 787.32 361.29ZM786.81 359.23C787.14 360.3 788.57 375.04 790.1 378.53C791.64 382.03 797.04 390.68 798.9 390.91C800.77 391.13 800.49 389.95 800.49 389.95C800.49 389.95 804.34 394.82 805.62 394.84C806.89 394.86 807.09 394.18 807.09 394.18C807.09 394.18 810.17 396.18 811.38 395.77C812.58 395.37 812.36 391.99 812.36 391.99C812.36 391.99 814.07 393.75 815.45 392.5C816.47 391.58 810.42 375.51 810.7 375.17C812.47 372.98 813.11 384.86 816.02 383.88C817 383.55 818.62 370.65 814.59 365.83C811.19 361.78 806.66 354.46 806.66 354.46L786.81 359.23ZM901.77 263.29C901.77 263.29 889.69 273.77 872.91 274.2C872.91 274.2 874.48 280.93 874.47 281.89C874.45 282.84 818.25 309.28 794.64 326.72C789.8 330.29 797.46 341.81 801.39 342.57C805.32 343.33 892.22 313.69 902.9 296.42C904.79 293.38 901 254.96 901.77 263.29ZM808.71 340.71C808.6 340.87 808.47 341.02 808.35 341.15C806.68 343.22 804.92 344.93 803.14 346.35C795.51 352.43 787.63 353.01 783.91 352.55C783.19 352.45 782.62 352.31 782.23 352.17C779.38 351.16 780.15 347.91 780.15 347.91C777.51 347.41 778.3 344.2 778.3 344.2C777.87 344.04 777.52 343.86 777.22 343.61C775.18 342.13 775.86 339.27 775.86 339.27C772.03 337.64 774.82 334.15 774.82 334.15L774.84 334.15C785.84 332.97 793.88 324.96 793.88 324.96L792.19 321.04C795 320.71 799.58 322.47 799.58 322.47C808.63 326.27 808.71 340.71 808.71 340.71Z" />
			<path id="Path 127" class="shp4" d="M803.54 183.01C803.94 185.66 804.48 188.26 805.07 190.83C805.68 193.39 806.39 195.93 807.25 198.41C808.06 200.9 809.07 203.33 810.18 205.71C811.26 208.11 812.6 210.38 813.95 212.71C812.1 210.78 810.35 208.68 809.05 206.31C807.66 203.98 806.56 201.5 805.69 198.93C803.99 193.82 803.08 188.38 803.54 183.01ZM849.56 182.24C846.67 188.13 842.27 193.16 837.55 197.69C832.77 202.2 827.36 206 821.76 209.41L817.45 211.79C816 212.57 814.49 213.21 813.02 213.93C810.09 215.4 807.01 216.56 803.95 217.73C800.89 218.87 797.72 219.74 794.62 220.75C791.44 221.52 788.26 222.27 785.07 222.96L794.38 219.98C797.42 218.82 800.52 217.83 803.5 216.55C809.48 214.05 815.39 211.35 820.93 207.99C826.52 204.75 831.82 201 836.7 196.76C839.13 194.62 841.49 192.4 843.63 189.96C845.82 187.57 847.85 185.02 849.56 182.24ZM762.33 241.28C764.68 243.68 767.12 245.9 769.75 247.88C771.05 248.88 772.41 249.82 773.8 250.71C775.18 251.62 776.64 252.39 778.1 253.24C774.84 252.4 771.78 250.79 769.09 248.75C767.75 247.72 766.47 246.59 765.34 245.34C764.21 244.09 763.15 242.76 762.33 241.28Z" />
			<path id="Path 128" class="shp6" d="M810.29 231.82C817.74 266.51 815.96 274.81 812.93 278.62C809.74 282.64 804.8 284.66 804.59 284.75L803.66 282.44L804.12 283.59L803.66 282.44C803.7 282.42 808.21 280.56 810.98 277.07C813.17 274.32 815.23 266.69 807.85 232.34L810.29 231.82Z" />
			<path id="Path 129" class="shp1" d="M807.38 281.46L807.76 282.23C808.3 283.32 807.85 284.67 806.75 285.21L803.01 287.06C801.91 287.6 800.57 287.15 800.03 286.05L799.65 285.29C799.1 284.19 799.56 282.84 800.66 282.3L804.4 280.45C805.5 279.91 806.84 280.36 807.38 281.46Z" />
			<path id="Path 130" class="shp6" d="M787.88 231.64C779.89 257.16 777.6 271.22 780.66 275.9C783.12 279.65 787.42 281.89 787.47 281.91L786.33 284.13C786.12 284.03 781.39 281.56 778.58 277.27C774.93 271.7 776.93 258.26 785.5 230.9L787.88 231.64Z" />
			<path id="Path 131" class="shp1" d="M783.85 280.6L783.4 281.33C782.76 282.37 783.09 283.75 784.13 284.39L787.68 286.58C788.73 287.22 790.11 286.89 790.75 285.85L791.2 285.12C791.84 284.08 791.51 282.7 790.46 282.06L786.91 279.87C785.87 279.23 784.49 279.56 783.85 280.6Z" />
			<path id="Path 132" class="shp7" d="M799.2 191.96C800.52 179.79 820.13 178.08 829.36 178.1C841.11 178.12 850.97 180.57 854.6 192.55C858.18 204.38 858.64 217.59 858.64 229.9C858.64 232.2 862.21 232.26 862.21 229.96C862.22 215.77 863.59 189.06 850.9 179.57C838.34 170.17 797.86 171.28 795.62 191.9C795.38 194.19 798.95 194.23 799.2 191.96Z" />
			<path id="Path 133" class="shp1" d="M868.53 236.82C868.45 241.35 864.72 244.97 860.19 244.9C855.65 244.82 852.04 241.09 852.11 236.56C852.18 232.02 855.91 228.4 860.45 228.48C864.98 228.55 868.6 232.28 868.53 236.82Z" />
			<path id="Path 134" class="shp6" d="M865.26 236.76C865.22 239.49 862.97 241.67 860.24 241.63C857.51 241.58 855.33 239.34 855.38 236.61C855.42 233.88 857.67 231.7 860.39 231.74C863.12 231.79 865.3 234.03 865.26 236.76Z" />
			<path id="Path 135" class="shp1" d="M784.7 229.78C785.57 226.24 788.04 217.46 789.92 213.09C791.46 209.5 795.18 207.2 795.18 207.2C795.68 207.18 795.66 202.82 795.57 199.25C795.49 196.11 795.33 192.45 796.13 191.47C796.9 190.53 798.8 190.55 799.55 191.45C800.36 192.41 800.24 196.08 800.21 199.23C800.16 202.8 800.21 207.15 800.7 207.17C800.7 207.17 804.22 209.59 805.76 213.06C807.47 216.93 810.41 227.21 810.92 230.19C811.55 233.91 810.32 234.31 809.25 234.62C807.74 235.06 806.84 234 805.85 229.88C804.3 223.36 802.45 212.41 797.97 212.24L797.97 212.23C793.5 212.47 791.17 223.87 789.45 230.21C788.37 234.17 787.51 234.52 785.99 234.1C784.91 233.81 783.83 233.3 784.7 229.78Z" />
			<path id="Path 136" class="shp27" d="M840.01 184C837.16 191.22 814.59 203.6 814.59 203.6C814.59 203.6 809.95 192.8 808.79 185.33C808.66 184.49 813.68 182.4 813.66 180.32C813.65 179.55 813.45 175.94 813.22 171.67C812.84 164.44 812.31 155.4 812.31 155.4L836.54 155.09C836.54 155.09 836.24 164.29 836.01 171.57C835.88 175.76 835.8 179.29 835.81 180.04C835.84 182.12 840.33 183.21 840.01 184Z" />
			<path id="Path 137" class="shp28" d="M836.54 155.09C836.54 155.09 836.24 164.3 836.01 171.58C826.69 174.98 818.48 173.51 813.22 171.67C812.84 164.44 812.31 155.4 812.31 155.4L836.54 155.09Z" />
			<path id="Path 138" class="shp27" d="M781.46 116.19C781.46 116.19 775.95 109.46 768.3 114.53C759.37 120.46 763.74 144.27 784.82 137.21L781.46 116.19Z" />
			<path id="Path 139" class="shp29" d="M771.58 132.32C772.36 130.99 773.57 129.83 775.1 129.2C775.86 128.87 776.72 128.73 777.56 128.75C778.42 128.73 779.24 128.99 780.04 129.26L778.99 130.05C778.46 127.44 777.49 124.7 775.7 122.89C774.77 122.01 773.59 121.49 772.26 121.43C771.6 121.34 770.93 121.48 770.23 121.55C769.55 121.68 768.89 121.94 768.17 122.1C769.37 121.33 770.7 120.57 772.24 120.46C773.76 120.27 775.45 120.75 776.66 121.79C777.89 122.8 778.7 124.16 779.32 125.53C779.89 126.92 780.31 128.33 780.48 129.86L780.63 131.19L779.44 130.64C778.19 130.07 776.79 129.82 775.42 130.17C774.04 130.5 772.71 131.27 771.58 132.32Z" />
			<path id="Path 140" class="shp27" d="M873.1 114.33C873.1 114.44 873.07 114.55 873.07 114.66C872.74 117.59 872.3 120.52 871.73 123.38C871.51 124.5 871.28 125.59 871.02 126.68C870.74 127.88 870.43 129.08 870.11 130.24C869.97 130.76 869.81 131.26 869.67 131.77C868.86 134.49 867.92 137.11 866.87 139.54C866.12 141.31 865.3 142.98 864.42 144.55C862.64 147.78 860.58 150.56 858.29 152.69C853.26 157.39 847.59 161.22 841.59 163.95C839.98 164.7 838.34 165.37 836.67 165.91C829.11 168.6 821.14 169.53 813.27 168.33C802.68 166.76 792.29 161.38 783.29 151.2C780.39 147.91 778.05 143.51 776.24 138.44C775.36 135.99 774.59 133.39 773.97 130.69C773.91 130.42 773.85 130.18 773.79 129.92C773.2 127.19 772.7 124.33 772.35 121.44C772.29 121.11 772.25 120.78 772.21 120.45C771.94 117.99 771.74 115.49 771.63 112.96C771.61 112.75 771.59 112.55 771.59 112.33C770.9 95 774.27 77.52 781.25 69.77C793.48 56.17 811.99 53.64 825.5 54.51C839.01 55.36 857.04 60.23 867.43 75.25C873.02 83.34 874.77 98.91 873.1 114.33Z" />
			<path id="Path 141" class="shp11" d="M843.27 114.47C843.27 114.47 839.54 107.75 830.81 111.43L843.27 114.47ZM780.64 113.47C780.64 113.47 784.59 106.88 793.19 110.83L780.64 113.47Z" />
			<path id="Path 142" class="shp29" d="M810.45 109.92C809.5 115.31 809.22 120.7 809.1 126.1L810.21 125.03C807.98 125 805.75 125 803.52 125.07L802.05 125.11L802.62 126.36C803.02 127.22 803.49 127.91 804.02 128.61C804.54 129.31 805.15 129.94 805.81 130.5C807.13 131.63 808.81 132.38 810.49 132.4C808.92 131.81 807.66 130.83 806.67 129.63C806.17 129.03 805.75 128.38 805.35 127.72C804.97 127.06 804.63 126.31 804.38 125.66L803.49 126.96C805.72 127.1 807.94 127.16 810.17 127.21L811.27 127.24L811.28 126.14C811.33 120.74 811.22 115.33 810.45 109.92Z" />
			<path id="Path 143" class="shp11" d="M793.53 122.33C793.49 125.16 791.27 127.41 788.58 127.37C785.9 127.33 783.75 125 783.8 122.18C783.84 119.36 786.06 117.1 788.75 117.14C791.43 117.19 793.58 119.51 793.53 122.33ZM778.24 119.43C778.93 120.36 779.84 121.06 780.68 121.17C781.57 121.26 782.16 120.89 782.86 120.06C783.56 119.31 784.31 118.3 785.4 117.64C786.48 116.95 787.84 116.79 788.96 117.15C787.81 117.44 786.9 117.99 786.17 118.67C785.45 119.37 784.88 120.24 784.08 121.17C783.66 121.6 783.19 122.09 782.48 122.38C781.78 122.65 780.99 122.66 780.33 122.4C778.95 121.88 778.34 120.57 778.24 119.43ZM830.11 122.91C830.06 125.74 832.21 128.06 834.89 128.1C837.58 128.15 839.8 125.89 839.84 123.07C839.88 120.24 837.74 117.92 835.06 117.88C832.37 117.83 830.15 120.09 830.11 122.91ZM845.69 120.5C845.55 121.63 844.9 122.92 843.51 123.4C842.84 123.64 842.06 123.6 841.36 123.31C840.67 123 840.21 122.49 839.8 122.05C839.03 121.1 838.49 120.21 837.79 119.48C837.08 118.78 836.2 118.2 835.06 117.88C836.18 117.55 837.54 117.76 838.59 118.48C839.66 119.17 840.38 120.21 841.05 120.98C841.73 121.83 842.31 122.23 843.2 122.16C844.04 122.08 844.97 121.41 845.69 120.5ZM829.66 145.05C828.26 147.2 825.58 149.21 821.19 149.89C816.77 150.56 813.59 149.44 811.64 147.81C809.54 146.09 808.83 143.78 809.51 142.45C809.58 142.3 809.67 142.17 809.78 142.06C811.5 139.98 817.24 140.45 819.68 140.07C822.27 139.67 828.07 137.26 830.08 139.29C830.27 139.49 830.42 139.71 830.53 140C831.05 141.23 830.85 143.18 829.66 145.05Z" />
			<path id="Path 144" class="shp12" d="M811.64 147.81C813.59 149.45 816.77 150.56 821.18 149.89C825.57 149.21 828.27 147.19 829.66 145.04C827.18 143.72 823.79 143.18 820.23 143.72C816.68 144.27 813.61 145.81 811.64 147.81Z" />
			<path id="Path 145" class="shp18" d="M830.53 140C828.28 140.88 825.39 141.67 822.19 142.17C816.93 143.01 812.24 142.91 809.78 142.06C811.5 139.98 817.24 140.45 819.68 140.07C822.27 139.67 828.07 137.26 830.08 139.29C830.27 139.49 830.42 139.71 830.53 140Z" />
			<path id="Path 146" class="shp11" d="M827.63 70.57C827.63 70.57 827.54 89.84 845.64 103.29C862.41 115.76 858.36 126.99 862.02 126.94C865.69 126.89 862.91 114.78 873.85 114.62C879.14 114.55 887.23 58 838.25 54.66C838.25 54.66 806.4 38.06 782.57 61.73C758.74 85.4 770.04 112.49 772 112.61C773.97 112.72 774.76 104.14 786.99 96.61C794.08 92.26 813.84 85.44 827.63 70.57Z" />
			<path id="Path 147" class="shp27" d="M867.2 117.55C867.2 117.55 872.92 110.99 880.41 116.31C889.15 122.52 884.02 146.17 863.18 138.46L867.2 117.55Z" />
			<path id="Path 148" class="shp29" d="M876.57 133.98C875.47 132.9 874.16 132.09 872.8 131.72C871.43 131.32 870.03 131.53 868.77 132.06L867.55 132.57L867.75 131.24C867.97 129.72 868.43 128.33 869.05 126.95C869.7 125.6 870.56 124.27 871.82 123.29C873.06 122.3 874.77 121.87 876.28 122.11C877.82 122.27 879.12 123.07 880.29 123.87C879.59 123.69 878.94 123.41 878.26 123.26C877.56 123.17 876.89 123.01 876.23 123.08C874.9 123.1 873.7 123.58 872.75 124.42C870.89 126.18 869.85 128.89 869.23 131.48L868.21 130.66C869.01 130.41 869.84 130.18 870.7 130.23C871.54 130.23 872.39 130.4 873.14 130.76C874.66 131.43 875.83 132.63 876.57 133.98Z" />
			<path id="Path 149" class="shp11" d="M875.38 212.46C840.99 236.16 844.79 266.27 844.79 266.27C824.75 226.48 850.33 207 856.14 195.81C861.95 184.64 850.55 178.93 844.24 169.26C843.09 167.48 842.22 165.69 841.63 163.95C847.63 161.22 853.31 157.39 858.33 152.69C860.62 150.56 862.68 147.78 864.47 144.55C879.91 152.48 906.42 191.08 875.38 212.46Z" />
			<path id="Path 150" class="shp3" d="M814.85 385.7C816.65 385.99 818.4 386.65 819.93 387.68C820.69 388.19 821.37 388.83 821.94 389.57C822.24 389.93 822.47 390.33 822.7 390.74C822.86 391.18 823.01 391.66 823.08 392.1C823.79 395.69 824.27 399.3 824.79 402.91C825.75 410.15 826.61 417.39 827.46 424.63C829.14 439.12 830.6 453.62 832.11 468.13C833.49 482.64 834.92 497.15 836.19 511.68L838.04 533.47L839.7 555.28L837.24 533.55L834.93 511.8L830.48 468.29L826.21 424.76L824 403.01C823.61 399.39 823.26 395.76 822.69 392.17C822.63 391.71 822.51 391.31 822.39 390.89C822.18 390.5 821.98 390.1 821.7 389.75C821.18 389.02 820.54 388.37 819.81 387.84C818.35 386.78 816.64 386.05 814.85 385.7Z" />
			<path id="Path 151" class="shp4" d="M882.43 552.6C879.33 554.6 875.79 555.85 872.22 556.76C868.62 557.65 864.92 558.04 861.23 558.2C857.53 558.19 853.83 557.99 850.19 557.35C848.36 557.08 846.58 556.58 844.78 556.21C843.01 555.7 841.25 555.14 839.51 554.57C843.11 555.33 846.68 556.09 850.31 556.51C853.93 556.98 857.57 557.18 861.21 557.11C864.84 557.04 868.46 556.64 872.03 555.94C875.59 555.21 879.12 554.2 882.43 552.6ZM838.62 546.34C836.13 547.55 833.42 548.27 830.7 548.75C827.96 549.23 825.17 549.39 822.4 549.35C819.63 549.19 816.85 548.96 814.15 548.31C812.79 548.05 811.47 547.6 810.14 547.23C808.83 546.79 807.54 546.28 806.27 545.76C808.95 546.4 811.6 547.08 814.31 547.48C816.99 547.95 819.71 548.18 822.43 548.26C825.15 548.39 827.87 548.21 830.58 547.92C833.28 547.61 835.98 547.13 838.62 546.34Z" />
			<path id="Path 152" class="shp28" d="M806.36 353.74C799.39 357.97 790.07 358.44 786.54 358.45C785.93 356.92 785.04 354.91 783.91 352.55C787.63 353.01 795.51 352.43 803.15 346.35C804.46 349.37 805.58 351.91 806.36 353.74ZM774.85 334.15C774.85 334.15 786.49 332.72 793.88 324.96L791.16 318.63C791.16 318.63 784.33 324.88 772.51 329.43L774.85 334.15Z" />
		</g>
		<g id="Folder 1">
			<path id="Path 153" class="shp0" d="M818.05 682.57C818.05 696.91 756.29 708.54 680.1 708.54C603.91 708.54 542.14 696.91 542.14 682.57C542.14 668.22 603.91 656.59 680.1 656.59C756.29 656.59 818.05 668.22 818.05 682.57Z" />
			<path id="Path 154" class="shp23" d="M640.84 469.45C640.84 469.45 638.43 504.92 638.8 514.62C639.17 524.33 654.89 632.41 654.22 634.75C653.56 637.09 619.74 658.54 622.41 662.22C625.09 665.9 677.31 647.13 677.31 643.11C677.31 639.1 676.91 635.55 677.31 633.08C684.38 589.46 698.07 553.6 674.97 510.27L680.32 469.45L640.84 469.45Z" />
			<path id="Path 155" class="shp28" d="M640.84 469.45C640.84 469.45 638.43 504.92 638.8 514.62C639.17 524.33 654.89 632.41 654.22 634.75C653.56 637.09 619.74 658.54 622.41 662.22C625.09 665.9 677.31 647.13 677.31 643.11C677.31 639.1 676.91 635.55 677.31 633.08C684.38 589.46 698.07 553.6 674.97 510.27L680.32 469.45L640.84 469.45Z" />
			<path id="Path 156" class="shp11" d="M643.97 642.9C643.97 642.9 613.75 662.64 617.48 665.66C625.59 672.2 669.13 654.28 669.13 654.28L669.13 658.87C669.13 658.87 674.57 661.33 678.6 658.87C678.6 658.87 683.27 645.89 677.25 640.11C677.25 640.11 632.96 659.8 630.2 655.89C628.37 653.31 643.97 642.9 643.97 642.9Z" />
			<path id="Path 157" class="shp23" d="M672.96 469.45C672.96 469.45 670.37 507.48 670.76 517.88C671.16 528.29 688.02 644.17 687.31 646.68C686.59 649.19 643.18 681.48 646.05 685.43C648.92 689.37 712.06 659.95 712.06 655.65C712.06 651.34 711.63 647.54 712.06 644.89C719.64 598.12 734.32 559.67 709.55 513.22L715.29 469.45L672.96 469.45Z" />
			<path id="Path 158" class="shp11" d="M612.15 406.89L734.99 408.25C734.99 408.25 746.8 458.53 731.1 511.78C729.6 516.89 658.7 533.98 623.42 508.19C620.18 505.82 612.15 406.89 612.15 406.89ZM663.46 667.09C663.46 667.09 653.75 674.29 654.6 677.27C655.09 678.98 685.52 670.79 712.03 653.6C712.03 653.6 719.46 661.72 712.95 680.76C712.95 680.76 708.77 683.6 701.25 680.76L701.25 675.75C701.25 675.75 648.17 691.47 644.69 684.81C642.91 681.41 663.46 667.09 663.46 667.09Z" />
			<path id="Path 159" class="shp10" d="M632.74 36.98C632.74 36.98 655.62 21.12 676.19 23.6C698.87 26.33 740.4 67.46 738.19 101.9C736.04 135.22 713.74 141.02 712.9 165.86C712.05 190.69 729.19 198.33 726.1 224.4C723.01 250.48 697.97 264.88 697.97 264.88C697.97 264.88 710.18 233.41 697.34 213.14C684.51 192.88 611.9 175.11 595.2 144.76C577.76 113.06 582.14 67.83 597.17 51.55C612.19 35.27 632.74 36.98 632.74 36.98Z" />
			<path id="Path 160" class="shp27" d="M599.38 395.22C599.29 396.34 595.07 410.61 595.18 414.45C595.3 418.29 597.08 428.39 598.73 429.3C600.38 430.21 600.57 429 600.57 429C600.57 429 602.32 435 603.5 435.49C604.68 435.99 605.12 435.43 605.12 435.43C605.12 435.43 607.24 438.46 608.52 438.53C609.8 438.61 610.86 435.37 610.86 435.37C610.86 435.37 611.79 437.66 613.55 437.02C614.85 436.54 615.26 419.29 615.64 419.07C618.12 417.7 614.25 429.02 617.33 429.2C618.37 429.26 624.74 417.84 622.79 411.82C621.15 406.77 619.68 398.24 619.68 398.24L599.38 395.22Z" />
			<path id="Path 161" class="shp6" d="M642.48 185.39C642.48 185.39 613.86 208.15 608.41 229.1C602.96 250.06 596.21 399.26 596.42 402.5C596.63 405.75 607.02 414.89 617.92 414.72C628.83 414.55 628.35 241.47 630.19 236.26C632.04 231.05 642.48 185.39 642.48 185.39ZM743.04 437.63C739.68 441.52 710.58 471.05 647.11 455.68C644.73 455.09 638.51 427.16 638.51 427.16C638.51 427.16 633.72 451.47 631.06 452.62C628.41 453.76 615.06 448.76 609.76 442.96C607.55 440.53 605.21 254.33 618.2 220.88C623.09 208.33 642.65 179.11 655.31 177.58C678.27 174.8 711.42 203.86 717.33 214.68C720.82 221.04 730.26 295.84 736.75 357.08L736.77 357.1C737.27 361.83 737.74 366.46 738.21 370.99C741.93 407.43 744.26 436.2 743.04 437.63Z" />
			<path id="Path 162" class="shp20" d="M738.21 370.99C736.02 382.65 716.1 406.3 716.1 406.3L733.46 351.54C733.46 351.54 735.25 353.55 736.75 357.08L736.77 357.1C737.27 361.83 737.74 366.46 738.21 370.99Z" />
			<path id="Path 163" class="shp6" d="M698.09 194.99C698.09 194.99 725.75 218.54 729.36 228.65C738.62 254.58 745.86 335.36 745.2 340.04C742.58 358.48 714.13 409.9 714.13 409.9C714.13 409.9 693.47 405.67 689.59 388.84C689.59 388.84 715.51 341.09 715.88 332.69C716 329.99 698.09 194.99 698.09 194.99Z" />
			<path id="Path 164" class="shp22" d="M703.55 240.4C705.88 253.13 707.93 265.9 709.89 278.68C711.85 291.46 713.59 304.28 715.24 317.12C715.61 320.33 715.97 323.55 716.27 326.78C716.42 328.4 716.56 330.01 716.65 331.66C716.67 332.53 716.76 333.21 716.62 334.34C716.38 335.34 716.01 336.03 715.68 336.79C712.99 342.72 710.2 348.53 707.29 354.31C701.53 365.9 695.68 377.43 689.59 388.84L697.61 371.17L705.77 353.58C708.43 347.7 711.29 341.88 713.86 335.99C714.16 335.28 714.52 334.49 714.65 333.93C714.69 333.46 714.65 332.51 714.6 331.77C714.51 330.19 714.35 328.59 714.19 326.99L713.07 317.38C711.61 304.55 709.83 291.74 708.23 278.91L705.81 259.67L703.55 240.4ZM697.59 245.16C699.51 245.89 700.96 247.09 702.29 248.39C703.57 249.75 704.73 251.22 705.41 253.16C703.49 252.43 702.05 251.24 700.72 249.92C699.44 248.57 698.28 247.1 697.59 245.16ZM608.36 414.23C607.99 399.98 607.92 385.73 607.93 371.48C607.94 357.24 608.17 342.99 608.39 328.74C608.79 314.49 609.12 300.25 609.85 286.01C610.65 271.79 611.28 257.5 613.55 243.41C612.83 250.51 612.44 257.61 612.22 264.73C611.89 271.84 611.7 278.96 611.53 286.07C611.15 300.31 610.81 314.55 610.57 328.79L609.61 371.51C609.25 385.75 608.9 399.99 608.36 414.23ZM608.94 246.94C610.23 248.15 610.89 249.56 611.39 251.02C611.83 252.5 612.11 254.03 611.75 255.76C610.46 254.55 609.8 253.14 609.3 251.68C608.87 250.2 608.59 248.67 608.94 246.94Z" />
			<path id="Path 165" fill-rule="evenodd" class="shp20" d="M640.23 292.98L639.82 301.36L639.57 309.75C639.42 315.33 639.26 320.92 639.22 326.51C639.07 337.68 638.9 348.86 638.95 360.04L638.8 393.59L638.72 410.36L638.52 427.15C637.79 415.97 637.41 404.79 637.12 393.6C636.82 382.42 636.79 371.22 636.76 360.03C636.9 348.84 637.03 337.64 637.54 326.46C638.07 315.28 638.7 304.08 640.23 292.98ZM648.26 319.58C648.19 319.58 648.12 319.58 648.06 319.57C646.15 319.47 644.68 317.83 644.78 315.91C644.83 314.99 645.24 314.14 645.94 313.52C646.63 312.9 647.55 312.57 648.44 312.64C649.37 312.69 650.22 313.1 650.84 313.79C651.46 314.48 651.77 315.37 651.72 316.3C651.67 317.23 651.26 318.08 650.57 318.7C649.92 319.27 649.11 319.58 648.26 319.58ZM648.25 314.83C647.93 314.83 647.63 314.94 647.4 315.15C647.14 315.38 646.99 315.69 646.97 316.03C646.93 316.74 647.47 317.35 648.18 317.39C648.56 317.4 648.85 317.29 649.1 317.06C649.36 316.83 649.51 316.52 649.53 316.18C649.55 315.84 649.43 315.51 649.21 315.25C648.98 315 648.67 314.85 648.32 314.83C648.3 314.83 648.27 314.83 648.25 314.83Z" />
			<path id="Path 166" fill-rule="evenodd" class="shp20" d="M647.35 347.84C647.29 347.84 647.22 347.83 647.16 347.83C646.23 347.78 645.38 347.37 644.76 346.68C644.14 345.99 643.83 345.1 643.89 344.17C643.99 342.26 645.74 340.77 647.54 340.9C648.47 340.95 649.32 341.36 649.94 342.05C650.56 342.74 650.87 343.63 650.82 344.56C650.72 346.4 649.18 347.84 647.35 347.84ZM647.35 343.08C646.68 343.08 646.11 343.61 646.07 344.29C646.05 344.63 646.17 344.96 646.4 345.22C646.62 345.47 646.94 345.62 647.28 345.64C648.03 345.64 648.59 345.14 648.63 344.44C648.65 344.09 648.54 343.76 648.31 343.51C648.08 343.26 647.76 343.1 647.42 343.08C647.4 343.08 647.38 343.08 647.35 343.08ZM647.41 376.15C647.35 376.15 647.28 376.14 647.21 376.14C646.29 376.09 645.44 375.68 644.82 374.99C644.2 374.3 643.89 373.41 643.94 372.48C644.05 370.57 645.77 369.09 647.6 369.21C648.53 369.26 649.37 369.67 649.99 370.36C650.61 371.05 650.93 371.94 650.87 372.86C650.82 373.79 650.41 374.65 649.72 375.27C649.08 375.84 648.27 376.15 647.41 376.15ZM647.41 371.39C646.73 371.39 646.17 371.92 646.13 372.6C646.11 372.94 646.22 373.27 646.45 373.53C646.68 373.78 646.99 373.93 647.33 373.95C647.68 373.95 648.01 373.86 648.26 373.63C648.52 373.4 648.67 373.09 648.69 372.75C648.7 372.4 648.59 372.07 648.36 371.82C648.13 371.56 647.82 371.41 647.48 371.39C647.45 371.39 647.43 371.39 647.41 371.39ZM647.36 404.45C647.29 404.45 647.23 404.45 647.16 404.45C646.24 404.4 645.39 403.99 644.77 403.29C644.15 402.6 643.84 401.71 643.89 400.79C644 398.87 645.74 397.41 647.55 397.51C648.48 397.57 649.32 397.97 649.94 398.66C650.56 399.36 650.87 400.25 650.82 401.17C650.72 403.02 649.19 404.45 647.36 404.45ZM647.36 399.7C646.68 399.7 646.12 400.23 646.08 400.91C646.06 401.25 646.17 401.58 646.4 401.83C646.63 402.09 646.94 402.24 647.28 402.26C648.03 402.25 648.59 401.75 648.64 401.05C648.65 400.71 648.54 400.38 648.31 400.13C648.08 399.87 647.77 399.72 647.43 399.7C647.4 399.7 647.38 399.7 647.36 399.7ZM687.51 384.95C689.5 387.97 691.91 390.6 694.45 393.04C697.03 395.44 699.77 397.65 702.77 399.48C704.27 400.38 705.76 401.32 707.36 402.05L709.73 403.22L712.19 404.21C713.8 404.95 715.52 405.39 717.2 406.01C718.89 406.6 720.64 406.95 722.37 407.54C720.57 407.44 718.76 407.3 716.95 407.06C715.18 406.67 713.35 406.45 711.62 405.83C708.08 404.88 704.77 403.2 701.6 401.34C698.48 399.38 695.65 396.97 693.22 394.22C690.79 391.49 688.75 388.36 687.51 384.95ZM692.34 199.22C692.34 199.22 697.63 214.08 695.91 216.1C694.19 218.11 680.27 212.97 680.27 212.97C680.27 212.97 694.78 228.65 693.08 230.43C672.45 252.02 641.7 290.68 641.7 290.68L681.23 194.05L692.34 199.22ZM639.89 198.71L639.51 291.63C630.33 278.87 619.72 225.96 619.96 221.61C620.2 217.26 633.52 204.97 633.52 204.97C628.58 203.58 626.13 200.85 626.13 200.85L639.89 198.71Z" />
			<path id="Path 167" fill-rule="evenodd" class="shp20" d="M668.88 272.58C674.39 272.77 679.89 272.8 685.39 272.57C690.88 272.41 696.37 272.04 701.82 271.43L702.66 271.34L702.72 272.21C703.28 280.77 703.61 289.34 704.07 297.91L704.22 301.12L704.31 302.73L704.35 303.53C704.3 303.86 704.53 303.84 704.18 304.8C703.63 305.7 703.16 305.9 702.68 306.29C702.2 306.63 701.72 306.92 701.24 307.2C700.28 307.75 699.31 308.24 698.33 308.71C694.41 310.58 690.48 312.24 686.38 313.74C686.09 313.83 685.9 313.91 685.48 314.01C685.24 314.04 684.93 314.01 684.67 313.97L684.22 313.84C683.63 313.66 683.13 313.46 682.62 313.24C681.6 312.83 680.63 312.37 679.65 311.91C677.7 310.98 675.78 310.01 673.88 308.99C672.93 308.47 671.99 307.94 671.06 307.37C670.6 307.1 670.13 306.8 669.67 306.49C669.42 306.31 669.21 306.18 668.94 305.96C668.81 305.82 668.66 305.71 668.54 305.55C668.45 305.35 668.37 305.14 668.3 304.92C668.04 303.58 668.07 302.63 668.01 301.51L667.98 298.28C667.98 289.69 668.38 281.13 668.88 272.58ZM668.88 272.58C668.93 275.56 668.97 278.53 669.02 281.51C671.71 281.84 674.41 282 677.1 282.1C679.91 282.2 682.7 282.25 685.5 282.15C690.78 282.09 696.05 281.64 701.34 281.22C701.25 278.52 701.16 275.83 701.09 273.13C695.86 273.5 690.63 273.68 685.4 273.61C679.88 273.49 674.35 273.25 668.88 272.58ZM669.37 298.25L669.52 301.44C669.59 302.45 669.68 303.66 669.84 304.41C669.68 304.57 670.19 304.79 670.58 305.09L671.93 305.87C672.85 306.39 673.8 306.87 674.74 307.36C676.63 308.34 678.54 309.28 680.47 310.17C681.43 310.6 682.4 311.04 683.36 311.43C683.84 311.62 684.34 311.81 684.78 311.94L685.08 312.03C685.08 312.04 685.07 312.05 685.08 312.06L685.72 311.85C689.65 310.37 693.59 308.65 697.38 306.79C698.32 306.31 699.25 305.83 700.15 305.3C700.59 305.04 701.04 304.79 701.43 304.51C701.73 304.32 702.08 304.01 702.21 303.88C702.21 303.77 702.21 303.61 702.2 303.52L702.17 302.72L702.1 301.12L701.99 297.92C701.79 292.4 701.55 286.88 701.35 281.36C698.92 281.91 696.46 282.32 693.98 282.63C691.18 282.99 688.35 283.13 685.53 283.25C682.7 283.25 679.87 283.22 677.05 282.94C674.35 282.67 671.64 282.3 669.02 281.56C669.1 287.13 669.2 292.7 669.37 298.25ZM685.08 312.03C685.09 312.02 685.1 312.02 685.1 312.03L685.08 312.03ZM702.21 303.88C702.21 304.03 702.21 304.09 702.26 303.83C702.26 303.83 702.24 303.85 702.21 303.88ZM701.09 273.13C701.39 273.11 701.68 273.09 701.98 273.07L701.08 272.29C701.08 272.57 701.09 272.85 701.09 273.13Z" />
			<path id="Path 168" class="shp7" d="M677.38 234.24C669.38 268.8 671.03 277.14 674 280.99C677.13 285.06 682.04 287.16 682.24 287.25L683.21 284.95L682.73 286.1L683.21 284.95C683.17 284.94 678.69 283.01 675.97 279.48C673.83 276.69 671.89 269.02 679.81 234.8L677.38 234.24Z" />
			<path id="Path 169" class="shp1" d="M679.51 283.92L679.12 284.68C678.55 285.77 678.99 287.12 680.08 287.68L683.79 289.59C684.88 290.15 686.23 289.71 686.79 288.63L687.18 287.87C687.74 286.78 687.3 285.43 686.21 284.87L682.51 282.96C681.42 282.4 680.07 282.83 679.51 283.92Z" />
			<path id="Path 170" class="shp7" d="M699.79 234.42C707.38 260.06 709.45 274.15 706.31 278.78C703.8 282.49 699.46 284.67 699.41 284.69L700.52 286.92C700.72 286.82 705.49 284.42 708.37 280.18C712.11 274.67 710.32 261.21 702.18 233.71L699.79 234.42Z" />
			<path id="Path 171" class="shp1" d="M703.05 283.43L703.49 284.17C704.11 285.22 703.76 286.59 702.71 287.22L699.12 289.35C698.07 289.97 696.69 289.62 696.07 288.57L695.63 287.83C695.01 286.78 695.36 285.41 696.41 284.78L700 282.65C701.05 282.03 702.43 282.38 703.05 283.43Z" />
			<path id="Path 172" class="shp7" d="M689.11 194.56C687.98 182.37 668.4 180.35 659.17 180.22C647.42 180.06 637.52 182.35 633.7 194.27C629.93 206.05 629.27 219.24 629.07 231.56C629.04 233.85 625.46 233.86 625.5 231.56C625.72 217.36 624.77 190.64 637.6 181.35C650.31 172.16 690.77 173.9 692.68 194.56C692.89 196.85 689.32 196.83 689.11 194.56Z" />
			<path id="Path 173" class="shp1" d="M619.08 238.31C619.08 242.84 622.75 246.52 627.29 246.52C631.82 246.52 635.5 242.84 635.5 238.31C635.5 233.78 631.82 230.1 627.29 230.1C622.75 230.1 619.08 233.78 619.08 238.31Z" />
			<path id="Path 174" class="shp6" d="M622.34 238.31C622.34 241.04 624.56 243.25 627.29 243.25C630.02 243.25 632.23 241.04 632.23 238.31C632.23 235.58 630.02 233.37 627.29 233.37C624.56 233.37 622.34 235.58 622.34 238.31Z" />
			<path id="Path 175" class="shp1" d="M703.01 232.6C702.19 229.05 699.86 220.24 698.05 215.84C696.57 212.22 692.88 209.87 692.88 209.87C692.38 209.83 692.47 205.47 692.61 201.91C692.75 198.76 692.97 195.11 692.19 194.12C691.43 193.16 689.53 193.16 688.76 194.05C687.93 195 688 198.66 687.98 201.81C687.97 205.38 687.86 209.73 687.36 209.75C687.36 209.75 683.81 212.1 682.21 215.55C680.44 219.4 677.34 229.62 676.78 232.6C676.1 236.31 677.32 236.72 678.38 237.05C679.88 237.52 680.8 236.47 681.85 232.37C683.51 225.87 685.53 214.96 690.01 214.85L690.01 214.84C694.48 215.16 696.63 226.6 698.25 232.96C699.26 236.94 700.12 237.3 701.65 236.9C702.72 236.63 703.82 236.14 703.01 232.6Z" />
			<path id="Path 176" class="shp12" d="M663.1 178.77C653.5 178.24 643.52 179.65 635.49 199.5C627.45 219.35 640.55 289.75 640.55 289.75C640.55 289.75 678.45 212.94 681.1 203.85C683.75 194.75 685.63 180.03 663.1 178.77Z" />
			<path id="Path 177" class="shp23" d="M679.03 187.14C669.21 196.57 650.54 214.21 650.54 214.21C650.54 214.21 645.58 196.05 644.58 187.36C644.47 186.4 648.63 183.92 648.63 181.59C648.63 180.73 648.46 176.67 648.26 171.88C647.94 163.77 647.47 153.62 647.47 153.62L674.66 153.62C674.66 153.62 674.19 163.94 673.82 172.1C673.63 176.8 673.48 180.75 673.48 181.59C673.48 183.92 679.73 186.48 679.03 187.14Z" />
			<path id="Path 178" class="shp24" d="M674.66 153.62C674.66 153.62 674.19 163.94 673.82 172.1C663.33 175.79 654.13 174.02 648.26 171.88C647.94 163.77 647.47 153.62 647.47 153.62L674.66 153.62Z" />
			<path id="Path 179" class="shp23" d="M609.93 108.13C609.93 108.13 603.63 100.67 595.14 106.5C585.23 113.3 590.55 139.92 614.07 131.64L609.93 108.13Z" />
			<path id="Path 180" class="shp25" d="M599.13 126.39C599.99 124.88 601.32 123.56 603.03 122.83C603.88 122.44 604.83 122.27 605.78 122.28C606.75 122.24 607.67 122.51 608.57 122.81L607.41 123.7C606.76 120.79 605.63 117.74 603.59 115.73C602.53 114.77 601.19 114.21 599.71 114.16C598.96 114.07 598.21 114.24 597.43 114.33C596.67 114.49 595.93 114.79 595.13 114.98C596.46 114.1 597.93 113.22 599.67 113.07C601.36 112.83 603.27 113.34 604.65 114.48C606.05 115.6 606.98 117.1 607.69 118.63C608.36 120.19 608.85 121.76 609.08 123.46L609.27 124.96L607.92 124.36C606.51 123.74 604.94 123.49 603.4 123.91C601.86 124.3 600.38 125.19 599.13 126.39Z" />
			<path id="Path 181" class="shp23" d="M712.18 108.13C712.18 108.13 718.48 100.67 726.97 106.5C736.88 113.3 731.56 139.92 708.04 131.64L712.18 108.13Z" />
			<path id="Path 182" class="shp25" d="M722.98 126.39C721.73 125.19 720.25 124.3 718.71 123.91C717.17 123.49 715.6 123.74 714.2 124.36L712.84 124.96L713.03 123.46C713.26 121.76 713.75 120.19 714.42 118.63C715.13 117.1 716.06 115.6 717.46 114.48C718.84 113.34 720.75 112.83 722.44 113.07C724.18 113.22 725.65 114.1 726.98 114.98C726.18 114.79 725.44 114.49 724.68 114.33C723.9 114.24 723.15 114.07 722.4 114.16C720.92 114.21 719.58 114.77 718.52 115.73C716.48 117.74 715.35 120.79 714.7 123.7L713.54 122.81C714.44 122.51 715.36 122.24 716.33 122.28C717.28 122.27 718.23 122.44 719.08 122.83C720.79 123.56 722.12 124.88 722.98 126.39Z" />
			<path id="Path 183" class="shp23" d="M703.32 148.69C688.28 165.8 661.06 165.71 661.06 165.71C661.06 165.71 633.85 165.8 618.78 148.69C602.53 130.19 598.93 75.68 612.62 58.33C625.34 42.26 645.87 38.1 661.06 38.1C676.24 38.1 696.76 42.26 709.48 58.33C723.18 75.68 719.6 130.19 703.32 148.69Z" />
			<path id="Path 184" class="shp11" d="M638.78 114.79C638.78 117.96 636.34 120.53 633.33 120.53C630.31 120.53 627.87 117.96 627.87 114.79C627.87 111.63 630.31 109.06 633.33 109.06C636.34 109.06 638.78 111.63 638.78 114.79ZM693.28 114.79C693.28 117.96 690.83 120.53 687.82 120.53C684.81 120.53 682.36 117.96 682.36 114.79C682.36 111.63 684.81 109.06 687.82 109.06C690.83 109.06 693.28 111.63 693.28 114.79Z" />
			<path id="Path 185" class="shp10" d="M624.17 100.71C624.17 100.71 628.48 93.24 638.2 97.52M697.08 100.71C697.08 100.71 692.77 93.24 683.04 97.52" />
			<path id="Path 186" class="shp25" d="M660.21 100.58C659.25 106.63 659.03 112.69 658.98 118.75L660.21 117.52C657.7 117.53 655.2 117.57 652.7 117.69L651.06 117.76L651.72 119.15C652.18 120.11 652.73 120.87 653.33 121.66C653.92 122.43 654.62 123.12 655.37 123.74C656.87 124.98 658.77 125.8 660.65 125.79C658.88 125.16 657.45 124.08 656.32 122.75C655.75 122.09 655.26 121.37 654.81 120.63C654.36 119.9 653.98 119.07 653.68 118.34L652.7 119.81C655.2 119.92 657.7 119.96 660.21 119.97L661.44 119.98L661.43 118.75C661.39 112.69 661.16 106.63 660.21 100.58Z" />
			<path id="Path 187" class="shp11" d="M664.84 137.79C668.15 138.22 671.28 138.24 673.95 137.05C675.27 136.46 676.54 135.68 677.62 134.59C678.22 134.11 678.66 133.45 679.24 132.89C679.76 132.28 680.22 131.61 680.82 130.98C680.67 131.81 680.45 132.63 680.16 133.44C679.77 134.19 679.49 135.04 678.91 135.71C677.96 137.19 676.44 138.31 674.81 139.06C673.14 139.77 671.29 140 669.55 139.73C667.82 139.48 666.17 138.85 664.84 137.79ZM699.11 112.15C698.95 113.35 698.25 114.7 696.78 115.2C696.08 115.44 695.26 115.4 694.53 115.1C693.81 114.77 693.33 114.24 692.9 113.77C692.08 112.77 691.51 111.82 690.74 111.05C689.99 110.3 689.03 109.7 687.82 109.37C689.01 109.05 690.44 109.28 691.55 110.05C692.67 110.78 693.43 111.87 694.15 112.7C694.87 113.61 695.51 114.04 696.48 113.96C697.39 113.86 698.36 113.13 699.11 112.15ZM622.22 112.15C622.96 113.13 623.94 113.86 624.85 113.96C625.82 114.04 626.46 113.61 627.18 112.7C627.9 111.87 628.66 110.78 629.78 110.05C630.89 109.28 632.32 109.05 633.51 109.37C632.3 109.7 631.34 110.3 630.59 111.05C629.82 111.82 629.25 112.77 628.43 113.77C628 114.24 627.52 114.77 626.8 115.1C626.07 115.4 625.25 115.44 624.55 115.2C623.08 114.7 622.38 113.35 622.22 112.15Z" />
			<path id="Path 188" class="shp10" d="M602.24 104.29C603.11 108.02 604.4 118.6 607.69 118.63C610.98 118.65 609.35 96.61 611.94 90.74C614.52 84.87 644.24 92.26 687.82 53.79C687.82 53.79 693.52 80.68 711.25 98.45C715.01 102.21 709.37 116.96 714.42 118.63C719.47 120.3 741.66 35.76 661.06 35.76C599.01 35.76 597.11 82.3 602.24 104.29Z" />
			<path id="Path 189" class="shp6" d="M648.18 181.19C648.18 181.19 630.61 189.01 622.14 200.76C620.96 202.4 633.24 204.08 633.24 204.08C633.24 204.08 621.02 213.59 621.2 217.62C621.38 221.66 628.4 275.92 638.97 294.58C638.97 294.58 639.06 200.69 648.18 181.19ZM640.23 292.98C640.23 292.98 662.19 258.21 672.95 246.4C683.71 234.59 689.67 227.68 692.01 225.59C694.35 223.49 679.47 209.02 679.47 209.02C679.47 209.02 695.68 214.65 696.08 212.45C696.49 210.24 695.53 197.38 678.52 182.79C678.52 182.79 643.93 247.83 640.23 292.98Z" />
		</g>
	</g>
</svg>