<svg xmlns="http://www.w3.org/2000/svg" viewBox="0 0 136 132" width="136" height="132">
	<defs>
		<clipPath clipPathUnits="userSpaceOnUse" id="cp1">
			<path d="M-107 -217L893 -217L893 783L-107 783L-107 -217Z" />
		</clipPath>
	</defs>
	<style>
		tspan { white-space:pre }
		.shp0 { opacity: 0.4;fill: #868686 } 
		.shp1 { fill: #425473 } 
		.shp2 { fill: #94a4ff } 
		.shp3 { opacity: 0.302;fill: #425473 } 
		.shp4 { opacity: 0.502;fill: #425473 } 
		.shp5 { fill: #ffd4a1 } 
		.shp6 { fill: #e8eff9 } 
		.shp7 { fill: #868686 } 
		.shp8 { opacity: 0.502;fill: #eabb88 } 
		.shp9 { fill: #eabb88 } 
		.shp10 { fill: #5e4f45 } 
		.shp11 { fill: #3d3632 } 
		.shp12 { fill: #ffa08a } 
	</style>
	<g id="Clip-Path: Page 1" clip-path="url(#cp1)">
		<g id="Page 1">
			<g id="Folder 2">
				<path id="Path 2" class="shp0" d="M170.38 528.73C170.38 539.78 122.8 548.74 64.09 548.74C5.39 548.74 -42.2 539.78 -42.2 528.73C-42.2 517.67 5.39 508.71 64.09 508.71C122.8 508.71 170.38 517.67 170.38 528.73Z" />
				<path id="Path 3" fill-rule="evenodd" class="shp1" d="M59.09 501.64L59.09 513.44C59.09 518.42 2.09 530.84 5.42 525.24C8.74 519.65 38.39 508.81 38.39 508.81L38.39 501.64L59.09 501.64ZM103.82 501.64L103.82 508.81C103.82 508.81 133.48 519.65 136.8 525.24C140.12 530.84 83.13 518.42 83.13 513.44L83.13 501.64L103.82 501.64Z" />
				<path id="Path 4" class="shp2" d="M118 302.22C118 302.22 117.78 309.63 117.43 321.66C117.39 322.93 117.37 324.24 117.32 325.62C115.75 379.33 111.87 507 110.77 508.45C109.41 510.31 82.37 511.54 78.69 508.45C75.01 505.38 72.9 345.7 72.9 345.7L67.42 345.7C67.42 345.7 64.69 507.66 63.7 508.16C62.69 508.65 42.64 513.18 31.77 507.62C26.95 505.12 23.44 378.92 22.17 325.6C22.13 324 22.11 322.49 22.06 321.02C21.78 309.39 21.65 302.22 21.65 302.22L118 302.22Z" />
				<path id="Path 5" class="shp3" d="M118 302.22C118 302.22 117.78 309.63 117.43 321.66C117.39 322.93 117.37 324.24 117.32 325.62C105.62 329.37 88.84 333.05 68.04 333.05C47.2 333.05 32.12 329.35 22.17 325.6C22.13 324 22.11 322.49 22.06 321.02C21.78 309.39 21.65 302.22 21.65 302.22L118 302.22Z" />
				<path id="Path 6" class="shp4" d="M64.09 498.65C61.38 499.68 58.54 500.35 55.67 500.85C52.81 501.35 49.89 501.55 46.98 501.61C44.06 501.61 41.14 501.33 38.28 500.79C35.4 500.26 32.63 499.29 30.01 498.07C32.8 498.86 35.57 499.61 38.42 499.96C41.25 500.32 44.11 500.6 46.98 500.51C49.84 500.55 52.7 500.33 55.56 500.02C58.41 499.7 61.26 499.25 64.09 498.65ZM77.65 498.65C80.48 499.25 83.33 499.7 86.18 500.02C89.04 500.33 91.9 500.55 94.76 500.51C97.63 500.6 100.49 500.32 103.32 499.96C106.17 499.61 108.94 498.86 111.73 498.07C109.11 499.29 106.34 500.26 103.46 500.79C100.6 501.33 97.68 501.61 94.76 501.61C91.85 501.55 88.93 501.35 86.07 500.85C83.2 500.35 80.36 499.68 77.65 498.65Z" />
				<path id="Path 7" class="shp2" d="M122.18 310.44C120.89 315.27 96.59 323.4 70.13 323.4C40.46 323.4 19.37 315.27 18.06 310.44C16.77 305.62 31.46 162.63 34.04 157.07C36.65 151.49 65.02 143.16 70.13 143.16C75.24 143.16 103.61 151.49 106.19 157.07C108.79 162.63 123.47 305.62 122.18 310.44Z" />
				<path id="Path 8" class="shp5" d="M23.6 230.69L21.06 238.25C11.55 236.72 1.4 230.28 -3.86 225.63C-2.57 221.27 -1.65 218.36 -1.65 218.36C5.34 219.72 23.6 230.69 23.6 230.69Z" />
				<path id="Path 9" class="shp2" d="M45.99 150.1C45.99 150.1 41.85 236.87 27.32 238.47C25.31 238.69 23.2 238.61 21.06 238.26C11.55 236.72 1.4 230.28 -3.86 225.63C-5.94 223.79 -7.26 222.24 -7.5 221.38C-8.48 217.83 18.95 164.93 24.1 160.42C29.27 155.9 45.99 150.1 45.99 150.1Z" />
				<path id="Path 10" class="shp3" d="M24.16 238.25C24.16 233.66 24.4 229.1 24.68 224.53C24.93 219.97 25.35 215.42 25.78 210.87C26.25 206.32 26.73 201.78 27.38 197.25L28.36 190.46C28.76 188.21 29.1 185.95 29.57 183.7C29.59 186 29.47 188.28 29.43 190.57L29.06 197.42C28.8 201.99 28.38 206.54 27.96 211.08C27.48 215.63 27 220.17 26.35 224.7C25.73 229.23 25.06 233.75 24.16 238.25ZM24.16 185.5C25.66 186.59 26.56 187.98 27.32 189.44C28.02 190.93 28.57 192.49 28.51 194.35C27.01 193.26 26.11 191.87 25.36 190.41C24.66 188.91 24.11 187.35 24.16 185.5Z" />
				<path id="Path 11" class="shp6" d="M54.69 193.23C62.05 225.01 60.53 232.68 57.8 236.23C54.92 239.96 50.41 241.9 50.22 241.98L49.33 239.87L49.77 240.92L49.33 239.87C49.37 239.85 53.48 238.08 55.98 234.83C57.96 232.26 59.74 225.22 52.46 193.74L54.69 193.23Z" />
				<path id="Path 12" class="shp1" d="M52.82 239.07L53.02 239.45C53.58 240.54 53.14 241.89 52.05 242.45L48.96 244.04C47.87 244.6 46.52 244.17 45.96 243.08L45.77 242.7C45.21 241.61 45.64 240.26 46.73 239.7L49.82 238.11C50.91 237.55 52.26 237.99 52.82 239.07Z" />
				<path id="Path 13" class="shp6" d="M34.08 193.39C27.11 216.97 25.2 229.93 28.09 234.19C30.4 237.6 34.39 239.6 34.43 239.62L33.41 241.67C33.23 241.58 28.84 239.38 26.19 235.48C22.75 230.41 24.4 218.03 31.88 192.74L34.08 193.39Z" />
				<path id="Path 14" class="shp1" d="M30.99 238.62L30.78 238.99C30.15 240.04 30.5 241.41 31.56 242.04L34.55 243.81C35.6 244.44 36.97 244.09 37.6 243.03L37.82 242.67C38.44 241.61 38.09 240.24 37.04 239.61L34.05 237.84C32.99 237.22 31.62 237.57 30.99 238.62Z" />
				<path id="Path 15" class="shp5" d="M147.58 263.56C144.19 266.76 123.19 269.72 82.76 253.68C82.85 253.66 82.92 253.64 83.01 253.62C83.01 253.62 69.29 243.82 54.3 241.26C54.3 241.26 47.68 241.45 39.46 241.89C37.34 242 35.12 242.15 32.87 242.31C33.5 241.96 41.68 235.21 56.8 234.05C85.69 231.83 112.78 240.44 120.8 241.34L116.64 230.69C116.64 230.69 134.87 219.72 141.89 218.36C141.89 218.36 154.95 256.64 147.58 263.56Z" />
				<path id="Path 16" class="shp2" d="M94.07 150.1C94.07 150.1 110.79 155.89 115.95 160.42C121.11 164.94 148.53 217.84 147.56 221.39C146.59 224.93 127.24 240.09 112.73 238.48C98.21 236.87 94.07 150.1 94.07 150.1Z" />
				<path id="Path 17" class="shp7" d="M43.91 156.74C44.95 145.53 62.95 143.68 71.44 143.56C82.25 143.4 91.34 145.52 94.86 156.48C98.33 167.3 98.94 179.44 99.12 190.76C99.15 192.87 102.44 192.88 102.4 190.76C102.2 177.71 103.08 153.14 91.27 144.59C79.58 136.14 42.38 137.74 40.62 156.74C40.43 158.84 43.72 158.83 43.91 156.74Z" />
				<path id="Path 18" class="shp5" d="M83.01 253.62C82.92 253.64 82.85 253.66 82.76 253.68C77.55 255.35 72.47 256.84 67.54 258.15C22.17 270.31 -9.8 268.58 -11.75 263.19C-13.35 258.83 -7.3 237.18 -3.86 225.63C1.4 230.28 11.55 236.72 21.06 238.25L19.33 243.45C23.4 242.99 28.16 242.62 32.85 242.31L32.87 242.31C35.12 242.16 37.34 242 39.46 241.89C47.68 241.45 54.3 241.26 54.3 241.26C69.29 243.82 83.01 253.62 83.01 253.62Z" />
				<path id="Path 19" class="shp8" d="M83.01 253.62C77.7 255.3 72.53 256.82 67.54 258.15C54.32 253.24 51.65 243.97 31.77 242.38C39.99 241.94 54.3 241.26 54.3 241.26C69.29 243.82 83.01 253.62 83.01 253.62Z" />
				<path id="Path 20" class="shp1" d="M108.31 196.97C108.31 201.14 104.93 204.52 100.76 204.52C96.59 204.52 93.21 201.14 93.21 196.97C93.21 192.8 96.59 189.42 100.76 189.42C104.93 189.42 108.31 192.8 108.31 196.97Z" />
				<path id="Path 21" class="shp6" d="M105.3 196.97C105.3 199.48 103.27 201.52 100.76 201.52C98.25 201.52 96.21 199.48 96.21 196.97C96.21 194.46 98.25 192.43 100.76 192.43C103.27 192.43 105.3 194.46 105.3 196.97Z" />
				<path id="Path 22" class="shp4" d="M47.46 152.03C50.69 155.1 54.04 158.04 57.59 160.69C61.14 163.3 64.89 165.79 69.06 167.03L68.71 167.05C72.8 165.37 76.72 163.17 80.43 160.71C82.3 159.49 84.06 158.13 85.77 156.69C87.51 155.28 89.06 153.67 90.59 152.03C87.93 155.65 84.57 158.76 80.91 161.4C77.24 164.05 73.29 166.27 69.11 168.07L68.94 168.14L68.76 168.08C66.56 167.41 64.52 166.38 62.58 165.23C60.64 164.08 58.82 162.76 57.07 161.35C53.59 158.53 50.37 155.42 47.46 152.03Z" />
				<path id="Path 23" class="shp1" d="M31.13 191.72C31.88 188.46 34.02 180.35 35.68 176.3C37.05 172.98 40.44 170.81 40.44 170.81C40.9 170.78 40.82 166.77 40.68 163.5C40.56 160.61 40.36 157.24 41.08 156.33C41.77 155.46 43.52 155.45 44.23 156.27C44.99 157.14 44.93 160.51 44.94 163.41C44.95 166.69 45.06 170.69 45.51 170.7C45.51 170.7 48.78 172.87 50.25 176.04C51.88 179.58 54.73 188.98 55.24 191.72C55.87 195.13 54.75 195.51 53.77 195.82C52.39 196.24 51.55 195.28 50.58 191.51C49.05 185.53 47.2 175.49 43.08 175.4L43.08 175.39C38.97 175.68 37 186.2 35.5 192.05C34.57 195.71 33.78 196.04 32.37 195.68C31.39 195.42 30.38 194.97 31.13 191.72Z" />
				<path id="Path 24" class="shp3" d="M116.18 238.25C115.28 233.75 114.62 229.23 113.99 224.7C113.34 220.17 112.86 215.63 112.39 211.08C111.96 206.54 111.54 201.99 111.29 197.42L110.92 190.57C110.87 188.28 110.75 186 110.77 183.7C111.25 185.95 111.58 188.21 111.98 190.46L112.96 197.25C113.61 201.78 114.09 206.32 114.57 210.87C114.99 215.42 115.41 219.97 115.66 224.53C115.94 229.1 116.18 233.66 116.18 238.25ZM116.18 185.5C116.23 187.35 115.68 188.91 114.99 190.41C114.23 191.87 113.33 193.26 111.83 194.35C111.77 192.49 112.32 190.93 113.02 189.44C113.78 187.98 114.68 186.59 116.18 185.5Z" />
				<path id="Path 25" class="shp4" d="M115.24 230.18C116.67 229.93 118.05 229.53 119.4 229.03C120.76 228.58 122.07 228.01 123.37 227.42C125.97 226.21 128.47 224.82 130.86 223.24C133.32 221.76 135.58 220 137.88 218.27C140.15 216.51 142.33 214.63 144.55 212.77C143.59 213.85 142.59 214.89 141.6 215.96C140.54 216.95 139.5 217.95 138.41 218.92C136.21 220.8 133.9 222.59 131.45 224.16C128.97 225.69 126.42 227.12 123.7 228.19C120.99 229.23 118.16 230.1 115.24 230.18ZM25.45 230.18C22.54 230.1 19.7 229.23 16.99 228.19C14.27 227.12 11.72 225.69 9.24 224.16C6.79 222.59 4.49 220.8 2.28 218.92C1.19 217.95 0.15 216.95 -0.91 215.96C-1.9 214.89 -2.9 213.85 -3.86 212.77C-1.64 214.63 0.54 216.51 2.81 218.27C5.11 220 7.37 221.76 9.83 223.24C12.22 224.82 14.73 226.21 17.32 227.42C18.62 228.01 19.94 228.58 21.29 229.03C22.64 229.53 24.02 229.93 25.45 230.18ZM17.98 305.54C22.12 307.19 26.38 308.52 30.67 309.67C32.81 310.28 34.98 310.77 37.14 311.33L43.67 312.68C52.4 314.32 61.28 315.23 70.15 315.3C74.6 315.48 79.02 315.14 83.46 314.92C85.67 314.71 87.87 314.4 90.07 314.14L93.38 313.72L96.64 313.08C98.82 312.64 101.02 312.27 103.18 311.76L109.59 309.95C110.66 309.64 111.75 309.4 112.8 309.03L115.93 307.87L122.2 305.54C114.03 309.08 105.63 312.34 96.81 313.91L93.53 314.62C92.42 314.81 91.31 314.92 90.2 315.08C87.98 315.35 85.77 315.69 83.55 315.92C79.08 316.17 74.62 316.55 70.14 316.39C61.2 316.23 52.26 315.33 43.5 313.51C34.76 311.68 26.15 309.12 17.98 305.54Z" />
				<path id="Path 26" class="shp5" d="M88.82 237.07C88.82 237.07 108.33 229.65 110.06 230.14C111.79 230.64 106.35 233.59 106.35 233.59C106.35 233.59 117.6 230.16 119.08 231.67C120.56 233.18 113.02 236.07 113.02 236.07C113.02 236.07 121.63 234.21 121.79 235.73C121.95 237.25 113.83 240.53 113.83 240.53L88.82 237.07ZM84.93 148.45C82 155.64 68.91 160.42 68.91 160.42C68.91 160.42 55.81 155.64 52.9 148.45C52.57 147.66 57.83 145.58 57.83 143.5C57.83 142.73 57.67 139.12 57.5 134.84C57.21 127.61 56.8 118.56 56.8 118.56L81.03 118.56C81.03 118.56 80.62 127.77 80.29 135.04C80.11 139.23 79.98 142.75 79.98 143.5C79.98 145.58 85.26 147.66 84.93 148.45Z" />
				<path id="Path 27" class="shp8" d="M81.03 118.56C81.03 118.56 80.62 127.77 80.29 135.04C70.93 138.33 62.74 136.75 57.5 134.84C57.21 127.61 56.8 118.56 56.8 118.56L81.03 118.56Z" />
				<path id="Path 28" class="shp5" d="M23.33 78.01C23.33 78.01 17.71 71.36 10.14 76.55C1.31 82.62 6.05 106.35 27.02 98.97L23.33 78.01Z" />
				<path id="Path 29" class="shp9" d="M13.7 94.29C14.46 92.95 15.65 91.77 17.18 91.12C17.93 90.77 18.78 90.62 19.63 90.62C20.49 90.59 21.31 90.83 22.11 91.09L21.08 91.9C20.5 89.3 19.5 86.58 17.67 84.79C16.73 83.93 15.54 83.43 14.21 83.39C13.55 83.3 12.88 83.46 12.19 83.54C11.5 83.68 10.85 83.95 10.14 84.12C11.32 83.33 12.63 82.55 14.18 82.41C15.69 82.2 17.39 82.66 18.62 83.67C19.87 84.67 20.7 86.01 21.33 87.37C21.93 88.76 22.37 90.16 22.57 91.68L22.74 93.01L21.53 92.48C20.28 91.93 18.88 91.7 17.51 92.08C16.14 92.43 14.81 93.22 13.7 94.29Z" />
				<path id="Path 30" class="shp5" d="M114.49 78.01C114.49 78.01 120.1 71.36 127.67 76.55C136.51 82.62 131.76 106.35 110.8 98.97L114.49 78.01Z" />
				<path id="Path 31" class="shp9" d="M124.11 94.29C123 93.22 121.68 92.43 120.31 92.08C118.94 91.7 117.54 91.93 116.28 92.48L115.07 93.01L115.25 91.68C115.45 90.16 115.88 88.76 116.48 87.37C117.12 86.01 117.95 84.67 119.2 83.67C120.42 82.66 122.13 82.2 123.64 82.41C125.18 82.55 126.5 83.33 127.68 84.12C126.97 83.95 126.31 83.68 125.63 83.54C124.94 83.46 124.27 83.3 123.6 83.39C122.28 83.43 121.08 83.93 120.14 84.79C118.32 86.58 117.31 89.3 116.74 91.9L115.7 91.09C116.5 90.83 117.33 90.59 118.19 90.62C119.03 90.62 119.88 90.77 120.64 91.12C122.16 91.77 123.35 92.95 124.11 94.29Z" />
				<path id="Path 32" class="shp5" d="M106.59 114.17C93.18 129.42 68.92 129.34 68.92 129.34C68.92 129.34 44.65 129.42 31.22 114.17C16.73 97.68 13.52 49.08 25.73 33.61C37.07 19.28 55.37 15.58 68.92 15.58C82.44 15.58 100.74 19.28 112.08 33.61C124.29 49.08 121.1 97.68 106.59 114.17Z" />
				<path id="Path 33" class="shp10" d="M18.2 81.05C22.66 94.17 29.46 43.96 29.46 43.96C29.46 43.96 34.24 49.34 47.43 50.68C77.87 53.77 105.3 37.75 105.3 37.75C105.3 37.75 113.62 83.23 118.29 83.23C122.96 83.23 125.83 43.31 120.83 33.02C116.01 23.1 105.3 22.97 105.3 22.97C105.3 22.97 64.77 -11.91 29.52 11.45C16.47 20.1 21.82 34.8 21.82 34.8C21.82 34.8 6.02 45.21 18.2 81.05Z" />
				<path id="Path 34" class="shp11" d="M49.05 83.95C49.05 86.78 46.87 89.07 44.18 89.07C41.5 89.07 39.32 86.78 39.32 83.95C39.32 81.13 41.5 78.84 44.18 78.84C46.87 78.84 49.05 81.13 49.05 83.95Z" />
				<path id="Path 35" class="shp10" d="M36.02 75.3C36.02 75.3 39.86 68.64 48.53 72.46" />
				<path id="Path 36" class="shp11" d="M87.99 83.95C87.99 86.78 90.17 89.07 92.86 89.07C95.55 89.07 97.73 86.78 97.73 83.95C97.73 81.13 95.55 78.84 92.86 78.84C90.17 78.84 87.99 81.13 87.99 83.95Z" />
				<path id="Path 37" class="shp10" d="M101.02 75.3C101.02 75.3 97.18 68.64 88.51 72.46" />
				<path id="Path 38" class="shp9" d="M68.91 71.28C69.77 76.68 69.97 82.07 70.01 87.47L68.91 86.38C71.14 86.39 73.37 86.42 75.6 86.53L77.07 86.6L76.48 87.84C76.07 88.69 75.58 89.37 75.05 90.07C74.52 90.76 73.9 91.37 73.23 91.93C71.89 93.03 70.2 93.76 68.52 93.75C70.1 93.19 71.37 92.23 72.38 91.04C72.88 90.45 73.32 89.81 73.73 89.15C74.12 88.5 74.47 87.76 74.73 87.11L75.6 88.42C73.37 88.52 71.14 88.56 68.91 88.57L67.81 88.57L67.82 87.47C67.86 82.07 68.06 76.68 68.91 71.28Z" />
				<path id="Path 39" class="shp11" d="M78.65 107.75C76.86 109.8 73.68 111.49 68.91 111.49C64.17 111.49 61 109.8 59.18 107.75C57.26 105.57 56.87 103.04 57.8 101.76C59.59 99.3 66.12 100.88 68.91 100.88C71.71 100.88 78.27 99.3 80.03 101.76C80.96 103.04 80.6 105.6 78.65 107.75Z" />
				<path id="Path 40" class="shp12" d="M78.65 107.75C76.86 109.8 73.68 111.49 68.91 111.49C64.17 111.49 61 109.8 59.18 107.75C61.59 105.96 65.07 104.83 68.91 104.83C72.76 104.83 76.24 105.96 78.65 107.75Z" />
			</g>
		</g>
	</g>
</svg>