<svg xmlns="http://www.w3.org/2000/svg" viewBox="0 0 255 581" width="255" height="581">
	<defs>
		<clipPath clipPathUnits="userSpaceOnUse" id="cp1">
			<path d="M-42 -197L958 -197L958 803L-42 803Z" />
		</clipPath>
	</defs>
	<style>
		tspan { white-space:pre }
		.shp0 { opacity: 0.4;fill: #868686 } 
		.shp1 { fill: #425473 } 
		.shp2 { fill: #94a4ff } 
		.shp3 { opacity: 0.302;fill: #425473 } 
		.shp4 { opacity: 0.502;fill: #425473 } 
		.shp5 { fill: #ffd4a1 } 
		.shp6 { fill: #e8eff9 } 
		.shp7 { fill: #868686 } 
		.shp8 { opacity: 0.502;fill: #eabb88 } 
		.shp9 { fill: #eabb88 } 
		.shp10 { fill: #5e4f45 } 
		.shp11 { fill: #3d3632 } 
		.shp12 { fill: #ffa08a } 
		.shp13 { fill: #91d8e2 } 
		.shp14 { fill: #efc597 } 
		.shp15 { fill: #a37e4e } 
		.shp16 { opacity: 0.502;fill: #d8a36f } 
		.shp17 { fill: #d8a36f } 
		.shp18 { fill: #ffffff } 
		.shp19 { opacity: 0.302;fill: #868686 } 
		.shp20 { fill: #c8cfe8 } 
		.shp21 { opacity: 0.302;fill: #a1bfa8 } 
		.shp22 { opacity: 0.302;fill: #c8cfe8 } 
		.shp23 { fill: #ffd9b0 } 
		.shp24 { opacity: 0.502;fill: #efbe8e } 
		.shp25 { fill: #efbe8e } 
		.shp26 { opacity: 0.102;fill: #e8eff9 } 
		.shp27 { fill: #ffdfb8 } 
		.shp28 { opacity: 0.502;fill: #f9ca9b } 
		.shp29 { fill: #f9ca9b } 
	</style>
	<g id="Page 1" clip-path="url(#cp1)">
		<g id="Folder 2">
			<path id="Path 2" class="shp0" d="M235.38 548.73C235.38 559.78 187.8 568.74 129.09 568.74C70.39 568.74 22.8 559.78 22.8 548.73C22.8 537.67 70.39 528.71 129.09 528.71C187.8 528.71 235.38 537.67 235.38 548.73Z" />
			<path id="Path 3" class="shp1" d="M103.39 521.64L103.39 528.81C103.39 528.81 73.74 539.65 70.42 545.24C67.09 550.84 124.09 538.42 124.09 533.44L124.09 521.64L103.39 521.64ZM168.82 521.64L168.82 528.81C168.82 528.81 198.48 539.65 201.8 545.24C205.12 550.84 148.13 538.42 148.13 533.44L148.13 521.64L168.82 521.64Z" />
			<path id="Path 4" class="shp2" d="M183 322.22C183 322.22 182.78 329.63 182.43 341.66C182.39 342.93 182.37 344.24 182.32 345.62C180.75 399.33 176.87 527 175.77 528.45C174.41 530.31 147.37 531.54 143.69 528.45C140.01 525.38 137.9 365.7 137.9 365.7L132.42 365.7C132.42 365.7 129.69 527.66 128.7 528.16C127.69 528.65 107.64 533.18 96.77 527.62C91.95 525.12 88.44 398.92 87.17 345.6C87.13 344 87.11 342.49 87.06 341.02C86.78 329.39 86.65 322.22 86.65 322.22L183 322.22Z" />
			<path id="Path 5" class="shp3" d="M183 322.22C183 322.22 182.78 329.63 182.43 341.66C182.39 342.93 182.37 344.24 182.32 345.62C170.62 349.37 153.84 353.05 133.04 353.05C112.2 353.05 97.12 349.35 87.17 345.6C87.13 344 87.11 342.49 87.06 341.02C86.78 329.39 86.65 322.22 86.65 322.22L183 322.22Z" />
			<path id="Path 6" class="shp4" d="M129.09 518.65C126.38 519.68 123.54 520.35 120.67 520.85C117.81 521.35 114.89 521.55 111.98 521.61C109.06 521.61 106.14 521.33 103.28 520.79C100.4 520.26 97.63 519.29 95.01 518.07C97.8 518.86 100.57 519.61 103.42 519.96C106.25 520.32 109.11 520.6 111.98 520.51C114.84 520.55 117.7 520.33 120.56 520.02C123.41 519.7 126.26 519.25 129.09 518.65ZM142.65 518.65C145.48 519.25 148.33 519.7 151.18 520.02C154.04 520.33 156.9 520.55 159.76 520.51C162.63 520.6 165.49 520.32 168.32 519.96C171.17 519.61 173.94 518.86 176.73 518.07C174.11 519.29 171.34 520.26 168.46 520.79C165.6 521.33 162.68 521.61 159.76 521.61C156.85 521.55 153.93 521.35 151.07 520.85C148.2 520.35 145.36 519.68 142.65 518.65Z" />
			<path id="Path 7" class="shp2" d="M187.18 330.44C185.89 335.27 161.59 343.4 135.13 343.4C105.46 343.4 84.37 335.27 83.06 330.44C81.77 325.62 96.46 182.63 99.04 177.07C101.65 171.49 130.02 163.16 135.13 163.16C140.24 163.16 168.61 171.49 171.19 177.07C173.79 182.63 188.47 325.62 187.18 330.44Z" />
			<path id="Path 8" class="shp5" d="M88.6 250.69L86.06 258.25C76.55 256.72 66.4 250.28 61.14 245.63C62.43 241.27 63.35 238.36 63.35 238.36C70.34 239.72 88.6 250.69 88.6 250.69Z" />
			<path id="Path 9" class="shp2" d="M110.99 170.1C110.99 170.1 106.85 256.87 92.32 258.47C90.31 258.69 88.2 258.61 86.06 258.26C76.55 256.72 66.4 250.28 61.14 245.63C59.06 243.79 57.74 242.24 57.5 241.38C56.52 237.83 83.95 184.93 89.1 180.42C94.27 175.9 110.99 170.1 110.99 170.1Z" />
			<path id="Path 10" class="shp3" d="M89.16 258.25C89.16 253.66 89.4 249.1 89.68 244.53C89.93 239.97 90.35 235.42 90.78 230.87C91.25 226.32 91.73 221.78 92.38 217.25L93.36 210.46C93.76 208.21 94.1 205.95 94.57 203.7C94.59 206 94.47 208.28 94.43 210.57L94.06 217.42C93.8 221.99 93.38 226.54 92.96 231.08C92.48 235.63 92 240.17 91.35 244.7C90.73 249.23 90.06 253.75 89.16 258.25ZM89.16 205.5C90.66 206.59 91.56 207.98 92.32 209.44C93.02 210.93 93.57 212.49 93.51 214.35C92.01 213.26 91.11 211.87 90.36 210.41C89.66 208.91 89.11 207.35 89.16 205.5Z" />
			<path id="Path 11" class="shp6" d="M119.69 213.23C127.05 245.01 125.53 252.68 122.8 256.23C119.92 259.96 115.41 261.9 115.22 261.98L114.33 259.87L114.77 260.92L114.33 259.87C114.37 259.85 118.48 258.08 120.98 254.83C122.96 252.26 124.74 245.22 117.46 213.74L119.69 213.23Z" />
			<path id="Path 12" class="shp1" d="M117.82 259.07L118.02 259.45C118.58 260.54 118.14 261.89 117.05 262.45L113.96 264.04C112.87 264.6 111.52 264.17 110.96 263.08L110.77 262.7C110.21 261.61 110.64 260.26 111.73 259.7L114.82 258.11C115.91 257.55 117.26 257.99 117.82 259.07Z" />
			<path id="Path 13" class="shp6" d="M99.08 213.39C92.11 236.97 90.2 249.93 93.09 254.19C95.4 257.6 99.39 259.6 99.43 259.62L98.41 261.67C98.23 261.58 93.84 259.38 91.19 255.48C87.75 250.41 89.4 238.03 96.88 212.74L99.08 213.39Z" />
			<path id="Path 14" class="shp1" d="M95.99 258.62L95.78 258.99C95.15 260.04 95.5 261.41 96.56 262.04L99.55 263.81C100.6 264.44 101.97 264.09 102.6 263.03L102.82 262.67C103.44 261.61 103.09 260.24 102.04 259.61L99.05 257.84C97.99 257.22 96.62 257.57 95.99 258.62Z" />
			<path id="Path 15" class="shp5" d="M212.58 283.56C209.19 286.76 188.19 289.72 147.76 273.68C147.85 273.66 147.92 273.64 148.01 273.62C148.01 273.62 134.29 263.82 119.3 261.26C119.3 261.26 112.68 261.45 104.46 261.89C102.34 262 100.12 262.15 97.87 262.31C98.5 261.96 106.68 255.21 121.8 254.05C150.69 251.83 177.78 260.44 185.8 261.34L181.64 250.69C181.64 250.69 199.87 239.72 206.89 238.36C206.89 238.36 219.95 276.64 212.58 283.56Z" />
			<path id="Path 16" class="shp2" d="M159.07 170.1C159.07 170.1 175.79 175.89 180.95 180.42C186.11 184.94 213.53 237.84 212.56 241.39C211.59 244.93 192.24 260.09 177.73 258.48C163.21 256.87 159.07 170.1 159.07 170.1Z" />
			<path id="Path 17" class="shp7" d="M108.91 176.74C109.95 165.53 127.95 163.68 136.44 163.56C147.25 163.4 156.34 165.52 159.86 176.48C163.33 187.3 163.94 199.44 164.12 210.76C164.15 212.87 167.44 212.88 167.4 210.76C167.2 197.71 168.08 173.14 156.27 164.59C144.58 156.14 107.38 157.74 105.62 176.74C105.43 178.84 108.72 178.83 108.91 176.74Z" />
			<path id="Path 18" class="shp5" d="M148.01 273.62C147.92 273.64 147.85 273.66 147.76 273.68C142.55 275.35 137.47 276.84 132.54 278.15C87.17 290.31 55.2 288.58 53.25 283.19C51.65 278.83 57.7 257.18 61.14 245.63C66.4 250.28 76.55 256.72 86.06 258.25L84.33 263.45C88.4 262.99 93.16 262.62 97.85 262.31L97.87 262.31C100.12 262.16 102.34 262 104.46 261.89C112.68 261.45 119.3 261.26 119.3 261.26C134.29 263.82 148.01 273.62 148.01 273.62Z" />
			<path id="Path 19" class="shp8" d="M148.01 273.62C142.7 275.3 137.53 276.82 132.54 278.15C119.32 273.24 116.65 263.97 96.77 262.38C104.99 261.94 119.3 261.26 119.3 261.26C134.29 263.82 148.01 273.62 148.01 273.62Z" />
			<path id="Path 20" class="shp1" d="M173.31 216.97C173.31 221.14 169.93 224.52 165.76 224.52C161.59 224.52 158.21 221.14 158.21 216.97C158.21 212.8 161.59 209.42 165.76 209.42C169.93 209.42 173.31 212.8 173.31 216.97Z" />
			<path id="Path 21" class="shp6" d="M170.3 216.97C170.3 219.48 168.27 221.52 165.76 221.52C163.25 221.52 161.21 219.48 161.21 216.97C161.21 214.46 163.25 212.43 165.76 212.43C168.27 212.43 170.3 214.46 170.3 216.97Z" />
			<path id="Path 22" class="shp4" d="M112.46 172.03C115.69 175.1 119.04 178.04 122.59 180.69C126.14 183.3 129.89 185.79 134.06 187.03L133.71 187.05C137.8 185.37 141.72 183.17 145.43 180.71C147.3 179.49 149.06 178.13 150.77 176.69C152.51 175.28 154.06 173.67 155.59 172.03C152.93 175.65 149.57 178.76 145.91 181.4C142.24 184.05 138.29 186.27 134.11 188.07L133.94 188.14L133.76 188.08C131.56 187.41 129.52 186.38 127.58 185.23C125.64 184.08 123.82 182.76 122.07 181.35C118.59 178.53 115.37 175.42 112.46 172.03Z" />
			<path id="Path 23" class="shp1" d="M96.13 211.72C96.88 208.46 99.02 200.35 100.68 196.3C102.05 192.98 105.44 190.81 105.44 190.81C105.9 190.78 105.82 186.77 105.68 183.5C105.56 180.61 105.36 177.24 106.08 176.33C106.77 175.46 108.52 175.45 109.23 176.27C109.99 177.14 109.93 180.51 109.94 183.41C109.95 186.69 110.06 190.69 110.51 190.7C110.51 190.7 113.78 192.87 115.25 196.04C116.88 199.58 119.73 208.98 120.24 211.72C120.87 215.13 119.75 215.51 118.77 215.82C117.39 216.24 116.55 215.28 115.58 211.51C114.05 205.53 112.2 195.49 108.08 195.4L108.08 195.39C103.97 195.68 102 206.2 100.5 212.05C99.57 215.71 98.78 216.04 97.37 215.68C96.39 215.42 95.38 214.97 96.13 211.72Z" />
			<path id="Path 24" class="shp3" d="M181.18 258.25C180.28 253.75 179.62 249.23 178.99 244.7C178.34 240.17 177.86 235.63 177.39 231.08C176.96 226.54 176.54 221.99 176.29 217.42L175.92 210.57C175.87 208.28 175.75 206 175.77 203.7C176.25 205.95 176.58 208.21 176.98 210.46L177.96 217.25C178.61 221.78 179.09 226.32 179.57 230.87C179.99 235.42 180.41 239.97 180.66 244.53C180.94 249.1 181.18 253.66 181.18 258.25ZM181.18 205.5C181.23 207.35 180.68 208.91 179.99 210.41C179.23 211.87 178.33 213.26 176.83 214.35C176.77 212.49 177.32 210.93 178.02 209.44C178.78 207.98 179.68 206.59 181.18 205.5Z" />
			<path id="Path 25" class="shp4" d="M180.24 250.18C181.67 249.93 183.05 249.53 184.4 249.03C185.76 248.58 187.07 248.01 188.37 247.42C190.97 246.21 193.47 244.82 195.86 243.24C198.32 241.76 200.58 240 202.88 238.27C205.15 236.51 207.33 234.63 209.55 232.77C208.59 233.85 207.59 234.89 206.6 235.96C205.54 236.95 204.5 237.95 203.41 238.92C201.21 240.8 198.9 242.59 196.45 244.16C193.97 245.69 191.42 247.12 188.7 248.19C185.99 249.23 183.16 250.1 180.24 250.18ZM90.45 250.18C87.54 250.1 84.7 249.23 81.99 248.19C79.27 247.12 76.72 245.69 74.24 244.16C71.79 242.59 69.49 240.8 67.28 238.92C66.19 237.95 65.15 236.95 64.09 235.96C63.1 234.89 62.1 233.85 61.14 232.77C63.36 234.63 65.54 236.51 67.81 238.27C70.11 240 72.37 241.76 74.83 243.24C77.22 244.82 79.73 246.21 82.32 247.42C83.62 248.01 84.94 248.58 86.29 249.03C87.64 249.53 89.02 249.93 90.45 250.18ZM82.98 325.54C87.12 327.19 91.38 328.52 95.67 329.67C97.81 330.28 99.98 330.77 102.14 331.33L108.67 332.68C117.4 334.32 126.28 335.23 135.15 335.3C139.6 335.48 144.02 335.14 148.46 334.92C150.67 334.71 152.87 334.4 155.07 334.14L158.38 333.72L161.64 333.08C163.82 332.64 166.02 332.27 168.18 331.76L174.59 329.95C175.66 329.64 176.75 329.4 177.8 329.03L180.93 327.87L187.2 325.54C179.03 329.08 170.63 332.34 161.81 333.91L158.53 334.62C157.42 334.81 156.31 334.92 155.2 335.08C152.98 335.35 150.77 335.69 148.55 335.92C144.08 336.17 139.62 336.55 135.14 336.39C126.2 336.23 117.26 335.33 108.5 333.51C99.76 331.68 91.15 329.12 82.98 325.54Z" />
			<path id="Path 26" class="shp5" d="M153.82 257.07C153.82 257.07 173.33 249.65 175.06 250.14C176.79 250.64 171.35 253.59 171.35 253.59C171.35 253.59 182.6 250.16 184.08 251.67C185.56 253.18 178.02 256.07 178.02 256.07C178.02 256.07 186.63 254.21 186.79 255.73C186.95 257.25 178.83 260.53 178.83 260.53L153.82 257.07ZM149.93 168.45C147 175.64 133.91 180.42 133.91 180.42C133.91 180.42 120.81 175.64 117.9 168.45C117.57 167.66 122.83 165.58 122.83 163.5C122.83 162.73 122.67 159.12 122.5 154.84C122.21 147.61 121.8 138.56 121.8 138.56L146.03 138.56C146.03 138.56 145.62 147.77 145.29 155.04C145.11 159.23 144.98 162.75 144.98 163.5C144.98 165.58 150.26 167.66 149.93 168.45Z" />
			<path id="Path 27" class="shp8" d="M146.03 138.56C146.03 138.56 145.62 147.77 145.29 155.04C135.93 158.33 127.74 156.75 122.5 154.84C122.21 147.61 121.8 138.56 121.8 138.56L146.03 138.56Z" />
			<path id="Path 28" class="shp5" d="M88.33 98.01C88.33 98.01 82.71 91.36 75.14 96.55C66.31 102.62 71.05 126.35 92.02 118.97L88.33 98.01Z" />
			<path id="Path 29" class="shp9" d="M78.7 114.29C79.46 112.95 80.65 111.77 82.18 111.12C82.93 110.77 83.78 110.62 84.63 110.62C85.49 110.59 86.31 110.83 87.11 111.09L86.08 111.9C85.5 109.3 84.5 106.58 82.67 104.79C81.73 103.93 80.54 103.43 79.21 103.39C78.55 103.3 77.88 103.46 77.19 103.54C76.5 103.68 75.85 103.95 75.14 104.12C76.32 103.33 77.63 102.55 79.18 102.41C80.69 102.2 82.39 102.66 83.62 103.67C84.87 104.67 85.7 106.01 86.33 107.37C86.93 108.76 87.37 110.16 87.57 111.68L87.74 113.01L86.53 112.48C85.28 111.93 83.88 111.7 82.51 112.08C81.14 112.43 79.81 113.22 78.7 114.29Z" />
			<path id="Path 30" class="shp5" d="M179.49 98.01C179.49 98.01 185.1 91.36 192.67 96.55C201.51 102.62 196.76 126.35 175.8 118.97L179.49 98.01Z" />
			<path id="Path 31" class="shp9" d="M189.11 114.29C188 113.22 186.68 112.43 185.31 112.08C183.94 111.7 182.54 111.93 181.28 112.48L180.07 113.01L180.25 111.68C180.45 110.16 180.88 108.76 181.48 107.37C182.12 106.01 182.95 104.67 184.2 103.67C185.42 102.66 187.13 102.2 188.64 102.41C190.18 102.55 191.5 103.33 192.68 104.12C191.97 103.95 191.31 103.68 190.63 103.54C189.94 103.46 189.27 103.3 188.6 103.39C187.28 103.43 186.08 103.93 185.14 104.79C183.32 106.58 182.31 109.3 181.74 111.9L180.7 111.09C181.5 110.83 182.33 110.59 183.19 110.62C184.03 110.62 184.88 110.77 185.64 111.12C187.16 111.77 188.35 112.95 189.11 114.29Z" />
			<path id="Path 32" class="shp5" d="M171.59 134.17C158.18 149.42 133.92 149.34 133.92 149.34C133.92 149.34 109.65 149.42 96.22 134.17C81.73 117.68 78.52 69.08 90.73 53.61C102.07 39.28 120.37 35.58 133.92 35.58C147.44 35.58 165.74 39.28 177.08 53.61C189.29 69.08 186.1 117.68 171.59 134.17Z" />
			<path id="Path 33" class="shp10" d="M83.2 101.05C87.66 114.17 94.46 63.96 94.46 63.96C94.46 63.96 99.24 69.34 112.43 70.68C142.87 73.77 170.3 57.75 170.3 57.75C170.3 57.75 178.62 103.23 183.29 103.23C187.96 103.23 190.83 63.31 185.83 53.02C181.01 43.1 170.3 42.97 170.3 42.97C170.3 42.97 129.77 8.09 94.52 31.45C81.47 40.1 86.82 54.8 86.82 54.8C86.82 54.8 71.02 65.21 83.2 101.05Z" />
			<path id="Path 34" class="shp11" d="M114.05 103.95C114.05 106.78 111.87 109.07 109.18 109.07C106.5 109.07 104.32 106.78 104.32 103.95C104.32 101.13 106.5 98.84 109.18 98.84C111.87 98.84 114.05 101.13 114.05 103.95Z" />
			<path id="Path 35" class="shp10" d="M101.02 95.3C101.02 95.3 104.86 88.64 113.53 92.46" />
			<path id="Path 36" class="shp11" d="M152.99 103.95C152.99 106.78 155.17 109.07 157.86 109.07C160.55 109.07 162.73 106.78 162.73 103.95C162.73 101.13 160.55 98.84 157.86 98.84C155.17 98.84 152.99 101.13 152.99 103.95Z" />
			<path id="Path 37" class="shp10" d="M166.02 95.3C166.02 95.3 162.18 88.64 153.51 92.46" />
			<path id="Path 38" class="shp9" d="M133.91 91.28C134.77 96.68 134.97 102.07 135.01 107.47L133.91 106.38C136.14 106.39 138.37 106.42 140.6 106.53L142.07 106.6L141.48 107.84C141.07 108.69 140.58 109.37 140.05 110.07C139.52 110.76 138.9 111.37 138.23 111.93C136.89 113.03 135.2 113.76 133.52 113.75C135.1 113.19 136.37 112.23 137.38 111.04C137.88 110.45 138.32 109.81 138.73 109.15C139.12 108.5 139.47 107.76 139.73 107.11L140.6 108.42C138.37 108.52 136.14 108.56 133.91 108.57L132.81 108.57L132.82 107.47C132.86 102.07 133.06 96.68 133.91 91.28Z" />
			<path id="Path 39" class="shp11" d="M143.65 127.75C141.86 129.8 138.68 131.49 133.91 131.49C129.17 131.49 126 129.8 124.18 127.75C122.26 125.57 121.87 123.04 122.8 121.76C124.59 119.3 131.12 120.88 133.91 120.88C136.71 120.88 143.27 119.3 145.03 121.76C145.96 123.04 145.6 125.6 143.65 127.75Z" />
			<path id="Path 40" class="shp12" d="M143.65 127.75C141.86 129.8 138.68 131.49 133.91 131.49C129.17 131.49 126 129.8 124.18 127.75C126.59 125.96 130.07 124.83 133.91 124.83C137.76 124.83 141.24 125.96 143.65 127.75Z" />
		</g>
		<g id="Folder 2" style="display: none">
			<path id="Path 41" class="shp0" d="M584.9 600.06C584.9 612.12 532.97 621.9 468.91 621.9C404.85 621.9 352.92 612.12 352.92 600.06C352.92 588 404.85 578.22 468.91 578.22C532.97 578.22 584.9 588 584.9 600.06Z" />
			<path id="Path 42" class="shp11" d="M431.69 572.85L431.69 580.91C431.69 580.91 398.35 593.1 394.61 599.39C390.88 605.68 454.95 591.72 454.95 586.12L454.95 572.85L431.69 572.85ZM505.24 572.85L505.24 580.91C505.24 580.91 538.58 593.1 542.31 599.39C546.04 605.68 481.97 591.72 481.97 586.12L481.97 572.85L505.24 572.85Z" />
			<path id="Path 43" class="shp13" d="M521.18 348.67C521.18 348.67 520.93 357 520.54 370.52C520.49 371.95 520.47 373.43 520.41 374.98C518.64 435.36 514.28 578.88 513.05 580.51C511.52 582.6 481.12 583.98 476.98 580.51C472.85 577.06 470.48 397.55 470.48 397.55L464.32 397.55C464.32 397.55 461.24 579.62 460.14 580.19C459 580.73 436.46 585.83 424.24 579.57C418.82 576.76 414.88 434.89 413.45 374.96C413.4 373.16 413.38 371.46 413.33 369.81C413.01 356.73 412.86 348.67 412.86 348.67L521.18 348.67Z" />
			<path id="Path 44" class="shp3" d="M521.18 348.67C521.18 348.67 520.93 357 520.54 370.52C520.49 371.95 520.47 373.43 520.41 374.98C507.26 379.2 488.39 383.33 465.01 383.33C441.58 383.33 424.64 379.17 413.45 374.96C413.4 373.16 413.38 371.46 413.33 369.81C413.01 356.73 412.86 348.67 412.86 348.67L521.18 348.67Z" />
			<path id="Path 45" class="shp4" d="M460.57 569.49C457.53 570.65 454.33 571.41 451.11 571.97C447.89 572.53 444.61 572.75 441.34 572.82C438.06 572.82 434.77 572.51 431.55 571.9C428.33 571.3 425.21 570.21 422.26 568.84C425.39 569.73 428.51 570.57 431.71 570.96C434.9 571.37 438.11 571.68 441.33 571.59C444.55 571.62 447.77 571.39 450.98 571.04C454.19 570.68 457.39 570.16 460.57 569.49ZM475.82 569.49C479 570.16 482.2 570.68 485.41 571.04C488.62 571.39 491.84 571.62 495.05 571.59C498.28 571.68 501.49 571.37 504.68 570.96C507.88 570.57 511 569.73 514.13 568.84C511.18 570.21 508.06 571.3 504.83 571.9C501.61 572.51 498.33 572.82 495.05 572.82C491.77 572.75 488.5 572.53 485.27 571.97C482.06 571.41 478.86 570.65 475.82 569.49Z" />
			<path id="Path 46" class="shp14" d="M546.09 261.47C546.09 261.47 551.87 337.94 541.37 370.08C541.37 370.08 531.14 373.29 525.89 370.08C525.89 370.08 519.21 285.76 521.18 269.73C523.15 253.71 546.09 261.47 546.09 261.47Z" />
			<path id="Path 47" class="shp13" d="M525.87 357.92C524.42 363.34 497.11 372.48 467.36 372.48C434.01 372.48 410.3 363.34 408.82 357.92C407.37 352.49 423.89 191.75 426.79 185.5C429.72 179.23 461.62 169.86 467.36 169.86C473.1 169.86 505 179.23 507.9 185.5C510.83 191.75 527.32 352.49 525.87 357.92Z" />
			<path id="Path 48" class="shp14" d="M415.05 268.27L412.19 276.77C401.5 275.04 390.1 267.8 384.18 262.58C385.64 257.67 386.67 254.4 386.67 254.4C394.53 255.92 415.05 268.27 415.05 268.27Z" />
			<path id="Path 49" class="shp13" d="M440.23 177.66C440.23 177.66 435.57 275.21 419.24 277.01C416.98 277.26 414.61 277.16 412.2 276.77C401.5 275.04 390.1 267.8 384.19 262.58C381.85 260.51 380.37 258.76 380.1 257.8C378.99 253.81 409.83 194.34 415.62 189.26C421.43 184.19 440.23 177.66 440.23 177.66Z" />
			<path id="Path 50" class="shp3" d="M415.69 276.77C415.69 271.6 415.96 266.47 416.27 261.34C416.55 256.21 417.03 251.09 417.5 245.98C418.04 240.87 418.58 235.76 419.3 230.68L420.4 223.04C420.86 220.51 421.23 217.96 421.77 215.44C421.79 218.02 421.66 220.59 421.61 223.16L421.19 230.86C420.91 235.99 420.43 241.11 419.95 246.22C419.42 251.33 418.88 256.44 418.15 261.53C417.44 266.62 416.7 271.71 415.69 276.77ZM415.69 217.46C417.38 218.69 418.39 220.25 419.24 221.89C420.02 223.56 420.64 225.32 420.58 227.41C418.89 226.18 417.88 224.62 417.03 222.98C416.25 221.3 415.63 219.54 415.69 217.46Z" />
			<path id="Path 51" class="shp6" d="M450 226.15C458.27 261.88 456.57 270.5 453.5 274.48C450.27 278.68 445.19 280.86 444.98 280.95L443.98 278.58L444.48 279.76L443.98 278.58C444.02 278.56 448.65 276.56 451.46 272.91C453.68 270.03 455.68 262.11 447.49 226.73L450 226.15Z" />
			<path id="Path 52" class="shp1" d="M447.78 277.44L448.25 278.36C448.81 279.45 448.38 280.8 447.29 281.36L443.32 283.4C442.23 283.96 440.88 283.53 440.32 282.44L439.85 281.52C439.29 280.43 439.72 279.08 440.81 278.52L444.78 276.48C445.87 275.92 447.22 276.35 447.78 277.44Z" />
			<path id="Path 53" class="shp6" d="M426.84 226.33C419 252.84 416.86 267.41 420.1 272.2C422.7 276.03 427.19 278.28 427.23 278.3L426.09 280.61C425.88 280.5 420.95 278.03 417.97 273.64C414.11 267.95 415.96 254.03 424.37 225.6L426.84 226.33Z" />
			<path id="Path 54" class="shp1" d="M423.51 276.94L422.98 277.83C422.36 278.88 422.71 280.25 423.76 280.88L427.6 283.15C428.65 283.78 430.03 283.43 430.65 282.37L431.18 281.49C431.8 280.43 431.45 279.06 430.4 278.44L426.56 276.16C425.51 275.53 424.13 275.88 423.51 276.94Z" />
			<path id="Path 55" class="shp13" d="M494.28 177.66C494.28 177.66 513.07 184.18 518.87 189.26C524.67 194.35 555.49 253.81 554.41 257.8C553.32 261.79 531.57 278.83 515.25 277.02C498.93 275.21 494.28 177.66 494.28 177.66Z" />
			<path id="Path 56" class="shp7" d="M437.89 185.13C439.05 172.53 459.29 170.45 468.84 170.31C480.98 170.14 491.21 172.51 495.16 184.83C499.06 197 499.75 210.65 499.95 223.37C499.98 225.75 503.68 225.76 503.64 223.37C503.41 208.71 504.4 181.08 491.13 171.48C477.99 161.97 436.17 163.77 434.19 185.13C433.97 187.49 437.67 187.48 437.89 185.13Z" />
			<path id="Path 57" class="shp1" d="M510.28 230.36C510.28 235.05 506.48 238.85 501.79 238.85C497.11 238.85 493.31 235.05 493.31 230.36C493.31 225.67 497.11 221.87 501.79 221.87C506.48 221.87 510.28 225.67 510.28 230.36Z" />
			<path id="Path 58" class="shp6" d="M506.9 230.36C506.9 233.18 504.61 235.47 501.79 235.47C498.97 235.47 496.68 233.18 496.68 230.36C496.68 227.54 498.97 225.25 501.79 225.25C504.61 225.25 506.9 227.54 506.9 230.36Z" />
			<path id="Path 59" class="shp4" d="M441.88 179.83C445.51 183.29 449.27 186.59 453.26 189.57C457.25 192.51 461.47 195.3 466.16 196.7L465.76 196.71C470.36 194.83 474.78 192.36 478.94 189.59C481.04 188.22 483.03 186.69 484.94 185.07C486.9 183.49 488.64 181.67 490.37 179.83C487.37 183.91 483.59 187.4 479.48 190.37C475.35 193.35 470.92 195.84 466.21 197.86L466.02 197.94L465.82 197.88C463.34 197.12 461.06 195.96 458.88 194.67C456.7 193.38 454.64 191.9 452.69 190.31C448.77 187.15 445.14 183.64 441.88 179.83Z" />
			<path id="Path 60" class="shp1" d="M423.52 224.46C424.36 220.79 426.77 211.67 428.64 207.12C430.17 203.39 433.99 200.95 433.99 200.95C434.5 200.92 434.41 196.41 434.26 192.73C434.12 189.48 433.89 185.7 434.7 184.67C435.48 183.69 437.45 183.68 438.24 184.6C439.1 185.58 439.03 189.37 439.05 192.63C439.06 196.31 439.18 200.82 439.69 200.83C439.69 200.83 443.36 203.27 445.01 206.83C446.85 210.81 450.05 221.38 450.63 224.46C451.34 228.28 450.07 228.72 448.97 229.06C447.42 229.54 446.47 228.46 445.39 224.22C443.67 217.5 441.59 206.21 436.95 206.11L436.95 206.1C432.33 206.43 430.11 218.25 428.43 224.82C427.39 228.94 426.5 229.31 424.92 228.91C423.81 228.62 422.68 228.11 423.52 224.46Z" />
			<path id="Path 61" class="shp3" d="M519.13 276.77C518.11 271.71 517.37 266.62 516.67 261.53C515.94 256.44 515.4 251.33 514.86 246.22C514.39 241.11 513.91 235.99 513.63 230.86L513.21 223.16C513.16 220.59 513.03 218.02 513.05 215.44C513.59 217.96 513.95 220.51 514.41 223.04L515.51 230.68C516.24 235.76 516.78 240.87 517.32 245.98C517.79 251.09 518.27 256.21 518.55 261.34C518.86 266.47 519.13 271.6 519.13 276.77ZM519.13 217.46C519.19 219.54 518.57 221.3 517.79 222.98C516.94 224.62 515.93 226.18 514.24 227.41C514.18 225.32 514.8 223.56 515.58 221.89C516.43 220.25 517.44 218.69 519.13 217.46Z" />
			<path id="Path 62" class="shp4" d="M518.08 267.69C519.68 267.4 521.23 266.96 522.75 266.4C524.27 265.89 525.75 265.25 527.22 264.58C530.13 263.22 532.95 261.66 535.63 259.89C538.39 258.23 540.94 256.24 543.52 254.3C546.07 252.32 548.52 250.21 551.02 248.12C549.95 249.34 548.82 250.5 547.71 251.7C546.52 252.81 545.34 253.94 544.12 255.03C541.64 257.15 539.05 259.15 536.3 260.92C533.51 262.64 530.64 264.25 527.59 265.45C524.54 266.62 521.35 267.6 518.08 267.69ZM417.13 267.69C413.86 267.6 410.67 266.62 407.62 265.45C404.57 264.25 401.7 262.64 398.91 260.92C396.16 259.15 393.57 257.15 391.09 255.03C389.87 253.94 388.69 252.81 387.5 251.7C386.39 250.5 385.26 249.34 384.19 248.12C386.68 250.21 389.13 252.32 391.69 254.3C394.27 256.24 396.81 258.23 399.58 259.89C402.26 261.66 405.08 263.22 407.99 264.58C409.46 265.25 410.94 265.89 412.46 266.4C413.98 266.96 415.53 267.4 417.13 267.69ZM408.73 352.41C413.39 354.25 418.18 355.76 423.01 357.05C425.41 357.74 427.85 358.29 430.27 358.91L437.61 360.44C447.44 362.27 457.41 363.3 467.39 363.37C472.38 363.58 477.36 363.19 482.35 362.95C484.83 362.71 487.3 362.36 489.78 362.07L493.5 361.6L497.17 360.88C499.61 360.38 502.08 359.97 504.51 359.4L511.73 357.37C512.93 357.02 514.15 356.75 515.33 356.33L518.85 355.03L525.89 352.41C516.72 356.39 507.28 360.04 497.35 361.81L493.67 362.62C492.43 362.82 491.17 362.95 489.93 363.13C487.44 363.44 484.94 363.81 482.44 364.07C477.43 364.35 472.41 364.78 467.37 364.6C457.32 364.42 447.27 363.41 437.43 361.36C427.6 359.31 417.92 356.44 408.73 352.41Z" />
			<path id="Path 63" class="shp15" d="M492.05 314.8L433.36 319.16C428.85 319.5 424.92 316.11 424.59 311.6L418.54 230.28C418.21 225.77 421.59 221.84 426.1 221.51L484.79 217.14C489.3 216.81 493.23 220.19 493.56 224.7L499.61 306.03C499.94 310.54 496.56 314.46 492.05 314.8Z" />
			<path id="Path 64" class="shp6" d="M470.6 224.01L441.77 226.12C439.91 226.25 438.29 224.86 438.16 223L437.86 218.95C437.73 217.09 439.12 215.48 440.98 215.34L469.81 213.23C471.67 213.09 473.28 214.49 473.42 216.35L473.72 220.39C473.85 222.25 472.46 223.87 470.6 224.01ZM464.69 208.05L465.1 213.58L460.72 213.9L460.53 211.36C460.44 210.02 459.27 209.01 457.93 209.11L452.14 209.54C450.8 209.63 449.8 210.8 449.89 212.14L450.08 214.68L445.7 215L445.3 209.47C445.15 207.52 446.6 205.84 448.55 205.69L460.92 204.79C462.85 204.65 464.55 206.1 464.69 208.05Z" />
			<path id="Path 65" class="shp14" d="M481.84 294.03C481.74 294.06 481.66 294.08 481.57 294.11C475.7 295.98 469.99 297.66 464.45 299.13C413.45 312.8 377.51 310.86 375.32 304.8C373.52 299.9 380.32 275.56 384.19 262.58C390.1 267.8 401.5 275.04 412.2 276.77L410.25 282.6C414.83 282.09 420.18 281.67 425.45 281.32L425.47 281.32C428.01 281.15 430.5 280.98 432.89 280.85C442.13 280.36 465.99 279.66 465.99 279.66C482.84 282.54 481.84 294.03 481.84 294.03ZM465.52 298.87C466.58 298.74 480.69 299.98 484.25 299.15C487.8 298.31 498.44 295.09 498.98 292.32C499.32 290.55 498.39 290.41 498.39 290.41C498.39 290.41 499.4 290.11 499.65 288.92C499.89 287.72 499.05 287.13 499.05 287.13C499.05 287.13 501.06 285.77 500.52 283.53C500.23 282.35 497.92 281.79 497.92 281.79C497.92 281.79 500 280.41 498.94 278.98C497.74 277.35 486.01 280.06 485.74 279.75C483.99 277.7 494.69 280.45 494.28 277.55C494.14 276.57 481.82 270.95 476.58 273.91C472.18 276.39 462.68 279.76 462.68 279.76L465.52 298.87ZM543.03 362.42C542.98 363.58 548.04 378.08 547.42 382C546.8 385.91 543.66 396.02 541.85 396.74C540.04 397.46 540 396.2 540 396.2C540 396.2 537.42 402.1 536.15 402.46C534.87 402.82 534.49 402.18 534.49 402.18C534.49 402.18 531.93 405.01 530.61 404.92C529.29 404.82 528.63 401.38 528.63 401.38C528.63 401.38 527.38 403.6 525.66 402.71C524.39 402.05 526.23 384.32 525.86 384.05C523.5 382.32 525.99 394.42 522.81 394.2C521.74 394.13 516.71 381.6 519.49 375.7C521.83 370.74 525.29 362.19 525.29 362.19L543.03 362.42ZM484.01 175.81C480.7 183.89 466 189.26 466 189.26C466 189.26 451.27 183.89 447.99 175.81C447.62 174.93 453.53 172.59 453.53 170.25C453.53 169.38 453.36 165.32 453.16 160.52C452.84 152.39 452.37 142.21 452.37 142.21L479.62 142.21C479.62 142.21 479.15 152.56 478.78 160.74C478.59 165.44 478.44 169.41 478.44 170.25C478.44 172.59 484.38 174.93 484.01 175.81Z" />
			<path id="Path 66" class="shp16" d="M479.62 142.21C479.62 142.21 479.15 152.56 478.78 160.74C468.26 164.43 459.05 162.66 453.16 160.52C452.84 152.39 452.37 142.21 452.37 142.21L479.62 142.21Z" />
			<path id="Path 67" class="shp14" d="M414.75 96.62C414.75 96.62 408.44 89.15 399.93 94.99C389.99 101.81 395.33 128.49 418.9 120.19L414.75 96.62Z" />
			<path id="Path 68" class="shp17" d="M403.93 114.92C404.78 113.42 406.12 112.09 407.83 111.36C408.68 110.97 409.64 110.8 410.59 110.8C411.56 110.76 412.49 111.04 413.38 111.33L412.22 112.23C411.57 109.31 410.44 106.25 408.39 104.25C407.34 103.28 405.99 102.72 404.5 102.67C403.76 102.58 403.01 102.75 402.22 102.84C401.46 103 400.72 103.3 399.92 103.49C401.25 102.61 402.73 101.73 404.46 101.58C406.16 101.34 408.08 101.85 409.46 102.99C410.86 104.11 411.79 105.62 412.51 107.15C413.18 108.71 413.67 110.28 413.89 111.99L414.09 113.49L412.73 112.89C411.32 112.27 409.75 112.02 408.21 112.44C406.67 112.83 405.18 113.72 403.93 114.92Z" />
			<path id="Path 69" class="shp14" d="M517.23 96.62C517.23 96.62 523.54 89.15 532.05 94.99C541.98 101.81 536.65 128.49 513.08 120.19L517.23 96.62Z" />
			<path id="Path 70" class="shp17" d="M528.05 114.92C526.8 113.72 525.31 112.83 523.77 112.44C522.23 112.02 520.66 112.27 519.25 112.89L517.89 113.49L518.08 111.99C518.31 110.28 518.79 108.71 519.47 107.15C520.18 105.62 521.12 104.11 522.52 102.99C523.9 101.85 525.81 101.34 527.51 101.58C529.25 101.73 530.73 102.61 532.06 103.49C531.26 103.3 530.52 103 529.75 102.84C528.97 102.75 528.22 102.58 527.47 102.67C525.98 102.72 524.64 103.28 523.59 104.25C521.53 106.25 520.4 109.31 519.75 112.23L518.59 111.33C519.49 111.04 520.42 110.76 521.38 110.8C522.34 110.8 523.29 110.97 524.14 111.36C525.86 112.09 527.19 113.42 528.05 114.92Z" />
			<path id="Path 71" class="shp14" d="M508.35 137.27C493.27 154.42 466 154.33 466 154.33C466 154.33 438.72 154.42 423.62 137.27C407.34 118.74 403.72 64.1 417.45 46.72C430.19 30.6 450.77 26.44 466 26.44C481.2 26.44 501.78 30.6 514.52 46.72C528.25 64.1 524.66 118.74 508.35 137.27Z" />
			<path id="Path 72" class="shp11" d="M443.67 103.3C443.67 106.48 441.22 109.05 438.2 109.05C435.17 109.05 432.72 106.48 432.72 103.3C432.72 100.13 435.17 97.55 438.2 97.55C441.22 97.55 443.67 100.13 443.67 103.3ZM429.02 93.58C429.02 93.58 433.34 86.09 443.08 90.38M487.44 103.3C487.44 106.48 489.89 109.05 492.91 109.05C495.94 109.05 498.39 106.48 498.39 103.3C498.39 100.13 495.94 97.55 492.91 97.55C489.89 97.55 487.44 100.13 487.44 103.3ZM502.09 93.58C502.09 93.58 497.77 86.09 488.03 90.38" />
			<path id="Path 73" class="shp17" d="M467.67 89.05C466.71 95.12 466.49 101.19 466.45 107.26L467.67 106.04C465.17 106.05 462.66 106.08 460.15 106.2L458.51 106.28L459.17 107.67C459.63 108.63 460.18 109.39 460.78 110.18C461.38 110.95 462.07 111.65 462.82 112.27C464.33 113.51 466.23 114.33 468.12 114.32C466.34 113.69 464.92 112.6 463.78 111.28C463.21 110.61 462.72 109.89 462.27 109.15C461.82 108.42 461.43 107.58 461.13 106.86L460.15 108.33C462.66 108.44 465.17 108.48 467.67 108.49L468.91 108.5L468.9 107.26C468.86 101.19 468.63 95.12 467.67 89.05Z" />
			<path id="Path 74" class="shp18" d="M476.93 130.05C474.93 132.37 471.36 134.26 465.99 134.26C460.67 134.26 457.1 132.37 455.05 130.05C452.89 127.62 452.46 124.75 453.51 123.32C455.51 120.54 462.85 122.34 465.99 122.34C469.13 122.34 476.5 120.54 478.5 123.32C479.53 124.75 479.14 127.64 476.93 130.05Z" />
			<path id="Path 75" class="shp11" d="M408.98 97.56C410.88 103 418.58 76.77 418.9 70.7L420.54 82.57C420.54 82.57 448.09 78.35 476.94 52.22L476.94 63.04C476.94 63.04 495.23 63.57 508.7 50.64C508.7 50.64 516.61 97.23 522.15 97.56C527.7 97.88 534.3 46.59 514.24 40.87C514.24 40.87 503.64 9.3 450.83 18.93C401.76 27.88 400.6 73.47 408.98 97.56Z" />
			<path id="Path 76" class="shp19" d="M453.12 126.46C457.34 127.37 461.63 127.75 465.93 127.73C470.23 127.77 474.52 127.33 478.8 126.8C474.59 127.75 470.26 128.21 465.93 128.23C461.61 128.19 457.24 127.77 453.12 126.46Z" />
		</g>
		<g id="Folder 2" style="display: none">
			<path id="Path 77" class="shp0" d="M428.43 661.57C428.43 675.91 366.67 687.54 290.48 687.54C214.29 687.54 152.52 675.91 152.52 661.57C152.52 647.22 214.29 635.59 290.48 635.59C366.67 635.59 428.43 647.22 428.43 661.57Z" />
			<path id="Path 78" class="shp10" d="M249.64 630.4L249.64 639.33C249.64 639.33 212.7 652.83 208.56 659.8C204.43 666.77 275.42 651.31 275.42 645.1L275.42 630.4L249.64 630.4ZM332.79 630.4L332.79 639.33C332.79 639.33 369.73 652.83 373.87 659.8C378 666.77 307.01 651.31 307.01 645.1L307.01 630.4L332.79 630.4Z" />
			<path id="Path 79" class="shp1" d="M354.36 367.84C354.36 367.84 354.07 377.57 353.61 393.37C353.55 395.04 353.52 396.77 353.47 398.58C351.39 469.13 346.3 636.81 344.86 638.71C343.08 641.15 307.56 642.76 302.72 638.71C297.89 634.68 295.13 424.95 295.13 424.95L287.93 424.95C287.93 424.95 284.33 637.67 283.04 638.33C281.71 638.97 255.38 644.92 241.1 637.61C234.77 634.33 230.17 468.58 228.5 398.55C228.44 396.45 228.41 394.47 228.35 392.54C227.98 377.26 227.81 367.84 227.81 367.84L354.36 367.84Z" />
			<path id="Path 80" class="shp6" d="M377.85 449.39C377.45 454.1 323.5 469.49 297.86 469.49C295.1 469.49 291.57 449.13 291.57 449.13C291.57 449.13 288.05 469.49 285.29 469.49C259.65 469.49 205.69 454.1 205.3 449.39C204.91 444.66 229.12 211.17 229.82 203.83C230.52 196.49 261.68 172.67 261.68 172.67L291.57 175.8L321.49 172.67C321.49 172.67 352.63 196.49 353.33 203.83C354.03 211.17 378.24 444.66 377.85 449.39Z" />
			<path id="Path 81" class="shp13" d="M309.8 172.38L291.83 279.96L278.83 202.21L278.81 202.18L273.84 172.38L309.8 172.38Z" />
			<path id="Path 82" class="shp20" d="M291.08 268.98L291.08 325.27C290.29 295.98 267.19 238.49 252.62 219.41C249.34 215.1 261.67 199.31 261.67 199.31C261.67 199.31 245.3 198.39 243.42 195.81C243.07 195.33 243.49 194.25 244.36 192.81C248.26 186.36 261.67 172.67 261.67 172.67L271.25 180.25C284.27 204.66 289.33 239.55 291.08 268.98ZM292.43 268.98L292.43 325.27C293.22 295.98 316.33 238.49 330.89 219.41C334.18 215.1 321.84 199.31 321.84 199.31C321.84 199.31 338.21 198.39 340.1 195.81C340.45 195.33 340.03 194.25 339.15 192.81C335.25 186.36 321.84 172.67 321.84 172.67L312.27 180.25C299.25 204.66 294.19 239.55 292.43 268.98ZM291.57 449.13C291.12 438.46 290.91 427.79 290.74 417.12C290.55 406.45 290.57 395.77 290.48 385.1C290.57 374.43 290.56 363.76 290.73 353.09L291.04 337.08C291.22 331.75 291.32 326.41 291.57 321.08C291.82 326.41 291.93 331.75 292.11 337.08L292.42 353.09C292.59 363.76 292.58 374.43 292.67 385.1C292.58 395.77 292.59 406.45 292.41 417.12C292.24 427.79 292.03 438.46 291.57 449.13Z" />
			<path id="Path 83" class="shp6" d="M243.3 187.91C243.3 187.91 212.36 215.53 210.93 226.17C209.5 236.81 184.36 341.22 184.34 348.04C184.28 366.67 219.02 412.61 219.02 412.61C219.02 412.61 235.19 399.53 240 382.94C240 382.94 217.3 346.18 217.4 337.78C217.43 335.07 243.3 187.91 243.3 187.91ZM340.2 187.91C340.2 187.91 371.14 215.53 372.57 226.17C373.99 236.81 399.13 341.22 399.16 348.04C399.22 366.67 364.47 412.61 364.47 412.61C364.47 412.61 348.31 399.53 343.5 382.94C343.5 382.94 366.19 346.18 366.1 337.78C366.07 335.07 340.2 187.91 340.2 187.91Z" />
			<path id="Path 84" class="shp20" d="M241.41 374.97C241.6 379.33 240.7 383.72 239.22 387.85C237.76 392.01 235.65 395.93 233.12 399.53C228 406.71 221.16 412.57 213.47 416.61C220.2 411.12 226.43 405.23 231.33 398.27C233.8 394.82 235.9 391.11 237.64 387.22C239.32 383.33 240.75 379.26 241.41 374.97ZM341.74 374.97C342.41 379.26 343.84 383.32 345.53 387.22C347.26 391.1 349.38 394.79 351.81 398.27C353.1 399.95 354.3 401.71 355.75 403.27C356.45 404.07 357.1 404.93 357.84 405.69L360.07 407.98C361.52 409.56 363.2 410.9 364.74 412.41C366.34 413.85 368.06 415.14 369.68 416.61C367.79 415.55 365.92 414.43 364.08 413.25C362.36 411.93 360.5 410.74 358.91 409.23C355.55 406.41 352.65 403.06 350.02 399.54C347.53 395.9 345.41 392 343.94 387.84C342.47 383.71 341.56 379.33 341.74 374.97Z" />
			<path id="Path 85" class="shp21" d="M309.8 172.38L304.82 202.18L304.8 202.21C304.8 202.21 295.18 195.46 291.83 186.32C288.45 195.46 278.83 202.21 278.83 202.21L278.81 202.18L273.84 172.38L309.8 172.38Z" />
			<path id="Path 86" class="shp1" d="M301.42 222.58L291.85 279.96L291.83 264.97L291.83 279.96L282.24 222.66L288.21 189.83L291.83 189.83L291.85 189.83L295.44 189.83L301.42 222.58Z" />
			<path id="Path 87" class="shp6" d="M291.08 325.28C291.08 285.17 271.71 236.46 256.04 216.65C256 216.61 255.98 216.56 255.95 216.5C255.49 215.53 256.39 212.99 257.79 209.99C260.73 203.79 265.86 195.66 265.86 195.66C265.86 195.66 249.97 195.02 244.36 192.81C243.24 192.37 242.52 191.89 242.41 191.32C241.73 187.9 261.92 168.29 262.77 168.24C263.25 168.22 263.82 168.7 263.82 168.7C266.54 172.19 269.01 176.07 271.25 180.25C284.27 204.66 289.33 239.55 291.08 268.98C292.94 300.18 291.08 325.28 291.08 325.28ZM319.66 168.71C319.66 168.71 320.24 168.21 320.7 168.24C321.58 168.29 341.75 187.89 341.06 191.31C340.38 194.73 317.63 195.65 317.63 195.65C317.63 195.65 329.34 214.25 327.44 216.65C311.76 236.45 292.39 285.16 292.39 325.27C292.39 325.27 284.19 214.08 319.66 168.71Z" />
			<path id="Path 88" class="shp7" d="M275.72 217.28C283.72 251.85 282.07 260.18 279.1 264.04C275.97 268.1 271.07 270.21 270.86 270.3L269.89 268L270.37 269.15L269.89 268C269.93 267.98 274.41 266.05 277.13 262.52C279.28 259.73 281.21 252.07 273.29 217.84L275.72 217.28Z" />
			<path id="Path 89" class="shp1" d="M273.6 266.97L273.99 267.72C274.55 268.81 274.12 270.16 273.03 270.72L269.32 272.63C268.23 273.19 266.88 272.76 266.32 271.67L265.93 270.91C265.37 269.82 265.8 268.47 266.89 267.91L270.6 266C271.69 265.44 273.04 265.88 273.6 266.97Z" />
			<path id="Path 90" class="shp7" d="M253.31 217.46C245.73 243.1 243.66 257.2 246.79 261.83C249.31 265.53 253.65 267.71 253.69 267.73L252.59 269.96C252.38 269.87 247.61 267.47 244.73 263.23C240.99 257.72 242.79 244.25 250.92 216.75L253.31 217.46Z" />
			<path id="Path 91" class="shp1" d="M250.05 266.48L249.62 267.21C248.99 268.27 249.34 269.64 250.4 270.26L253.98 272.39C255.04 273.02 256.41 272.66 257.04 271.61L257.47 270.88C258.1 269.82 257.75 268.45 256.69 267.83L253.1 265.7C252.05 265.07 250.68 265.42 250.05 266.48Z" />
			<path id="Path 92" class="shp7" d="M264 177.6C265.13 165.41 284.71 163.4 293.94 163.27C305.69 163.1 315.58 165.4 319.4 177.32C323.17 189.09 323.84 202.29 324.03 214.6C324.07 216.9 327.64 216.9 327.61 214.6C327.38 200.41 328.34 173.69 315.5 164.4C302.79 155.2 262.33 156.95 260.42 177.6C260.21 179.89 263.79 179.88 264 177.6Z" />
			<path id="Path 93" class="shp1" d="M334.03 221.36C334.03 225.89 330.35 229.57 325.82 229.57C321.28 229.57 317.61 225.89 317.61 221.36C317.61 216.82 321.28 213.15 325.82 213.15C330.35 213.15 334.03 216.82 334.03 221.36Z" />
			<path id="Path 94" class="shp6" d="M330.76 221.36C330.76 224.09 328.55 226.3 325.82 226.3C323.09 226.3 320.88 224.09 320.88 221.36C320.88 218.63 323.09 216.41 325.82 216.41C328.55 216.41 330.76 218.63 330.76 221.36Z" />
			<path id="Path 95" class="shp1" d="M250.1 215.65C250.91 212.09 253.25 203.28 255.05 198.88C256.54 195.27 260.23 192.91 260.23 192.91C260.72 192.88 260.64 188.52 260.49 184.95C260.36 181.81 260.14 178.15 260.92 177.16C261.68 176.21 263.57 176.2 264.34 177.09C265.17 178.04 265.11 181.71 265.12 184.86C265.13 188.42 265.25 192.78 265.74 192.79C265.74 192.79 269.3 195.15 270.89 198.6C272.67 202.44 275.77 212.67 276.32 215.65C277.01 219.35 275.79 219.77 274.73 220.1C273.22 220.56 272.3 219.52 271.25 215.42C269.59 208.92 267.58 198 263.09 197.9L263.09 197.89C258.63 198.21 256.48 209.64 254.86 216C253.84 219.98 252.98 220.34 251.46 219.95C250.38 219.67 249.28 219.18 250.1 215.65Z" />
			<path id="Path 96" class="shp22" d="M233.04 243.36L230.13 261.43L227.06 279.47C225.02 291.49 222.82 303.49 220.89 315.52C219.87 321.52 218.83 327.54 218.09 333.54L217.85 335.78C217.84 336.47 217.76 337.07 217.87 337.74C218.07 338.38 218.3 339.05 218.62 339.75C218.89 340.44 219.2 341.13 219.51 341.82L223.37 350.08L239.46 382.94C233.34 372.38 227.48 361.68 221.86 350.83C220.46 348.12 219.06 345.4 217.79 342.61C217.46 341.91 217.14 341.21 216.84 340.49C216.53 339.8 216.24 339.04 215.98 338.22C215.82 337.41 215.87 336.45 215.88 335.64L216.11 333.33C216.8 327.21 217.76 321.19 218.73 315.16C220.84 303.13 223.01 291.13 225.41 279.16C227.8 267.2 230.28 255.25 233.04 243.36ZM236.07 249.98C235.68 251.37 234.93 252.43 234.08 253.4C233.2 254.35 232.23 255.21 230.88 255.73C231.26 254.33 232.02 253.28 232.86 252.3C233.75 251.36 234.73 250.5 236.07 249.98ZM350.26 243.36C353.02 255.25 355.49 267.2 357.89 279.16C360.29 291.13 362.46 303.13 364.57 315.16C365.54 321.19 366.5 327.21 367.19 333.33L367.42 335.64C367.43 336.45 367.47 337.41 367.31 338.22C367.06 339.04 366.77 339.8 366.45 340.49C366.15 341.21 365.84 341.91 365.51 342.61C364.24 345.4 362.84 348.12 361.44 350.83C355.82 361.68 349.96 372.38 343.84 382.94L359.93 350.08L363.78 341.82C364.1 341.13 364.4 340.44 364.68 339.75C364.99 339.05 365.23 338.38 365.43 337.74C365.53 337.07 365.45 336.47 365.45 335.78L365.21 333.54C364.47 327.54 363.43 321.52 362.41 315.52C360.48 303.49 358.28 291.49 356.24 279.47L353.17 261.43L350.26 243.36ZM347.23 249.98C348.57 250.5 349.55 251.36 350.43 252.3C351.28 253.28 352.04 254.33 352.42 255.73C351.07 255.21 350.1 254.35 349.21 253.4C348.37 252.43 347.61 251.37 347.23 249.98Z" />
			<path id="Path 97" fill-rule="evenodd" class="shp20" d="M313.95 284.34C319.75 284.59 325.54 284.67 331.32 284.49C337.1 284.39 342.87 284.07 348.62 283.51L349.47 283.43L349.52 284.31C350 293.05 350.27 301.8 350.66 310.55L350.79 313.83L350.86 315.47L350.89 316.29C350.89 316.39 350.92 316.35 350.87 316.64C350.84 316.84 350.74 317.12 350.68 317.19C350.53 317.44 350.38 317.63 350.25 317.74C349.2 318.71 348.25 319.18 347.24 319.72C346.24 320.24 345.24 320.71 344.23 321.16C340.18 322.96 336.13 324.55 331.91 325.97C331.63 326.06 331.41 326.14 331.02 326.23C330.81 326.27 330.5 326.24 330.24 326.21C330.01 326.17 329.92 326.12 329.75 326.08C329.14 325.9 328.64 325.69 328.12 325.48C327.07 325.06 326.08 324.6 325.07 324.14C323.07 323.21 321.1 322.24 319.16 321.22C318.19 320.69 317.22 320.16 316.27 319.61L314.83 318.74C314.35 318.41 313.91 318.18 313.33 317.58C312.87 316.61 312.97 316.11 312.88 315.54L312.81 313.86C312.79 312.76 312.77 311.66 312.79 310.56C312.85 301.8 313.36 293.07 313.95 284.34ZM313.95 284.34C313.97 287.34 313.98 290.34 313.99 293.34C316.83 293.7 319.67 293.9 322.51 294.02C325.46 294.15 328.4 294.22 331.35 294.16C336.91 294.15 342.47 293.75 348.06 293.37C347.98 290.66 347.91 287.94 347.86 285.23C342.35 285.55 336.83 285.67 331.32 285.56C325.51 285.37 319.71 285.08 313.95 284.34ZM314.17 310.55C314.2 311.63 314.25 312.72 314.31 313.8L314.43 315.4L314.53 316.16C314.56 316.5 314.62 316.39 314.57 316.56C314.76 316.73 315.27 317.07 315.71 317.32L317.11 318.1C318.06 318.61 319.03 319.1 320 319.58C321.94 320.56 323.89 321.51 325.87 322.4C326.86 322.84 327.85 323.28 328.84 323.66C329.33 323.85 329.84 324.05 330.29 324.17C330.38 324.2 330.55 324.26 330.58 324.26C330.6 324.23 330.56 324.29 330.62 324.28L331.3 324.07C335.35 322.65 339.42 321.01 343.34 319.21C344.32 318.76 345.29 318.29 346.23 317.79C347.13 317.3 348.15 316.75 348.71 316.23C348.72 316.22 348.73 316.21 348.74 316.2L348.72 315.44L348.67 313.81L348.57 310.54C348.42 304.86 348.22 299.19 348.06 293.51C345.48 294.03 342.87 294.43 340.25 294.71C337.3 295.05 334.33 295.17 331.36 295.26C328.39 295.23 325.41 295.17 322.45 294.86C319.6 294.56 316.75 294.16 313.99 293.39C314.01 299.12 314.05 304.84 314.17 310.55ZM348.74 316.2L348.74 316.26C348.74 316.26 348.74 316.27 348.74 316.28C348.76 316.2 348.82 316.12 348.79 316.14C348.8 316.13 348.79 316.15 348.74 316.2ZM348.74 316.32C348.75 316.46 348.75 316.34 348.74 316.28C348.74 316.29 348.74 316.31 348.74 316.32ZM347.86 285.23C348.16 285.21 348.46 285.2 348.75 285.18L347.85 284.38C347.85 284.66 347.86 284.95 347.86 285.23Z" />
			<path id="Path 98" class="shp1" d="M320.38 284.36C320.38 284.36 322.86 285.55 325.93 284.36C325.93 284.36 326.27 267.78 323.15 267.78C320.25 267.78 320.38 284.36 320.38 284.36ZM323.16 274.44C324.03 277.59 324.22 280.73 324.26 283.87C324.22 287.02 324.03 290.16 323.16 293.3C322.29 290.16 322.1 287.02 322.07 283.87C322.1 280.73 322.3 277.59 323.16 274.44Z" />
			<path id="Path 99" class="shp12" d="M328.58 284.36C328.58 284.36 331.06 285.55 334.13 284.36C334.13 284.36 334.47 267.78 331.35 267.78C328.45 267.78 328.58 284.36 328.58 284.36ZM331.36 274.44C332.22 277.59 332.42 280.73 332.45 283.87C332.42 287.02 332.23 290.16 331.36 293.3C330.49 290.16 330.3 287.02 330.26 283.87C330.3 280.73 330.5 277.59 331.36 274.44Z" />
			<path id="Path 100" class="shp23" d="M309.79 166.14C306.5 174.21 291.82 179.56 291.82 179.56C291.82 179.56 277.13 174.21 273.86 166.14C273.49 165.26 279.39 162.92 279.39 160.59C279.39 159.73 279.21 155.67 279.02 150.88C278.7 142.77 278.23 132.62 278.23 132.62L305.42 132.62C305.42 132.62 304.95 142.94 304.58 151.1C304.38 155.8 304.24 159.75 304.24 160.59C304.24 162.92 310.16 165.26 309.79 166.14Z" />
			<path id="Path 101" class="shp24" d="M305.42 132.62C305.42 132.62 304.95 142.94 304.58 151.1C294.09 154.79 284.89 153.02 279.02 150.88C278.7 142.77 278.23 132.62 278.23 132.62L305.42 132.62Z" />
			<path id="Path 102" class="shp23" d="M240.69 87.12C240.69 87.12 234.39 79.67 225.9 85.5C215.99 92.3 221.31 118.92 244.83 110.64L240.69 87.12Z" />
			<path id="Path 103" class="shp25" d="M229.9 105.39C230.75 103.88 232.08 102.56 233.79 101.83C234.64 101.44 235.59 101.27 236.54 101.28C237.51 101.24 238.43 101.51 239.33 101.81L238.17 102.7C237.52 99.79 236.4 96.74 234.35 94.73C233.3 93.77 231.95 93.21 230.47 93.16C229.72 93.07 228.97 93.24 228.19 93.33C227.43 93.49 226.69 93.79 225.89 93.98C227.22 93.1 228.69 92.22 230.43 92.07C232.12 91.83 234.03 92.34 235.41 93.48C236.81 94.6 237.74 96.1 238.45 97.63C239.13 99.19 239.61 100.76 239.84 102.46L240.03 103.96L238.68 103.36C237.27 102.74 235.7 102.49 234.16 102.91C232.63 103.3 231.14 104.19 229.9 105.39Z" />
			<path id="Path 104" class="shp23" d="M342.94 87.12C342.94 87.12 349.24 79.67 357.73 85.5C367.64 92.3 362.32 118.92 338.8 110.64L342.94 87.12Z" />
			<path id="Path 105" class="shp25" d="M353.74 105.39C352.49 104.19 351.01 103.3 349.47 102.91C347.93 102.49 346.37 102.74 344.96 103.36L343.6 103.96L343.8 102.46C344.02 100.76 344.51 99.19 345.18 97.63C345.89 96.1 346.82 94.6 348.22 93.48C349.6 92.34 351.51 91.83 353.21 92.07C354.94 92.22 356.41 93.1 357.74 93.98C356.94 93.79 356.21 93.49 355.44 93.33C354.66 93.24 353.91 93.07 353.17 93.16C351.68 93.21 350.34 93.77 349.29 94.73C347.24 96.74 346.11 99.79 345.47 102.7L344.31 101.81C345.2 101.51 346.13 101.24 347.09 101.28C348.04 101.27 349 101.44 349.84 101.83C351.55 102.56 352.89 103.88 353.74 105.39Z" />
			<path id="Path 106" class="shp23" d="M334.08 127.69C319.04 144.8 291.83 144.71 291.83 144.71C291.83 144.71 264.61 144.8 249.54 127.69C233.29 109.19 229.69 54.68 243.38 37.33C256.1 21.26 276.63 17.1 291.83 17.1C307 17.1 327.53 21.26 340.24 37.33C353.94 54.68 350.36 109.19 334.08 127.69Z" />
			<path id="Path 107" class="shp11" d="M269.54 93.79C269.54 96.96 267.1 99.53 264.09 99.53C261.07 99.53 258.63 96.96 258.63 93.79C258.63 90.63 261.07 88.06 264.09 88.06C267.1 88.06 269.54 90.63 269.54 93.79Z" />
			<path id="Path 108" class="shp15" d="M254.93 79.7C254.93 79.7 259.24 72.24 268.96 76.52" />
			<path id="Path 109" class="shp11" d="M313.22 93.79C313.22 96.96 315.67 99.53 318.68 99.53C321.7 99.53 324.14 96.96 324.14 93.79C324.14 90.63 321.7 88.06 318.68 88.06C315.67 88.06 313.22 90.63 313.22 93.79Z" />
			<path id="Path 110" class="shp15" d="M327.84 79.7C327.84 79.7 323.53 72.24 313.81 76.52" />
			<path id="Path 111" class="shp25" d="M291.83 79.58C292.79 85.63 293.01 91.69 293.05 97.75L291.83 96.52C294.33 96.53 296.83 96.57 299.33 96.69L300.97 96.76L300.31 98.15C299.85 99.11 299.3 99.87 298.71 100.66C298.11 101.43 297.41 102.12 296.66 102.74C295.16 103.98 293.26 104.8 291.38 104.79C293.15 104.16 294.58 103.08 295.71 101.75C296.28 101.09 296.77 100.37 297.22 99.63C297.67 98.9 298.06 98.07 298.35 97.34L299.33 98.81C296.83 98.92 294.33 98.96 291.83 98.97L290.59 98.98L290.6 97.75C290.65 91.69 290.87 85.63 291.83 79.58Z" />
			<path id="Path 112" class="shp11" d="M279.66 112.22C281.7 114.87 283.9 117.09 286.64 118.13C287.98 118.65 289.43 119 290.97 118.98C291.74 119.07 292.51 118.91 293.32 118.92C294.12 118.86 294.91 118.71 295.78 118.69C295.09 119.16 294.35 119.6 293.58 119.97C292.77 120.22 291.97 120.62 291.1 120.69C289.37 121.07 287.51 120.78 285.82 120.17C284.14 119.48 282.66 118.34 281.62 116.93C280.58 115.53 279.85 113.92 279.66 112.22Z" />
			<path id="Path 113" class="shp26" d="M271.99 106.17L256.18 106.17C251.27 106.17 247.29 102.19 247.29 97.28L247.29 92.91C247.29 88 251.27 84.02 256.18 84.02L271.99 84.02C276.9 84.02 280.88 88 280.88 92.91L280.88 97.28C280.88 102.19 276.9 106.17 271.99 106.17ZM326.59 106.17L310.77 106.17C305.86 106.17 301.88 102.19 301.88 97.28L301.88 92.91C301.88 88 305.86 84.02 310.77 84.02L326.59 84.02C331.5 84.02 335.48 88 335.48 92.91L335.48 97.28C335.48 102.19 331.5 106.17 326.59 106.17Z" />
			<path id="Path 114" fill-rule="evenodd" class="shp1" d="M271.14 107.26L257.03 107.26C251.05 107.26 246.19 102.4 246.19 96.43L246.19 93.77C246.19 93.48 246.2 93.19 246.23 92.91L232.42 85.04L233.5 83.13L246.65 90.63C248 86.18 252.14 82.93 257.03 82.93L271.14 82.93C276.52 82.93 281 86.87 281.84 92.01C285.07 90.47 292.91 87.67 300.94 91.94C301.81 86.83 306.27 82.93 311.63 82.93L325.74 82.93C330.63 82.93 334.77 86.18 336.12 90.63L349.26 83.13L350.35 85.04L336.54 92.91C336.57 93.19 336.58 93.48 336.58 93.77L336.58 96.43C336.58 102.4 331.72 107.26 325.74 107.26L311.63 107.26C305.65 107.26 300.79 102.4 300.79 96.43L300.79 94.37C292.42 89.32 284.08 93.24 281.98 94.39L281.98 96.43C281.98 102.4 277.12 107.26 271.14 107.26ZM257.03 85.12C252.26 85.12 248.38 89 248.38 93.77L248.38 96.43C248.38 101.19 252.26 105.07 257.03 105.07L271.14 105.07C275.91 105.07 279.79 101.19 279.79 96.43L279.79 93.77C279.79 89 275.91 85.12 271.14 85.12L257.03 85.12ZM311.63 85.12C306.86 85.12 302.98 89 302.98 93.77L302.98 96.43C302.98 101.19 306.86 105.07 311.63 105.07L325.74 105.07C330.51 105.07 334.39 101.19 334.39 96.43L334.39 93.77C334.39 89 330.51 85.12 325.74 85.12L311.63 85.12Z" />
			<path id="Path 115" class="shp15" d="M334.77 47.1C334.77 47.1 337.05 88.06 346.11 88.06C353.39 88.06 352.39 47.1 352.39 47.1L334.77 47.1ZM238.15 88.06C244.17 88.06 246.07 56.24 246.07 56.24C246.07 56.24 274.34 67.55 302.02 63.68L286.55 56.24C286.55 56.24 329.44 70.36 364.07 45.14L348.79 39.36C348.79 39.36 332.23 11.22 300.96 8.78C285.61 7.58 261.94 7.42 244.5 30.1C244.5 30.1 232.7 33.64 229.42 43.58C224.69 57.88 230.83 88.06 238.15 88.06Z" />
			<path id="Path 116" class="shp1" d="M300.91 177.68L298.1 187.05C297.6 188.75 296.04 189.91 294.27 189.91L289.39 189.91C287.62 189.91 286.06 188.75 285.55 187.05L282.74 177.68C281.97 175.11 283.89 172.53 286.58 172.53L297.08 172.53C299.76 172.53 301.68 175.11 300.91 177.68Z" />
			<path id="Path 117" class="shp13" d="M291.83 172.5C291.83 172.5 276.28 163.47 274.71 163.01C273.14 162.55 264.47 168.98 264.47 168.98C264.47 168.98 274.47 191.17 277.06 191.17C279.64 191.17 291.83 172.5 291.83 172.5ZM291.74 172.5C291.74 172.5 307.29 163.47 308.86 163.01C310.43 162.55 319.1 168.98 319.1 168.98C319.1 168.98 309.1 191.17 306.51 191.17C303.93 191.17 291.74 172.5 291.74 172.5Z" />
		</g>
		<g id="Folder 2" style="display: none">
			<path id="Path 118" class="shp0" d="M900.83 548.73C900.83 559.78 853.24 568.74 794.54 568.74C735.84 568.74 688.25 559.78 688.25 548.73C688.25 537.67 735.84 528.71 794.54 528.71C853.24 528.71 900.83 537.67 900.83 548.73Z" />
			<path id="Path 119" class="shp1" d="M772.94 530.53L772.83 537.7C772.83 537.7 743.01 548.07 739.6 553.61C736.19 559.15 793.37 547.64 793.45 542.66C793.53 537.68 793.64 530.86 793.64 530.86L772.94 530.53ZM825.26 541.54L825.15 548.71C825.15 548.71 853.01 567.66 851.87 574.06C849.64 586.65 804.31 557.99 804.38 553.01C804.46 548.03 804.57 541.21 804.57 541.21L825.26 541.54Z" />
			<path id="Path 120" class="shp2" d="M839.62 542.75C836.22 547.43 802.66 548.87 799.18 542.11C798.62 541.03 797.7 534.29 797.7 534.29C797.7 534.29 783.7 540.59 766.46 533.37C764.94 532.74 747.24 406.06 738.77 344.74C738.53 343.09 738.31 341.49 738.1 339.95C735.78 323.06 734.28 312.21 734.28 312.21L834.83 313.8C834.83 313.8 835.37 328.28 836.1 349.94C836.16 351.87 836.22 353.87 836.29 355.9C838.48 421.1 842.09 539.37 839.62 542.75Z" />
			<path id="Path 121" class="shp3" d="M836.1 349.94C785.73 361.61 753.9 349.47 738.1 339.95C735.78 323.06 734.29 312.21 734.29 312.21L834.83 313.8C834.83 313.8 835.37 328.28 836.1 349.94Z" />
			<path id="Path 122" class="shp2" d="M771.92 158.16C771.92 158.16 766.4 244.84 751.85 246.24C749.26 246.48 746.53 246.19 743.75 245.54C734.36 243.28 724.78 236.67 720.14 232.21C718.52 230.65 717.49 229.36 717.3 228.59C716.4 225.03 744.64 172.57 749.87 168.14C755.11 163.68 771.92 158.16 771.92 158.16ZM839.29 334.69C838.78 336.44 835.33 338.6 829.86 340.62C829.2 340.85 828.59 336.3 827.94 331.62C827.25 326.7 826.52 321.61 825.73 321.86C825.16 322.02 824.52 327.47 823.84 332.81C823.24 337.9 822.61 342.89 822.02 343.03C811.94 345.66 798.52 347.62 784.54 347.39C753.45 346.9 731.47 338.03 730.19 332.97C730.03 332.31 730.24 329.83 730.74 325.96C732.47 312.2 737.55 280.59 740.36 248.71C740.66 245.14 734.2 230.81 736.06 221.55C739.34 205.3 751.13 184.79 757.96 175.5C761.79 170.3 769.76 155.57 787.57 155.85C801.31 156.07 822.47 167.82 825.07 173.71C827.4 178.88 837.85 296.73 839.25 327.53C839.42 331.56 839.45 334.11 839.29 334.69ZM810.61 164.36C810.61 164.36 827.23 170.42 832.32 175.02C837.41 179.62 864.52 232.73 862.95 238.82C862.03 242.38 842.35 254.86 827.86 253.02C813.37 251.18 810.61 164.36 810.61 164.36Z" />
			<path id="Path 123" class="shp4" d="M839.4 327.46C837.67 328.56 835.78 329.34 833.86 330.06C831.94 330.73 829.98 331.34 827.94 331.62C829.72 330.52 831.58 329.74 833.48 329.03C835.39 328.36 837.32 327.78 839.4 327.46ZM823.84 332.8C816.21 335.04 808.36 336.78 800.39 337.47C792.42 338.19 784.39 338.26 776.41 337.61C768.44 336.86 760.52 335.6 752.77 333.64C745.03 331.67 737.39 329.18 730.2 325.73C737.65 328.54 745.31 330.71 753.06 332.41C760.81 334.1 768.65 335.36 776.55 335.98C784.44 336.75 792.38 336.66 800.28 336.22L806.21 335.74C808.18 335.53 810.14 335.19 812.11 334.93L815.06 334.54L817.98 333.96L823.84 332.8Z" />
			<path id="Path 124" class="shp3" d="M740.01 244.4C737.56 239.67 735.81 234.55 734.96 229.22C734.51 226.56 734.41 223.83 734.65 221.1C734.87 218.35 735.8 215.71 736.73 213.22C738.75 208.24 741.12 203.46 743.66 198.78C746.24 194.11 748.94 189.52 751.93 185.1C749.54 189.86 747.12 194.59 744.78 199.36C742.48 204.13 740.12 208.89 738.26 213.82C737.29 216.28 736.39 218.69 736.14 221.27C735.84 223.84 735.96 226.45 736.21 229.05C736.47 231.66 736.98 234.26 737.65 236.81C738.27 239.38 739.09 241.91 740.01 244.4ZM747.64 185.04C748.04 186.35 748.12 187.67 748.12 188.98C748.08 190.29 747.96 191.6 747.51 192.9C747.1 191.58 747.03 190.27 747.03 188.96C747.07 187.65 747.19 186.34 747.64 185.04ZM833.59 253.18C830.73 253.5 827.74 253.3 824.97 252.2C823.6 251.65 822.29 250.81 821.32 249.62C820.34 248.43 819.75 246.96 819.51 245.46L816.78 228.34C815.9 222.63 815.14 216.9 814.35 211.17C813.64 205.43 812.92 199.7 812.41 193.93C813.65 199.59 814.66 205.28 815.67 210.97C816.59 216.68 817.55 222.38 818.36 228.11C819.14 233.83 819.98 239.56 820.54 245.31C820.79 248.08 822.65 250.46 825.23 251.63C827.78 252.85 830.72 253.23 833.59 253.18ZM808.42 198.14C809.81 198.71 810.83 199.61 811.76 200.6C812.66 201.62 813.46 202.72 813.89 204.17C812.5 203.6 811.48 202.69 810.55 201.7C809.66 200.68 808.85 199.58 808.42 198.14Z" />
			<path id="Path 125" class="shp4" d="M859.98 229.22C857.58 232.03 854.55 234.24 851.39 236.13C848.2 238.02 844.77 239.46 841.28 240.67C837.73 241.73 834.12 242.6 830.46 243.02C828.63 243.3 826.78 243.33 824.95 243.48C823.1 243.51 821.26 243.48 819.43 243.43C823.1 243.13 826.74 242.83 830.33 242.19C833.93 241.6 837.48 240.75 840.94 239.63C844.4 238.52 847.76 237.1 850.97 235.4C854.18 233.68 857.27 231.7 859.98 229.22Z" />
			<path id="Path 126" class="shp27" d="M745.32 340.29C745.33 339.76 745.04 338.79 744.54 337.45C743.93 335.92 743.04 333.91 741.91 331.55C740.6 328.77 738.96 325.48 737.2 321.9C735.82 319.14 734.33 316.18 732.85 313.15C726.67 300.72 720.11 287.02 718.05 278.84C715.28 267.9 720.7 241.75 721.42 233.39C726.07 237.35 729.7 240.19 739.35 244.18C739.91 244.71 740.36 248.14 740.36 248.14C740.36 248.14 738.13 268.94 738.1 270.43C738.08 271.59 743.91 285.41 750.19 300.04L751.88 303.96C753.49 307.74 755.12 311.49 756.68 315.02C758.31 318.79 759.83 322.33 761.14 325.35C762.45 328.37 763.58 330.91 764.36 332.74C765.12 334.51 765.58 335.61 765.67 335.85C766.38 337.92 745.25 344.93 745.32 340.29ZM744.81 338.23C745.14 339.3 746.57 354.04 748.1 357.53C749.64 361.03 755.04 369.68 756.9 369.91C758.77 370.13 758.49 368.95 758.49 368.95C758.49 368.95 762.34 373.82 763.62 373.84C764.89 373.86 765.09 373.18 765.09 373.18C765.09 373.18 768.17 375.18 769.38 374.77C770.58 374.37 770.36 370.99 770.36 370.99C770.36 370.99 772.07 372.75 773.45 371.5C774.47 370.58 768.42 354.51 768.7 354.17C770.47 351.98 771.11 363.86 774.02 362.88C775 362.55 776.62 349.65 772.59 344.83C769.19 340.78 764.66 333.46 764.66 333.46L744.81 338.23ZM859.77 242.29C859.77 242.29 847.69 252.77 830.91 253.2C830.91 253.2 832.48 259.93 832.47 260.89C832.45 261.84 776.25 288.28 752.64 305.72C747.8 309.29 755.46 320.81 759.39 321.57C763.32 322.32 850.22 292.69 860.9 275.42C862.79 272.38 859 233.96 859.77 242.29ZM766.71 319.71C766.6 319.87 766.47 320.02 766.35 320.15C764.68 322.22 762.92 323.93 761.14 325.35C753.51 331.43 745.63 332.01 741.91 331.55C741.19 331.45 740.62 331.31 740.23 331.17C737.38 330.16 738.15 326.91 738.15 326.91C735.51 326.41 736.3 323.2 736.3 323.2C735.87 323.04 735.52 322.86 735.22 322.61C733.18 321.13 733.86 318.27 733.86 318.27C730.03 316.64 732.82 313.15 732.82 313.15L732.84 313.15C743.84 311.97 751.88 303.96 751.88 303.96L750.19 300.04C753 299.71 757.58 301.47 757.58 301.47C766.63 305.27 766.71 319.71 766.71 319.71Z" />
			<path id="Path 127" class="shp4" d="M761.54 162.01C761.93 164.66 762.48 167.26 763.07 169.83C763.68 172.39 764.39 174.93 765.25 177.41C766.06 179.9 767.06 182.33 768.18 184.71C769.26 187.11 770.6 189.38 771.95 191.71C770.1 189.78 768.35 187.68 767.05 185.31C765.66 182.98 764.55 180.5 763.69 177.93C761.98 172.82 761.08 167.38 761.54 162.01ZM807.56 161.24C804.67 167.13 800.27 172.16 795.55 176.69C790.77 181.2 785.36 185 779.76 188.41L775.45 190.79C774 191.57 772.49 192.21 771.02 192.93C768.09 194.4 765.01 195.56 761.95 196.73C758.89 197.87 755.72 198.74 752.62 199.75C749.44 200.52 746.26 201.27 743.07 201.96L752.38 198.98C755.42 197.82 758.52 196.83 761.5 195.55C767.48 193.05 773.39 190.35 778.93 186.99C784.52 183.75 789.82 180 794.7 175.76C797.13 173.62 799.49 171.4 801.63 168.96C803.82 166.57 805.85 164.02 807.56 161.24ZM720.33 220.28C722.68 222.68 725.12 224.9 727.75 226.88C729.05 227.88 730.41 228.82 731.8 229.71C733.18 230.62 734.64 231.39 736.1 232.24C732.84 231.4 729.78 229.79 727.09 227.75C725.75 226.72 724.47 225.59 723.34 224.34C722.21 223.09 721.15 221.76 720.33 220.28Z" />
			<path id="Path 128" class="shp6" d="M768.29 210.82C775.74 245.51 773.96 253.81 770.93 257.62C767.74 261.64 762.8 263.66 762.59 263.75L761.66 261.44L762.12 262.59L761.66 261.44C761.7 261.42 766.21 259.56 768.98 256.07C771.17 253.32 773.23 245.69 765.85 211.34L768.29 210.82Z" />
			<path id="Path 129" class="shp1" d="M765.38 260.46L765.76 261.23C766.3 262.32 765.85 263.67 764.75 264.21L761.01 266.06C759.91 266.6 758.57 266.15 758.03 265.05L757.65 264.29C757.1 263.19 757.56 261.84 758.66 261.3L762.4 259.45C763.5 258.91 764.84 259.36 765.38 260.46Z" />
			<path id="Path 130" class="shp6" d="M745.88 210.64C737.89 236.16 735.6 250.22 738.66 254.9C741.12 258.65 745.42 260.89 745.46 260.91L744.32 263.13C744.12 263.03 739.39 260.56 736.58 256.27C732.93 250.7 734.93 237.26 743.5 209.9L745.88 210.64Z" />
			<path id="Path 131" class="shp1" d="M741.85 259.6L741.4 260.33C740.76 261.37 741.09 262.75 742.13 263.39L745.68 265.58C746.73 266.22 748.11 265.89 748.75 264.85L749.2 264.12C749.84 263.08 749.51 261.7 748.46 261.06L744.91 258.87C743.87 258.23 742.49 258.56 741.85 259.6Z" />
			<path id="Path 132" class="shp7" d="M757.2 170.96C758.52 158.79 778.13 157.08 787.36 157.1C799.11 157.12 808.97 159.57 812.6 171.55C816.18 183.38 816.64 196.59 816.64 208.9C816.64 211.2 820.21 211.26 820.21 208.96C820.22 194.77 821.59 168.06 808.9 158.57C796.34 149.17 755.86 150.28 753.62 170.9C753.38 173.19 756.95 173.23 757.2 170.96Z" />
			<path id="Path 133" class="shp1" d="M826.53 215.82C826.45 220.35 822.72 223.97 818.19 223.9C813.65 223.82 810.04 220.09 810.11 215.56C810.18 211.02 813.91 207.4 818.45 207.48C822.98 207.55 826.6 211.28 826.53 215.82Z" />
			<path id="Path 134" class="shp6" d="M823.26 215.76C823.22 218.49 820.97 220.67 818.24 220.63C815.51 220.58 813.33 218.34 813.38 215.61C813.42 212.88 815.67 210.7 818.39 210.74C821.12 210.79 823.3 213.03 823.26 215.76Z" />
			<path id="Path 135" class="shp1" d="M742.7 208.78C743.57 205.24 746.04 196.46 747.92 192.09C749.46 188.5 753.18 186.2 753.18 186.2C753.68 186.18 753.66 181.82 753.57 178.25C753.49 175.11 753.33 171.45 754.13 170.47C754.9 169.53 756.8 169.55 757.55 170.45C758.36 171.41 758.24 175.08 758.21 178.23C758.16 181.8 758.21 186.15 758.7 186.17C758.7 186.17 762.22 188.59 763.76 192.06C765.47 195.93 768.41 206.21 768.92 209.19C769.55 212.91 768.32 213.31 767.25 213.62C765.74 214.06 764.84 213 763.85 208.88C762.3 202.36 760.45 191.41 755.97 191.24L755.97 191.23C751.5 191.47 749.17 202.87 747.45 209.21C746.37 213.17 745.51 213.52 743.99 213.1C742.91 212.81 741.83 212.3 742.7 208.78Z" />
			<path id="Path 136" class="shp27" d="M798.01 163C795.16 170.22 772.59 182.6 772.59 182.6C772.59 182.6 767.95 171.8 766.79 164.33C766.66 163.49 771.68 161.4 771.66 159.32C771.65 158.55 771.45 154.94 771.22 150.67C770.84 143.44 770.31 134.4 770.31 134.4L794.54 134.09C794.54 134.09 794.24 143.29 794.01 150.57C793.88 154.76 793.8 158.29 793.81 159.04C793.84 161.12 798.33 162.21 798.01 163Z" />
			<path id="Path 137" class="shp28" d="M794.54 134.09C794.54 134.09 794.24 143.3 794 150.58C784.69 153.98 776.48 152.51 771.22 150.67C770.84 143.44 770.31 134.4 770.31 134.4L794.54 134.09Z" />
			<path id="Path 138" class="shp27" d="M739.46 95.19C739.46 95.19 733.95 88.46 726.3 93.53C717.37 99.46 721.74 123.27 742.82 116.21L739.46 95.19Z" />
			<path id="Path 139" class="shp29" d="M729.58 111.32C730.36 109.99 731.57 108.83 733.1 108.2C733.86 107.87 734.72 107.73 735.56 107.75C736.42 107.73 737.24 107.99 738.04 108.26L736.99 109.05C736.46 106.44 735.49 103.7 733.7 101.89C732.77 101.01 731.59 100.49 730.26 100.43C729.6 100.34 728.93 100.48 728.23 100.55C727.55 100.68 726.89 100.94 726.17 101.1C727.37 100.33 728.7 99.57 730.24 99.46C731.76 99.27 733.45 99.75 734.66 100.79C735.89 101.8 736.7 103.16 737.32 104.53C737.89 105.92 738.31 107.33 738.48 108.86L738.63 110.19L737.44 109.64C736.19 109.07 734.79 108.82 733.42 109.17C732.04 109.5 730.71 110.27 729.58 111.32Z" />
			<path id="Path 140" class="shp27" d="M831.1 93.33C831.1 93.44 831.07 93.55 831.07 93.66C830.74 96.59 830.3 99.52 829.73 102.38C829.51 103.5 829.28 104.59 829.02 105.68C828.74 106.88 828.43 108.08 828.11 109.24C827.97 109.76 827.81 110.26 827.67 110.77C826.86 113.49 825.92 116.11 824.87 118.54C824.12 120.31 823.3 121.98 822.42 123.55C820.64 126.78 818.58 129.56 816.29 131.69C811.26 136.39 805.59 140.22 799.59 142.95C797.98 143.7 796.34 144.37 794.67 144.91C787.11 147.6 779.14 148.53 771.27 147.33C760.68 145.76 750.29 140.38 741.29 130.2C738.39 126.91 736.05 122.51 734.24 117.44C733.36 114.99 732.59 112.39 731.97 109.69C731.91 109.42 731.85 109.18 731.79 108.92C731.2 106.19 730.7 103.33 730.35 100.44C730.29 100.11 730.25 99.78 730.21 99.45C729.94 96.99 729.74 94.49 729.63 91.96C729.61 91.75 729.59 91.55 729.59 91.33C728.9 74 732.27 56.52 739.25 48.77C751.48 35.17 769.99 32.64 783.5 33.51C797.01 34.36 815.04 39.23 825.43 54.25C831.02 62.34 832.77 77.91 831.1 93.33Z" />
			<path id="Path 141" class="shp11" d="M801.27 93.47C801.27 93.47 797.54 86.75 788.81 90.43L801.27 93.47ZM738.64 92.47C738.64 92.47 742.59 85.88 751.19 89.83L738.64 92.47Z" />
			<path id="Path 142" class="shp29" d="M768.45 88.92C767.5 94.31 767.22 99.7 767.1 105.1L768.21 104.03C765.98 104 763.75 104 761.52 104.07L760.05 104.11L760.62 105.36C761.02 106.22 761.49 106.91 762.02 107.61C762.54 108.31 763.15 108.94 763.81 109.5C765.13 110.63 766.81 111.38 768.49 111.4C766.92 110.81 765.66 109.83 764.67 108.63C764.17 108.03 763.75 107.38 763.35 106.72C762.97 106.06 762.63 105.31 762.38 104.66L761.49 105.96C763.72 106.1 765.94 106.16 768.17 106.21L769.27 106.24L769.28 105.14C769.33 99.74 769.22 94.33 768.45 88.92Z" />
			<path id="Path 143" class="shp11" d="M751.53 101.33C751.49 104.16 749.27 106.41 746.58 106.37C743.9 106.33 741.75 104 741.8 101.18C741.84 98.35 744.06 96.1 746.75 96.14C749.43 96.18 751.58 98.51 751.53 101.33ZM736.24 98.43C736.93 99.36 737.84 100.06 738.68 100.17C739.57 100.26 740.16 99.89 740.86 99.06C741.56 98.31 742.31 97.3 743.4 96.64C744.48 95.95 745.84 95.79 746.96 96.15C745.81 96.44 744.9 96.99 744.17 97.67C743.45 98.37 742.88 99.24 742.08 100.17C741.66 100.6 741.19 101.09 740.48 101.38C739.78 101.65 738.99 101.66 738.33 101.4C736.95 100.88 736.34 99.57 736.24 98.43ZM788.11 101.91C788.06 104.74 790.21 107.06 792.89 107.1C795.58 107.15 797.8 104.89 797.84 102.07C797.88 99.24 795.74 96.92 793.06 96.88C790.37 96.83 788.15 99.09 788.11 101.91ZM803.69 99.5C803.55 100.63 802.9 101.92 801.51 102.4C800.84 102.64 800.06 102.6 799.36 102.31C798.67 102 798.21 101.49 797.8 101.05C797.03 100.1 796.49 99.21 795.79 98.48C795.08 97.78 794.2 97.2 793.06 96.88C794.18 96.55 795.54 96.76 796.59 97.48C797.66 98.17 798.38 99.21 799.05 99.98C799.73 100.83 800.31 101.23 801.2 101.16C802.04 101.08 802.97 100.41 803.69 99.5ZM787.66 124.05C786.26 126.2 783.58 128.21 779.19 128.89C774.77 129.56 771.59 128.44 769.64 126.81C767.54 125.09 766.83 122.78 767.51 121.45C767.58 121.3 767.67 121.17 767.78 121.06C769.5 118.98 775.24 119.45 777.68 119.07C780.27 118.67 786.07 116.26 788.08 118.29C788.27 118.49 788.42 118.71 788.53 119C789.05 120.23 788.85 122.18 787.66 124.05Z" />
			<path id="Path 144" class="shp12" d="M769.64 126.81C771.59 128.45 774.77 129.56 779.18 128.89C783.57 128.21 786.27 126.19 787.66 124.04C785.18 122.72 781.79 122.18 778.23 122.72C774.68 123.27 771.61 124.81 769.64 126.81Z" />
			<path id="Path 145" class="shp18" d="M788.53 119C786.28 119.88 783.39 120.67 780.19 121.17C774.93 122.01 770.24 121.91 767.78 121.06C769.5 118.98 775.24 119.45 777.68 119.07C780.27 118.67 786.07 116.26 788.08 118.29C788.27 118.49 788.42 118.71 788.53 119Z" />
			<path id="Path 146" class="shp11" d="M785.63 49.57C785.63 49.57 785.54 68.84 803.64 82.29C820.41 94.76 816.36 105.99 820.02 105.94C823.69 105.89 820.91 93.78 831.85 93.62C837.14 93.55 845.23 37 796.25 33.66C796.25 33.66 764.4 17.06 740.57 40.73C716.74 64.4 728.04 91.49 730 91.61C731.97 91.72 732.76 83.14 744.99 75.61C752.08 71.26 771.84 64.44 785.63 49.57Z" />
			<path id="Path 147" class="shp27" d="M825.2 96.55C825.2 96.55 830.92 89.99 838.41 95.31C847.15 101.52 842.02 125.17 821.18 117.46L825.2 96.55Z" />
			<path id="Path 148" class="shp29" d="M834.57 112.98C833.47 111.9 832.16 111.09 830.8 110.72C829.43 110.32 828.03 110.53 826.77 111.06L825.55 111.57L825.75 110.24C825.97 108.72 826.43 107.33 827.05 105.95C827.7 104.6 828.56 103.27 829.82 102.29C831.06 101.3 832.77 100.87 834.28 101.11C835.82 101.27 837.12 102.07 838.29 102.87C837.59 102.69 836.94 102.41 836.26 102.26C835.56 102.17 834.89 102.01 834.23 102.08C832.9 102.1 831.7 102.58 830.75 103.42C828.89 105.18 827.85 107.89 827.23 110.48L826.21 109.66C827.01 109.41 827.84 109.18 828.7 109.23C829.54 109.23 830.39 109.4 831.14 109.76C832.66 110.43 833.83 111.63 834.57 112.98Z" />
			<path id="Path 149" class="shp11" d="M833.38 191.46C798.99 215.16 802.79 245.27 802.79 245.27C782.75 205.48 808.33 186 814.14 174.81C819.95 163.64 808.55 157.93 802.24 148.26C801.09 146.48 800.22 144.69 799.63 142.95C805.63 140.22 811.31 136.39 816.33 131.69C818.62 129.56 820.68 126.78 822.47 123.55C837.91 131.48 864.42 170.08 833.38 191.46Z" />
			<path id="Path 150" class="shp3" d="M772.85 364.7C774.65 364.99 776.4 365.65 777.93 366.68C778.69 367.19 779.37 367.83 779.94 368.57C780.24 368.93 780.47 369.33 780.7 369.74C780.86 370.18 781.01 370.66 781.08 371.1C781.79 374.69 782.27 378.3 782.79 381.91C783.75 389.15 784.61 396.39 785.46 403.63C787.14 418.12 788.6 432.62 790.11 447.13C791.49 461.64 792.92 476.15 794.19 490.68L796.04 512.47L797.7 534.28L795.24 512.55L792.93 490.8L788.48 447.29L784.21 403.76L782 382.01C781.61 378.39 781.26 374.76 780.69 371.17C780.63 370.71 780.51 370.31 780.39 369.89C780.18 369.5 779.98 369.1 779.7 368.75C779.18 368.02 778.54 367.37 777.81 366.84C776.35 365.78 774.64 365.05 772.85 364.7Z" />
			<path id="Path 151" class="shp4" d="M840.43 531.6C837.33 533.6 833.79 534.85 830.22 535.76C826.62 536.65 822.92 537.04 819.23 537.2C815.53 537.19 811.83 536.99 808.19 536.35C806.36 536.08 804.58 535.58 802.78 535.21C801.01 534.7 799.25 534.14 797.51 533.57C801.11 534.33 804.68 535.09 808.31 535.51C811.93 535.98 815.57 536.18 819.21 536.11C822.84 536.04 826.46 535.64 830.03 534.94C833.59 534.21 837.12 533.2 840.43 531.6ZM796.62 525.34C794.13 526.55 791.42 527.27 788.7 527.75C785.96 528.23 783.17 528.39 780.4 528.35C777.63 528.19 774.85 527.96 772.15 527.31C770.79 527.05 769.47 526.6 768.14 526.23C766.83 525.79 765.54 525.28 764.27 524.76C766.95 525.4 769.6 526.08 772.31 526.48C774.99 526.95 777.71 527.18 780.43 527.26C783.15 527.39 785.87 527.21 788.58 526.92C791.28 526.61 793.98 526.13 796.62 525.34Z" />
			<path id="Path 152" class="shp28" d="M764.36 332.74C757.39 336.97 748.07 337.44 744.54 337.45C743.93 335.92 743.04 333.91 741.91 331.55C745.63 332.01 753.51 331.43 761.15 325.35C762.46 328.37 763.58 330.91 764.36 332.74ZM732.85 313.15C732.85 313.15 744.49 311.72 751.88 303.96L749.16 297.63C749.16 297.63 742.33 303.88 730.51 308.43L732.85 313.15Z" />
		</g>
		<g id="Folder 1" style="display: none">
			<path id="Path 153" class="shp0" d="M776.05 661.57C776.05 675.91 714.29 687.54 638.1 687.54C561.91 687.54 500.14 675.91 500.14 661.57C500.14 647.22 561.91 635.59 638.1 635.59C714.29 635.59 776.05 647.22 776.05 661.57Z" />
			<path id="Path 154" class="shp23" d="M598.84 448.45C598.84 448.45 596.43 483.92 596.8 493.62C597.17 503.33 612.89 611.41 612.22 613.75C611.56 616.09 577.74 637.54 580.41 641.22C583.09 644.9 635.31 626.13 635.31 622.11C635.31 618.1 634.91 614.55 635.31 612.08C642.38 568.46 656.07 532.6 632.97 489.27L638.32 448.45L598.84 448.45Z" />
			<path id="Path 155" class="shp28" d="M598.84 448.45C598.84 448.45 596.43 483.92 596.8 493.62C597.17 503.33 612.89 611.41 612.22 613.75C611.56 616.09 577.74 637.54 580.41 641.22C583.09 644.9 635.31 626.13 635.31 622.11C635.31 618.1 634.91 614.55 635.31 612.08C642.38 568.46 656.07 532.6 632.97 489.27L638.32 448.45L598.84 448.45Z" />
			<path id="Path 156" class="shp11" d="M601.97 621.9C601.97 621.9 571.75 641.64 575.48 644.66C583.59 651.2 627.13 633.28 627.13 633.28L627.13 637.87C627.13 637.87 632.57 640.33 636.6 637.87C636.6 637.87 641.27 624.89 635.25 619.11C635.25 619.11 590.96 638.8 588.2 634.89C586.37 632.31 601.97 621.9 601.97 621.9Z" />
			<path id="Path 157" class="shp23" d="M630.95 448.45C630.95 448.45 628.37 486.48 628.76 496.88C629.16 507.29 646.02 623.17 645.3 625.68C644.59 628.19 601.18 660.48 604.05 664.43C606.92 668.37 670.06 638.95 670.06 634.65C670.06 630.34 669.63 626.54 670.06 623.89C677.64 577.12 692.32 538.67 667.55 492.22L673.29 448.45L630.95 448.45Z" />
			<path id="Path 158" class="shp11" d="M570.15 385.89L692.99 387.25C692.99 387.25 704.8 437.53 689.1 490.78C687.6 495.89 616.7 512.98 581.42 487.19C578.18 484.82 570.15 385.89 570.15 385.89ZM621.46 646.09C621.46 646.09 611.75 653.29 612.6 656.27C613.09 657.98 643.52 649.79 670.03 632.6C670.03 632.6 677.46 640.72 670.95 659.76C670.95 659.76 666.77 662.6 659.25 659.76L659.25 654.75C659.25 654.75 606.17 670.47 602.69 663.81C600.91 660.41 621.46 646.09 621.46 646.09Z" />
			<path id="Path 159" class="shp10" d="M590.74 15.98C590.74 15.98 613.62 0.12 634.19 2.6C656.87 5.33 698.4 46.46 696.19 80.9C694.04 114.22 671.74 120.02 670.9 144.86C670.05 169.69 687.19 177.33 684.1 203.4C681.01 229.48 655.97 243.88 655.97 243.88C655.97 243.88 668.18 212.41 655.34 192.14C642.51 171.88 569.9 154.11 553.2 123.76C535.76 92.06 540.14 46.83 555.17 30.55C570.19 14.27 590.74 15.98 590.74 15.98Z" />
			<path id="Path 160" class="shp27" d="M557.38 374.22C557.29 375.34 553.06 389.61 553.18 393.45C553.3 397.29 555.07 407.39 556.73 408.3C558.38 409.21 558.57 408 558.57 408C558.57 408 560.32 414 561.5 414.49C562.68 414.99 563.12 414.43 563.12 414.43C563.12 414.43 565.24 417.46 566.52 417.53C567.79 417.61 568.86 414.37 568.86 414.37C568.86 414.37 569.79 416.66 571.55 416.02C572.85 415.54 573.26 398.29 573.64 398.07C576.12 396.7 572.25 408.02 575.33 408.2C576.37 408.26 582.73 396.84 580.78 390.82C579.15 385.77 577.67 377.24 577.67 377.24L557.38 374.22Z" />
			<path id="Path 161" class="shp6" d="M600.48 164.39C600.48 164.39 571.86 187.15 566.41 208.1C560.96 229.06 554.21 378.26 554.42 381.5C554.63 384.75 565.02 393.89 575.92 393.72C586.83 393.55 586.35 220.47 588.19 215.26C590.04 210.05 600.48 164.39 600.48 164.39ZM701.04 416.63C697.68 420.52 668.58 450.04 605.11 434.68C602.73 434.09 596.51 406.15 596.51 406.15C596.51 406.15 591.71 430.47 589.06 431.61C586.41 432.76 573.06 427.76 567.76 421.96C565.55 419.53 563.21 233.33 576.2 199.88C581.09 187.33 600.65 158.11 613.31 156.58C636.27 153.8 669.41 182.86 675.33 193.68C678.82 200.04 688.26 274.83 694.75 336.08L694.77 336.1C695.27 340.83 695.74 345.46 696.21 349.99C699.93 386.43 702.26 415.2 701.04 416.63Z" />
			<path id="Path 162" class="shp20" d="M696.21 349.99C694.02 361.65 674.1 385.3 674.1 385.3L691.46 330.54C691.46 330.54 693.25 332.55 694.75 336.08L694.77 336.1C695.27 340.83 695.74 345.46 696.21 349.99Z" />
			<path id="Path 163" class="shp6" d="M656.09 173.99C656.09 173.99 683.75 197.54 687.36 207.65C696.62 233.58 703.86 314.36 703.2 319.04C700.58 337.48 672.13 388.9 672.13 388.9C672.13 388.9 651.47 384.67 647.59 367.84C647.59 367.84 673.51 320.09 673.88 311.69C674 308.99 656.09 173.99 656.09 173.99Z" />
			<path id="Path 164" class="shp22" d="M661.55 219.4C663.88 232.13 665.93 244.9 667.89 257.68C669.85 270.46 671.59 283.28 673.24 296.12C673.61 299.33 673.97 302.55 674.27 305.78C674.42 307.4 674.56 309.01 674.65 310.66C674.67 311.53 674.76 312.21 674.62 313.34C674.38 314.34 674.01 315.03 673.68 315.79C670.99 321.72 668.2 327.53 665.29 333.31C659.53 344.9 653.68 356.43 647.59 367.84L655.61 350.17L663.77 332.58C666.43 326.7 669.29 320.88 671.86 314.99C672.16 314.28 672.52 313.49 672.65 312.93C672.69 312.46 672.65 311.51 672.6 310.77C672.51 309.19 672.35 307.59 672.19 305.99L671.07 296.38C669.61 283.55 667.83 270.74 666.23 257.91L663.81 238.67L661.55 219.4ZM655.59 224.16C657.51 224.89 658.96 226.09 660.29 227.39C661.57 228.75 662.73 230.22 663.41 232.16C661.49 231.43 660.05 230.24 658.72 228.92C657.44 227.57 656.28 226.1 655.59 224.16ZM566.36 393.23C565.99 378.98 565.92 364.73 565.93 350.48C565.94 336.24 566.17 321.99 566.39 307.74C566.79 293.49 567.12 279.25 567.85 265.01C568.65 250.79 569.28 236.5 571.55 222.41C570.83 229.51 570.44 236.61 570.22 243.73C569.89 250.84 569.7 257.96 569.53 265.07C569.15 279.31 568.81 293.55 568.57 307.79L567.61 350.51C567.25 364.75 566.9 378.99 566.36 393.23ZM566.94 225.94C568.23 227.15 568.89 228.56 569.39 230.02C569.83 231.5 570.11 233.03 569.75 234.76C568.46 233.55 567.8 232.14 567.3 230.68C566.87 229.2 566.59 227.67 566.94 225.94Z" />
			<path id="Path 165" fill-rule="evenodd" class="shp20" d="M598.23 271.98L597.82 280.36L597.57 288.75C597.42 294.33 597.26 299.92 597.22 305.51C597.07 316.68 596.9 327.86 596.95 339.04L596.8 372.59L596.72 389.36L596.52 406.15C595.79 394.97 595.41 383.79 595.12 372.6C594.82 361.42 594.79 350.22 594.76 339.03C594.9 327.84 595.03 316.64 595.54 305.46C596.07 294.28 596.7 283.08 598.23 271.98ZM606.26 298.58C606.19 298.58 606.12 298.58 606.06 298.57C604.15 298.47 602.68 296.83 602.78 294.91C602.83 293.99 603.24 293.14 603.94 292.52C604.63 291.9 605.55 291.57 606.44 291.64C607.37 291.69 608.22 292.1 608.84 292.79C609.46 293.48 609.77 294.37 609.72 295.3C609.67 296.23 609.26 297.08 608.57 297.7C607.92 298.27 607.11 298.58 606.26 298.58ZM606.25 293.83C605.93 293.83 605.63 293.94 605.4 294.15C605.14 294.38 604.99 294.69 604.97 295.03C604.93 295.74 605.47 296.35 606.18 296.39C606.56 296.4 606.85 296.29 607.1 296.06C607.36 295.83 607.51 295.52 607.53 295.18C607.55 294.84 607.43 294.51 607.21 294.25C606.98 294 606.67 293.85 606.32 293.83C606.3 293.83 606.27 293.83 606.25 293.83Z" />
			<path id="Path 166" fill-rule="evenodd" class="shp20" d="M605.35 326.84C605.29 326.84 605.22 326.83 605.16 326.83C604.23 326.78 603.38 326.37 602.76 325.68C602.14 324.99 601.83 324.1 601.89 323.17C601.99 321.26 603.74 319.77 605.54 319.9C606.47 319.95 607.32 320.36 607.94 321.05C608.56 321.74 608.87 322.63 608.82 323.56C608.72 325.4 607.18 326.84 605.35 326.84ZM605.35 322.08C604.68 322.08 604.11 322.61 604.07 323.29C604.05 323.63 604.17 323.96 604.4 324.22C604.62 324.47 604.94 324.62 605.28 324.64C606.03 324.64 606.59 324.14 606.63 323.44C606.65 323.09 606.54 322.76 606.31 322.51C606.08 322.26 605.76 322.1 605.42 322.08C605.4 322.08 605.38 322.08 605.35 322.08ZM605.41 355.15C605.35 355.15 605.28 355.14 605.21 355.14C604.29 355.09 603.44 354.68 602.82 353.99C602.2 353.3 601.89 352.41 601.94 351.48C602.05 349.57 603.77 348.09 605.6 348.21C606.53 348.26 607.37 348.67 607.99 349.36C608.61 350.05 608.93 350.94 608.87 351.86C608.82 352.79 608.41 353.65 607.72 354.27C607.08 354.84 606.27 355.15 605.41 355.15ZM605.41 350.39C604.73 350.39 604.17 350.92 604.13 351.6C604.11 351.94 604.22 352.27 604.45 352.53C604.68 352.78 604.99 352.93 605.33 352.95C605.68 352.95 606.01 352.86 606.26 352.63C606.52 352.4 606.67 352.09 606.69 351.75C606.7 351.4 606.59 351.07 606.36 350.82C606.13 350.56 605.82 350.41 605.48 350.39C605.45 350.39 605.43 350.39 605.41 350.39ZM605.36 383.45C605.29 383.45 605.23 383.45 605.16 383.45C604.24 383.4 603.39 382.99 602.77 382.29C602.15 381.6 601.84 380.71 601.89 379.79C602 377.87 603.74 376.41 605.55 376.51C606.48 376.57 607.32 376.97 607.94 377.66C608.56 378.36 608.87 379.25 608.82 380.17C608.72 382.02 607.19 383.45 605.36 383.45ZM605.36 378.7C604.68 378.7 604.12 379.23 604.08 379.91C604.06 380.25 604.17 380.58 604.4 380.83C604.63 381.09 604.94 381.24 605.28 381.26C606.03 381.25 606.59 380.75 606.64 380.05C606.65 379.71 606.54 379.38 606.31 379.13C606.08 378.87 605.77 378.72 605.43 378.7C605.4 378.7 605.38 378.7 605.36 378.7ZM645.51 363.95C647.5 366.97 649.91 369.6 652.45 372.04C655.03 374.44 657.77 376.65 660.77 378.48C662.27 379.38 663.76 380.32 665.36 381.05L667.73 382.22L670.19 383.21C671.8 383.95 673.52 384.39 675.2 385.01C676.89 385.6 678.64 385.95 680.37 386.54C678.57 386.44 676.76 386.3 674.95 386.06C673.18 385.67 671.35 385.45 669.62 384.83C666.08 383.88 662.77 382.2 659.6 380.34C656.48 378.38 653.65 375.97 651.22 373.22C648.79 370.49 646.75 367.36 645.51 363.95ZM650.34 178.22C650.34 178.22 655.63 193.08 653.91 195.1C652.19 197.11 638.27 191.97 638.27 191.97C638.27 191.97 652.78 207.65 651.08 209.43C630.45 231.02 599.7 269.68 599.7 269.68L639.23 173.05L650.34 178.22ZM597.89 177.71L597.51 270.63C588.33 257.87 577.72 204.96 577.96 200.61C578.2 196.26 591.52 183.97 591.52 183.97C586.58 182.58 584.13 179.85 584.13 179.85L597.89 177.71Z" />
			<path id="Path 167" fill-rule="evenodd" class="shp20" d="M626.87 251.58C632.38 251.77 637.89 251.8 643.39 251.57C648.88 251.41 654.37 251.04 659.82 250.43L660.66 250.34L660.72 251.21C661.28 259.77 661.61 268.34 662.07 276.91L662.22 280.12L662.3 281.73L662.34 282.53C662.3 282.86 662.52 282.84 662.18 283.8C661.62 284.7 661.16 284.9 660.68 285.29C660.2 285.63 659.72 285.92 659.24 286.2C658.28 286.75 657.31 287.24 656.33 287.71C652.41 289.58 648.48 291.24 644.38 292.74C644.09 292.83 643.9 292.91 643.48 293.01C643.24 293.04 642.93 293.01 642.67 292.97L642.22 292.84C641.63 292.66 641.13 292.46 640.62 292.24C639.6 291.83 638.63 291.37 637.65 290.91C635.7 289.98 633.78 289.01 631.88 287.99C630.93 287.47 629.99 286.94 629.06 286.37C628.59 286.1 628.13 285.8 627.67 285.49C627.42 285.31 627.21 285.18 626.94 284.96C626.81 284.82 626.66 284.71 626.54 284.55C626.45 284.35 626.37 284.14 626.3 283.92C626.04 282.58 626.07 281.63 626.01 280.51L625.98 277.28C625.97 268.69 626.37 260.13 626.87 251.58ZM626.87 251.58C626.93 254.56 626.97 257.53 627.02 260.51C629.71 260.84 632.41 261 635.1 261.1C637.91 261.2 640.7 261.25 643.5 261.15C648.78 261.09 654.05 260.64 659.34 260.22C659.25 257.52 659.16 254.83 659.09 252.13C653.86 252.5 648.63 252.68 643.4 252.61C637.87 252.49 632.35 252.25 626.87 251.58ZM627.37 277.25L627.52 280.44C627.59 281.45 627.68 282.66 627.84 283.41C627.68 283.57 628.19 283.79 628.58 284.09L629.93 284.87C630.85 285.39 631.8 285.87 632.74 286.36C634.62 287.34 636.54 288.28 638.46 289.17C639.43 289.6 640.4 290.04 641.36 290.43C641.84 290.62 642.34 290.81 642.78 290.94L643.08 291.03C643.08 291.04 643.07 291.05 643.08 291.06L643.72 290.85C647.65 289.37 651.59 287.65 655.38 285.79C656.32 285.31 657.25 284.83 658.15 284.3C658.59 284.04 659.04 283.79 659.43 283.51C659.73 283.32 660.08 283.01 660.21 282.88C660.21 282.77 660.21 282.61 660.2 282.52L660.17 281.72L660.1 280.12L659.98 276.92C659.79 271.4 659.55 265.88 659.35 260.36C656.92 260.91 654.46 261.32 651.98 261.63C649.18 261.99 646.35 262.13 643.53 262.25C640.7 262.25 637.87 262.22 635.05 261.94C632.35 261.67 629.64 261.3 627.02 260.56C627.1 266.13 627.2 271.7 627.37 277.25ZM643.08 291.03C643.09 291.02 643.1 291.02 643.1 291.03L643.08 291.03ZM660.21 282.88C660.21 283.03 660.21 283.09 660.26 282.83C660.26 282.83 660.24 282.85 660.21 282.88ZM659.09 252.13C659.39 252.11 659.68 252.09 659.98 252.07L659.07 251.29C659.08 251.57 659.09 251.85 659.09 252.13Z" />
			<path id="Path 168" class="shp7" d="M635.38 213.24C627.38 247.8 629.03 256.14 632 259.99C635.13 264.06 640.04 266.16 640.24 266.25L641.21 263.95L640.73 265.1L641.21 263.95C641.17 263.94 636.69 262.01 633.97 258.48C631.83 255.69 629.89 248.02 637.81 213.8L635.38 213.24Z" />
			<path id="Path 169" class="shp1" d="M637.51 262.92L637.12 263.68C636.55 264.77 636.99 266.12 638.08 266.68L641.79 268.59C642.88 269.15 644.23 268.71 644.79 267.63L645.18 266.87C645.74 265.78 645.3 264.43 644.21 263.87L640.51 261.96C639.42 261.4 638.07 261.83 637.51 262.92Z" />
			<path id="Path 170" class="shp7" d="M657.79 213.42C665.38 239.06 667.45 253.15 664.31 257.78C661.8 261.49 657.46 263.67 657.41 263.69L658.52 265.92C658.72 265.82 663.49 263.42 666.37 259.18C670.11 253.67 668.32 240.21 660.18 212.71L657.79 213.42Z" />
			<path id="Path 171" class="shp1" d="M661.05 262.43L661.49 263.17C662.11 264.22 661.76 265.59 660.71 266.22L657.12 268.35C656.07 268.97 654.69 268.62 654.07 267.57L653.63 266.83C653.01 265.78 653.36 264.41 654.41 263.78L658 261.65C659.05 261.03 660.43 261.38 661.05 262.43Z" />
			<path id="Path 172" class="shp7" d="M647.11 173.56C645.98 161.37 626.4 159.35 617.17 159.22C605.42 159.06 595.52 161.35 591.7 173.27C587.93 185.05 587.27 198.24 587.07 210.56C587.04 212.85 583.46 212.86 583.5 210.56C583.72 196.36 582.77 169.64 595.6 160.35C608.31 151.16 648.77 152.9 650.68 173.56C650.89 175.85 647.32 175.83 647.11 173.56Z" />
			<path id="Path 173" class="shp1" d="M577.08 217.31C577.08 221.84 580.75 225.52 585.29 225.52C589.82 225.52 593.5 221.84 593.5 217.31C593.5 212.78 589.82 209.1 585.29 209.1C580.75 209.1 577.08 212.78 577.08 217.31Z" />
			<path id="Path 174" class="shp6" d="M580.34 217.31C580.34 220.04 582.56 222.25 585.29 222.25C588.02 222.25 590.23 220.04 590.23 217.31C590.23 214.58 588.02 212.37 585.29 212.37C582.56 212.37 580.34 214.58 580.34 217.31Z" />
			<path id="Path 175" class="shp1" d="M661.01 211.6C660.19 208.05 657.86 199.24 656.05 194.84C654.57 191.22 650.88 188.87 650.88 188.87C650.38 188.83 650.47 184.47 650.61 180.91C650.75 177.76 650.97 174.11 650.19 173.12C649.43 172.16 647.53 172.16 646.76 173.05C645.93 174 646 177.66 645.98 180.81C645.97 184.38 645.86 188.73 645.36 188.75C645.36 188.75 641.81 191.1 640.21 194.55C638.44 198.4 635.34 208.62 634.78 211.6C634.1 215.31 635.32 215.72 636.38 216.05C637.88 216.52 638.8 215.47 639.85 211.37C641.51 204.87 643.53 193.96 648.01 193.85L648.01 193.84C652.48 194.16 654.63 205.6 656.25 211.96C657.26 215.94 658.12 216.3 659.65 215.9C660.72 215.63 661.82 215.14 661.01 211.6Z" />
			<path id="Path 176" class="shp12" d="M621.1 157.77C611.5 157.24 601.52 158.65 593.49 178.5C585.45 198.35 598.55 268.75 598.55 268.75C598.55 268.75 636.45 191.94 639.1 182.85C641.75 173.75 643.63 159.03 621.1 157.77Z" />
			<path id="Path 177" class="shp23" d="M637.03 166.14C627.21 175.57 608.54 193.21 608.54 193.21C608.54 193.21 603.58 175.05 602.58 166.36C602.47 165.4 606.63 162.92 606.63 160.59C606.63 159.73 606.46 155.67 606.26 150.88C605.94 142.77 605.47 132.62 605.47 132.62L632.66 132.62C632.66 132.62 632.19 142.94 631.82 151.1C631.63 155.8 631.48 159.75 631.48 160.59C631.48 162.92 637.73 165.48 637.03 166.14Z" />
			<path id="Path 178" class="shp24" d="M632.66 132.62C632.66 132.62 632.19 142.94 631.82 151.1C621.33 154.79 612.13 153.02 606.26 150.88C605.94 142.77 605.47 132.62 605.47 132.62L632.66 132.62Z" />
			<path id="Path 179" class="shp23" d="M567.93 87.12C567.93 87.12 561.63 79.67 553.14 85.5C543.23 92.3 548.55 118.92 572.07 110.64L567.93 87.12Z" />
			<path id="Path 180" class="shp25" d="M557.13 105.39C557.99 103.88 559.32 102.56 561.03 101.83C561.88 101.44 562.83 101.27 563.78 101.28C564.75 101.24 565.67 101.51 566.57 101.81L565.41 102.7C564.76 99.79 563.63 96.74 561.59 94.73C560.53 93.77 559.19 93.21 557.71 93.16C556.96 93.07 556.21 93.24 555.43 93.33C554.67 93.49 553.93 93.79 553.13 93.98C554.46 93.1 555.93 92.22 557.67 92.07C559.36 91.83 561.27 92.34 562.65 93.48C564.05 94.6 564.98 96.1 565.69 97.63C566.36 99.19 566.85 100.76 567.08 102.46L567.27 103.96L565.92 103.36C564.51 102.74 562.94 102.49 561.4 102.91C559.86 103.3 558.38 104.19 557.13 105.39Z" />
			<path id="Path 181" class="shp23" d="M670.18 87.12C670.18 87.12 676.48 79.67 684.97 85.5C694.88 92.3 689.56 118.92 666.04 110.64L670.18 87.12Z" />
			<path id="Path 182" class="shp25" d="M680.98 105.39C679.73 104.19 678.25 103.3 676.71 102.91C675.17 102.49 673.6 102.74 672.2 103.36L670.84 103.96L671.03 102.46C671.26 100.76 671.75 99.19 672.42 97.63C673.13 96.1 674.06 94.6 675.46 93.48C676.84 92.34 678.75 91.83 680.44 92.07C682.18 92.22 683.65 93.1 684.98 93.98C684.18 93.79 683.44 93.49 682.68 93.33C681.9 93.24 681.15 93.07 680.4 93.16C678.92 93.21 677.58 93.77 676.52 94.73C674.48 96.74 673.35 99.79 672.7 102.7L671.54 101.81C672.44 101.51 673.36 101.24 674.33 101.28C675.28 101.27 676.23 101.44 677.08 101.83C678.79 102.56 680.12 103.88 680.98 105.39Z" />
			<path id="Path 183" class="shp23" d="M661.32 127.69C646.28 144.8 619.06 144.71 619.06 144.71C619.06 144.71 591.85 144.8 576.78 127.69C560.53 109.19 556.93 54.68 570.62 37.33C583.34 21.26 603.87 17.1 619.06 17.1C634.24 17.1 654.76 21.26 667.48 37.33C681.18 54.68 677.6 109.19 661.32 127.69Z" />
			<path id="Path 184" class="shp11" d="M596.78 93.79C596.78 96.96 594.34 99.53 591.33 99.53C588.31 99.53 585.87 96.96 585.87 93.79C585.87 90.63 588.31 88.06 591.33 88.06C594.34 88.06 596.78 90.63 596.78 93.79ZM651.28 93.79C651.28 96.96 648.83 99.53 645.82 99.53C642.81 99.53 640.36 96.96 640.36 93.79C640.36 90.63 642.81 88.06 645.82 88.06C648.83 88.06 651.28 90.63 651.28 93.79Z" />
			<path id="Path 185" class="shp10" d="M582.17 79.7C582.17 79.7 586.48 72.24 596.2 76.52M655.08 79.7C655.08 79.7 650.77 72.24 641.04 76.52" />
			<path id="Path 186" class="shp25" d="M618.21 79.58C617.25 85.63 617.03 91.69 616.98 97.75L618.21 96.52C615.7 96.53 613.2 96.57 610.7 96.69L609.06 96.76L609.72 98.15C610.18 99.11 610.73 99.87 611.33 100.66C611.92 101.43 612.62 102.12 613.37 102.74C614.87 103.98 616.77 104.8 618.65 104.79C616.88 104.16 615.45 103.08 614.32 101.75C613.75 101.09 613.26 100.37 612.81 99.63C612.36 98.9 611.98 98.07 611.68 97.34L610.7 98.81C613.2 98.92 615.7 98.96 618.21 98.97L619.44 98.98L619.43 97.75C619.39 91.69 619.16 85.63 618.21 79.58Z" />
			<path id="Path 187" class="shp11" d="M622.84 116.79C626.15 117.22 629.28 117.24 631.95 116.05C633.27 115.46 634.54 114.68 635.62 113.59C636.22 113.11 636.66 112.45 637.24 111.89C637.76 111.28 638.22 110.61 638.82 109.98C638.67 110.81 638.45 111.63 638.16 112.44C637.77 113.19 637.49 114.04 636.91 114.71C635.96 116.19 634.44 117.31 632.81 118.06C631.14 118.77 629.29 119 627.55 118.73C625.82 118.48 624.17 117.85 622.84 116.79ZM657.11 91.15C656.95 92.35 656.25 93.7 654.78 94.2C654.08 94.44 653.26 94.4 652.53 94.1C651.81 93.77 651.33 93.24 650.9 92.77C650.08 91.77 649.51 90.82 648.74 90.05C647.99 89.3 647.03 88.7 645.82 88.37C647.01 88.05 648.44 88.28 649.55 89.05C650.67 89.78 651.43 90.87 652.15 91.7C652.87 92.61 653.51 93.04 654.48 92.96C655.39 92.86 656.36 92.13 657.11 91.15ZM580.22 91.15C580.96 92.13 581.94 92.86 582.85 92.96C583.82 93.04 584.46 92.61 585.18 91.7C585.9 90.87 586.66 89.78 587.78 89.05C588.89 88.28 590.32 88.05 591.51 88.37C590.3 88.7 589.34 89.3 588.59 90.05C587.82 90.82 587.25 91.77 586.43 92.77C586 93.24 585.52 93.77 584.8 94.1C584.07 94.4 583.25 94.44 582.55 94.2C581.08 93.7 580.38 92.35 580.22 91.15Z" />
			<path id="Path 188" class="shp10" d="M560.24 83.29C561.11 87.02 562.4 97.6 565.69 97.63C568.98 97.65 567.35 75.61 569.94 69.74C572.52 63.87 602.24 71.26 645.82 32.79C645.82 32.79 651.52 59.68 669.25 77.45C673.01 81.21 667.37 95.96 672.42 97.63C677.47 99.3 699.66 14.76 619.06 14.76C557.01 14.76 555.11 61.3 560.24 83.29Z" />
			<path id="Path 189" class="shp6" d="M606.18 160.19C606.18 160.19 588.61 168.01 580.14 179.76C578.96 181.4 591.24 183.08 591.24 183.08C591.24 183.08 579.02 192.59 579.2 196.62C579.38 200.66 586.4 254.92 596.97 273.58C596.97 273.58 597.06 179.69 606.18 160.19ZM598.23 271.98C598.23 271.98 620.19 237.21 630.95 225.4C641.71 213.59 647.67 206.68 650.01 204.59C652.35 202.49 637.47 188.02 637.47 188.02C637.47 188.02 653.68 193.65 654.08 191.45C654.49 189.24 653.53 176.38 636.52 161.79C636.52 161.79 601.93 226.83 598.23 271.98Z" />
		</g>
	</g>
</svg>