<svg xmlns="http://www.w3.org/2000/svg" viewBox="0 0 293 708" width="293" height="708">
	<defs>
		<clipPath clipPathUnits="userSpaceOnUse" id="cp1">
			<path d="M-185 -190L815 -190L815 810L-185 810Z" />
		</clipPath>
	</defs>
	<style>
		tspan { white-space:pre }
		.shp0 { opacity: 0.4;fill: #868686 } 
		.shp1 { fill: #425473 } 
		.shp2 { fill: #94a4ff } 
		.shp3 { opacity: 0.302;fill: #425473 } 
		.shp4 { opacity: 0.502;fill: #425473 } 
		.shp5 { fill: #ffd4a1 } 
		.shp6 { fill: #e8eff9 } 
		.shp7 { fill: #868686 } 
		.shp8 { opacity: 0.502;fill: #eabb88 } 
		.shp9 { fill: #eabb88 } 
		.shp10 { fill: #5e4f45 } 
		.shp11 { fill: #3d3632 } 
		.shp12 { fill: #ffa08a } 
		.shp13 { fill: #91d8e2 } 
		.shp14 { fill: #efc597 } 
		.shp15 { fill: #a37e4e } 
		.shp16 { opacity: 0.502;fill: #d8a36f } 
		.shp17 { fill: #d8a36f } 
		.shp18 { fill: #ffffff } 
		.shp19 { opacity: 0.302;fill: #868686 } 
		.shp20 { fill: #c8cfe8 } 
		.shp21 { opacity: 0.302;fill: #a1bfa8 } 
		.shp22 { opacity: 0.302;fill: #c8cfe8 } 
		.shp23 { fill: #ffd9b0 } 
		.shp24 { opacity: 0.502;fill: #efbe8e } 
		.shp25 { fill: #efbe8e } 
		.shp26 { opacity: 0.102;fill: #e8eff9 } 
		.shp27 { fill: #ffdfb8 } 
		.shp28 { opacity: 0.502;fill: #f9ca9b } 
		.shp29 { fill: #f9ca9b } 
	</style>
	<g id="Page 1" clip-path="url(#cp1)">
		<g id="Folder 2" style="display: none">
			<path id="Path 2" class="shp0" d="M92.38 555.73C92.38 566.78 44.8 575.74 -13.91 575.74C-72.61 575.74 -120.2 566.78 -120.2 555.73C-120.2 544.67 -72.61 535.71 -13.91 535.71C44.8 535.71 92.38 544.67 92.38 555.73Z" />
			<path id="Path 3" class="shp1" d="M-39.61 528.64L-39.61 535.81C-39.61 535.81 -69.26 546.65 -72.58 552.24C-75.91 557.84 -18.91 545.42 -18.91 540.44L-18.91 528.64L-39.61 528.64ZM25.82 528.64L25.82 535.81C25.82 535.81 55.48 546.65 58.8 552.24C62.12 557.84 5.13 545.42 5.13 540.44L5.13 528.64L25.82 528.64Z" />
			<path id="Path 4" class="shp2" d="M40 329.22C40 329.22 39.78 336.63 39.43 348.66C39.39 349.93 39.37 351.24 39.32 352.62C37.75 406.33 33.87 534 32.77 535.45C31.41 537.31 4.37 538.54 0.69 535.45C-2.99 532.38 -5.1 372.7 -5.1 372.7L-10.58 372.7C-10.58 372.7 -13.31 534.66 -14.3 535.16C-15.31 535.65 -35.36 540.18 -46.23 534.62C-51.05 532.12 -54.56 405.92 -55.83 352.6C-55.87 351 -55.89 349.49 -55.94 348.02C-56.22 336.39 -56.35 329.22 -56.35 329.22L40 329.22Z" />
			<path id="Path 5" class="shp3" d="M40 329.22C40 329.22 39.78 336.63 39.43 348.66C39.39 349.93 39.37 351.24 39.32 352.62C27.62 356.37 10.84 360.05 -9.96 360.05C-30.8 360.05 -45.88 356.35 -55.83 352.6C-55.87 351 -55.89 349.49 -55.94 348.02C-56.22 336.39 -56.35 329.22 -56.35 329.22L40 329.22Z" />
			<path id="Path 6" class="shp4" d="M-13.91 525.65C-16.62 526.68 -19.46 527.35 -22.33 527.85C-25.19 528.35 -28.11 528.55 -31.02 528.61C-33.94 528.61 -36.86 528.33 -39.72 527.79C-42.6 527.26 -45.37 526.29 -47.99 525.07C-45.2 525.86 -42.43 526.61 -39.58 526.96C-36.75 527.32 -33.89 527.6 -31.02 527.51C-28.16 527.55 -25.3 527.33 -22.44 527.02C-19.59 526.7 -16.74 526.25 -13.91 525.65ZM-0.35 525.65C2.48 526.25 5.33 526.7 8.18 527.02C11.04 527.33 13.9 527.55 16.76 527.51C19.63 527.6 22.49 527.32 25.32 526.96C28.17 526.61 30.94 525.86 33.73 525.07C31.11 526.29 28.34 527.26 25.46 527.79C22.6 528.33 19.68 528.61 16.76 528.61C13.85 528.55 10.93 528.35 8.07 527.85C5.2 527.35 2.36 526.68 -0.35 525.65Z" />
			<path id="Path 7" class="shp2" d="M44.18 337.44C42.89 342.27 18.59 350.4 -7.87 350.4C-37.54 350.4 -58.63 342.27 -59.94 337.44C-61.23 332.62 -46.54 189.63 -43.96 184.07C-41.35 178.49 -12.98 170.16 -7.87 170.16C-2.76 170.16 25.61 178.49 28.19 184.07C30.79 189.63 45.47 332.62 44.18 337.44Z" />
			<path id="Path 8" class="shp5" d="M-54.4 257.69L-56.94 265.25C-66.45 263.72 -76.6 257.28 -81.86 252.63C-80.57 248.27 -79.65 245.36 -79.65 245.36C-72.66 246.72 -54.4 257.69 -54.4 257.69Z" />
			<path id="Path 9" class="shp2" d="M-32.01 177.1C-32.01 177.1 -36.15 263.87 -50.68 265.47C-52.69 265.69 -54.8 265.61 -56.94 265.26C-66.45 263.72 -76.6 257.28 -81.86 252.63C-83.94 250.79 -85.26 249.24 -85.5 248.38C-86.48 244.83 -59.05 191.93 -53.9 187.42C-48.73 182.9 -32.01 177.1 -32.01 177.1Z" />
			<path id="Path 10" class="shp3" d="M-53.84 265.25C-53.84 260.66 -53.6 256.1 -53.32 251.53C-53.07 246.97 -52.65 242.42 -52.22 237.87C-51.75 233.32 -51.27 228.78 -50.62 224.25L-49.64 217.46C-49.24 215.21 -48.9 212.95 -48.43 210.7C-48.41 213 -48.53 215.28 -48.57 217.57L-48.94 224.42C-49.2 228.99 -49.62 233.54 -50.04 238.08C-50.52 242.63 -51 247.17 -51.65 251.7C-52.27 256.23 -52.94 260.75 -53.84 265.25ZM-53.84 212.5C-52.34 213.59 -51.44 214.98 -50.68 216.44C-49.98 217.93 -49.43 219.49 -49.49 221.35C-50.99 220.26 -51.89 218.87 -52.64 217.41C-53.34 215.91 -53.89 214.35 -53.84 212.5Z" />
			<path id="Path 11" class="shp6" d="M-23.31 220.23C-15.95 252.01 -17.47 259.68 -20.2 263.23C-23.08 266.96 -27.59 268.9 -27.78 268.98L-28.67 266.87L-28.23 267.92L-28.67 266.87C-28.63 266.85 -24.52 265.08 -22.02 261.83C-20.04 259.26 -18.26 252.22 -25.54 220.74L-23.31 220.23Z" />
			<path id="Path 12" class="shp1" d="M-25.18 266.07L-24.98 266.45C-24.42 267.54 -24.86 268.89 -25.95 269.45L-29.04 271.04C-30.13 271.6 -31.48 271.17 -32.04 270.08L-32.23 269.7C-32.79 268.61 -32.36 267.26 -31.27 266.7L-28.18 265.11C-27.09 264.55 -25.74 264.99 -25.18 266.07Z" />
			<path id="Path 13" class="shp6" d="M-43.92 220.39C-50.89 243.97 -52.8 256.93 -49.91 261.19C-47.6 264.6 -43.61 266.6 -43.57 266.62L-44.59 268.67C-44.77 268.58 -49.16 266.38 -51.81 262.48C-55.25 257.41 -53.6 245.03 -46.12 219.74L-43.92 220.39Z" />
			<path id="Path 14" class="shp1" d="M-47.01 265.62L-47.22 265.99C-47.85 267.04 -47.5 268.41 -46.44 269.04L-43.45 270.81C-42.4 271.44 -41.03 271.09 -40.4 270.03L-40.18 269.67C-39.56 268.61 -39.91 267.24 -40.96 266.61L-43.95 264.84C-45.01 264.22 -46.38 264.57 -47.01 265.62Z" />
			<path id="Path 15" class="shp5" d="M69.58 290.56C66.19 293.76 45.19 296.72 4.76 280.68C4.85 280.66 4.92 280.64 5.01 280.62C5.01 280.62 -8.71 270.82 -23.7 268.26C-23.7 268.26 -30.32 268.45 -38.54 268.89C-40.66 269 -42.88 269.15 -45.13 269.31C-44.5 268.96 -36.32 262.21 -21.2 261.05C7.69 258.83 34.78 267.44 42.8 268.34L38.64 257.69C38.64 257.69 56.87 246.72 63.89 245.36C63.89 245.36 76.95 283.64 69.58 290.56Z" />
			<path id="Path 16" class="shp2" d="M16.07 177.1C16.07 177.1 32.79 182.89 37.95 187.42C43.11 191.94 70.53 244.84 69.56 248.39C68.59 251.93 49.24 267.09 34.73 265.48C20.21 263.87 16.07 177.1 16.07 177.1Z" />
			<path id="Path 17" class="shp7" d="M-34.09 183.74C-33.05 172.53 -15.05 170.68 -6.56 170.56C4.25 170.4 13.34 172.52 16.86 183.48C20.33 194.3 20.94 206.44 21.12 217.76C21.15 219.87 24.44 219.88 24.4 217.76C24.2 204.71 25.08 180.14 13.27 171.59C1.58 163.14 -35.62 164.74 -37.38 183.74C-37.57 185.84 -34.28 185.83 -34.09 183.74Z" />
			<path id="Path 18" class="shp5" d="M5.01 280.62C4.92 280.64 4.85 280.66 4.76 280.68C-0.45 282.35 -5.53 283.84 -10.46 285.15C-55.83 297.31 -87.8 295.58 -89.75 290.19C-91.35 285.83 -85.3 264.18 -81.86 252.63C-76.6 257.28 -66.45 263.72 -56.94 265.25L-58.67 270.45C-54.6 269.99 -49.84 269.62 -45.15 269.31L-45.13 269.31C-42.88 269.16 -40.66 269 -38.54 268.89C-30.32 268.45 -23.7 268.26 -23.7 268.26C-8.71 270.82 5.01 280.62 5.01 280.62Z" />
			<path id="Path 19" class="shp8" d="M5.01 280.62C-0.3 282.3 -5.47 283.82 -10.46 285.15C-23.68 280.24 -26.35 270.97 -46.23 269.38C-38.01 268.94 -23.7 268.26 -23.7 268.26C-8.71 270.82 5.01 280.62 5.01 280.62Z" />
			<path id="Path 20" class="shp1" d="M30.31 223.97C30.31 228.14 26.93 231.52 22.76 231.52C18.59 231.52 15.21 228.14 15.21 223.97C15.21 219.8 18.59 216.42 22.76 216.42C26.93 216.42 30.31 219.8 30.31 223.97Z" />
			<path id="Path 21" class="shp6" d="M27.3 223.97C27.3 226.48 25.27 228.52 22.76 228.52C20.25 228.52 18.21 226.48 18.21 223.97C18.21 221.46 20.25 219.43 22.76 219.43C25.27 219.43 27.3 221.46 27.3 223.97Z" />
			<path id="Path 22" class="shp4" d="M-30.54 179.03C-27.31 182.1 -23.96 185.04 -20.41 187.69C-16.86 190.3 -13.11 192.79 -8.94 194.03L-9.29 194.05C-5.2 192.37 -1.28 190.17 2.43 187.71C4.3 186.49 6.06 185.13 7.77 183.69C9.51 182.28 11.06 180.67 12.59 179.03C9.93 182.65 6.57 185.76 2.91 188.4C-0.76 191.05 -4.71 193.27 -8.89 195.07L-9.06 195.14L-9.24 195.08C-11.44 194.41 -13.48 193.38 -15.42 192.23C-17.36 191.08 -19.18 189.76 -20.93 188.35C-24.41 185.53 -27.63 182.42 -30.54 179.03Z" />
			<path id="Path 23" class="shp1" d="M-46.87 218.72C-46.12 215.46 -43.98 207.35 -42.32 203.3C-40.95 199.98 -37.56 197.81 -37.56 197.81C-37.1 197.78 -37.18 193.77 -37.32 190.5C-37.44 187.61 -37.64 184.24 -36.92 183.33C-36.23 182.46 -34.48 182.45 -33.77 183.27C-33.01 184.14 -33.07 187.51 -33.06 190.41C-33.05 193.69 -32.94 197.69 -32.49 197.7C-32.49 197.7 -29.22 199.87 -27.75 203.04C-26.12 206.58 -23.27 215.98 -22.76 218.72C-22.13 222.13 -23.25 222.51 -24.23 222.82C-25.61 223.24 -26.45 222.28 -27.42 218.51C-28.95 212.53 -30.8 202.49 -34.92 202.4L-34.92 202.39C-39.03 202.68 -41 213.2 -42.5 219.05C-43.43 222.71 -44.22 223.04 -45.63 222.68C-46.61 222.42 -47.62 221.97 -46.87 218.72Z" />
			<path id="Path 24" class="shp3" d="M38.18 265.25C37.28 260.75 36.62 256.23 35.99 251.7C35.34 247.17 34.86 242.63 34.39 238.08C33.96 233.54 33.54 228.99 33.29 224.42L32.92 217.57C32.87 215.28 32.75 213 32.77 210.7C33.25 212.95 33.58 215.21 33.98 217.46L34.96 224.25C35.61 228.78 36.09 233.32 36.57 237.87C36.99 242.42 37.41 246.97 37.66 251.53C37.94 256.1 38.18 260.66 38.18 265.25ZM38.18 212.5C38.23 214.35 37.68 215.91 36.99 217.41C36.23 218.87 35.33 220.26 33.83 221.35C33.77 219.49 34.32 217.93 35.02 216.44C35.78 214.98 36.68 213.59 38.18 212.5Z" />
			<path id="Path 25" class="shp4" d="M37.24 257.18C38.67 256.93 40.05 256.53 41.4 256.03C42.76 255.58 44.07 255.01 45.37 254.42C47.97 253.21 50.47 251.82 52.86 250.24C55.32 248.76 57.58 247 59.88 245.27C62.15 243.51 64.33 241.63 66.55 239.77C65.59 240.85 64.59 241.89 63.6 242.96C62.54 243.95 61.5 244.95 60.41 245.92C58.21 247.8 55.9 249.59 53.45 251.16C50.97 252.69 48.42 254.12 45.7 255.19C42.99 256.23 40.16 257.1 37.24 257.18ZM-52.55 257.18C-55.46 257.1 -58.3 256.23 -61.01 255.19C-63.73 254.12 -66.28 252.69 -68.76 251.16C-71.21 249.59 -73.51 247.8 -75.72 245.92C-76.81 244.95 -77.85 243.95 -78.91 242.96C-79.9 241.89 -80.9 240.85 -81.86 239.77C-79.64 241.63 -77.46 243.51 -75.19 245.27C-72.89 247 -70.63 248.76 -68.17 250.24C-65.78 251.82 -63.27 253.21 -60.68 254.42C-59.38 255.01 -58.06 255.58 -56.71 256.03C-55.36 256.53 -53.98 256.93 -52.55 257.18ZM-60.02 332.54C-55.88 334.19 -51.62 335.52 -47.33 336.67C-45.19 337.28 -43.02 337.77 -40.86 338.33L-34.33 339.68C-25.6 341.32 -16.72 342.23 -7.85 342.3C-3.4 342.48 1.02 342.14 5.46 341.92C7.67 341.71 9.87 341.4 12.07 341.14L15.38 340.72L18.64 340.08C20.82 339.64 23.02 339.27 25.18 338.76L31.59 336.95C32.66 336.64 33.75 336.4 34.8 336.03L37.93 334.87L44.2 332.54C36.03 336.08 27.63 339.34 18.81 340.91L15.53 341.62C14.42 341.81 13.31 341.92 12.2 342.08C9.98 342.35 7.77 342.69 5.55 342.92C1.08 343.17 -3.38 343.55 -7.86 343.39C-16.8 343.23 -25.74 342.33 -34.5 340.51C-43.24 338.68 -51.85 336.12 -60.02 332.54Z" />
			<path id="Path 26" class="shp5" d="M10.82 264.07C10.82 264.07 30.33 256.65 32.06 257.14C33.79 257.64 28.35 260.59 28.35 260.59C28.35 260.59 39.6 257.16 41.08 258.67C42.56 260.18 35.02 263.07 35.02 263.07C35.02 263.07 43.63 261.21 43.79 262.73C43.95 264.25 35.83 267.53 35.83 267.53L10.82 264.07ZM6.93 175.45C4 182.64 -9.09 187.42 -9.09 187.42C-9.09 187.42 -22.19 182.64 -25.1 175.45C-25.43 174.66 -20.17 172.58 -20.17 170.5C-20.17 169.73 -20.33 166.12 -20.5 161.84C-20.79 154.61 -21.2 145.56 -21.2 145.56L3.03 145.56C3.03 145.56 2.62 154.77 2.29 162.04C2.11 166.23 1.98 169.75 1.98 170.5C1.98 172.58 7.26 174.66 6.93 175.45Z" />
			<path id="Path 27" class="shp8" d="M3.03 145.56C3.03 145.56 2.62 154.77 2.29 162.04C-7.07 165.33 -15.26 163.75 -20.5 161.84C-20.79 154.61 -21.2 145.56 -21.2 145.56L3.03 145.56Z" />
			<path id="Path 28" class="shp5" d="M-54.67 105.01C-54.67 105.01 -60.29 98.36 -67.86 103.55C-76.69 109.62 -71.95 133.35 -50.98 125.97L-54.67 105.01Z" />
			<path id="Path 29" class="shp9" d="M-64.3 121.29C-63.54 119.95 -62.35 118.77 -60.82 118.12C-60.07 117.77 -59.22 117.62 -58.37 117.62C-57.51 117.59 -56.69 117.83 -55.89 118.09L-56.92 118.9C-57.5 116.3 -58.5 113.58 -60.33 111.79C-61.27 110.93 -62.46 110.43 -63.79 110.39C-64.45 110.3 -65.12 110.46 -65.81 110.54C-66.5 110.68 -67.15 110.95 -67.86 111.12C-66.68 110.33 -65.37 109.55 -63.82 109.41C-62.31 109.2 -60.61 109.66 -59.38 110.67C-58.13 111.67 -57.3 113.01 -56.67 114.37C-56.07 115.76 -55.63 117.16 -55.43 118.68L-55.26 120.01L-56.47 119.48C-57.72 118.93 -59.12 118.7 -60.49 119.08C-61.86 119.43 -63.19 120.22 -64.3 121.29Z" />
			<path id="Path 30" class="shp5" d="M36.49 105.01C36.49 105.01 42.1 98.36 49.67 103.55C58.51 109.62 53.76 133.35 32.8 125.97L36.49 105.01Z" />
			<path id="Path 31" class="shp9" d="M46.11 121.29C45 120.22 43.68 119.43 42.31 119.08C40.94 118.7 39.54 118.93 38.28 119.48L37.07 120.01L37.25 118.68C37.45 117.16 37.88 115.76 38.48 114.37C39.12 113.01 39.95 111.67 41.2 110.67C42.42 109.66 44.13 109.2 45.64 109.41C47.18 109.55 48.5 110.33 49.68 111.12C48.97 110.95 48.31 110.68 47.63 110.54C46.94 110.46 46.27 110.3 45.6 110.39C44.28 110.43 43.08 110.93 42.14 111.79C40.32 113.58 39.31 116.3 38.74 118.9L37.7 118.09C38.5 117.83 39.33 117.59 40.19 117.62C41.03 117.62 41.88 117.77 42.64 118.12C44.16 118.77 45.35 119.95 46.11 121.29Z" />
			<path id="Path 32" class="shp5" d="M28.59 141.17C15.18 156.42 -9.08 156.34 -9.08 156.34C-9.08 156.34 -33.35 156.42 -46.78 141.17C-61.27 124.68 -64.48 76.08 -52.27 60.61C-40.93 46.28 -22.63 42.58 -9.08 42.58C4.44 42.58 22.74 46.28 34.08 60.61C46.29 76.08 43.1 124.68 28.59 141.17Z" />
			<path id="Path 33" class="shp10" d="M-59.8 108.05C-55.34 121.17 -48.54 70.96 -48.54 70.96C-48.54 70.96 -43.76 76.34 -30.57 77.68C-0.13 80.77 27.3 64.75 27.3 64.75C27.3 64.75 35.62 110.23 40.29 110.23C44.96 110.23 47.83 70.31 42.83 60.02C38.01 50.1 27.3 49.97 27.3 49.97C27.3 49.97 -13.23 15.09 -48.48 38.45C-61.53 47.1 -56.18 61.8 -56.18 61.8C-56.18 61.8 -71.98 72.21 -59.8 108.05Z" />
			<path id="Path 34" class="shp11" d="M-28.95 110.95C-28.95 113.78 -31.13 116.07 -33.82 116.07C-36.5 116.07 -38.68 113.78 -38.68 110.95C-38.68 108.13 -36.5 105.84 -33.82 105.84C-31.13 105.84 -28.95 108.13 -28.95 110.95Z" />
			<path id="Path 35" class="shp10" d="M-41.98 102.3C-41.98 102.3 -38.14 95.64 -29.47 99.46" />
			<path id="Path 36" class="shp11" d="M9.99 110.95C9.99 113.78 12.17 116.07 14.86 116.07C17.55 116.07 19.73 113.78 19.73 110.95C19.73 108.13 17.55 105.84 14.86 105.84C12.17 105.84 9.99 108.13 9.99 110.95Z" />
			<path id="Path 37" class="shp10" d="M23.02 102.3C23.02 102.3 19.18 95.64 10.51 99.46" />
			<path id="Path 38" class="shp9" d="M-9.09 98.28C-8.23 103.68 -8.03 109.07 -7.99 114.47L-9.09 113.38C-6.86 113.39 -4.63 113.42 -2.4 113.53L-0.93 113.6L-1.52 114.84C-1.93 115.69 -2.42 116.37 -2.95 117.07C-3.48 117.76 -4.1 118.37 -4.77 118.93C-6.11 120.03 -7.8 120.76 -9.48 120.75C-7.9 120.19 -6.63 119.23 -5.62 118.04C-5.12 117.45 -4.68 116.81 -4.27 116.15C-3.88 115.5 -3.53 114.76 -3.27 114.11L-2.4 115.42C-4.63 115.52 -6.86 115.56 -9.09 115.57L-10.19 115.57L-10.18 114.47C-10.14 109.07 -9.94 103.68 -9.09 98.28Z" />
			<path id="Path 39" class="shp11" d="M0.65 134.75C-1.14 136.8 -4.32 138.49 -9.09 138.49C-13.83 138.49 -17 136.8 -18.82 134.75C-20.74 132.57 -21.13 130.04 -20.2 128.76C-18.41 126.3 -11.88 127.88 -9.09 127.88C-6.29 127.88 0.27 126.3 2.03 128.76C2.96 130.04 2.6 132.6 0.65 134.75Z" />
			<path id="Path 40" class="shp12" d="M0.65 134.75C-1.14 136.8 -4.32 138.49 -9.09 138.49C-13.83 138.49 -17 136.8 -18.82 134.75C-16.41 132.96 -12.93 131.83 -9.09 131.83C-5.24 131.83 -1.76 132.96 0.65 134.75Z" />
		</g>
		<g id="Folder 2" style="display: none">
			<path id="Path 41" class="shp0" d="M441.9 607.06C441.9 619.12 389.97 628.9 325.91 628.9C261.85 628.9 209.92 619.12 209.92 607.06C209.92 595 261.85 585.22 325.91 585.22C389.97 585.22 441.9 595 441.9 607.06Z" />
			<path id="Path 42" class="shp11" d="M288.69 579.85L288.69 587.91C288.69 587.91 255.35 600.1 251.61 606.39C247.88 612.68 311.95 598.72 311.95 593.12L311.95 579.85L288.69 579.85ZM362.24 579.85L362.24 587.91C362.24 587.91 395.58 600.1 399.31 606.39C403.04 612.68 338.97 598.72 338.97 593.12L338.97 579.85L362.24 579.85Z" />
			<path id="Path 43" class="shp13" d="M378.18 355.67C378.18 355.67 377.93 364 377.54 377.52C377.49 378.95 377.47 380.43 377.41 381.98C375.64 442.36 371.28 585.88 370.05 587.51C368.52 589.6 338.12 590.98 333.98 587.51C329.85 584.06 327.48 404.55 327.48 404.55L321.32 404.55C321.32 404.55 318.24 586.62 317.14 587.19C316 587.73 293.46 592.83 281.24 586.57C275.82 583.76 271.88 441.89 270.45 381.96C270.4 380.16 270.38 378.46 270.33 376.81C270.01 363.73 269.86 355.67 269.86 355.67L378.18 355.67Z" />
			<path id="Path 44" class="shp3" d="M378.18 355.67C378.18 355.67 377.93 364 377.54 377.52C377.49 378.95 377.47 380.43 377.41 381.98C364.26 386.2 345.39 390.33 322.01 390.33C298.58 390.33 281.64 386.17 270.45 381.96C270.4 380.16 270.38 378.46 270.33 376.81C270.01 363.73 269.86 355.67 269.86 355.67L378.18 355.67Z" />
			<path id="Path 45" class="shp4" d="M317.57 576.49C314.53 577.65 311.33 578.41 308.11 578.97C304.89 579.53 301.61 579.75 298.34 579.82C295.06 579.82 291.77 579.51 288.55 578.9C285.33 578.3 282.21 577.21 279.26 575.84C282.39 576.73 285.51 577.57 288.71 577.96C291.9 578.37 295.11 578.68 298.33 578.59C301.55 578.62 304.77 578.39 307.98 578.04C311.19 577.68 314.39 577.16 317.57 576.49ZM332.82 576.49C336 577.16 339.2 577.68 342.41 578.04C345.62 578.39 348.84 578.62 352.05 578.59C355.28 578.68 358.49 578.37 361.68 577.96C364.88 577.57 368 576.73 371.13 575.84C368.18 577.21 365.06 578.3 361.83 578.9C358.61 579.51 355.33 579.82 352.05 579.82C348.77 579.75 345.5 579.53 342.27 578.97C339.06 578.41 335.86 577.65 332.82 576.49Z" />
			<path id="Path 46" class="shp14" d="M403.09 268.47C403.09 268.47 408.87 344.94 398.37 377.08C398.37 377.08 388.14 380.29 382.89 377.08C382.89 377.08 376.21 292.76 378.18 276.73C380.15 260.71 403.09 268.47 403.09 268.47Z" />
			<path id="Path 47" class="shp13" d="M382.87 364.92C381.42 370.34 354.11 379.48 324.36 379.48C291.01 379.48 267.3 370.34 265.82 364.92C264.37 359.49 280.89 198.75 283.79 192.5C286.72 186.23 318.62 176.86 324.36 176.86C330.1 176.86 362 186.23 364.9 192.5C367.83 198.75 384.32 359.49 382.87 364.92Z" />
			<path id="Path 48" class="shp14" d="M272.05 275.27L269.19 283.77C258.5 282.04 247.1 274.8 241.18 269.58C242.64 264.67 243.67 261.4 243.67 261.4C251.53 262.92 272.05 275.27 272.05 275.27Z" />
			<path id="Path 49" class="shp13" d="M297.23 184.66C297.23 184.66 292.57 282.21 276.24 284.01C273.98 284.26 271.61 284.16 269.2 283.77C258.5 282.04 247.1 274.8 241.19 269.58C238.85 267.51 237.37 265.76 237.1 264.8C235.99 260.81 266.83 201.34 272.62 196.26C278.43 191.19 297.23 184.66 297.23 184.66Z" />
			<path id="Path 50" class="shp3" d="M272.69 283.77C272.69 278.6 272.96 273.47 273.27 268.34C273.55 263.21 274.03 258.09 274.5 252.98C275.04 247.87 275.58 242.76 276.3 237.68L277.4 230.04C277.86 227.51 278.23 224.96 278.77 222.44C278.79 225.02 278.66 227.59 278.61 230.16L278.19 237.86C277.91 242.99 277.43 248.11 276.95 253.22C276.42 258.33 275.88 263.44 275.15 268.53C274.44 273.62 273.7 278.71 272.69 283.77ZM272.69 224.46C274.38 225.69 275.39 227.25 276.24 228.89C277.02 230.56 277.64 232.32 277.58 234.41C275.89 233.18 274.88 231.62 274.03 229.98C273.25 228.3 272.63 226.54 272.69 224.46Z" />
			<path id="Path 51" class="shp6" d="M307 233.15C315.27 268.88 313.57 277.5 310.5 281.48C307.27 285.68 302.19 287.86 301.98 287.95L300.98 285.58L301.48 286.76L300.98 285.58C301.02 285.56 305.65 283.56 308.46 279.91C310.68 277.03 312.68 269.11 304.49 233.73L307 233.15Z" />
			<path id="Path 52" class="shp1" d="M304.78 284.44L305.25 285.36C305.81 286.45 305.38 287.8 304.29 288.36L300.32 290.4C299.23 290.96 297.88 290.53 297.32 289.44L296.85 288.52C296.29 287.43 296.72 286.08 297.81 285.52L301.78 283.48C302.87 282.92 304.22 283.35 304.78 284.44Z" />
			<path id="Path 53" class="shp6" d="M283.84 233.33C276 259.84 273.86 274.41 277.1 279.2C279.7 283.03 284.19 285.28 284.23 285.3L283.09 287.61C282.88 287.5 277.95 285.03 274.97 280.64C271.11 274.95 272.96 261.03 281.37 232.6L283.84 233.33Z" />
			<path id="Path 54" class="shp1" d="M280.51 283.94L279.98 284.83C279.36 285.88 279.71 287.25 280.76 287.88L284.6 290.15C285.65 290.78 287.03 290.43 287.65 289.37L288.18 288.49C288.8 287.43 288.45 286.06 287.4 285.44L283.56 283.16C282.51 282.53 281.13 282.88 280.51 283.94Z" />
			<path id="Path 55" class="shp13" d="M351.28 184.66C351.28 184.66 370.07 191.18 375.87 196.26C381.67 201.35 412.49 260.81 411.41 264.8C410.32 268.79 388.57 285.83 372.25 284.02C355.93 282.21 351.28 184.66 351.28 184.66Z" />
			<path id="Path 56" class="shp7" d="M294.89 192.13C296.05 179.53 316.29 177.45 325.84 177.31C337.98 177.14 348.21 179.51 352.16 191.83C356.06 204 356.75 217.65 356.95 230.37C356.98 232.75 360.68 232.76 360.64 230.37C360.41 215.71 361.4 188.08 348.13 178.48C334.99 168.97 293.17 170.77 291.19 192.13C290.97 194.49 294.67 194.48 294.89 192.13Z" />
			<path id="Path 57" class="shp1" d="M367.28 237.36C367.28 242.05 363.48 245.85 358.79 245.85C354.11 245.85 350.31 242.05 350.31 237.36C350.31 232.67 354.11 228.87 358.79 228.87C363.48 228.87 367.28 232.67 367.28 237.36Z" />
			<path id="Path 58" class="shp6" d="M363.9 237.36C363.9 240.18 361.61 242.47 358.79 242.47C355.97 242.47 353.68 240.18 353.68 237.36C353.68 234.54 355.97 232.25 358.79 232.25C361.61 232.25 363.9 234.54 363.9 237.36Z" />
			<path id="Path 59" class="shp4" d="M298.88 186.83C302.51 190.29 306.27 193.59 310.26 196.57C314.25 199.51 318.47 202.3 323.16 203.7L322.76 203.71C327.36 201.83 331.78 199.36 335.94 196.59C338.04 195.22 340.03 193.69 341.94 192.07C343.9 190.49 345.64 188.67 347.37 186.83C344.37 190.91 340.59 194.4 336.48 197.37C332.35 200.35 327.92 202.84 323.21 204.86L323.02 204.94L322.82 204.88C320.34 204.12 318.06 202.96 315.88 201.67C313.7 200.38 311.64 198.9 309.69 197.31C305.77 194.15 302.14 190.64 298.88 186.83Z" />
			<path id="Path 60" class="shp1" d="M280.52 231.46C281.36 227.79 283.77 218.67 285.64 214.12C287.17 210.39 290.99 207.95 290.99 207.95C291.5 207.92 291.41 203.41 291.26 199.73C291.12 196.48 290.89 192.7 291.7 191.67C292.48 190.69 294.45 190.68 295.24 191.6C296.1 192.58 296.03 196.37 296.05 199.63C296.06 203.31 296.18 207.82 296.69 207.83C296.69 207.83 300.36 210.27 302.01 213.83C303.85 217.81 307.05 228.38 307.63 231.46C308.34 235.28 307.07 235.72 305.97 236.06C304.42 236.54 303.47 235.46 302.39 231.22C300.67 224.5 298.59 213.21 293.95 213.11L293.95 213.1C289.33 213.43 287.11 225.25 285.43 231.82C284.39 235.94 283.5 236.31 281.92 235.91C280.81 235.62 279.68 235.11 280.52 231.46Z" />
			<path id="Path 61" class="shp3" d="M376.13 283.77C375.11 278.71 374.37 273.62 373.67 268.53C372.94 263.44 372.4 258.33 371.86 253.22C371.39 248.11 370.91 242.99 370.63 237.86L370.21 230.16C370.16 227.59 370.03 225.02 370.05 222.44C370.59 224.96 370.95 227.51 371.41 230.04L372.51 237.68C373.24 242.76 373.78 247.87 374.32 252.98C374.79 258.09 375.27 263.21 375.55 268.34C375.86 273.47 376.13 278.6 376.13 283.77ZM376.13 224.46C376.19 226.54 375.57 228.3 374.79 229.98C373.94 231.62 372.93 233.18 371.24 234.41C371.18 232.32 371.8 230.56 372.58 228.89C373.43 227.25 374.44 225.69 376.13 224.46Z" />
			<path id="Path 62" class="shp4" d="M375.08 274.69C376.68 274.4 378.23 273.96 379.75 273.4C381.27 272.89 382.75 272.25 384.22 271.58C387.13 270.22 389.95 268.66 392.63 266.89C395.39 265.23 397.94 263.24 400.52 261.3C403.07 259.32 405.52 257.21 408.02 255.12C406.95 256.34 405.82 257.5 404.71 258.7C403.52 259.81 402.34 260.94 401.12 262.03C398.64 264.15 396.05 266.15 393.3 267.92C390.51 269.64 387.64 271.25 384.59 272.45C381.54 273.62 378.35 274.6 375.08 274.69ZM274.13 274.69C270.86 274.6 267.67 273.62 264.62 272.45C261.57 271.25 258.7 269.64 255.91 267.92C253.16 266.15 250.57 264.15 248.09 262.03C246.87 260.94 245.69 259.81 244.5 258.7C243.39 257.5 242.26 256.34 241.19 255.12C243.68 257.21 246.13 259.32 248.69 261.3C251.27 263.24 253.81 265.23 256.58 266.89C259.26 268.66 262.08 270.22 264.99 271.58C266.46 272.25 267.94 272.89 269.46 273.4C270.98 273.96 272.53 274.4 274.13 274.69ZM265.73 359.41C270.39 361.25 275.18 362.76 280.01 364.05C282.41 364.74 284.85 365.29 287.27 365.91L294.61 367.44C304.44 369.27 314.41 370.3 324.39 370.37C329.38 370.58 334.36 370.19 339.35 369.95C341.83 369.71 344.3 369.36 346.78 369.07L350.5 368.6L354.17 367.88C356.61 367.38 359.08 366.97 361.51 366.4L368.73 364.37C369.93 364.02 371.15 363.75 372.33 363.33L375.85 362.03L382.89 359.41C373.72 363.39 364.28 367.04 354.35 368.81L350.67 369.62C349.43 369.82 348.17 369.95 346.93 370.13C344.44 370.44 341.94 370.81 339.44 371.07C334.43 371.35 329.41 371.78 324.37 371.6C314.32 371.42 304.27 370.41 294.43 368.36C284.6 366.31 274.92 363.44 265.73 359.41Z" />
			<path id="Path 63" class="shp15" d="M349.05 321.8L290.36 326.16C285.85 326.5 281.92 323.11 281.59 318.6L275.54 237.28C275.21 232.77 278.59 228.84 283.1 228.51L341.79 224.14C346.3 223.81 350.23 227.19 350.56 231.7L356.61 313.03C356.94 317.54 353.56 321.46 349.05 321.8Z" />
			<path id="Path 64" class="shp6" d="M327.6 231.01L298.77 233.12C296.91 233.25 295.29 231.86 295.16 230L294.86 225.95C294.73 224.09 296.12 222.48 297.98 222.34L326.81 220.23C328.67 220.09 330.28 221.49 330.42 223.35L330.72 227.39C330.85 229.25 329.46 230.87 327.6 231.01ZM321.69 215.05L322.1 220.58L317.72 220.9L317.53 218.36C317.44 217.02 316.27 216.01 314.93 216.11L309.14 216.54C307.8 216.63 306.8 217.8 306.89 219.14L307.08 221.68L302.7 222L302.3 216.47C302.15 214.52 303.6 212.84 305.55 212.69L317.92 211.79C319.85 211.65 321.55 213.1 321.69 215.05Z" />
			<path id="Path 65" class="shp14" d="M338.84 301.03C338.74 301.06 338.66 301.08 338.57 301.11C332.7 302.98 326.99 304.66 321.45 306.13C270.45 319.8 234.51 317.86 232.32 311.8C230.52 306.9 237.32 282.56 241.19 269.58C247.1 274.8 258.5 282.04 269.2 283.77L267.25 289.6C271.83 289.09 277.18 288.67 282.45 288.32L282.47 288.32C285.01 288.15 287.5 287.98 289.89 287.85C299.13 287.36 322.99 286.66 322.99 286.66C339.84 289.54 338.84 301.03 338.84 301.03ZM322.52 305.87C323.58 305.74 337.69 306.98 341.25 306.15C344.8 305.31 355.44 302.09 355.98 299.32C356.32 297.55 355.39 297.41 355.39 297.41C355.39 297.41 356.4 297.11 356.65 295.92C356.89 294.72 356.05 294.13 356.05 294.13C356.05 294.13 358.06 292.77 357.52 290.53C357.23 289.35 354.92 288.79 354.92 288.79C354.92 288.79 357 287.41 355.94 285.98C354.74 284.35 343.01 287.06 342.74 286.75C340.99 284.7 351.69 287.45 351.28 284.55C351.14 283.57 338.82 277.95 333.58 280.91C329.18 283.39 319.68 286.76 319.68 286.76L322.52 305.87ZM400.03 369.42C399.98 370.58 405.04 385.08 404.42 389C403.8 392.91 400.66 403.02 398.85 403.74C397.04 404.46 397 403.2 397 403.2C397 403.2 394.42 409.1 393.15 409.46C391.87 409.82 391.49 409.18 391.49 409.18C391.49 409.18 388.93 412.01 387.61 411.92C386.29 411.82 385.63 408.38 385.63 408.38C385.63 408.38 384.38 410.6 382.66 409.71C381.39 409.05 383.23 391.32 382.86 391.05C380.5 389.32 382.99 401.42 379.81 401.2C378.74 401.13 373.71 388.6 376.49 382.7C378.83 377.74 382.29 369.19 382.29 369.19L400.03 369.42ZM341.01 182.81C337.7 190.89 323 196.26 323 196.26C323 196.26 308.27 190.89 304.99 182.81C304.62 181.93 310.53 179.59 310.53 177.25C310.53 176.38 310.36 172.32 310.16 167.52C309.84 159.39 309.37 149.21 309.37 149.21L336.62 149.21C336.62 149.21 336.15 159.56 335.78 167.74C335.59 172.44 335.44 176.41 335.44 177.25C335.44 179.59 341.38 181.93 341.01 182.81Z" />
			<path id="Path 66" class="shp16" d="M336.62 149.21C336.62 149.21 336.15 159.56 335.78 167.74C325.26 171.43 316.05 169.66 310.16 167.52C309.84 159.39 309.37 149.21 309.37 149.21L336.62 149.21Z" />
			<path id="Path 67" class="shp14" d="M271.75 103.62C271.75 103.62 265.44 96.15 256.93 101.99C246.99 108.81 252.33 135.49 275.9 127.19L271.75 103.62Z" />
			<path id="Path 68" class="shp17" d="M260.93 121.92C261.78 120.42 263.12 119.09 264.83 118.36C265.68 117.97 266.64 117.8 267.59 117.8C268.56 117.76 269.49 118.04 270.38 118.33L269.22 119.23C268.57 116.31 267.44 113.25 265.39 111.25C264.34 110.28 262.99 109.72 261.5 109.67C260.76 109.58 260.01 109.75 259.22 109.84C258.46 110 257.72 110.3 256.92 110.49C258.25 109.61 259.73 108.73 261.46 108.58C263.16 108.34 265.08 108.85 266.46 109.99C267.86 111.11 268.79 112.62 269.51 114.15C270.18 115.71 270.67 117.28 270.89 118.99L271.09 120.49L269.73 119.89C268.32 119.27 266.75 119.02 265.21 119.44C263.67 119.83 262.18 120.72 260.93 121.92Z" />
			<path id="Path 69" class="shp14" d="M374.23 103.62C374.23 103.62 380.54 96.15 389.05 101.99C398.98 108.81 393.65 135.49 370.08 127.19L374.23 103.62Z" />
			<path id="Path 70" class="shp17" d="M385.05 121.92C383.8 120.72 382.31 119.83 380.77 119.44C379.23 119.02 377.66 119.27 376.25 119.89L374.89 120.49L375.08 118.99C375.31 117.28 375.79 115.71 376.47 114.15C377.18 112.62 378.12 111.11 379.52 109.99C380.9 108.85 382.81 108.34 384.51 108.58C386.25 108.73 387.73 109.61 389.06 110.49C388.26 110.3 387.52 110 386.75 109.84C385.97 109.75 385.22 109.58 384.47 109.67C382.98 109.72 381.64 110.28 380.59 111.25C378.53 113.25 377.4 116.31 376.75 119.23L375.59 118.33C376.49 118.04 377.42 117.76 378.38 117.8C379.34 117.8 380.29 117.97 381.14 118.36C382.86 119.09 384.19 120.42 385.05 121.92Z" />
			<path id="Path 71" class="shp14" d="M365.35 144.27C350.27 161.42 323 161.33 323 161.33C323 161.33 295.72 161.42 280.62 144.27C264.34 125.74 260.72 71.1 274.45 53.72C287.19 37.6 307.77 33.44 323 33.44C338.2 33.44 358.78 37.6 371.52 53.72C385.25 71.1 381.66 125.74 365.35 144.27Z" />
			<path id="Path 72" class="shp11" d="M300.67 110.3C300.67 113.48 298.22 116.05 295.2 116.05C292.17 116.05 289.72 113.48 289.72 110.3C289.72 107.13 292.17 104.55 295.2 104.55C298.22 104.55 300.67 107.13 300.67 110.3ZM286.02 100.58C286.02 100.58 290.34 93.09 300.08 97.38M344.44 110.3C344.44 113.48 346.89 116.05 349.91 116.05C352.94 116.05 355.39 113.48 355.39 110.3C355.39 107.13 352.94 104.55 349.91 104.55C346.89 104.55 344.44 107.13 344.44 110.3ZM359.09 100.58C359.09 100.58 354.77 93.09 345.03 97.38" />
			<path id="Path 73" class="shp17" d="M324.67 96.05C323.71 102.12 323.49 108.19 323.45 114.26L324.67 113.04C322.17 113.05 319.66 113.08 317.15 113.2L315.51 113.28L316.17 114.67C316.63 115.63 317.18 116.39 317.78 117.18C318.38 117.95 319.07 118.65 319.82 119.27C321.33 120.51 323.23 121.33 325.12 121.32C323.34 120.69 321.92 119.6 320.78 118.28C320.21 117.61 319.72 116.89 319.27 116.15C318.82 115.42 318.43 114.58 318.13 113.86L317.15 115.33C319.66 115.44 322.17 115.48 324.67 115.49L325.91 115.5L325.9 114.26C325.86 108.19 325.63 102.12 324.67 96.05Z" />
			<path id="Path 74" class="shp18" d="M333.93 137.05C331.93 139.37 328.36 141.26 322.99 141.26C317.67 141.26 314.1 139.37 312.05 137.05C309.89 134.62 309.46 131.75 310.51 130.32C312.51 127.54 319.85 129.34 322.99 129.34C326.13 129.34 333.5 127.54 335.5 130.32C336.53 131.75 336.14 134.64 333.93 137.05Z" />
			<path id="Path 75" class="shp11" d="M265.98 104.56C267.88 110 275.58 83.77 275.9 77.7L277.54 89.57C277.54 89.57 305.09 85.35 333.94 59.22L333.94 70.04C333.94 70.04 352.23 70.57 365.7 57.64C365.7 57.64 373.61 104.23 379.15 104.56C384.7 104.88 391.3 53.59 371.24 47.87C371.24 47.87 360.64 16.3 307.83 25.93C258.76 34.88 257.6 80.47 265.98 104.56Z" />
			<path id="Path 76" class="shp19" d="M310.12 133.46C314.34 134.37 318.63 134.75 322.93 134.73C327.23 134.77 331.52 134.33 335.8 133.8C331.59 134.75 327.26 135.21 322.93 135.23C318.61 135.19 314.24 134.77 310.12 133.46Z" />
		</g>
		<g id="Folder 2">
			<path id="Path 77" class="shp0" d="M285.43 668.57C285.43 682.91 223.67 694.54 147.48 694.54C71.29 694.54 9.52 682.91 9.52 668.57C9.52 654.22 71.29 642.59 147.48 642.59C223.67 642.59 285.43 654.22 285.43 668.57Z" />
			<path id="Path 78" class="shp10" d="M106.64 637.4L106.64 646.33C106.64 646.33 69.7 659.83 65.56 666.8C61.43 673.77 132.42 658.31 132.42 652.1L132.42 637.4L106.64 637.4ZM189.79 637.4L189.79 646.33C189.79 646.33 226.73 659.83 230.87 666.8C235 673.77 164.01 658.31 164.01 652.1L164.01 637.4L189.79 637.4Z" />
			<path id="Path 79" class="shp1" d="M211.36 374.84C211.36 374.84 211.07 384.57 210.61 400.37C210.55 402.04 210.52 403.77 210.47 405.58C208.39 476.13 203.3 643.81 201.86 645.71C200.08 648.15 164.56 649.76 159.72 645.71C154.89 641.68 152.13 431.95 152.13 431.95L144.93 431.95C144.93 431.95 141.33 644.67 140.04 645.33C138.71 645.97 112.38 651.92 98.1 644.61C91.77 641.33 87.17 475.58 85.5 405.55C85.44 403.45 85.41 401.47 85.35 399.54C84.98 384.26 84.81 374.84 84.81 374.84L211.36 374.84Z" />
			<path id="Path 80" class="shp6" d="M234.85 456.39C234.45 461.1 180.5 476.49 154.86 476.49C152.1 476.49 148.57 456.13 148.57 456.13C148.57 456.13 145.05 476.49 142.29 476.49C116.65 476.49 62.69 461.1 62.3 456.39C61.91 451.66 86.12 218.17 86.82 210.83C87.52 203.49 118.68 179.67 118.68 179.67L148.57 182.8L178.49 179.67C178.49 179.67 209.63 203.49 210.33 210.83C211.03 218.17 235.24 451.66 234.85 456.39Z" />
			<path id="Path 81" class="shp13" d="M166.8 179.38L148.83 286.96L135.83 209.21L135.81 209.18L130.84 179.38L166.8 179.38Z" />
			<path id="Path 82" class="shp20" d="M148.08 275.98L148.08 332.27C147.29 302.98 124.19 245.49 109.62 226.41C106.34 222.1 118.67 206.31 118.67 206.31C118.67 206.31 102.3 205.39 100.42 202.81C100.07 202.33 100.49 201.25 101.36 199.81C105.26 193.36 118.67 179.67 118.67 179.67L128.25 187.25C141.27 211.66 146.33 246.55 148.08 275.98ZM149.43 275.98L149.43 332.27C150.22 302.98 173.33 245.49 187.89 226.41C191.18 222.1 178.84 206.31 178.84 206.31C178.84 206.31 195.21 205.39 197.1 202.81C197.45 202.33 197.03 201.25 196.15 199.81C192.25 193.36 178.84 179.67 178.84 179.67L169.27 187.25C156.25 211.66 151.19 246.55 149.43 275.98ZM148.57 456.13C148.12 445.46 147.91 434.79 147.74 424.12C147.55 413.45 147.57 402.77 147.48 392.1C147.57 381.43 147.56 370.76 147.73 360.09L148.04 344.08C148.22 338.75 148.32 333.41 148.57 328.08C148.82 333.41 148.93 338.75 149.11 344.08L149.42 360.09C149.59 370.76 149.58 381.43 149.67 392.1C149.58 402.77 149.59 413.45 149.41 424.12C149.24 434.79 149.03 445.46 148.57 456.13Z" />
			<path id="Path 83" class="shp6" d="M100.3 194.91C100.3 194.91 69.36 222.53 67.93 233.17C66.5 243.81 41.36 348.22 41.34 355.04C41.28 373.67 76.02 419.61 76.02 419.61C76.02 419.61 92.19 406.53 97 389.94C97 389.94 74.3 353.18 74.4 344.78C74.43 342.07 100.3 194.91 100.3 194.91ZM197.2 194.91C197.2 194.91 228.14 222.53 229.57 233.17C230.99 243.81 256.13 348.22 256.16 355.04C256.22 373.67 221.47 419.61 221.47 419.61C221.47 419.61 205.31 406.53 200.5 389.94C200.5 389.94 223.19 353.18 223.1 344.78C223.07 342.07 197.2 194.91 197.2 194.91Z" />
			<path id="Path 84" class="shp20" d="M98.41 381.97C98.6 386.33 97.7 390.72 96.22 394.85C94.76 399.01 92.65 402.93 90.12 406.53C85 413.71 78.16 419.57 70.47 423.61C77.2 418.12 83.43 412.23 88.33 405.27C90.8 401.82 92.9 398.11 94.64 394.22C96.32 390.33 97.75 386.26 98.41 381.97ZM198.74 381.97C199.41 386.26 200.84 390.32 202.53 394.22C204.26 398.1 206.38 401.79 208.81 405.27C210.1 406.95 211.3 408.71 212.75 410.27C213.45 411.07 214.1 411.93 214.84 412.69L217.07 414.98C218.52 416.56 220.2 417.9 221.74 419.41C223.34 420.85 225.06 422.14 226.68 423.61C224.79 422.55 222.92 421.43 221.08 420.25C219.36 418.93 217.5 417.74 215.91 416.23C212.55 413.41 209.65 410.06 207.02 406.54C204.53 402.9 202.41 399 200.94 394.84C199.47 390.71 198.56 386.33 198.74 381.97Z" />
			<path id="Path 85" class="shp21" d="M166.8 179.38L161.82 209.18L161.8 209.21C161.8 209.21 152.18 202.46 148.83 193.32C145.45 202.46 135.83 209.21 135.83 209.21L135.81 209.18L130.84 179.38L166.8 179.38Z" />
			<path id="Path 86" class="shp1" d="M158.42 229.58L148.85 286.96L148.83 271.97L148.83 286.96L139.24 229.66L145.21 196.83L148.83 196.83L148.85 196.83L152.44 196.83L158.42 229.58Z" />
			<path id="Path 87" class="shp6" d="M148.08 332.28C148.08 292.17 128.71 243.46 113.04 223.65C113 223.61 112.98 223.56 112.95 223.5C112.49 222.53 113.39 219.99 114.79 216.99C117.73 210.79 122.86 202.66 122.86 202.66C122.86 202.66 106.97 202.02 101.36 199.81C100.24 199.37 99.52 198.89 99.41 198.32C98.73 194.9 118.92 175.29 119.77 175.24C120.25 175.22 120.82 175.7 120.82 175.7C123.54 179.19 126.01 183.07 128.25 187.25C141.27 211.66 146.33 246.55 148.08 275.98C149.94 307.18 148.08 332.28 148.08 332.28ZM176.66 175.71C176.66 175.71 177.24 175.21 177.7 175.24C178.58 175.29 198.75 194.89 198.06 198.31C197.38 201.73 174.63 202.65 174.63 202.65C174.63 202.65 186.34 221.25 184.44 223.65C168.76 243.45 149.39 292.16 149.39 332.27C149.39 332.27 141.19 221.08 176.66 175.71Z" />
			<path id="Path 88" class="shp7" d="M132.72 224.28C140.72 258.85 139.07 267.18 136.1 271.04C132.97 275.1 128.07 277.21 127.86 277.3L126.89 275L127.37 276.15L126.89 275C126.93 274.98 131.41 273.05 134.13 269.52C136.28 266.73 138.21 259.07 130.29 224.84L132.72 224.28Z" />
			<path id="Path 89" class="shp1" d="M130.6 273.97L130.99 274.72C131.55 275.81 131.12 277.16 130.03 277.72L126.32 279.63C125.23 280.19 123.88 279.76 123.32 278.67L122.93 277.91C122.37 276.82 122.8 275.47 123.89 274.91L127.6 273C128.69 272.44 130.04 272.88 130.6 273.97Z" />
			<path id="Path 90" class="shp7" d="M110.31 224.46C102.73 250.1 100.66 264.2 103.79 268.83C106.31 272.53 110.65 274.71 110.69 274.73L109.59 276.96C109.38 276.87 104.61 274.47 101.73 270.23C97.99 264.72 99.79 251.25 107.92 223.75L110.31 224.46Z" />
			<path id="Path 91" class="shp1" d="M107.05 273.48L106.62 274.21C105.99 275.27 106.34 276.64 107.4 277.26L110.98 279.39C112.04 280.02 113.41 279.66 114.04 278.61L114.47 277.88C115.1 276.82 114.75 275.45 113.69 274.83L110.1 272.7C109.05 272.07 107.68 272.42 107.05 273.48Z" />
			<path id="Path 92" class="shp7" d="M121 184.6C122.13 172.41 141.71 170.4 150.94 170.27C162.69 170.1 172.58 172.4 176.4 184.32C180.17 196.09 180.84 209.29 181.03 221.6C181.07 223.9 184.64 223.9 184.61 221.6C184.38 207.41 185.34 180.69 172.5 171.4C159.79 162.2 119.33 163.95 117.42 184.6C117.21 186.89 120.79 186.88 121 184.6Z" />
			<path id="Path 93" class="shp1" d="M191.03 228.36C191.03 232.89 187.35 236.57 182.82 236.57C178.28 236.57 174.61 232.89 174.61 228.36C174.61 223.82 178.28 220.15 182.82 220.15C187.35 220.15 191.03 223.82 191.03 228.36Z" />
			<path id="Path 94" class="shp6" d="M187.76 228.36C187.76 231.09 185.55 233.3 182.82 233.3C180.09 233.3 177.88 231.09 177.88 228.36C177.88 225.63 180.09 223.41 182.82 223.41C185.55 223.41 187.76 225.63 187.76 228.36Z" />
			<path id="Path 95" class="shp1" d="M107.1 222.65C107.91 219.09 110.25 210.28 112.05 205.88C113.54 202.27 117.23 199.91 117.23 199.91C117.72 199.88 117.64 195.52 117.49 191.95C117.36 188.81 117.14 185.15 117.92 184.16C118.68 183.21 120.57 183.2 121.34 184.09C122.17 185.04 122.11 188.71 122.12 191.86C122.13 195.42 122.25 199.78 122.74 199.79C122.74 199.79 126.3 202.15 127.89 205.6C129.67 209.44 132.77 219.67 133.32 222.65C134.01 226.35 132.79 226.77 131.73 227.1C130.22 227.56 129.3 226.52 128.25 222.42C126.59 215.92 124.58 205 120.09 204.9L120.09 204.89C115.63 205.21 113.48 216.64 111.86 223C110.84 226.98 109.98 227.34 108.46 226.95C107.38 226.67 106.28 226.18 107.1 222.65Z" />
			<path id="Path 96" class="shp22" d="M90.04 250.36L87.13 268.43L84.06 286.47C82.02 298.49 79.82 310.49 77.89 322.52C76.87 328.52 75.83 334.54 75.09 340.54L74.85 342.78C74.84 343.47 74.76 344.07 74.87 344.74C75.07 345.38 75.3 346.05 75.62 346.75C75.89 347.44 76.2 348.13 76.51 348.82L80.37 357.08L96.46 389.94C90.34 379.38 84.48 368.68 78.86 357.83C77.46 355.12 76.06 352.4 74.79 349.61C74.46 348.91 74.14 348.21 73.84 347.49C73.53 346.8 73.24 346.04 72.98 345.22C72.82 344.41 72.87 343.45 72.88 342.64L73.11 340.33C73.8 334.21 74.76 328.19 75.73 322.16C77.84 310.13 80.01 298.13 82.41 286.16C84.8 274.2 87.28 262.25 90.04 250.36ZM93.07 256.98C92.68 258.37 91.93 259.43 91.08 260.4C90.2 261.35 89.23 262.21 87.88 262.73C88.26 261.33 89.02 260.28 89.86 259.3C90.75 258.36 91.73 257.5 93.07 256.98ZM207.26 250.36C210.02 262.25 212.49 274.2 214.89 286.16C217.29 298.13 219.46 310.13 221.57 322.16C222.54 328.19 223.5 334.21 224.19 340.33L224.42 342.64C224.43 343.45 224.47 344.41 224.31 345.22C224.06 346.04 223.77 346.8 223.45 347.49C223.15 348.21 222.84 348.91 222.51 349.61C221.24 352.4 219.84 355.12 218.44 357.83C212.82 368.68 206.96 379.38 200.84 389.94L216.93 357.08L220.78 348.82C221.1 348.13 221.4 347.44 221.68 346.75C221.99 346.05 222.23 345.38 222.43 344.74C222.53 344.07 222.45 343.47 222.45 342.78L222.21 340.54C221.47 334.54 220.43 328.52 219.41 322.52C217.48 310.49 215.28 298.49 213.24 286.47L210.17 268.43L207.26 250.36ZM204.23 256.98C205.57 257.5 206.55 258.36 207.43 259.3C208.28 260.28 209.04 261.33 209.42 262.73C208.07 262.21 207.1 261.35 206.21 260.4C205.37 259.43 204.61 258.37 204.23 256.98Z" />
			<path id="Path 97" fill-rule="evenodd" class="shp20" d="M170.95 291.34C176.75 291.59 182.54 291.67 188.32 291.49C194.1 291.39 199.87 291.07 205.62 290.51L206.47 290.43L206.52 291.31C207 300.05 207.27 308.8 207.66 317.55L207.79 320.83L207.86 322.47L207.89 323.29C207.89 323.39 207.92 323.35 207.87 323.64C207.84 323.84 207.74 324.12 207.68 324.19C207.53 324.44 207.38 324.63 207.25 324.74C206.2 325.71 205.25 326.18 204.24 326.72C203.24 327.24 202.24 327.71 201.23 328.16C197.18 329.96 193.13 331.55 188.91 332.97C188.63 333.06 188.41 333.14 188.02 333.23C187.81 333.27 187.5 333.24 187.24 333.21C187.01 333.17 186.92 333.12 186.75 333.08C186.14 332.9 185.64 332.69 185.12 332.48C184.07 332.06 183.08 331.6 182.07 331.14C180.07 330.21 178.1 329.24 176.16 328.22C175.19 327.69 174.22 327.16 173.27 326.61L171.83 325.74C171.35 325.41 170.91 325.18 170.33 324.58C169.87 323.61 169.97 323.11 169.88 322.54L169.81 320.86C169.79 319.76 169.77 318.66 169.79 317.56C169.85 308.8 170.36 300.07 170.95 291.34ZM170.95 291.34C170.97 294.34 170.98 297.34 170.99 300.34C173.83 300.7 176.67 300.9 179.51 301.02C182.46 301.15 185.4 301.22 188.35 301.16C193.91 301.15 199.47 300.75 205.06 300.37C204.98 297.66 204.91 294.94 204.86 292.23C199.35 292.55 193.83 292.67 188.32 292.56C182.51 292.37 176.71 292.08 170.95 291.34ZM171.17 317.55C171.2 318.63 171.25 319.72 171.31 320.8L171.43 322.4L171.53 323.16C171.56 323.5 171.62 323.39 171.57 323.56C171.76 323.73 172.27 324.07 172.71 324.32L174.11 325.1C175.06 325.61 176.03 326.1 177 326.58C178.94 327.56 180.89 328.51 182.87 329.4C183.86 329.84 184.85 330.28 185.84 330.66C186.33 330.85 186.84 331.05 187.29 331.17C187.38 331.2 187.55 331.26 187.58 331.26C187.6 331.23 187.56 331.29 187.62 331.28L188.3 331.07C192.35 329.65 196.42 328.01 200.34 326.21C201.32 325.76 202.29 325.29 203.23 324.79C204.13 324.3 205.15 323.75 205.71 323.23C205.72 323.22 205.73 323.21 205.74 323.2L205.72 322.44L205.67 320.81L205.57 317.54C205.42 311.86 205.22 306.19 205.06 300.51C202.48 301.03 199.87 301.43 197.25 301.71C194.3 302.05 191.33 302.17 188.36 302.26C185.39 302.23 182.41 302.17 179.45 301.86C176.6 301.56 173.75 301.16 170.99 300.39C171.01 306.12 171.05 311.84 171.17 317.55ZM205.74 323.2L205.74 323.26C205.74 323.26 205.74 323.27 205.74 323.28C205.76 323.2 205.82 323.12 205.79 323.14C205.8 323.13 205.79 323.15 205.74 323.2ZM205.74 323.32C205.75 323.46 205.75 323.34 205.74 323.28C205.74 323.29 205.74 323.31 205.74 323.32ZM204.86 292.23C205.16 292.21 205.46 292.2 205.75 292.18L204.85 291.38C204.85 291.66 204.86 291.95 204.86 292.23Z" />
			<path id="Path 98" class="shp1" d="M177.38 291.36C177.38 291.36 179.86 292.55 182.93 291.36C182.93 291.36 183.27 274.78 180.15 274.78C177.25 274.78 177.38 291.36 177.38 291.36ZM180.16 281.44C181.03 284.59 181.22 287.73 181.26 290.87C181.22 294.02 181.03 297.16 180.16 300.3C179.29 297.16 179.1 294.02 179.07 290.87C179.1 287.73 179.3 284.59 180.16 281.44Z" />
			<path id="Path 99" class="shp12" d="M185.58 291.36C185.58 291.36 188.06 292.55 191.13 291.36C191.13 291.36 191.47 274.78 188.35 274.78C185.45 274.78 185.58 291.36 185.58 291.36ZM188.36 281.44C189.22 284.59 189.42 287.73 189.45 290.87C189.42 294.02 189.23 297.16 188.36 300.3C187.49 297.16 187.3 294.02 187.26 290.87C187.3 287.73 187.5 284.59 188.36 281.44Z" />
			<path id="Path 100" class="shp23" d="M166.79 173.14C163.5 181.21 148.82 186.56 148.82 186.56C148.82 186.56 134.13 181.21 130.86 173.14C130.49 172.26 136.39 169.92 136.39 167.59C136.39 166.73 136.21 162.67 136.02 157.88C135.7 149.77 135.23 139.62 135.23 139.62L162.42 139.62C162.42 139.62 161.95 149.94 161.58 158.1C161.38 162.8 161.24 166.75 161.24 167.59C161.24 169.92 167.16 172.26 166.79 173.14Z" />
			<path id="Path 101" class="shp24" d="M162.42 139.62C162.42 139.62 161.95 149.94 161.58 158.1C151.09 161.79 141.89 160.02 136.02 157.88C135.7 149.77 135.23 139.62 135.23 139.62L162.42 139.62Z" />
			<path id="Path 102" class="shp23" d="M97.69 94.12C97.69 94.12 91.39 86.67 82.9 92.5C72.99 99.3 78.31 125.92 101.83 117.64L97.69 94.12Z" />
			<path id="Path 103" class="shp25" d="M86.9 112.39C87.75 110.88 89.08 109.56 90.79 108.83C91.64 108.44 92.59 108.27 93.54 108.28C94.51 108.24 95.43 108.51 96.33 108.81L95.17 109.7C94.52 106.79 93.4 103.74 91.35 101.73C90.3 100.77 88.95 100.21 87.47 100.16C86.72 100.07 85.97 100.24 85.19 100.33C84.43 100.49 83.69 100.79 82.89 100.98C84.22 100.1 85.69 99.22 87.43 99.07C89.12 98.83 91.03 99.34 92.41 100.48C93.81 101.6 94.74 103.1 95.45 104.63C96.13 106.19 96.61 107.76 96.84 109.46L97.03 110.96L95.68 110.36C94.27 109.74 92.7 109.49 91.16 109.91C89.63 110.3 88.14 111.19 86.9 112.39Z" />
			<path id="Path 104" class="shp23" d="M199.94 94.12C199.94 94.12 206.24 86.67 214.73 92.5C224.64 99.3 219.32 125.92 195.8 117.64L199.94 94.12Z" />
			<path id="Path 105" class="shp25" d="M210.74 112.39C209.49 111.19 208.01 110.3 206.47 109.91C204.93 109.49 203.37 109.74 201.96 110.36L200.6 110.96L200.8 109.46C201.02 107.76 201.51 106.19 202.18 104.63C202.89 103.1 203.82 101.6 205.22 100.48C206.6 99.34 208.51 98.83 210.21 99.07C211.94 99.22 213.41 100.1 214.74 100.98C213.94 100.79 213.21 100.49 212.44 100.33C211.66 100.24 210.91 100.07 210.17 100.16C208.68 100.21 207.34 100.77 206.29 101.73C204.24 103.74 203.11 106.79 202.47 109.7L201.31 108.81C202.2 108.51 203.13 108.24 204.09 108.28C205.04 108.27 206 108.44 206.84 108.83C208.55 109.56 209.89 110.88 210.74 112.39Z" />
			<path id="Path 106" class="shp23" d="M191.08 134.69C176.04 151.8 148.83 151.71 148.83 151.71C148.83 151.71 121.61 151.8 106.54 134.69C90.29 116.19 86.69 61.68 100.38 44.33C113.1 28.26 133.63 24.1 148.83 24.1C164 24.1 184.53 28.26 197.24 44.33C210.94 61.68 207.36 116.19 191.08 134.69Z" />
			<path id="Path 107" class="shp11" d="M126.54 100.79C126.54 103.96 124.1 106.53 121.09 106.53C118.07 106.53 115.63 103.96 115.63 100.79C115.63 97.63 118.07 95.06 121.09 95.06C124.1 95.06 126.54 97.63 126.54 100.79Z" />
			<path id="Path 108" class="shp15" d="M111.93 86.7C111.93 86.7 116.24 79.24 125.96 83.52" />
			<path id="Path 109" class="shp11" d="M170.22 100.79C170.22 103.96 172.67 106.53 175.68 106.53C178.7 106.53 181.14 103.96 181.14 100.79C181.14 97.63 178.7 95.06 175.68 95.06C172.67 95.06 170.22 97.63 170.22 100.79Z" />
			<path id="Path 110" class="shp15" d="M184.84 86.7C184.84 86.7 180.53 79.24 170.81 83.52" />
			<path id="Path 111" class="shp25" d="M148.83 86.58C149.79 92.63 150.01 98.69 150.05 104.75L148.83 103.52C151.33 103.53 153.83 103.57 156.33 103.69L157.97 103.76L157.31 105.15C156.85 106.11 156.3 106.87 155.71 107.66C155.11 108.43 154.41 109.12 153.66 109.74C152.16 110.98 150.26 111.8 148.38 111.79C150.15 111.16 151.58 110.08 152.71 108.75C153.28 108.09 153.77 107.37 154.22 106.63C154.67 105.9 155.06 105.07 155.35 104.34L156.33 105.81C153.83 105.92 151.33 105.96 148.83 105.97L147.59 105.98L147.6 104.75C147.65 98.69 147.87 92.63 148.83 86.58Z" />
			<path id="Path 112" class="shp11" d="M136.66 119.22C138.7 121.87 140.9 124.09 143.64 125.13C144.98 125.65 146.43 126 147.97 125.98C148.74 126.07 149.51 125.91 150.32 125.92C151.12 125.86 151.91 125.71 152.78 125.69C152.09 126.16 151.35 126.6 150.58 126.97C149.77 127.22 148.97 127.62 148.1 127.69C146.37 128.07 144.51 127.78 142.82 127.17C141.14 126.48 139.66 125.34 138.62 123.93C137.58 122.53 136.85 120.92 136.66 119.22Z" />
			<path id="Path 113" class="shp26" d="M128.99 113.17L113.18 113.17C108.27 113.17 104.29 109.19 104.29 104.28L104.29 99.91C104.29 95 108.27 91.02 113.18 91.02L128.99 91.02C133.9 91.02 137.88 95 137.88 99.91L137.88 104.28C137.88 109.19 133.9 113.17 128.99 113.17ZM183.59 113.17L167.77 113.17C162.86 113.17 158.88 109.19 158.88 104.28L158.88 99.91C158.88 95 162.86 91.02 167.77 91.02L183.59 91.02C188.5 91.02 192.48 95 192.48 99.91L192.48 104.28C192.48 109.19 188.5 113.17 183.59 113.17Z" />
			<path id="Path 114" fill-rule="evenodd" class="shp1" d="M128.14 114.26L114.03 114.26C108.05 114.26 103.19 109.4 103.19 103.43L103.19 100.77C103.19 100.48 103.2 100.19 103.23 99.91L89.42 92.04L90.5 90.13L103.65 97.63C105 93.18 109.14 89.93 114.03 89.93L128.14 89.93C133.52 89.93 138 93.87 138.84 99.01C142.07 97.47 149.91 94.67 157.94 98.94C158.81 93.83 163.27 89.93 168.63 89.93L182.74 89.93C187.63 89.93 191.77 93.18 193.12 97.63L206.26 90.13L207.35 92.04L193.54 99.91C193.57 100.19 193.58 100.48 193.58 100.77L193.58 103.43C193.58 109.4 188.72 114.26 182.74 114.26L168.63 114.26C162.65 114.26 157.79 109.4 157.79 103.43L157.79 101.37C149.42 96.32 141.08 100.24 138.98 101.39L138.98 103.43C138.98 109.4 134.12 114.26 128.14 114.26ZM114.03 92.12C109.26 92.12 105.38 96 105.38 100.77L105.38 103.43C105.38 108.19 109.26 112.07 114.03 112.07L128.14 112.07C132.91 112.07 136.79 108.19 136.79 103.43L136.79 100.77C136.79 96 132.91 92.12 128.14 92.12L114.03 92.12ZM168.63 92.12C163.86 92.12 159.98 96 159.98 100.77L159.98 103.43C159.98 108.19 163.86 112.07 168.63 112.07L182.74 112.07C187.51 112.07 191.39 108.19 191.39 103.43L191.39 100.77C191.39 96 187.51 92.12 182.74 92.12L168.63 92.12Z" />
			<path id="Path 115" class="shp15" d="M191.77 54.1C191.77 54.1 194.05 95.06 203.11 95.06C210.39 95.06 209.39 54.1 209.39 54.1L191.77 54.1ZM95.15 95.06C101.17 95.06 103.07 63.24 103.07 63.24C103.07 63.24 131.34 74.55 159.02 70.68L143.55 63.24C143.55 63.24 186.44 77.36 221.07 52.14L205.79 46.36C205.79 46.36 189.23 18.22 157.96 15.78C142.61 14.58 118.94 14.42 101.5 37.1C101.5 37.1 89.7 40.64 86.42 50.58C81.69 64.88 87.83 95.06 95.15 95.06Z" />
			<path id="Path 116" class="shp1" d="M157.91 184.68L155.1 194.05C154.6 195.75 153.04 196.91 151.27 196.91L146.39 196.91C144.62 196.91 143.06 195.75 142.55 194.05L139.74 184.68C138.97 182.11 140.89 179.53 143.58 179.53L154.08 179.53C156.76 179.53 158.68 182.11 157.91 184.68Z" />
			<path id="Path 117" class="shp13" d="M148.83 179.5C148.83 179.5 133.28 170.47 131.71 170.01C130.14 169.55 121.47 175.98 121.47 175.98C121.47 175.98 131.47 198.17 134.06 198.17C136.64 198.17 148.83 179.5 148.83 179.5ZM148.74 179.5C148.74 179.5 164.29 170.47 165.86 170.01C167.43 169.55 176.1 175.98 176.1 175.98C176.1 175.98 166.1 198.17 163.51 198.17C160.93 198.17 148.74 179.5 148.74 179.5Z" />
		</g>
		<g id="Folder 2" style="display: none">
			<path id="Path 118" class="shp0" d="M757.83 555.73C757.83 566.78 710.24 575.74 651.54 575.74C592.84 575.74 545.25 566.78 545.25 555.73C545.25 544.67 592.84 535.71 651.54 535.71C710.24 535.71 757.83 544.67 757.83 555.73Z" />
			<path id="Path 119" class="shp1" d="M629.94 537.53L629.83 544.7C629.83 544.7 600.01 555.07 596.6 560.61C593.19 566.15 650.37 554.64 650.45 549.66C650.53 544.68 650.64 537.86 650.64 537.86L629.94 537.53ZM682.26 548.54L682.15 555.71C682.15 555.71 710.01 574.66 708.87 581.06C706.64 593.65 661.31 564.99 661.38 560.01C661.46 555.03 661.57 548.21 661.57 548.21L682.26 548.54Z" />
			<path id="Path 120" class="shp2" d="M696.62 549.75C693.22 554.43 659.66 555.87 656.18 549.11C655.62 548.03 654.7 541.29 654.7 541.29C654.7 541.29 640.7 547.59 623.46 540.37C621.94 539.74 604.24 413.06 595.77 351.74C595.53 350.09 595.31 348.49 595.1 346.95C592.78 330.06 591.28 319.21 591.28 319.21L691.83 320.8C691.83 320.8 692.37 335.28 693.1 356.94C693.16 358.87 693.22 360.87 693.29 362.9C695.48 428.1 699.09 546.37 696.62 549.75Z" />
			<path id="Path 121" class="shp3" d="M693.1 356.94C642.73 368.61 610.9 356.47 595.1 346.95C592.78 330.06 591.29 319.21 591.29 319.21L691.83 320.8C691.83 320.8 692.37 335.28 693.1 356.94Z" />
			<path id="Path 122" class="shp2" d="M628.92 165.16C628.92 165.16 623.4 251.84 608.85 253.24C606.26 253.48 603.53 253.19 600.75 252.54C591.36 250.28 581.78 243.67 577.14 239.21C575.52 237.65 574.49 236.36 574.3 235.59C573.4 232.03 601.64 179.57 606.87 175.14C612.11 170.68 628.92 165.16 628.92 165.16ZM696.29 341.69C695.78 343.44 692.33 345.6 686.86 347.62C686.2 347.85 685.59 343.3 684.94 338.62C684.25 333.7 683.52 328.61 682.73 328.86C682.16 329.02 681.52 334.47 680.84 339.81C680.24 344.9 679.61 349.89 679.02 350.03C668.94 352.66 655.52 354.62 641.54 354.39C610.45 353.9 588.47 345.03 587.19 339.97C587.03 339.31 587.24 336.83 587.74 332.96C589.47 319.2 594.55 287.59 597.36 255.71C597.66 252.14 591.2 237.81 593.06 228.55C596.34 212.3 608.13 191.79 614.96 182.5C618.79 177.3 626.76 162.57 644.57 162.85C658.31 163.07 679.47 174.82 682.07 180.71C684.4 185.88 694.85 303.73 696.25 334.53C696.42 338.56 696.45 341.11 696.29 341.69ZM667.61 171.36C667.61 171.36 684.23 177.42 689.32 182.02C694.41 186.62 721.52 239.73 719.95 245.82C719.03 249.38 699.35 261.86 684.86 260.02C670.37 258.18 667.61 171.36 667.61 171.36Z" />
			<path id="Path 123" class="shp4" d="M696.4 334.46C694.67 335.56 692.78 336.34 690.86 337.06C688.94 337.73 686.98 338.34 684.94 338.62C686.72 337.52 688.58 336.74 690.48 336.03C692.39 335.36 694.32 334.78 696.4 334.46ZM680.84 339.8C673.21 342.04 665.36 343.78 657.39 344.47C649.42 345.19 641.39 345.26 633.41 344.61C625.44 343.86 617.52 342.6 609.77 340.64C602.03 338.67 594.39 336.18 587.2 332.73C594.65 335.54 602.31 337.71 610.06 339.41C617.81 341.1 625.65 342.36 633.55 342.98C641.44 343.75 649.38 343.66 657.28 343.22L663.21 342.74C665.18 342.53 667.14 342.19 669.11 341.93L672.06 341.54L674.98 340.96L680.84 339.8Z" />
			<path id="Path 124" class="shp3" d="M597.01 251.4C594.56 246.67 592.81 241.55 591.96 236.22C591.51 233.56 591.41 230.83 591.65 228.1C591.87 225.35 592.8 222.71 593.73 220.22C595.75 215.24 598.12 210.46 600.66 205.78C603.24 201.11 605.94 196.52 608.93 192.1C606.54 196.86 604.12 201.59 601.78 206.36C599.48 211.13 597.12 215.89 595.26 220.82C594.29 223.28 593.39 225.69 593.14 228.27C592.84 230.84 592.96 233.45 593.21 236.05C593.47 238.66 593.98 241.26 594.65 243.81C595.27 246.38 596.09 248.91 597.01 251.4ZM604.64 192.04C605.04 193.35 605.12 194.67 605.12 195.98C605.08 197.29 604.96 198.6 604.51 199.9C604.1 198.58 604.03 197.27 604.03 195.96C604.07 194.65 604.19 193.34 604.64 192.04ZM690.59 260.18C687.73 260.5 684.74 260.3 681.97 259.2C680.6 258.65 679.29 257.81 678.32 256.62C677.34 255.43 676.75 253.96 676.51 252.46L673.78 235.34C672.9 229.63 672.14 223.9 671.35 218.17C670.64 212.43 669.92 206.7 669.41 200.93C670.65 206.59 671.66 212.28 672.67 217.97C673.59 223.68 674.55 229.38 675.36 235.11C676.14 240.83 676.98 246.56 677.54 252.31C677.79 255.08 679.65 257.46 682.23 258.63C684.78 259.85 687.72 260.23 690.59 260.18ZM665.42 205.14C666.81 205.71 667.83 206.61 668.76 207.6C669.66 208.62 670.46 209.72 670.89 211.17C669.5 210.6 668.48 209.69 667.55 208.7C666.66 207.68 665.85 206.58 665.42 205.14Z" />
			<path id="Path 125" class="shp4" d="M716.98 236.22C714.58 239.03 711.55 241.24 708.39 243.13C705.2 245.02 701.77 246.46 698.28 247.67C694.73 248.73 691.12 249.6 687.46 250.02C685.63 250.3 683.78 250.33 681.95 250.48C680.1 250.51 678.26 250.48 676.43 250.43C680.1 250.13 683.74 249.83 687.33 249.19C690.93 248.6 694.48 247.75 697.94 246.63C701.4 245.52 704.76 244.1 707.97 242.4C711.18 240.68 714.27 238.7 716.98 236.22Z" />
			<path id="Path 126" class="shp27" d="M602.32 347.29C602.33 346.76 602.04 345.79 601.54 344.45C600.93 342.92 600.04 340.91 598.91 338.55C597.6 335.77 595.96 332.48 594.2 328.9C592.82 326.14 591.33 323.18 589.85 320.15C583.67 307.72 577.11 294.02 575.05 285.84C572.28 274.9 577.7 248.75 578.42 240.39C583.07 244.35 586.7 247.19 596.35 251.18C596.91 251.71 597.36 255.14 597.36 255.14C597.36 255.14 595.13 275.94 595.1 277.43C595.08 278.59 600.91 292.41 607.19 307.04L608.88 310.96C610.49 314.74 612.12 318.49 613.68 322.02C615.31 325.79 616.83 329.33 618.14 332.35C619.45 335.37 620.58 337.91 621.36 339.74C622.12 341.51 622.58 342.61 622.67 342.85C623.38 344.92 602.25 351.93 602.32 347.29ZM601.81 345.23C602.14 346.3 603.57 361.04 605.1 364.53C606.64 368.03 612.04 376.68 613.9 376.91C615.77 377.13 615.49 375.95 615.49 375.95C615.49 375.95 619.34 380.82 620.62 380.84C621.89 380.86 622.09 380.18 622.09 380.18C622.09 380.18 625.17 382.18 626.38 381.77C627.58 381.37 627.36 377.99 627.36 377.99C627.36 377.99 629.07 379.75 630.45 378.5C631.47 377.58 625.42 361.51 625.7 361.17C627.47 358.98 628.11 370.86 631.02 369.88C632 369.55 633.62 356.65 629.59 351.83C626.19 347.78 621.66 340.46 621.66 340.46L601.81 345.23ZM716.77 249.29C716.77 249.29 704.69 259.77 687.91 260.2C687.91 260.2 689.48 266.93 689.47 267.89C689.45 268.84 633.25 295.28 609.64 312.72C604.8 316.29 612.46 327.81 616.39 328.57C620.32 329.32 707.22 299.69 717.9 282.42C719.79 279.38 716 240.96 716.77 249.29ZM623.71 326.71C623.6 326.87 623.47 327.02 623.35 327.15C621.68 329.22 619.92 330.93 618.14 332.35C610.51 338.43 602.63 339.01 598.91 338.55C598.19 338.45 597.62 338.31 597.23 338.17C594.38 337.16 595.15 333.91 595.15 333.91C592.51 333.41 593.3 330.2 593.3 330.2C592.87 330.04 592.52 329.86 592.22 329.61C590.18 328.13 590.86 325.27 590.86 325.27C587.03 323.64 589.82 320.15 589.82 320.15L589.84 320.15C600.84 318.97 608.88 310.96 608.88 310.96L607.19 307.04C610 306.71 614.58 308.47 614.58 308.47C623.63 312.27 623.71 326.71 623.71 326.71Z" />
			<path id="Path 127" class="shp4" d="M618.54 169.01C618.93 171.66 619.48 174.26 620.07 176.83C620.68 179.39 621.39 181.93 622.25 184.41C623.06 186.9 624.06 189.33 625.18 191.71C626.26 194.11 627.6 196.38 628.95 198.71C627.1 196.78 625.35 194.68 624.05 192.31C622.66 189.98 621.55 187.5 620.69 184.93C618.98 179.82 618.08 174.38 618.54 169.01ZM664.56 168.24C661.67 174.13 657.27 179.16 652.55 183.69C647.77 188.2 642.36 192 636.76 195.41L632.45 197.79C631 198.57 629.49 199.21 628.02 199.93C625.09 201.4 622.01 202.56 618.95 203.73C615.89 204.87 612.72 205.74 609.62 206.75C606.44 207.52 603.26 208.27 600.07 208.96L609.38 205.98C612.42 204.82 615.52 203.83 618.5 202.55C624.48 200.05 630.39 197.35 635.93 193.99C641.52 190.75 646.82 187 651.7 182.76C654.13 180.62 656.49 178.4 658.63 175.96C660.82 173.57 662.85 171.02 664.56 168.24ZM577.33 227.28C579.68 229.68 582.12 231.9 584.75 233.88C586.05 234.88 587.41 235.82 588.8 236.71C590.18 237.62 591.64 238.39 593.1 239.24C589.84 238.4 586.78 236.79 584.09 234.75C582.75 233.72 581.47 232.59 580.34 231.34C579.21 230.09 578.15 228.76 577.33 227.28Z" />
			<path id="Path 128" class="shp6" d="M625.29 217.82C632.74 252.51 630.96 260.81 627.93 264.62C624.74 268.64 619.8 270.66 619.59 270.75L618.66 268.44L619.12 269.59L618.66 268.44C618.7 268.42 623.21 266.56 625.98 263.07C628.17 260.32 630.23 252.69 622.85 218.34L625.29 217.82Z" />
			<path id="Path 129" class="shp1" d="M622.38 267.46L622.76 268.23C623.3 269.32 622.85 270.67 621.75 271.21L618.01 273.06C616.91 273.6 615.57 273.15 615.03 272.05L614.65 271.29C614.1 270.19 614.56 268.84 615.66 268.3L619.4 266.45C620.5 265.91 621.84 266.36 622.38 267.46Z" />
			<path id="Path 130" class="shp6" d="M602.88 217.64C594.89 243.16 592.6 257.22 595.66 261.9C598.12 265.65 602.42 267.89 602.46 267.91L601.32 270.13C601.12 270.03 596.39 267.56 593.58 263.27C589.93 257.7 591.93 244.26 600.5 216.9L602.88 217.64Z" />
			<path id="Path 131" class="shp1" d="M598.85 266.6L598.4 267.33C597.76 268.37 598.09 269.75 599.13 270.39L602.68 272.58C603.73 273.22 605.11 272.89 605.75 271.85L606.2 271.12C606.84 270.08 606.51 268.7 605.46 268.06L601.91 265.87C600.87 265.23 599.49 265.56 598.85 266.6Z" />
			<path id="Path 132" class="shp7" d="M614.2 177.96C615.52 165.79 635.13 164.08 644.36 164.1C656.11 164.12 665.97 166.57 669.6 178.55C673.18 190.38 673.64 203.59 673.64 215.9C673.64 218.2 677.21 218.26 677.21 215.96C677.22 201.77 678.59 175.06 665.9 165.57C653.34 156.17 612.86 157.28 610.62 177.9C610.38 180.19 613.95 180.23 614.2 177.96Z" />
			<path id="Path 133" class="shp1" d="M683.53 222.82C683.45 227.35 679.72 230.97 675.19 230.9C670.65 230.82 667.04 227.09 667.11 222.56C667.18 218.02 670.91 214.4 675.45 214.48C679.98 214.55 683.6 218.28 683.53 222.82Z" />
			<path id="Path 134" class="shp6" d="M680.26 222.76C680.22 225.49 677.97 227.67 675.24 227.63C672.51 227.58 670.33 225.34 670.38 222.61C670.42 219.88 672.67 217.7 675.39 217.74C678.12 217.79 680.3 220.03 680.26 222.76Z" />
			<path id="Path 135" class="shp1" d="M599.7 215.78C600.57 212.24 603.04 203.46 604.92 199.09C606.46 195.5 610.18 193.2 610.18 193.2C610.68 193.18 610.66 188.82 610.57 185.25C610.49 182.11 610.33 178.45 611.13 177.47C611.9 176.53 613.8 176.55 614.55 177.45C615.36 178.41 615.24 182.08 615.21 185.23C615.16 188.8 615.21 193.15 615.7 193.17C615.7 193.17 619.22 195.59 620.76 199.06C622.47 202.93 625.41 213.21 625.92 216.19C626.55 219.91 625.32 220.31 624.25 220.62C622.74 221.06 621.84 220 620.85 215.88C619.3 209.36 617.45 198.41 612.97 198.24L612.97 198.23C608.5 198.47 606.17 209.87 604.45 216.21C603.37 220.17 602.51 220.52 600.99 220.1C599.91 219.81 598.83 219.3 599.7 215.78Z" />
			<path id="Path 136" class="shp27" d="M655.01 170C652.16 177.22 629.59 189.6 629.59 189.6C629.59 189.6 624.95 178.8 623.79 171.33C623.66 170.49 628.68 168.4 628.66 166.32C628.65 165.55 628.45 161.94 628.22 157.67C627.84 150.44 627.31 141.4 627.31 141.4L651.54 141.09C651.54 141.09 651.24 150.29 651.01 157.57C650.88 161.76 650.8 165.29 650.81 166.04C650.84 168.12 655.33 169.21 655.01 170Z" />
			<path id="Path 137" class="shp28" d="M651.54 141.09C651.54 141.09 651.24 150.3 651 157.58C641.69 160.98 633.48 159.51 628.22 157.67C627.84 150.44 627.31 141.4 627.31 141.4L651.54 141.09Z" />
			<path id="Path 138" class="shp27" d="M596.46 102.19C596.46 102.19 590.95 95.46 583.3 100.53C574.37 106.46 578.74 130.27 599.82 123.21L596.46 102.19Z" />
			<path id="Path 139" class="shp29" d="M586.58 118.32C587.36 116.99 588.57 115.83 590.1 115.2C590.86 114.87 591.72 114.73 592.56 114.75C593.42 114.73 594.24 114.99 595.04 115.26L593.99 116.05C593.46 113.44 592.49 110.7 590.7 108.89C589.77 108.01 588.59 107.49 587.26 107.43C586.6 107.34 585.93 107.48 585.23 107.55C584.55 107.68 583.89 107.94 583.17 108.1C584.37 107.33 585.7 106.57 587.24 106.46C588.76 106.27 590.45 106.75 591.66 107.79C592.89 108.8 593.7 110.16 594.32 111.53C594.89 112.92 595.31 114.33 595.48 115.86L595.63 117.19L594.44 116.64C593.19 116.07 591.79 115.82 590.42 116.17C589.04 116.5 587.71 117.27 586.58 118.32Z" />
			<path id="Path 140" class="shp27" d="M688.1 100.33C688.1 100.44 688.07 100.55 688.07 100.66C687.74 103.59 687.3 106.52 686.73 109.38C686.51 110.5 686.28 111.59 686.02 112.68C685.74 113.88 685.43 115.08 685.11 116.24C684.97 116.76 684.81 117.26 684.67 117.77C683.86 120.49 682.92 123.11 681.87 125.54C681.12 127.31 680.3 128.98 679.42 130.55C677.64 133.78 675.58 136.56 673.29 138.69C668.26 143.39 662.59 147.22 656.59 149.95C654.98 150.7 653.34 151.37 651.67 151.91C644.11 154.6 636.14 155.53 628.27 154.33C617.68 152.76 607.29 147.38 598.29 137.2C595.39 133.91 593.05 129.51 591.24 124.44C590.36 121.99 589.59 119.39 588.97 116.69C588.91 116.42 588.85 116.18 588.79 115.92C588.2 113.19 587.7 110.33 587.35 107.44C587.29 107.11 587.25 106.78 587.21 106.45C586.94 103.99 586.74 101.49 586.63 98.96C586.61 98.75 586.59 98.55 586.59 98.33C585.9 81 589.27 63.52 596.25 55.77C608.48 42.17 626.99 39.64 640.5 40.51C654.01 41.36 672.04 46.23 682.43 61.25C688.02 69.34 689.77 84.91 688.1 100.33Z" />
			<path id="Path 141" class="shp11" d="M658.27 100.47C658.27 100.47 654.54 93.75 645.81 97.43L658.27 100.47ZM595.64 99.47C595.64 99.47 599.59 92.88 608.19 96.83L595.64 99.47Z" />
			<path id="Path 142" class="shp29" d="M625.45 95.92C624.5 101.31 624.22 106.7 624.1 112.1L625.21 111.03C622.98 111 620.75 111 618.52 111.07L617.05 111.11L617.62 112.36C618.02 113.22 618.49 113.91 619.02 114.61C619.54 115.31 620.15 115.94 620.81 116.5C622.13 117.63 623.81 118.38 625.49 118.4C623.92 117.81 622.66 116.83 621.67 115.63C621.17 115.03 620.75 114.38 620.35 113.72C619.97 113.06 619.63 112.31 619.38 111.66L618.49 112.96C620.72 113.1 622.94 113.16 625.17 113.21L626.27 113.24L626.28 112.14C626.33 106.74 626.22 101.33 625.45 95.92Z" />
			<path id="Path 143" class="shp11" d="M608.53 108.33C608.49 111.16 606.27 113.41 603.58 113.37C600.9 113.33 598.75 111 598.8 108.18C598.84 105.35 601.06 103.1 603.75 103.14C606.43 103.18 608.58 105.51 608.53 108.33ZM593.24 105.43C593.93 106.36 594.84 107.06 595.68 107.17C596.57 107.26 597.16 106.89 597.86 106.06C598.56 105.31 599.31 104.3 600.4 103.64C601.48 102.95 602.84 102.79 603.96 103.15C602.81 103.44 601.9 103.99 601.17 104.67C600.45 105.37 599.88 106.24 599.08 107.17C598.66 107.6 598.19 108.09 597.48 108.38C596.78 108.65 595.99 108.66 595.33 108.4C593.95 107.88 593.34 106.57 593.24 105.43ZM645.11 108.91C645.06 111.74 647.21 114.06 649.89 114.1C652.58 114.15 654.8 111.89 654.84 109.07C654.88 106.24 652.74 103.92 650.06 103.88C647.37 103.83 645.15 106.09 645.11 108.91ZM660.69 106.5C660.55 107.63 659.9 108.92 658.51 109.4C657.84 109.64 657.06 109.6 656.36 109.31C655.67 109 655.21 108.49 654.8 108.05C654.03 107.1 653.49 106.21 652.79 105.48C652.08 104.78 651.2 104.2 650.06 103.88C651.18 103.55 652.54 103.76 653.59 104.48C654.66 105.17 655.38 106.21 656.05 106.98C656.73 107.83 657.31 108.23 658.2 108.16C659.04 108.08 659.97 107.41 660.69 106.5ZM644.66 131.05C643.26 133.2 640.58 135.21 636.19 135.89C631.77 136.56 628.59 135.44 626.64 133.81C624.54 132.09 623.83 129.78 624.51 128.45C624.58 128.3 624.67 128.17 624.78 128.06C626.5 125.98 632.24 126.45 634.68 126.07C637.27 125.67 643.07 123.26 645.08 125.29C645.27 125.49 645.42 125.71 645.53 126C646.05 127.23 645.85 129.18 644.66 131.05Z" />
			<path id="Path 144" class="shp12" d="M626.64 133.81C628.59 135.45 631.77 136.56 636.18 135.89C640.57 135.21 643.27 133.19 644.66 131.04C642.18 129.72 638.79 129.18 635.23 129.72C631.68 130.27 628.61 131.81 626.64 133.81Z" />
			<path id="Path 145" class="shp18" d="M645.53 126C643.28 126.88 640.39 127.67 637.19 128.17C631.93 129.01 627.24 128.91 624.78 128.06C626.5 125.98 632.24 126.45 634.68 126.07C637.27 125.67 643.07 123.26 645.08 125.29C645.27 125.49 645.42 125.71 645.53 126Z" />
			<path id="Path 146" class="shp11" d="M642.63 56.57C642.63 56.57 642.54 75.84 660.64 89.29C677.41 101.76 673.36 112.99 677.02 112.94C680.69 112.89 677.91 100.78 688.85 100.62C694.14 100.55 702.23 44 653.25 40.66C653.25 40.66 621.4 24.06 597.57 47.73C573.74 71.4 585.04 98.49 587 98.61C588.97 98.72 589.76 90.14 601.99 82.61C609.08 78.26 628.84 71.44 642.63 56.57Z" />
			<path id="Path 147" class="shp27" d="M682.2 103.55C682.2 103.55 687.92 96.99 695.41 102.31C704.15 108.52 699.02 132.17 678.18 124.46L682.2 103.55Z" />
			<path id="Path 148" class="shp29" d="M691.57 119.98C690.47 118.9 689.16 118.09 687.8 117.72C686.43 117.32 685.03 117.53 683.77 118.06L682.55 118.57L682.75 117.24C682.97 115.72 683.43 114.33 684.05 112.95C684.7 111.6 685.56 110.27 686.82 109.29C688.06 108.3 689.77 107.87 691.28 108.11C692.82 108.27 694.12 109.07 695.29 109.87C694.59 109.69 693.94 109.41 693.26 109.26C692.56 109.17 691.89 109.01 691.23 109.08C689.9 109.1 688.7 109.58 687.75 110.42C685.89 112.18 684.85 114.89 684.23 117.48L683.21 116.66C684.01 116.41 684.84 116.18 685.7 116.23C686.54 116.23 687.39 116.4 688.14 116.76C689.66 117.43 690.83 118.63 691.57 119.98Z" />
			<path id="Path 149" class="shp11" d="M690.38 198.46C655.99 222.16 659.79 252.27 659.79 252.27C639.75 212.48 665.33 193 671.14 181.81C676.95 170.64 665.55 164.93 659.24 155.26C658.09 153.48 657.22 151.69 656.63 149.95C662.63 147.22 668.31 143.39 673.33 138.69C675.62 136.56 677.68 133.78 679.47 130.55C694.91 138.48 721.42 177.08 690.38 198.46Z" />
			<path id="Path 150" class="shp3" d="M629.85 371.7C631.65 371.99 633.4 372.65 634.93 373.68C635.69 374.19 636.37 374.83 636.94 375.57C637.24 375.93 637.47 376.33 637.7 376.74C637.86 377.18 638.01 377.66 638.08 378.1C638.79 381.69 639.27 385.3 639.79 388.91C640.75 396.15 641.61 403.39 642.46 410.63C644.14 425.12 645.6 439.62 647.11 454.13C648.49 468.64 649.92 483.15 651.19 497.68L653.04 519.47L654.7 541.28L652.24 519.55L649.93 497.8L645.48 454.29L641.21 410.76L639 389.01C638.61 385.39 638.26 381.76 637.69 378.17C637.63 377.71 637.51 377.31 637.39 376.89C637.18 376.5 636.98 376.1 636.7 375.75C636.18 375.02 635.54 374.37 634.81 373.84C633.35 372.78 631.64 372.05 629.85 371.7Z" />
			<path id="Path 151" class="shp4" d="M697.43 538.6C694.33 540.6 690.79 541.85 687.22 542.76C683.62 543.65 679.92 544.04 676.23 544.2C672.53 544.19 668.83 543.99 665.19 543.35C663.36 543.08 661.58 542.58 659.78 542.21C658.01 541.7 656.25 541.14 654.51 540.57C658.11 541.33 661.68 542.09 665.31 542.51C668.93 542.98 672.57 543.18 676.21 543.11C679.84 543.04 683.46 542.64 687.03 541.94C690.59 541.21 694.12 540.2 697.43 538.6ZM653.62 532.34C651.13 533.55 648.42 534.27 645.7 534.75C642.96 535.23 640.17 535.39 637.4 535.35C634.63 535.19 631.85 534.96 629.15 534.31C627.79 534.05 626.47 533.6 625.14 533.23C623.83 532.79 622.54 532.28 621.27 531.76C623.95 532.4 626.6 533.08 629.31 533.48C631.99 533.95 634.71 534.18 637.43 534.26C640.15 534.39 642.87 534.21 645.58 533.92C648.28 533.61 650.98 533.13 653.62 532.34Z" />
			<path id="Path 152" class="shp28" d="M621.36 339.74C614.39 343.97 605.07 344.44 601.54 344.45C600.93 342.92 600.04 340.91 598.91 338.55C602.63 339.01 610.51 338.43 618.15 332.35C619.46 335.37 620.58 337.91 621.36 339.74ZM589.85 320.15C589.85 320.15 601.49 318.72 608.88 310.96L606.16 304.63C606.16 304.63 599.33 310.88 587.51 315.43L589.85 320.15Z" />
		</g>
		<g id="Folder 1" style="display: none">
			<path id="Path 153" class="shp0" d="M633.05 668.57C633.05 682.91 571.29 694.54 495.1 694.54C418.91 694.54 357.14 682.91 357.14 668.57C357.14 654.22 418.91 642.59 495.1 642.59C571.29 642.59 633.05 654.22 633.05 668.57Z" />
			<path id="Path 154" class="shp23" d="M455.84 455.45C455.84 455.45 453.43 490.92 453.8 500.62C454.17 510.33 469.89 618.41 469.22 620.75C468.56 623.09 434.74 644.54 437.41 648.22C440.09 651.9 492.31 633.13 492.31 629.11C492.31 625.1 491.91 621.55 492.31 619.08C499.38 575.46 513.07 539.6 489.97 496.27L495.32 455.45L455.84 455.45Z" />
			<path id="Path 155" class="shp28" d="M455.84 455.45C455.84 455.45 453.43 490.92 453.8 500.62C454.17 510.33 469.89 618.41 469.22 620.75C468.56 623.09 434.74 644.54 437.41 648.22C440.09 651.9 492.31 633.13 492.31 629.11C492.31 625.1 491.91 621.55 492.31 619.08C499.38 575.46 513.07 539.6 489.97 496.27L495.32 455.45L455.84 455.45Z" />
			<path id="Path 156" class="shp11" d="M458.97 628.9C458.97 628.9 428.75 648.64 432.48 651.66C440.59 658.2 484.13 640.28 484.13 640.28L484.13 644.87C484.13 644.87 489.57 647.33 493.6 644.87C493.6 644.87 498.27 631.89 492.25 626.11C492.25 626.11 447.96 645.8 445.2 641.89C443.37 639.31 458.97 628.9 458.97 628.9Z" />
			<path id="Path 157" class="shp23" d="M487.95 455.45C487.95 455.45 485.37 493.48 485.76 503.88C486.16 514.29 503.02 630.17 502.3 632.68C501.59 635.19 458.18 667.48 461.05 671.43C463.92 675.37 527.06 645.95 527.06 641.65C527.06 637.34 526.63 633.54 527.06 630.89C534.64 584.12 549.32 545.67 524.55 499.22L530.29 455.45L487.95 455.45Z" />
			<path id="Path 158" class="shp11" d="M427.15 392.89L549.99 394.25C549.99 394.25 561.8 444.53 546.1 497.78C544.6 502.89 473.7 519.98 438.42 494.19C435.18 491.82 427.15 392.89 427.15 392.89ZM478.46 653.09C478.46 653.09 468.75 660.29 469.6 663.27C470.09 664.98 500.52 656.79 527.03 639.6C527.03 639.6 534.46 647.72 527.95 666.76C527.95 666.76 523.77 669.6 516.25 666.76L516.25 661.75C516.25 661.75 463.17 677.47 459.69 670.81C457.91 667.41 478.46 653.09 478.46 653.09Z" />
			<path id="Path 159" class="shp10" d="M447.74 22.98C447.74 22.98 470.62 7.12 491.19 9.6C513.87 12.33 555.4 53.46 553.19 87.9C551.04 121.22 528.74 127.02 527.9 151.86C527.05 176.69 544.19 184.33 541.1 210.4C538.01 236.48 512.97 250.88 512.97 250.88C512.97 250.88 525.18 219.41 512.34 199.14C499.51 178.88 426.9 161.11 410.2 130.76C392.76 99.06 397.14 53.83 412.17 37.55C427.19 21.27 447.74 22.98 447.74 22.98Z" />
			<path id="Path 160" class="shp27" d="M414.38 381.22C414.29 382.34 410.06 396.61 410.18 400.45C410.3 404.29 412.07 414.39 413.73 415.3C415.38 416.21 415.57 415 415.57 415C415.57 415 417.32 421 418.5 421.49C419.68 421.99 420.12 421.43 420.12 421.43C420.12 421.43 422.24 424.46 423.52 424.53C424.79 424.61 425.86 421.37 425.86 421.37C425.86 421.37 426.79 423.66 428.55 423.02C429.85 422.54 430.26 405.29 430.64 405.07C433.12 403.7 429.25 415.02 432.33 415.2C433.37 415.26 439.73 403.84 437.78 397.82C436.15 392.77 434.67 384.24 434.67 384.24L414.38 381.22Z" />
			<path id="Path 161" class="shp6" d="M457.48 171.39C457.48 171.39 428.86 194.15 423.41 215.1C417.96 236.06 411.21 385.26 411.42 388.5C411.63 391.75 422.02 400.89 432.92 400.72C443.83 400.55 443.35 227.47 445.19 222.26C447.04 217.05 457.48 171.39 457.48 171.39ZM558.04 423.63C554.68 427.52 525.58 457.04 462.11 441.68C459.73 441.09 453.51 413.15 453.51 413.15C453.51 413.15 448.71 437.47 446.06 438.61C443.41 439.76 430.06 434.76 424.76 428.96C422.55 426.53 420.21 240.33 433.2 206.88C438.09 194.33 457.65 165.11 470.31 163.58C493.27 160.8 526.41 189.86 532.33 200.68C535.82 207.04 545.26 281.83 551.75 343.08L551.77 343.1C552.27 347.83 552.74 352.46 553.21 356.99C556.93 393.43 559.26 422.2 558.04 423.63Z" />
			<path id="Path 162" class="shp20" d="M553.21 356.99C551.02 368.65 531.1 392.3 531.1 392.3L548.46 337.54C548.46 337.54 550.25 339.55 551.75 343.08L551.77 343.1C552.27 347.83 552.74 352.46 553.21 356.99Z" />
			<path id="Path 163" class="shp6" d="M513.09 180.99C513.09 180.99 540.75 204.54 544.36 214.65C553.62 240.58 560.86 321.36 560.2 326.04C557.58 344.48 529.13 395.9 529.13 395.9C529.13 395.9 508.47 391.67 504.59 374.84C504.59 374.84 530.51 327.09 530.88 318.69C531 315.99 513.09 180.99 513.09 180.99Z" />
			<path id="Path 164" class="shp22" d="M518.55 226.4C520.88 239.13 522.93 251.9 524.89 264.68C526.85 277.46 528.59 290.28 530.24 303.12C530.61 306.33 530.97 309.55 531.27 312.78C531.42 314.4 531.56 316.01 531.65 317.66C531.67 318.53 531.76 319.21 531.62 320.34C531.38 321.34 531.01 322.03 530.68 322.79C527.99 328.72 525.2 334.53 522.29 340.31C516.53 351.9 510.68 363.43 504.59 374.84L512.61 357.17L520.77 339.58C523.43 333.7 526.29 327.88 528.86 321.99C529.16 321.28 529.52 320.49 529.65 319.93C529.69 319.46 529.65 318.51 529.6 317.77C529.51 316.19 529.35 314.59 529.19 312.99L528.07 303.38C526.61 290.55 524.83 277.74 523.23 264.91L520.81 245.67L518.55 226.4ZM512.59 231.16C514.51 231.89 515.96 233.09 517.29 234.39C518.57 235.75 519.73 237.22 520.41 239.16C518.49 238.43 517.05 237.24 515.72 235.92C514.44 234.57 513.28 233.1 512.59 231.16ZM423.36 400.23C422.99 385.98 422.92 371.73 422.93 357.48C422.94 343.24 423.17 328.99 423.39 314.74C423.79 300.49 424.12 286.25 424.85 272.01C425.65 257.79 426.28 243.5 428.55 229.41C427.83 236.51 427.44 243.61 427.22 250.73C426.89 257.84 426.7 264.96 426.53 272.07C426.15 286.31 425.81 300.55 425.57 314.79L424.61 357.51C424.25 371.75 423.9 385.99 423.36 400.23ZM423.94 232.94C425.23 234.15 425.89 235.56 426.39 237.02C426.83 238.5 427.11 240.03 426.75 241.76C425.46 240.55 424.8 239.14 424.3 237.68C423.87 236.2 423.59 234.67 423.94 232.94Z" />
			<path id="Path 165" fill-rule="evenodd" class="shp20" d="M455.23 278.98L454.82 287.36L454.57 295.75C454.42 301.33 454.26 306.92 454.22 312.51C454.07 323.68 453.9 334.86 453.95 346.04L453.8 379.59L453.72 396.36L453.52 413.15C452.79 401.97 452.41 390.79 452.12 379.6C451.82 368.42 451.79 357.22 451.76 346.03C451.9 334.84 452.03 323.64 452.54 312.46C453.07 301.28 453.7 290.08 455.23 278.98ZM463.26 305.58C463.19 305.58 463.12 305.58 463.06 305.57C461.15 305.47 459.68 303.83 459.78 301.91C459.83 300.99 460.24 300.14 460.94 299.52C461.63 298.9 462.55 298.57 463.44 298.64C464.37 298.69 465.22 299.1 465.84 299.79C466.46 300.48 466.77 301.37 466.72 302.3C466.67 303.23 466.26 304.08 465.57 304.7C464.92 305.27 464.11 305.58 463.26 305.58ZM463.25 300.83C462.93 300.83 462.63 300.94 462.4 301.15C462.14 301.38 461.99 301.69 461.97 302.03C461.93 302.74 462.47 303.35 463.18 303.39C463.56 303.4 463.85 303.29 464.1 303.06C464.36 302.83 464.51 302.52 464.53 302.18C464.55 301.84 464.43 301.51 464.21 301.25C463.98 301 463.67 300.85 463.32 300.83C463.3 300.83 463.27 300.83 463.25 300.83Z" />
			<path id="Path 166" fill-rule="evenodd" class="shp20" d="M462.35 333.84C462.29 333.84 462.22 333.83 462.16 333.83C461.23 333.78 460.38 333.37 459.76 332.68C459.14 331.99 458.83 331.1 458.89 330.17C458.99 328.26 460.74 326.77 462.54 326.9C463.47 326.95 464.32 327.36 464.94 328.05C465.56 328.74 465.87 329.63 465.82 330.56C465.72 332.4 464.18 333.84 462.35 333.84ZM462.35 329.08C461.68 329.08 461.11 329.61 461.07 330.29C461.05 330.63 461.17 330.96 461.4 331.22C461.62 331.47 461.94 331.62 462.28 331.64C463.03 331.64 463.59 331.14 463.63 330.44C463.65 330.09 463.54 329.76 463.31 329.51C463.08 329.26 462.76 329.1 462.42 329.08C462.4 329.08 462.38 329.08 462.35 329.08ZM462.41 362.15C462.35 362.15 462.28 362.14 462.21 362.14C461.29 362.09 460.44 361.68 459.82 360.99C459.2 360.3 458.89 359.41 458.94 358.48C459.05 356.57 460.77 355.09 462.6 355.21C463.53 355.26 464.37 355.67 464.99 356.36C465.61 357.05 465.93 357.94 465.87 358.86C465.82 359.79 465.41 360.65 464.72 361.27C464.08 361.84 463.27 362.15 462.41 362.15ZM462.41 357.39C461.73 357.39 461.17 357.92 461.13 358.6C461.11 358.94 461.22 359.27 461.45 359.53C461.68 359.78 461.99 359.93 462.33 359.95C462.68 359.95 463.01 359.86 463.26 359.63C463.52 359.4 463.67 359.09 463.69 358.75C463.7 358.4 463.59 358.07 463.36 357.82C463.13 357.56 462.82 357.41 462.48 357.39C462.45 357.39 462.43 357.39 462.41 357.39ZM462.36 390.45C462.29 390.45 462.23 390.45 462.16 390.45C461.24 390.4 460.39 389.99 459.77 389.29C459.15 388.6 458.84 387.71 458.89 386.79C459 384.87 460.74 383.41 462.55 383.51C463.48 383.57 464.32 383.97 464.94 384.66C465.56 385.36 465.87 386.25 465.82 387.17C465.72 389.02 464.19 390.45 462.36 390.45ZM462.36 385.7C461.68 385.7 461.12 386.23 461.08 386.91C461.06 387.25 461.17 387.58 461.4 387.83C461.63 388.09 461.94 388.24 462.28 388.26C463.03 388.25 463.59 387.75 463.64 387.05C463.65 386.71 463.54 386.38 463.31 386.13C463.08 385.87 462.77 385.72 462.43 385.7C462.4 385.7 462.38 385.7 462.36 385.7ZM502.51 370.95C504.5 373.97 506.91 376.6 509.45 379.04C512.03 381.44 514.77 383.65 517.77 385.48C519.27 386.38 520.76 387.32 522.36 388.05L524.73 389.22L527.19 390.21C528.8 390.95 530.52 391.39 532.2 392.01C533.89 392.6 535.64 392.95 537.37 393.54C535.57 393.44 533.76 393.3 531.95 393.06C530.18 392.67 528.35 392.45 526.62 391.83C523.08 390.88 519.77 389.2 516.6 387.34C513.48 385.38 510.65 382.97 508.22 380.22C505.79 377.49 503.75 374.36 502.51 370.95ZM507.34 185.22C507.34 185.22 512.63 200.08 510.91 202.1C509.19 204.11 495.27 198.97 495.27 198.97C495.27 198.97 509.78 214.65 508.08 216.43C487.45 238.02 456.7 276.68 456.7 276.68L496.23 180.05L507.34 185.22ZM454.89 184.71L454.51 277.63C445.33 264.87 434.72 211.96 434.96 207.61C435.2 203.26 448.52 190.97 448.52 190.97C443.58 189.58 441.13 186.85 441.13 186.85L454.89 184.71Z" />
			<path id="Path 167" fill-rule="evenodd" class="shp20" d="M483.87 258.58C489.38 258.77 494.89 258.8 500.39 258.57C505.88 258.41 511.37 258.04 516.82 257.43L517.66 257.34L517.72 258.21C518.28 266.77 518.61 275.34 519.07 283.91L519.22 287.12L519.3 288.73L519.34 289.53C519.3 289.86 519.52 289.84 519.18 290.8C518.62 291.7 518.16 291.9 517.68 292.29C517.2 292.63 516.72 292.92 516.24 293.2C515.28 293.75 514.31 294.24 513.33 294.71C509.41 296.58 505.48 298.24 501.38 299.74C501.09 299.83 500.9 299.91 500.48 300.01C500.24 300.04 499.93 300.01 499.67 299.97L499.22 299.84C498.63 299.66 498.13 299.46 497.62 299.24C496.6 298.83 495.63 298.37 494.65 297.91C492.7 296.98 490.78 296.01 488.88 294.99C487.93 294.47 486.99 293.94 486.06 293.37C485.59 293.1 485.13 292.8 484.67 292.49C484.42 292.31 484.21 292.18 483.94 291.96C483.81 291.82 483.66 291.71 483.54 291.55C483.45 291.35 483.37 291.14 483.3 290.92C483.04 289.58 483.07 288.63 483.01 287.51L482.98 284.28C482.97 275.69 483.37 267.13 483.87 258.58ZM483.87 258.58C483.93 261.56 483.97 264.53 484.02 267.51C486.71 267.84 489.41 268 492.1 268.1C494.91 268.2 497.7 268.25 500.5 268.15C505.78 268.09 511.05 267.64 516.34 267.22C516.25 264.52 516.16 261.83 516.09 259.13C510.86 259.5 505.63 259.68 500.4 259.61C494.87 259.49 489.35 259.25 483.87 258.58ZM484.37 284.25L484.52 287.44C484.59 288.45 484.68 289.66 484.84 290.41C484.68 290.57 485.19 290.79 485.58 291.09L486.93 291.87C487.85 292.39 488.8 292.87 489.74 293.36C491.62 294.34 493.54 295.28 495.46 296.17C496.43 296.6 497.4 297.04 498.36 297.43C498.84 297.62 499.34 297.81 499.78 297.94L500.08 298.03C500.08 298.04 500.07 298.05 500.08 298.06L500.72 297.85C504.65 296.37 508.59 294.65 512.38 292.79C513.32 292.31 514.25 291.83 515.15 291.3C515.59 291.04 516.04 290.79 516.43 290.51C516.73 290.32 517.08 290.01 517.21 289.88C517.21 289.77 517.21 289.61 517.2 289.52L517.17 288.72L517.1 287.12L516.98 283.92C516.79 278.4 516.55 272.88 516.35 267.36C513.92 267.91 511.46 268.32 508.98 268.63C506.18 268.99 503.35 269.13 500.53 269.25C497.7 269.25 494.87 269.22 492.05 268.94C489.35 268.67 486.64 268.3 484.02 267.56C484.1 273.13 484.2 278.7 484.37 284.25ZM500.08 298.03C500.09 298.02 500.1 298.02 500.1 298.03L500.08 298.03ZM517.21 289.88C517.21 290.03 517.21 290.09 517.26 289.83C517.26 289.83 517.24 289.85 517.21 289.88ZM516.09 259.13C516.39 259.11 516.68 259.09 516.98 259.07L516.07 258.29C516.08 258.57 516.09 258.85 516.09 259.13Z" />
			<path id="Path 168" class="shp7" d="M492.38 220.24C484.38 254.8 486.03 263.14 489 266.99C492.13 271.06 497.04 273.16 497.24 273.25L498.21 270.95L497.73 272.1L498.21 270.95C498.17 270.94 493.69 269.01 490.97 265.48C488.83 262.69 486.89 255.02 494.81 220.8L492.38 220.24Z" />
			<path id="Path 169" class="shp1" d="M494.51 269.92L494.12 270.68C493.55 271.77 493.99 273.12 495.08 273.68L498.79 275.59C499.88 276.15 501.23 275.71 501.79 274.63L502.18 273.87C502.74 272.78 502.3 271.43 501.21 270.87L497.51 268.96C496.42 268.4 495.07 268.83 494.51 269.92Z" />
			<path id="Path 170" class="shp7" d="M514.79 220.42C522.38 246.06 524.45 260.15 521.31 264.78C518.8 268.49 514.46 270.67 514.41 270.69L515.52 272.92C515.72 272.82 520.49 270.42 523.37 266.18C527.11 260.67 525.32 247.21 517.18 219.71L514.79 220.42Z" />
			<path id="Path 171" class="shp1" d="M518.05 269.43L518.49 270.17C519.11 271.22 518.76 272.59 517.71 273.22L514.12 275.35C513.07 275.97 511.69 275.62 511.07 274.57L510.63 273.83C510.01 272.78 510.36 271.41 511.41 270.78L515 268.65C516.05 268.03 517.43 268.38 518.05 269.43Z" />
			<path id="Path 172" class="shp7" d="M504.11 180.56C502.98 168.37 483.4 166.35 474.17 166.22C462.42 166.06 452.52 168.35 448.7 180.27C444.93 192.05 444.27 205.24 444.07 217.56C444.04 219.85 440.46 219.86 440.5 217.56C440.72 203.36 439.77 176.64 452.6 167.35C465.31 158.16 505.77 159.9 507.68 180.56C507.89 182.85 504.32 182.83 504.11 180.56Z" />
			<path id="Path 173" class="shp1" d="M434.08 224.31C434.08 228.84 437.75 232.52 442.29 232.52C446.82 232.52 450.5 228.84 450.5 224.31C450.5 219.78 446.82 216.1 442.29 216.1C437.75 216.1 434.08 219.78 434.08 224.31Z" />
			<path id="Path 174" class="shp6" d="M437.34 224.31C437.34 227.04 439.56 229.25 442.29 229.25C445.02 229.25 447.23 227.04 447.23 224.31C447.23 221.58 445.02 219.37 442.29 219.37C439.56 219.37 437.34 221.58 437.34 224.31Z" />
			<path id="Path 175" class="shp1" d="M518.01 218.6C517.19 215.05 514.86 206.24 513.05 201.84C511.57 198.22 507.88 195.87 507.88 195.87C507.38 195.83 507.47 191.47 507.61 187.91C507.75 184.76 507.97 181.11 507.19 180.12C506.43 179.16 504.53 179.16 503.76 180.05C502.93 181 503 184.66 502.98 187.81C502.97 191.38 502.86 195.73 502.36 195.75C502.36 195.75 498.81 198.1 497.21 201.55C495.44 205.4 492.34 215.62 491.78 218.6C491.1 222.31 492.32 222.72 493.38 223.05C494.88 223.52 495.8 222.47 496.85 218.37C498.51 211.87 500.53 200.96 505.01 200.85L505.01 200.84C509.48 201.16 511.63 212.6 513.25 218.96C514.26 222.94 515.12 223.3 516.65 222.9C517.72 222.63 518.82 222.14 518.01 218.6Z" />
			<path id="Path 176" class="shp12" d="M478.1 164.77C468.5 164.24 458.52 165.65 450.49 185.5C442.45 205.35 455.55 275.75 455.55 275.75C455.55 275.75 493.45 198.94 496.1 189.85C498.75 180.75 500.63 166.03 478.1 164.77Z" />
			<path id="Path 177" class="shp23" d="M494.03 173.14C484.21 182.57 465.54 200.21 465.54 200.21C465.54 200.21 460.58 182.05 459.58 173.36C459.47 172.4 463.63 169.92 463.63 167.59C463.63 166.73 463.46 162.67 463.26 157.88C462.94 149.77 462.47 139.62 462.47 139.62L489.66 139.62C489.66 139.62 489.19 149.94 488.82 158.1C488.63 162.8 488.48 166.75 488.48 167.59C488.48 169.92 494.73 172.48 494.03 173.14Z" />
			<path id="Path 178" class="shp24" d="M489.66 139.62C489.66 139.62 489.19 149.94 488.82 158.1C478.33 161.79 469.13 160.02 463.26 157.88C462.94 149.77 462.47 139.62 462.47 139.62L489.66 139.62Z" />
			<path id="Path 179" class="shp23" d="M424.93 94.12C424.93 94.12 418.63 86.67 410.14 92.5C400.23 99.3 405.55 125.92 429.07 117.64L424.93 94.12Z" />
			<path id="Path 180" class="shp25" d="M414.13 112.39C414.99 110.88 416.32 109.56 418.03 108.83C418.88 108.44 419.83 108.27 420.78 108.28C421.75 108.24 422.67 108.51 423.57 108.81L422.41 109.7C421.76 106.79 420.63 103.74 418.59 101.73C417.53 100.77 416.19 100.21 414.71 100.16C413.96 100.07 413.21 100.24 412.43 100.33C411.67 100.49 410.93 100.79 410.13 100.98C411.46 100.1 412.93 99.22 414.67 99.07C416.36 98.83 418.27 99.34 419.65 100.48C421.05 101.6 421.98 103.1 422.69 104.63C423.36 106.19 423.85 107.76 424.08 109.46L424.27 110.96L422.92 110.36C421.51 109.74 419.94 109.49 418.4 109.91C416.86 110.3 415.38 111.19 414.13 112.39Z" />
			<path id="Path 181" class="shp23" d="M527.18 94.12C527.18 94.12 533.48 86.67 541.97 92.5C551.88 99.3 546.56 125.92 523.04 117.64L527.18 94.12Z" />
			<path id="Path 182" class="shp25" d="M537.98 112.39C536.73 111.19 535.25 110.3 533.71 109.91C532.17 109.49 530.6 109.74 529.2 110.36L527.84 110.96L528.03 109.46C528.26 107.76 528.75 106.19 529.42 104.63C530.13 103.1 531.06 101.6 532.46 100.48C533.84 99.34 535.75 98.83 537.44 99.07C539.18 99.22 540.65 100.1 541.98 100.98C541.18 100.79 540.44 100.49 539.68 100.33C538.9 100.24 538.15 100.07 537.4 100.16C535.92 100.21 534.58 100.77 533.52 101.73C531.48 103.74 530.35 106.79 529.7 109.7L528.54 108.81C529.44 108.51 530.36 108.24 531.33 108.28C532.28 108.27 533.23 108.44 534.08 108.83C535.79 109.56 537.12 110.88 537.98 112.39Z" />
			<path id="Path 183" class="shp23" d="M518.32 134.69C503.28 151.8 476.06 151.71 476.06 151.71C476.06 151.71 448.85 151.8 433.78 134.69C417.53 116.19 413.93 61.68 427.62 44.33C440.34 28.26 460.87 24.1 476.06 24.1C491.24 24.1 511.76 28.26 524.48 44.33C538.18 61.68 534.6 116.19 518.32 134.69Z" />
			<path id="Path 184" class="shp11" d="M453.78 100.79C453.78 103.96 451.34 106.53 448.33 106.53C445.31 106.53 442.87 103.96 442.87 100.79C442.87 97.63 445.31 95.06 448.33 95.06C451.34 95.06 453.78 97.63 453.78 100.79ZM508.28 100.79C508.28 103.96 505.83 106.53 502.82 106.53C499.81 106.53 497.36 103.96 497.36 100.79C497.36 97.63 499.81 95.06 502.82 95.06C505.83 95.06 508.28 97.63 508.28 100.79Z" />
			<path id="Path 185" class="shp10" d="M439.17 86.7C439.17 86.7 443.48 79.24 453.2 83.52M512.08 86.7C512.08 86.7 507.77 79.24 498.04 83.52" />
			<path id="Path 186" class="shp25" d="M475.21 86.58C474.25 92.63 474.03 98.69 473.98 104.75L475.21 103.52C472.7 103.53 470.2 103.57 467.7 103.69L466.06 103.76L466.72 105.15C467.18 106.11 467.73 106.87 468.33 107.66C468.92 108.43 469.62 109.12 470.37 109.74C471.87 110.98 473.77 111.8 475.65 111.79C473.88 111.16 472.45 110.08 471.32 108.75C470.75 108.09 470.26 107.37 469.81 106.63C469.36 105.9 468.98 105.07 468.68 104.34L467.7 105.81C470.2 105.92 472.7 105.96 475.21 105.97L476.44 105.98L476.43 104.75C476.39 98.69 476.16 92.63 475.21 86.58Z" />
			<path id="Path 187" class="shp11" d="M479.84 123.79C483.15 124.22 486.28 124.24 488.95 123.05C490.27 122.46 491.54 121.68 492.62 120.59C493.22 120.11 493.66 119.45 494.24 118.89C494.76 118.28 495.22 117.61 495.82 116.98C495.67 117.81 495.45 118.63 495.16 119.44C494.77 120.19 494.49 121.04 493.91 121.71C492.96 123.19 491.44 124.31 489.81 125.06C488.14 125.77 486.29 126 484.55 125.73C482.82 125.48 481.17 124.85 479.84 123.79ZM514.11 98.15C513.95 99.35 513.25 100.7 511.78 101.2C511.08 101.44 510.26 101.4 509.53 101.1C508.81 100.77 508.33 100.24 507.9 99.77C507.08 98.77 506.51 97.82 505.74 97.05C504.99 96.3 504.03 95.7 502.82 95.37C504.01 95.05 505.44 95.28 506.55 96.05C507.67 96.78 508.43 97.87 509.15 98.7C509.87 99.61 510.51 100.04 511.48 99.96C512.39 99.86 513.36 99.13 514.11 98.15ZM437.22 98.15C437.96 99.13 438.94 99.86 439.85 99.96C440.82 100.04 441.46 99.61 442.18 98.7C442.9 97.87 443.66 96.78 444.78 96.05C445.89 95.28 447.32 95.05 448.51 95.37C447.3 95.7 446.34 96.3 445.59 97.05C444.82 97.82 444.25 98.77 443.43 99.77C443 100.24 442.52 100.77 441.8 101.1C441.07 101.4 440.25 101.44 439.55 101.2C438.08 100.7 437.38 99.35 437.22 98.15Z" />
			<path id="Path 188" class="shp10" d="M417.24 90.29C418.11 94.02 419.4 104.6 422.69 104.63C425.98 104.65 424.35 82.61 426.94 76.74C429.52 70.87 459.24 78.26 502.82 39.79C502.82 39.79 508.52 66.68 526.25 84.45C530.01 88.21 524.37 102.96 529.42 104.63C534.47 106.3 556.66 21.76 476.06 21.76C414.01 21.76 412.11 68.3 417.24 90.29Z" />
			<path id="Path 189" class="shp6" d="M463.18 167.19C463.18 167.19 445.61 175.01 437.14 186.76C435.96 188.4 448.24 190.08 448.24 190.08C448.24 190.08 436.02 199.59 436.2 203.62C436.38 207.66 443.4 261.92 453.97 280.58C453.97 280.58 454.06 186.69 463.18 167.19ZM455.23 278.98C455.23 278.98 477.19 244.21 487.95 232.4C498.71 220.59 504.67 213.68 507.01 211.59C509.35 209.49 494.47 195.02 494.47 195.02C494.47 195.02 510.68 200.65 511.08 198.45C511.49 196.24 510.53 183.38 493.52 168.79C493.52 168.79 458.93 233.83 455.23 278.98Z" />
		</g>
	</g>
</svg>